M48
; DRILL file {KiCad (6.0.5-0)} date Monday, October 17, 2022 at 06:29:27 pm
; FORMAT={-:-/ absolute / inch / decimal}
; #@! TF.CreationDate,2022-10-17T18:29:27-07:00
; #@! TF.GenerationSoftware,Kicad,Pcbnew,(6.0.5-0)
; #@! TF.FileFunction,Plated,1,2,PTH
FMAT,2
INCH
; #@! TA.AperFunction,Plated,PTH,ViaDrill
T1C0.0157
; #@! TA.AperFunction,Plated,PTH,ComponentDrill
T2C0.0300
; #@! TA.AperFunction,Plated,PTH,ComponentDrill
T3C0.0315
; #@! TA.AperFunction,Plated,PTH,ComponentDrill
T4C0.0394
; #@! TA.AperFunction,Plated,PTH,ComponentDrill
T5C0.0433
; #@! TA.AperFunction,Plated,PTH,ComponentDrill
T6C0.0591
; #@! TA.AperFunction,Plated,PTH,ComponentDrill
T7C0.0669
; #@! TA.AperFunction,Plated,PTH,ComponentDrill
T8C0.1000
%
G90
G05
T1
X1.34Y-0.93
X1.35Y-2.75
X1.38Y-0.89
X1.4Y-2.7
X1.45Y-2.575
X1.52Y-1.35
X1.625Y-2.65
X1.78Y-1.26
X1.82Y-1.29
X1.85Y-1.09
X1.85Y-2.62
X2.06Y-1.38
X2.08Y-3.09
X2.08Y-3.78
X2.225Y-2.1
X2.24Y-1.19
X2.3Y-1.41
X2.34Y-1.52
X2.5Y-2.95
X2.55Y-0.99
X2.55Y-2.95
X2.7Y-2.97
X2.7205Y-3.6626
X2.75Y-3.12
X2.77Y-1.8
X2.7798Y-1.2302
X2.79Y-2.38
X2.8298Y-1.3702
X2.85Y-1.775
X2.875Y-3.8
X2.88Y-1.66
X2.9Y-2.125
X3.075Y-3.8
X3.35Y-1.35
X3.375Y-2.875
X3.44Y-3.78
X3.44Y-3.93
X3.4425Y-1.3175
T2
X1.2213Y-1.475
X1.2213Y-1.575
X1.2213Y-1.675
X1.2213Y-1.775
X1.2213Y-1.875
X1.2213Y-1.975
X1.2213Y-2.075
X1.2213Y-2.175
X1.2213Y-2.275
X1.2213Y-2.375
X1.2213Y-2.475
X1.2213Y-2.575
X1.225Y-3.34
X1.225Y-3.44
X1.225Y-3.54
X1.225Y-3.64
X1.225Y-3.74
X1.3561Y-4.08
X2.0213Y-1.475
X2.0213Y-1.575
X2.0213Y-1.675
X2.0213Y-1.775
X2.0213Y-1.875
X2.0213Y-1.975
X2.0213Y-2.075
X2.0213Y-2.175
X2.0213Y-2.275
X2.0213Y-2.375
X2.0213Y-2.475
X2.0213Y-2.575
X2.0213Y-2.675
X2.0213Y-2.775
X2.0213Y-2.875
X2.0213Y-2.975
X2.225Y-3.34
X2.225Y-3.44
X2.225Y-3.54
X2.225Y-3.64
X2.225Y-3.74
X2.225Y-3.84
X2.225Y-3.94
X2.225Y-4.04
X2.225Y-4.14
X3.0787Y-2.5
X3.0787Y-2.6
X3.0787Y-2.7
X3.0787Y-2.8
X3.0787Y-2.9
X3.0787Y-3.0
X3.0787Y-3.1
X3.0887Y-1.425
X3.0887Y-1.525
X3.0887Y-1.625
X3.0887Y-1.725
X3.0887Y-1.825
X3.0887Y-1.925
X3.0887Y-2.025
X3.0887Y-2.125
T3
X3.3Y-3.1
X3.3Y-3.4
X3.4Y-3.1
X3.4Y-3.4
T4
X1.6Y-1.0374
X1.6Y-1.1374
X1.7Y-1.0374
X1.7Y-1.1374
X1.725Y-1.6
X1.725Y-1.7
X1.725Y-1.8
X1.725Y-1.9
X1.725Y-2.0
X1.725Y-2.1
X1.725Y-2.2
X1.725Y-2.3
X1.725Y-2.4
X1.725Y-2.5
X1.725Y-2.6
X1.725Y-2.7
X1.725Y-2.8
X1.725Y-2.9
X1.725Y-3.0
X1.775Y-1.6
X1.775Y-1.7
X1.775Y-1.8
X1.775Y-1.9
X1.775Y-2.0
X1.775Y-2.1
X1.775Y-2.2
X1.775Y-2.3
X1.775Y-2.4
X1.775Y-2.5
X1.775Y-2.6
X1.775Y-2.7
X1.775Y-2.8
X1.775Y-2.9
X1.775Y-3.0
X1.8Y-1.0374
X1.8Y-1.1374
X1.9Y-1.0374
X1.9Y-1.1374
X2.0Y-1.0374
X2.0Y-1.1374
X2.1Y-1.0374
X2.1Y-1.1374
X2.15Y-1.475
X2.15Y-1.575
X2.15Y-1.675
X2.15Y-1.775
X2.15Y-1.875
X2.15Y-1.975
X2.15Y-2.075
X2.15Y-2.175
X2.15Y-2.275
X2.15Y-2.375
X2.15Y-2.475
X2.15Y-2.575
X2.2Y-1.0374
X2.2Y-1.1374
X2.3Y-1.0374
X2.3Y-1.1374
X2.375Y-1.6
X2.375Y-1.7
X2.375Y-1.8
X2.375Y-1.9
X2.375Y-2.0
X2.375Y-2.1
X2.375Y-2.2
X2.375Y-2.3
X2.375Y-2.4
X2.375Y-2.5
X2.375Y-2.6
X2.375Y-2.7
X2.375Y-2.8
X2.375Y-2.9
X2.375Y-3.0
X2.4Y-1.0374
X2.4Y-1.1374
X2.425Y-1.6
X2.425Y-1.7
X2.425Y-1.8
X2.425Y-1.9
X2.425Y-2.0
X2.425Y-2.1
X2.425Y-2.2
X2.425Y-2.3
X2.425Y-2.4
X2.425Y-2.5
X2.425Y-2.6
X2.425Y-2.7
X2.425Y-2.8
X2.425Y-2.9
X2.425Y-3.0
X2.5Y-1.0374
X2.5Y-1.1374
X2.6Y-1.0374
X2.6Y-1.1374
X2.7Y-1.0374
X2.7Y-1.1374
X2.7504Y-4.45
X2.8Y-1.0374
X2.8Y-1.1374
X2.8504Y-4.45
X2.9Y-1.0374
X2.9Y-1.1374
X2.95Y-1.475
X2.95Y-1.575
X2.95Y-1.675
X2.95Y-1.775
X2.95Y-1.875
X2.95Y-1.975
X2.95Y-2.075
X2.95Y-2.175
X2.95Y-2.275
X2.95Y-2.375
X2.95Y-2.475
X2.95Y-2.575
X2.95Y-2.675
X2.95Y-2.775
X2.95Y-2.875
X2.95Y-2.975
X2.9504Y-4.45
X3.0Y-1.0374
X3.0Y-1.1374
X3.0504Y-4.45
X3.1Y-1.0374
X3.1Y-1.1374
X3.2Y-1.0374
X3.2Y-1.1374
X3.3Y-1.0374
X3.3Y-1.1374
X3.3Y-4.45
X3.4Y-1.0374
X3.4Y-1.1374
X3.4Y-4.45
X3.5Y-1.0374
X3.5Y-1.1374
T5
X3.622Y-2.4114
X3.622Y-2.5886
X3.622Y-2.7614
X3.622Y-2.9386
X3.622Y-3.1114
X3.622Y-3.2886
X3.622Y-3.4614
X3.622Y-3.6386
X3.878Y-2.4114
X3.878Y-2.5886
X3.878Y-2.7614
X3.878Y-2.9386
X3.878Y-3.1114
X3.878Y-3.2886
X3.878Y-3.4614
X3.878Y-3.6386
T6
X2.0079Y-4.44
T7
X1.9079Y-4.34
X1.9079Y-4.54
X2.1079Y-4.34
X2.1079Y-4.54
T8
X2.2Y-3.125
X2.9Y-3.125
T0
M30
