M48
; DRILL file {KiCad 7.0.1-0} date 2023 April 22, Saturday 10:08:43
; FORMAT={-:-/ absolute / inch / decimal}
; #@! TF.CreationDate,2023-04-22T10:08:43-07:00
; #@! TF.GenerationSoftware,Kicad,Pcbnew,7.0.1-0
; #@! TF.FileFunction,Plated,1,2,PTH
FMAT,2
INCH
; #@! TA.AperFunction,Plated,PTH,ViaDrill
T1C0.0157
; #@! TA.AperFunction,Plated,PTH,ComponentDrill
T2C0.0300
; #@! TA.AperFunction,Plated,PTH,ComponentDrill
T3C0.0374
; #@! TA.AperFunction,Plated,PTH,ComponentDrill
T4C0.0394
; #@! TA.AperFunction,Plated,PTH,ComponentDrill
T5C0.1000
%
G90
G05
T1
X1.2402Y-5.1575
X1.4203Y-5.1152
X1.5256Y-4.7047
X1.5466Y-4.6436
X1.6043Y-4.6949
X1.7815Y-5.1476
X2.0472Y-4.252
X2.126Y-4.2717
X2.2244Y-4.6063
X2.2244Y-4.6654
X2.2441Y-4.2323
X2.2835Y-5.0591
X2.3004Y-3.5
X2.3135Y-5.1865
X2.3425Y-5.0591
X2.3622Y-5.1772
X2.85Y-3.8
X2.8785Y-3.85
X2.907Y-3.9
X2.975Y-3.875
X3.45Y-3.825
X3.4646Y-4.2913
X3.4843Y-4.3307
T2
X2.075Y-3.425
X2.075Y-3.925
X2.175Y-3.425
X2.175Y-3.925
X2.275Y-3.425
X2.275Y-3.925
X2.375Y-3.425
X2.375Y-3.925
X2.475Y-3.425
X2.475Y-3.925
X2.575Y-3.425
X2.575Y-3.925
X2.675Y-3.925
X2.775Y-3.925
X3.0752Y-4.085
X3.1752Y-4.085
X3.2Y-3.425
X3.2Y-3.925
X3.2752Y-4.085
X3.3Y-3.425
X3.3Y-3.925
X3.3752Y-4.085
X3.4Y-3.425
X3.4Y-3.925
X3.4752Y-4.085
X3.5Y-3.425
X3.5Y-3.925
X3.5752Y-4.085
X3.6Y-3.425
X3.6Y-3.925
X3.6752Y-4.085
X3.7Y-3.425
X3.7Y-3.925
X3.7752Y-4.085
T3
X2.2638Y-3.189
X2.3622Y-3.189
X2.4606Y-3.189
X2.4902Y-5.1181
X2.5591Y-3.189
X2.5886Y-5.1181
X2.6575Y-3.189
X2.687Y-5.1181
X2.7559Y-3.189
X2.7854Y-5.1181
X3.0118Y-3.189
X3.1102Y-3.189
X3.2087Y-3.189
X3.3071Y-3.189
X3.4055Y-3.189
X3.5039Y-3.189
T4
X0.9449Y-5.0472
X0.9449Y-5.1472
X0.9449Y-5.2472
X0.9449Y-5.3472
X1.1398Y-4.8882
X1.2398Y-4.8882
X1.3398Y-4.8882
X1.4398Y-4.8882
X1.5398Y-4.0882
X1.5398Y-4.8882
X1.6398Y-4.0882
X1.6398Y-4.8882
X1.7398Y-4.0882
X1.7398Y-4.8882
X1.8398Y-4.0882
X1.8398Y-4.8882
X1.9398Y-4.0882
X1.9398Y-4.8882
X2.0398Y-4.0882
X2.0398Y-4.8882
X2.1398Y-4.0882
X2.1398Y-4.8882
X2.2398Y-4.0882
X2.2398Y-4.8882
X2.3398Y-4.0882
X2.3398Y-4.8882
X2.4398Y-4.0882
X2.4398Y-4.8882
X2.5398Y-4.0882
X2.5398Y-4.8882
X2.6398Y-4.0882
X2.6398Y-4.8882
T5
X0.9898Y-4.1382
X0.9898Y-4.8382
T0
M30
