%TF.GenerationSoftware,KiCad,Pcbnew,(7.0.0-0)*%
%TF.CreationDate,2023-04-22T09:58:04-07:00*%
%TF.ProjectId,SensorV2,53656e73-6f72-4563-922e-6b696361645f,rev?*%
%TF.SameCoordinates,Original*%
%TF.FileFunction,Soldermask,Bot*%
%TF.FilePolarity,Negative*%
%FSLAX46Y46*%
G04 Gerber Fmt 4.6, Leading zero omitted, Abs format (unit mm)*
G04 Created by KiCad (PCBNEW (7.0.0-0)) date 2023-04-22 09:58:04*
%MOMM*%
%LPD*%
G01*
G04 APERTURE LIST*
G04 Aperture macros list*
%AMRoundRect*
0 Rectangle with rounded corners*
0 $1 Rounding radius*
0 $2 $3 $4 $5 $6 $7 $8 $9 X,Y pos of 4 corners*
0 Add a 4 corners polygon primitive as box body*
4,1,4,$2,$3,$4,$5,$6,$7,$8,$9,$2,$3,0*
0 Add four circle primitives for the rounded corners*
1,1,$1+$1,$2,$3*
1,1,$1+$1,$4,$5*
1,1,$1+$1,$6,$7*
1,1,$1+$1,$8,$9*
0 Add four rect primitives between the rounded corners*
20,1,$1+$1,$2,$3,$4,$5,0*
20,1,$1+$1,$4,$5,$6,$7,0*
20,1,$1+$1,$6,$7,$8,$9,0*
20,1,$1+$1,$8,$9,$2,$3,0*%
G04 Aperture macros list end*
%ADD10C,1.524000*%
%ADD11R,1.700000X1.700000*%
%ADD12O,1.700000X1.700000*%
%ADD13RoundRect,0.250000X0.600000X0.725000X-0.600000X0.725000X-0.600000X-0.725000X0.600000X-0.725000X0*%
%ADD14O,1.700000X1.950000*%
%ADD15C,5.200000*%
%ADD16C,1.200000*%
%ADD17C,2.286000*%
%ADD18R,1.508000X1.508000*%
%ADD19C,1.508000*%
%ADD20C,3.556000*%
%ADD21RoundRect,0.250000X0.650000X-0.325000X0.650000X0.325000X-0.650000X0.325000X-0.650000X-0.325000X0*%
G04 APERTURE END LIST*
D10*
%TO.C,U5*%
X81280000Y-86995000D03*
X93980000Y-86995000D03*
X91440000Y-86995000D03*
X88900000Y-86995000D03*
X86360000Y-86995000D03*
X83820000Y-86995000D03*
X91440000Y-99695000D03*
X93980000Y-99695000D03*
X83820000Y-99695000D03*
X86360000Y-99695000D03*
X88900000Y-99695000D03*
X81280000Y-99695000D03*
%TD*%
D11*
%TO.C,J1*%
X23999999Y-128199999D03*
D12*
X23999999Y-130739999D03*
X23999999Y-133279999D03*
X23999999Y-135819999D03*
%TD*%
D13*
%TO.C,J4*%
X70000000Y-81000000D03*
D14*
X67499999Y-80999999D03*
X64999999Y-80999999D03*
X62499999Y-80999999D03*
X59999999Y-80999999D03*
X57499999Y-80999999D03*
%TD*%
D15*
%TO.C,H3*%
X50000000Y-136000000D03*
%TD*%
D13*
%TO.C,J5*%
X89000000Y-81000000D03*
D14*
X86499999Y-80999999D03*
X83999999Y-80999999D03*
X81499999Y-80999999D03*
X78999999Y-80999999D03*
X76499999Y-80999999D03*
%TD*%
D15*
%TO.C,H4*%
X98000000Y-136000000D03*
%TD*%
%TO.C,H2*%
X98000000Y-80000000D03*
%TD*%
D16*
%TO.C,J6*%
X72350000Y-128000000D03*
D13*
X70750000Y-130000000D03*
D14*
X68249999Y-129999999D03*
X65749999Y-129999999D03*
X63249999Y-129999999D03*
%TD*%
D15*
%TO.C,H1*%
X50000000Y-80000000D03*
%TD*%
D17*
%TO.C,U1*%
X70860000Y-104475000D03*
X70860000Y-123525000D03*
D18*
X28949999Y-124159999D03*
D19*
X31490000Y-124160000D03*
X34030000Y-124160000D03*
X36570000Y-124160000D03*
X39110000Y-124160000D03*
X41650000Y-124160000D03*
X44190000Y-124160000D03*
X46730000Y-124160000D03*
X49270000Y-124160000D03*
X51810000Y-124160000D03*
X54350000Y-124160000D03*
X56890000Y-124160000D03*
X59430000Y-124160000D03*
X61970000Y-124160000D03*
X64510000Y-124160000D03*
X67050000Y-124160000D03*
X39110000Y-103840000D03*
X41650000Y-103840000D03*
X44190000Y-103840000D03*
X46730000Y-103840000D03*
X49270000Y-103840000D03*
X51810000Y-103840000D03*
X54350000Y-103840000D03*
X56890000Y-103840000D03*
X59430000Y-103840000D03*
X61970000Y-103840000D03*
X64510000Y-103840000D03*
X67050000Y-103840000D03*
D20*
X25140000Y-122890000D03*
X25140000Y-105110000D03*
%TD*%
D10*
%TO.C,U4*%
X93350000Y-103760000D03*
X95890000Y-103760000D03*
X78110000Y-103760000D03*
X88270000Y-103760000D03*
X80650000Y-103760000D03*
X83190000Y-103760000D03*
X85730000Y-103760000D03*
X90810000Y-103760000D03*
%TD*%
%TO.C,U3*%
X65405000Y-99695000D03*
X52705000Y-86995000D03*
X65405000Y-86995000D03*
X62865000Y-86995000D03*
X60325000Y-86995000D03*
X57785000Y-86995000D03*
X55245000Y-86995000D03*
X62865000Y-99695000D03*
X55245000Y-99695000D03*
X70485000Y-99695000D03*
X57785000Y-99695000D03*
X60325000Y-99695000D03*
X67945000Y-99695000D03*
X52705000Y-99695000D03*
%TD*%
D21*
%TO.C,C1*%
X27500000Y-135975000D03*
X27500000Y-133025000D03*
%TD*%
M02*
