%TF.GenerationSoftware,KiCad,Pcbnew,(7.0.0-0)*%
%TF.CreationDate,2023-04-22T09:58:04-07:00*%
%TF.ProjectId,SensorV2,53656e73-6f72-4563-922e-6b696361645f,rev?*%
%TF.SameCoordinates,Original*%
%TF.FileFunction,Legend,Bot*%
%TF.FilePolarity,Positive*%
%FSLAX46Y46*%
G04 Gerber Fmt 4.6, Leading zero omitted, Abs format (unit mm)*
G04 Created by KiCad (PCBNEW (7.0.0-0)) date 2023-04-22 09:58:04*
%MOMM*%
%LPD*%
G01*
G04 APERTURE LIST*
%ADD10C,0.150000*%
%ADD11C,0.120000*%
G04 APERTURE END LIST*
D10*
%TO.C,C1*%
X29622142Y-134333333D02*
X29669761Y-134285714D01*
X29669761Y-134285714D02*
X29717380Y-134142857D01*
X29717380Y-134142857D02*
X29717380Y-134047619D01*
X29717380Y-134047619D02*
X29669761Y-133904762D01*
X29669761Y-133904762D02*
X29574523Y-133809524D01*
X29574523Y-133809524D02*
X29479285Y-133761905D01*
X29479285Y-133761905D02*
X29288809Y-133714286D01*
X29288809Y-133714286D02*
X29145952Y-133714286D01*
X29145952Y-133714286D02*
X28955476Y-133761905D01*
X28955476Y-133761905D02*
X28860238Y-133809524D01*
X28860238Y-133809524D02*
X28765000Y-133904762D01*
X28765000Y-133904762D02*
X28717380Y-134047619D01*
X28717380Y-134047619D02*
X28717380Y-134142857D01*
X28717380Y-134142857D02*
X28765000Y-134285714D01*
X28765000Y-134285714D02*
X28812619Y-134333333D01*
X29717380Y-135285714D02*
X29717380Y-134714286D01*
X29717380Y-135000000D02*
X28717380Y-135000000D01*
X28717380Y-135000000D02*
X28860238Y-134904762D01*
X28860238Y-134904762D02*
X28955476Y-134809524D01*
X28955476Y-134809524D02*
X29003095Y-134714286D01*
D11*
X26590000Y-135211252D02*
X26590000Y-133788748D01*
X28410000Y-135211252D02*
X28410000Y-133788748D01*
%TD*%
M02*
