%TF.GenerationSoftware,KiCad,Pcbnew,(6.0.10-0)*%
%TF.CreationDate,2023-01-18T17:39:01-08:00*%
%TF.ProjectId,Sensor,53656e73-6f72-42e6-9b69-6361645f7063,rev?*%
%TF.SameCoordinates,Original*%
%TF.FileFunction,Soldermask,Top*%
%TF.FilePolarity,Negative*%
%FSLAX46Y46*%
G04 Gerber Fmt 4.6, Leading zero omitted, Abs format (unit mm)*
G04 Created by KiCad (PCBNEW (6.0.10-0)) date 2023-01-18 17:39:01*
%MOMM*%
%LPD*%
G01*
G04 APERTURE LIST*
G04 Aperture macros list*
%AMRoundRect*
0 Rectangle with rounded corners*
0 $1 Rounding radius*
0 $2 $3 $4 $5 $6 $7 $8 $9 X,Y pos of 4 corners*
0 Add a 4 corners polygon primitive as box body*
4,1,4,$2,$3,$4,$5,$6,$7,$8,$9,$2,$3,0*
0 Add four circle primitives for the rounded corners*
1,1,$1+$1,$2,$3*
1,1,$1+$1,$4,$5*
1,1,$1+$1,$6,$7*
1,1,$1+$1,$8,$9*
0 Add four rect primitives between the rounded corners*
20,1,$1+$1,$2,$3,$4,$5,0*
20,1,$1+$1,$4,$5,$6,$7,0*
20,1,$1+$1,$6,$7,$8,$9,0*
20,1,$1+$1,$8,$9,$2,$3,0*%
G04 Aperture macros list end*
%ADD10RoundRect,0.250000X0.312500X0.625000X-0.312500X0.625000X-0.312500X-0.625000X0.312500X-0.625000X0*%
%ADD11RoundRect,0.250000X0.625000X-0.312500X0.625000X0.312500X-0.625000X0.312500X-0.625000X-0.312500X0*%
%ADD12R,1.700000X1.700000*%
%ADD13O,1.700000X1.700000*%
%ADD14RoundRect,0.250000X0.262500X0.450000X-0.262500X0.450000X-0.262500X-0.450000X0.262500X-0.450000X0*%
%ADD15R,1.750000X1.750000*%
%ADD16C,1.750000*%
%ADD17C,5.200000*%
%ADD18RoundRect,0.150000X-0.150000X-0.700000X0.150000X-0.700000X0.150000X0.700000X-0.150000X0.700000X0*%
%ADD19RoundRect,0.250000X-0.250000X-1.100000X0.250000X-1.100000X0.250000X1.100000X-0.250000X1.100000X0*%
%ADD20C,2.286000*%
%ADD21R,1.508000X1.508000*%
%ADD22C,1.508000*%
%ADD23C,3.556000*%
%ADD24C,1.524000*%
G04 APERTURE END LIST*
D10*
%TO.C,R2*%
X56462500Y-131000000D03*
X53537500Y-131000000D03*
%TD*%
D11*
%TO.C,R3*%
X38500000Y-130962500D03*
X38500000Y-128037500D03*
%TD*%
D12*
%TO.C,J1*%
X24000000Y-128200000D03*
D13*
X24000000Y-130740000D03*
X24000000Y-133280000D03*
X24000000Y-135820000D03*
%TD*%
D14*
%TO.C,R5*%
X75712500Y-137100000D03*
X73887500Y-137100000D03*
%TD*%
D15*
%TO.C,J4*%
X70000000Y-81000000D03*
D16*
X67500000Y-81000000D03*
X65000000Y-81000000D03*
X62500000Y-81000000D03*
X60000000Y-81000000D03*
X57500000Y-81000000D03*
%TD*%
D17*
%TO.C,H3*%
X50000000Y-136000000D03*
%TD*%
D15*
%TO.C,J5*%
X89000000Y-81000000D03*
D16*
X86500000Y-81000000D03*
X84000000Y-81000000D03*
X81500000Y-81000000D03*
X79000000Y-81000000D03*
X76500000Y-81000000D03*
%TD*%
D18*
%TO.C,J2*%
X32125000Y-134650000D03*
X33375000Y-134650000D03*
X34625000Y-134650000D03*
X35875000Y-134650000D03*
X37125000Y-134650000D03*
X38375000Y-134650000D03*
X39625000Y-134650000D03*
X40875000Y-134650000D03*
D19*
X42725000Y-137850000D03*
X30275000Y-137850000D03*
%TD*%
D17*
%TO.C,H4*%
X98000000Y-136000000D03*
%TD*%
%TO.C,H2*%
X98000000Y-80000000D03*
%TD*%
D18*
%TO.C,J3*%
X57125000Y-134650000D03*
X58375000Y-134650000D03*
X59625000Y-134650000D03*
X60875000Y-134650000D03*
X62125000Y-134650000D03*
X63375000Y-134650000D03*
X64625000Y-134650000D03*
X65875000Y-134650000D03*
D19*
X55275000Y-137850000D03*
X67725000Y-137850000D03*
%TD*%
D15*
%TO.C,J6*%
X70750000Y-130000000D03*
D16*
X68250000Y-130000000D03*
X65750000Y-130000000D03*
X63250000Y-130000000D03*
%TD*%
D17*
%TO.C,H1*%
X50000000Y-80000000D03*
%TD*%
D11*
%TO.C,R1*%
X34000000Y-130962500D03*
X34000000Y-128037500D03*
%TD*%
D20*
%TO.C,U1*%
X70860000Y-123525000D03*
X70860000Y-104475000D03*
D21*
X28950000Y-124160000D03*
D22*
X31490000Y-124160000D03*
X34030000Y-124160000D03*
X36570000Y-124160000D03*
X39110000Y-124160000D03*
X41650000Y-124160000D03*
X44190000Y-124160000D03*
X46730000Y-124160000D03*
X49270000Y-124160000D03*
X51810000Y-124160000D03*
X54350000Y-124160000D03*
X56890000Y-124160000D03*
X59430000Y-124160000D03*
X61970000Y-124160000D03*
X64510000Y-124160000D03*
X67050000Y-124160000D03*
X39110000Y-103840000D03*
X41650000Y-103840000D03*
X44190000Y-103840000D03*
X46730000Y-103840000D03*
X49270000Y-103840000D03*
X51810000Y-103840000D03*
X54350000Y-103840000D03*
X56890000Y-103840000D03*
X59430000Y-103840000D03*
X61970000Y-103840000D03*
X64510000Y-103840000D03*
X67050000Y-103840000D03*
D23*
X25140000Y-122890000D03*
X25140000Y-105110000D03*
%TD*%
D24*
%TO.C,U4*%
X93350000Y-103760000D03*
X95890000Y-103760000D03*
X78110000Y-103760000D03*
X88270000Y-103760000D03*
X80650000Y-103760000D03*
X83190000Y-103760000D03*
X85730000Y-103760000D03*
X90810000Y-103760000D03*
%TD*%
%TO.C,U3*%
X65350000Y-99460000D03*
X52650000Y-99460000D03*
X55190000Y-99460000D03*
X57730000Y-99460000D03*
X60270000Y-99460000D03*
X62810000Y-99460000D03*
X55190000Y-86760000D03*
X52650000Y-86760000D03*
X62810000Y-86760000D03*
X60270000Y-86760000D03*
X57730000Y-86760000D03*
X65350000Y-86760000D03*
%TD*%
D10*
%TO.C,R4*%
X52962500Y-128000000D03*
X50037500Y-128000000D03*
%TD*%
D24*
%TO.C,U2*%
X80650000Y-86745000D03*
X93350000Y-86745000D03*
X90810000Y-86745000D03*
X88270000Y-86745000D03*
X85730000Y-86745000D03*
X83190000Y-86745000D03*
X90810000Y-99445000D03*
X93350000Y-99445000D03*
X83190000Y-99445000D03*
X85730000Y-99445000D03*
X88270000Y-99445000D03*
X80650000Y-99445000D03*
%TD*%
M02*
