%TF.GenerationSoftware,KiCad,Pcbnew,(6.0.10-0)*%
%TF.CreationDate,2023-01-18T17:39:01-08:00*%
%TF.ProjectId,Sensor,53656e73-6f72-42e6-9b69-6361645f7063,rev?*%
%TF.SameCoordinates,Original*%
%TF.FileFunction,Soldermask,Bot*%
%TF.FilePolarity,Negative*%
%FSLAX46Y46*%
G04 Gerber Fmt 4.6, Leading zero omitted, Abs format (unit mm)*
G04 Created by KiCad (PCBNEW (6.0.10-0)) date 2023-01-18 17:39:01*
%MOMM*%
%LPD*%
G01*
G04 APERTURE LIST*
G04 Aperture macros list*
%AMRoundRect*
0 Rectangle with rounded corners*
0 $1 Rounding radius*
0 $2 $3 $4 $5 $6 $7 $8 $9 X,Y pos of 4 corners*
0 Add a 4 corners polygon primitive as box body*
4,1,4,$2,$3,$4,$5,$6,$7,$8,$9,$2,$3,0*
0 Add four circle primitives for the rounded corners*
1,1,$1+$1,$2,$3*
1,1,$1+$1,$4,$5*
1,1,$1+$1,$6,$7*
1,1,$1+$1,$8,$9*
0 Add four rect primitives between the rounded corners*
20,1,$1+$1,$2,$3,$4,$5,0*
20,1,$1+$1,$4,$5,$6,$7,0*
20,1,$1+$1,$6,$7,$8,$9,0*
20,1,$1+$1,$8,$9,$2,$3,0*%
G04 Aperture macros list end*
%ADD10R,1.700000X1.700000*%
%ADD11O,1.700000X1.700000*%
%ADD12R,1.750000X1.750000*%
%ADD13C,1.750000*%
%ADD14C,5.200000*%
%ADD15C,2.286000*%
%ADD16R,1.508000X1.508000*%
%ADD17C,1.508000*%
%ADD18C,3.556000*%
%ADD19C,1.524000*%
%ADD20RoundRect,0.250000X0.650000X-0.325000X0.650000X0.325000X-0.650000X0.325000X-0.650000X-0.325000X0*%
G04 APERTURE END LIST*
D10*
%TO.C,J1*%
X24000000Y-128200000D03*
D11*
X24000000Y-130740000D03*
X24000000Y-133280000D03*
X24000000Y-135820000D03*
%TD*%
D12*
%TO.C,J4*%
X70000000Y-81000000D03*
D13*
X67500000Y-81000000D03*
X65000000Y-81000000D03*
X62500000Y-81000000D03*
X60000000Y-81000000D03*
X57500000Y-81000000D03*
%TD*%
D14*
%TO.C,H3*%
X50000000Y-136000000D03*
%TD*%
D12*
%TO.C,J5*%
X89000000Y-81000000D03*
D13*
X86500000Y-81000000D03*
X84000000Y-81000000D03*
X81500000Y-81000000D03*
X79000000Y-81000000D03*
X76500000Y-81000000D03*
%TD*%
D14*
%TO.C,H4*%
X98000000Y-136000000D03*
%TD*%
%TO.C,H2*%
X98000000Y-80000000D03*
%TD*%
D12*
%TO.C,J6*%
X70750000Y-130000000D03*
D13*
X68250000Y-130000000D03*
X65750000Y-130000000D03*
X63250000Y-130000000D03*
%TD*%
D14*
%TO.C,H1*%
X50000000Y-80000000D03*
%TD*%
D15*
%TO.C,U1*%
X70860000Y-123525000D03*
X70860000Y-104475000D03*
D16*
X28950000Y-124160000D03*
D17*
X31490000Y-124160000D03*
X34030000Y-124160000D03*
X36570000Y-124160000D03*
X39110000Y-124160000D03*
X41650000Y-124160000D03*
X44190000Y-124160000D03*
X46730000Y-124160000D03*
X49270000Y-124160000D03*
X51810000Y-124160000D03*
X54350000Y-124160000D03*
X56890000Y-124160000D03*
X59430000Y-124160000D03*
X61970000Y-124160000D03*
X64510000Y-124160000D03*
X67050000Y-124160000D03*
X39110000Y-103840000D03*
X41650000Y-103840000D03*
X44190000Y-103840000D03*
X46730000Y-103840000D03*
X49270000Y-103840000D03*
X51810000Y-103840000D03*
X54350000Y-103840000D03*
X56890000Y-103840000D03*
X59430000Y-103840000D03*
X61970000Y-103840000D03*
X64510000Y-103840000D03*
X67050000Y-103840000D03*
D18*
X25140000Y-122890000D03*
X25140000Y-105110000D03*
%TD*%
D19*
%TO.C,U4*%
X93350000Y-103760000D03*
X95890000Y-103760000D03*
X78110000Y-103760000D03*
X88270000Y-103760000D03*
X80650000Y-103760000D03*
X83190000Y-103760000D03*
X85730000Y-103760000D03*
X90810000Y-103760000D03*
%TD*%
%TO.C,U3*%
X65350000Y-99460000D03*
X52650000Y-99460000D03*
X55190000Y-99460000D03*
X57730000Y-99460000D03*
X60270000Y-99460000D03*
X62810000Y-99460000D03*
X55190000Y-86760000D03*
X52650000Y-86760000D03*
X62810000Y-86760000D03*
X60270000Y-86760000D03*
X57730000Y-86760000D03*
X65350000Y-86760000D03*
%TD*%
%TO.C,U2*%
X80650000Y-86745000D03*
X93350000Y-86745000D03*
X90810000Y-86745000D03*
X88270000Y-86745000D03*
X85730000Y-86745000D03*
X83190000Y-86745000D03*
X90810000Y-99445000D03*
X93350000Y-99445000D03*
X83190000Y-99445000D03*
X85730000Y-99445000D03*
X88270000Y-99445000D03*
X80650000Y-99445000D03*
%TD*%
D20*
%TO.C,C1*%
X27500000Y-135975000D03*
X27500000Y-133025000D03*
%TD*%
M02*
