%TF.GenerationSoftware,KiCad,Pcbnew,(6.0.10-0)*%
%TF.CreationDate,2023-01-18T17:38:16-08:00*%
%TF.ProjectId,Pioneer Controller V2,50696f6e-6565-4722-9043-6f6e74726f6c,rev?*%
%TF.SameCoordinates,Original*%
%TF.FileFunction,Legend,Top*%
%TF.FilePolarity,Positive*%
%FSLAX46Y46*%
G04 Gerber Fmt 4.6, Leading zero omitted, Abs format (unit mm)*
G04 Created by KiCad (PCBNEW (6.0.10-0)) date 2023-01-18 17:38:16*
%MOMM*%
%LPD*%
G01*
G04 APERTURE LIST*
%ADD10C,0.150000*%
%ADD11C,0.300000*%
%ADD12C,0.125000*%
%ADD13C,0.120000*%
%ADD14C,0.127000*%
%ADD15C,0.203200*%
G04 APERTURE END LIST*
D10*
X76797619Y-118202380D02*
X76797619Y-117202380D01*
X77178571Y-117202380D01*
X77273809Y-117250000D01*
X77321428Y-117297619D01*
X77369047Y-117392857D01*
X77369047Y-117535714D01*
X77321428Y-117630952D01*
X77273809Y-117678571D01*
X77178571Y-117726190D01*
X76797619Y-117726190D01*
X77988095Y-117202380D02*
X78178571Y-117202380D01*
X78273809Y-117250000D01*
X78369047Y-117345238D01*
X78416666Y-117535714D01*
X78416666Y-117869047D01*
X78369047Y-118059523D01*
X78273809Y-118154761D01*
X78178571Y-118202380D01*
X77988095Y-118202380D01*
X77892857Y-118154761D01*
X77797619Y-118059523D01*
X77750000Y-117869047D01*
X77750000Y-117535714D01*
X77797619Y-117345238D01*
X77892857Y-117250000D01*
X77988095Y-117202380D01*
X78750000Y-117202380D02*
X78988095Y-118202380D01*
X79178571Y-117488095D01*
X79369047Y-118202380D01*
X79607142Y-117202380D01*
X79988095Y-117678571D02*
X80321428Y-117678571D01*
X80464285Y-118202380D02*
X79988095Y-118202380D01*
X79988095Y-117202380D01*
X80464285Y-117202380D01*
X81464285Y-118202380D02*
X81130952Y-117726190D01*
X80892857Y-118202380D02*
X80892857Y-117202380D01*
X81273809Y-117202380D01*
X81369047Y-117250000D01*
X81416666Y-117297619D01*
X81464285Y-117392857D01*
X81464285Y-117535714D01*
X81416666Y-117630952D01*
X81369047Y-117678571D01*
X81273809Y-117726190D01*
X80892857Y-117726190D01*
X82654761Y-118202380D02*
X82654761Y-117202380D01*
X83130952Y-118202380D02*
X83130952Y-117202380D01*
X83702380Y-118202380D01*
X83702380Y-117202380D01*
X59678571Y-118154761D02*
X59821428Y-118202380D01*
X60059523Y-118202380D01*
X60154761Y-118154761D01*
X60202380Y-118107142D01*
X60250000Y-118011904D01*
X60250000Y-117916666D01*
X60202380Y-117821428D01*
X60154761Y-117773809D01*
X60059523Y-117726190D01*
X59869047Y-117678571D01*
X59773809Y-117630952D01*
X59726190Y-117583333D01*
X59678571Y-117488095D01*
X59678571Y-117392857D01*
X59726190Y-117297619D01*
X59773809Y-117250000D01*
X59869047Y-117202380D01*
X60107142Y-117202380D01*
X60250000Y-117250000D01*
X60678571Y-117678571D02*
X61011904Y-117678571D01*
X61154761Y-118202380D02*
X60678571Y-118202380D01*
X60678571Y-117202380D01*
X61154761Y-117202380D01*
X61583333Y-118202380D02*
X61583333Y-117202380D01*
X62154761Y-118202380D01*
X62154761Y-117202380D01*
X62583333Y-118154761D02*
X62726190Y-118202380D01*
X62964285Y-118202380D01*
X63059523Y-118154761D01*
X63107142Y-118107142D01*
X63154761Y-118011904D01*
X63154761Y-117916666D01*
X63107142Y-117821428D01*
X63059523Y-117773809D01*
X62964285Y-117726190D01*
X62773809Y-117678571D01*
X62678571Y-117630952D01*
X62630952Y-117583333D01*
X62583333Y-117488095D01*
X62583333Y-117392857D01*
X62630952Y-117297619D01*
X62678571Y-117250000D01*
X62773809Y-117202380D01*
X63011904Y-117202380D01*
X63154761Y-117250000D01*
X63773809Y-117202380D02*
X63964285Y-117202380D01*
X64059523Y-117250000D01*
X64154761Y-117345238D01*
X64202380Y-117535714D01*
X64202380Y-117869047D01*
X64154761Y-118059523D01*
X64059523Y-118154761D01*
X63964285Y-118202380D01*
X63773809Y-118202380D01*
X63678571Y-118154761D01*
X63583333Y-118059523D01*
X63535714Y-117869047D01*
X63535714Y-117535714D01*
X63583333Y-117345238D01*
X63678571Y-117250000D01*
X63773809Y-117202380D01*
X65202380Y-118202380D02*
X64869047Y-117726190D01*
X64630952Y-118202380D02*
X64630952Y-117202380D01*
X65011904Y-117202380D01*
X65107142Y-117250000D01*
X65154761Y-117297619D01*
X65202380Y-117392857D01*
X65202380Y-117535714D01*
X65154761Y-117630952D01*
X65107142Y-117678571D01*
X65011904Y-117726190D01*
X64630952Y-117726190D01*
X66964285Y-118107142D02*
X66916666Y-118154761D01*
X66773809Y-118202380D01*
X66678571Y-118202380D01*
X66535714Y-118154761D01*
X66440476Y-118059523D01*
X66392857Y-117964285D01*
X66345238Y-117773809D01*
X66345238Y-117630952D01*
X66392857Y-117440476D01*
X66440476Y-117345238D01*
X66535714Y-117250000D01*
X66678571Y-117202380D01*
X66773809Y-117202380D01*
X66916666Y-117250000D01*
X66964285Y-117297619D01*
X67583333Y-117202380D02*
X67773809Y-117202380D01*
X67869047Y-117250000D01*
X67964285Y-117345238D01*
X68011904Y-117535714D01*
X68011904Y-117869047D01*
X67964285Y-118059523D01*
X67869047Y-118154761D01*
X67773809Y-118202380D01*
X67583333Y-118202380D01*
X67488095Y-118154761D01*
X67392857Y-118059523D01*
X67345238Y-117869047D01*
X67345238Y-117535714D01*
X67392857Y-117345238D01*
X67488095Y-117250000D01*
X67583333Y-117202380D01*
X68440476Y-118202380D02*
X68440476Y-117202380D01*
X69011904Y-118202380D01*
X69011904Y-117202380D01*
X69488095Y-118202380D02*
X69488095Y-117202380D01*
X70059523Y-118202380D01*
X70059523Y-117202380D01*
X70535714Y-117678571D02*
X70869047Y-117678571D01*
X71011904Y-118202380D02*
X70535714Y-118202380D01*
X70535714Y-117202380D01*
X71011904Y-117202380D01*
X72011904Y-118107142D02*
X71964285Y-118154761D01*
X71821428Y-118202380D01*
X71726190Y-118202380D01*
X71583333Y-118154761D01*
X71488095Y-118059523D01*
X71440476Y-117964285D01*
X71392857Y-117773809D01*
X71392857Y-117630952D01*
X71440476Y-117440476D01*
X71488095Y-117345238D01*
X71583333Y-117250000D01*
X71726190Y-117202380D01*
X71821428Y-117202380D01*
X71964285Y-117250000D01*
X72011904Y-117297619D01*
X72297619Y-117202380D02*
X72869047Y-117202380D01*
X72583333Y-118202380D02*
X72583333Y-117202380D01*
X73392857Y-117202380D02*
X73583333Y-117202380D01*
X73678571Y-117250000D01*
X73773809Y-117345238D01*
X73821428Y-117535714D01*
X73821428Y-117869047D01*
X73773809Y-118059523D01*
X73678571Y-118154761D01*
X73583333Y-118202380D01*
X73392857Y-118202380D01*
X73297619Y-118154761D01*
X73202380Y-118059523D01*
X73154761Y-117869047D01*
X73154761Y-117535714D01*
X73202380Y-117345238D01*
X73297619Y-117250000D01*
X73392857Y-117202380D01*
X74821428Y-118202380D02*
X74488095Y-117726190D01*
X74250000Y-118202380D02*
X74250000Y-117202380D01*
X74630952Y-117202380D01*
X74726190Y-117250000D01*
X74773809Y-117297619D01*
X74821428Y-117392857D01*
X74821428Y-117535714D01*
X74773809Y-117630952D01*
X74726190Y-117678571D01*
X74630952Y-117726190D01*
X74250000Y-117726190D01*
X37785714Y-24928571D02*
X38119047Y-24928571D01*
X38261904Y-25452380D02*
X37785714Y-25452380D01*
X37785714Y-24452380D01*
X38261904Y-24452380D01*
X38642857Y-25404761D02*
X38785714Y-25452380D01*
X39023809Y-25452380D01*
X39119047Y-25404761D01*
X39166666Y-25357142D01*
X39214285Y-25261904D01*
X39214285Y-25166666D01*
X39166666Y-25071428D01*
X39119047Y-25023809D01*
X39023809Y-24976190D01*
X38833333Y-24928571D01*
X38738095Y-24880952D01*
X38690476Y-24833333D01*
X38642857Y-24738095D01*
X38642857Y-24642857D01*
X38690476Y-24547619D01*
X38738095Y-24500000D01*
X38833333Y-24452380D01*
X39071428Y-24452380D01*
X39214285Y-24500000D01*
X39642857Y-25452380D02*
X39642857Y-24452380D01*
X40023809Y-24452380D01*
X40119047Y-24500000D01*
X40166666Y-24547619D01*
X40214285Y-24642857D01*
X40214285Y-24785714D01*
X40166666Y-24880952D01*
X40119047Y-24928571D01*
X40023809Y-24976190D01*
X39642857Y-24976190D01*
X40547619Y-24452380D02*
X41166666Y-24452380D01*
X40833333Y-24833333D01*
X40976190Y-24833333D01*
X41071428Y-24880952D01*
X41119047Y-24928571D01*
X41166666Y-25023809D01*
X41166666Y-25261904D01*
X41119047Y-25357142D01*
X41071428Y-25404761D01*
X40976190Y-25452380D01*
X40690476Y-25452380D01*
X40595238Y-25404761D01*
X40547619Y-25357142D01*
X41547619Y-24547619D02*
X41595238Y-24500000D01*
X41690476Y-24452380D01*
X41928571Y-24452380D01*
X42023809Y-24500000D01*
X42071428Y-24547619D01*
X42119047Y-24642857D01*
X42119047Y-24738095D01*
X42071428Y-24880952D01*
X41500000Y-25452380D01*
X42119047Y-25452380D01*
X42547619Y-25071428D02*
X43309523Y-25071428D01*
X43738095Y-25404761D02*
X43880952Y-25452380D01*
X44119047Y-25452380D01*
X44214285Y-25404761D01*
X44261904Y-25357142D01*
X44309523Y-25261904D01*
X44309523Y-25166666D01*
X44261904Y-25071428D01*
X44214285Y-25023809D01*
X44119047Y-24976190D01*
X43928571Y-24928571D01*
X43833333Y-24880952D01*
X43785714Y-24833333D01*
X43738095Y-24738095D01*
X43738095Y-24642857D01*
X43785714Y-24547619D01*
X43833333Y-24500000D01*
X43928571Y-24452380D01*
X44166666Y-24452380D01*
X44309523Y-24500000D01*
X44642857Y-24452380D02*
X45261904Y-24452380D01*
X44928571Y-24833333D01*
X45071428Y-24833333D01*
X45166666Y-24880952D01*
X45214285Y-24928571D01*
X45261904Y-25023809D01*
X45261904Y-25261904D01*
X45214285Y-25357142D01*
X45166666Y-25404761D01*
X45071428Y-25452380D01*
X44785714Y-25452380D01*
X44690476Y-25404761D01*
X44642857Y-25357142D01*
D11*
X31714285Y-86809523D02*
X31714285Y-82809523D01*
X33238095Y-82809523D01*
X33619047Y-83000000D01*
X33809523Y-83190476D01*
X34000000Y-83571428D01*
X34000000Y-84142857D01*
X33809523Y-84523809D01*
X33619047Y-84714285D01*
X33238095Y-84904761D01*
X31714285Y-84904761D01*
X35523809Y-85666666D02*
X37428571Y-85666666D01*
X35142857Y-86809523D02*
X36476190Y-82809523D01*
X37809523Y-86809523D01*
X38571428Y-82809523D02*
X40857142Y-82809523D01*
X39714285Y-86809523D02*
X39714285Y-82809523D01*
D10*
X89880952Y-65428571D02*
X90023809Y-65476190D01*
X90071428Y-65523809D01*
X90119047Y-65619047D01*
X90119047Y-65761904D01*
X90071428Y-65857142D01*
X90023809Y-65904761D01*
X89928571Y-65952380D01*
X89547619Y-65952380D01*
X89547619Y-64952380D01*
X89880952Y-64952380D01*
X89976190Y-65000000D01*
X90023809Y-65047619D01*
X90071428Y-65142857D01*
X90071428Y-65238095D01*
X90023809Y-65333333D01*
X89976190Y-65380952D01*
X89880952Y-65428571D01*
X89547619Y-65428571D01*
X90547619Y-64952380D02*
X90547619Y-65761904D01*
X90595238Y-65857142D01*
X90642857Y-65904761D01*
X90738095Y-65952380D01*
X90928571Y-65952380D01*
X91023809Y-65904761D01*
X91071428Y-65857142D01*
X91119047Y-65761904D01*
X91119047Y-64952380D01*
X91452380Y-64952380D02*
X92023809Y-64952380D01*
X91738095Y-65952380D02*
X91738095Y-64952380D01*
X92214285Y-64952380D02*
X92785714Y-64952380D01*
X92500000Y-65952380D02*
X92500000Y-64952380D01*
X93309523Y-64952380D02*
X93500000Y-64952380D01*
X93595238Y-65000000D01*
X93690476Y-65095238D01*
X93738095Y-65285714D01*
X93738095Y-65619047D01*
X93690476Y-65809523D01*
X93595238Y-65904761D01*
X93500000Y-65952380D01*
X93309523Y-65952380D01*
X93214285Y-65904761D01*
X93119047Y-65809523D01*
X93071428Y-65619047D01*
X93071428Y-65285714D01*
X93119047Y-65095238D01*
X93214285Y-65000000D01*
X93309523Y-64952380D01*
X94166666Y-65952380D02*
X94166666Y-64952380D01*
X94738095Y-65952380D01*
X94738095Y-64952380D01*
X95928571Y-65047619D02*
X95976190Y-65000000D01*
X96071428Y-64952380D01*
X96309523Y-64952380D01*
X96404761Y-65000000D01*
X96452380Y-65047619D01*
X96500000Y-65142857D01*
X96500000Y-65238095D01*
X96452380Y-65380952D01*
X95880952Y-65952380D01*
X96500000Y-65952380D01*
X81428571Y-104202380D02*
X80857142Y-104202380D01*
X81142857Y-104202380D02*
X81142857Y-103202380D01*
X81047619Y-103345238D01*
X80952380Y-103440476D01*
X80857142Y-103488095D01*
X82047619Y-103202380D02*
X82142857Y-103202380D01*
X82238095Y-103250000D01*
X82285714Y-103297619D01*
X82333333Y-103392857D01*
X82380952Y-103583333D01*
X82380952Y-103821428D01*
X82333333Y-104011904D01*
X82285714Y-104107142D01*
X82238095Y-104154761D01*
X82142857Y-104202380D01*
X82047619Y-104202380D01*
X81952380Y-104154761D01*
X81904761Y-104107142D01*
X81857142Y-104011904D01*
X81809523Y-103821428D01*
X81809523Y-103583333D01*
X81857142Y-103392857D01*
X81904761Y-103297619D01*
X81952380Y-103250000D01*
X82047619Y-103202380D01*
X83238095Y-103535714D02*
X83238095Y-104202380D01*
X82809523Y-103535714D02*
X82809523Y-104059523D01*
X82857142Y-104154761D01*
X82952380Y-104202380D01*
X83095238Y-104202380D01*
X83190476Y-104154761D01*
X83238095Y-104107142D01*
X84047619Y-103678571D02*
X83714285Y-103678571D01*
X83714285Y-104202380D02*
X83714285Y-103202380D01*
X84190476Y-103202380D01*
X78357142Y-108547619D02*
X78404761Y-108500000D01*
X78500000Y-108452380D01*
X78738095Y-108452380D01*
X78833333Y-108500000D01*
X78880952Y-108547619D01*
X78928571Y-108642857D01*
X78928571Y-108738095D01*
X78880952Y-108880952D01*
X78309523Y-109452380D01*
X78928571Y-109452380D01*
X79309523Y-108547619D02*
X79357142Y-108500000D01*
X79452380Y-108452380D01*
X79690476Y-108452380D01*
X79785714Y-108500000D01*
X79833333Y-108547619D01*
X79880952Y-108642857D01*
X79880952Y-108738095D01*
X79833333Y-108880952D01*
X79261904Y-109452380D01*
X79880952Y-109452380D01*
X80738095Y-108785714D02*
X80738095Y-109452380D01*
X80309523Y-108785714D02*
X80309523Y-109309523D01*
X80357142Y-109404761D01*
X80452380Y-109452380D01*
X80595238Y-109452380D01*
X80690476Y-109404761D01*
X80738095Y-109357142D01*
X81547619Y-108928571D02*
X81214285Y-108928571D01*
X81214285Y-109452380D02*
X81214285Y-108452380D01*
X81690476Y-108452380D01*
X89880952Y-48178571D02*
X90023809Y-48226190D01*
X90071428Y-48273809D01*
X90119047Y-48369047D01*
X90119047Y-48511904D01*
X90071428Y-48607142D01*
X90023809Y-48654761D01*
X89928571Y-48702380D01*
X89547619Y-48702380D01*
X89547619Y-47702380D01*
X89880952Y-47702380D01*
X89976190Y-47750000D01*
X90023809Y-47797619D01*
X90071428Y-47892857D01*
X90071428Y-47988095D01*
X90023809Y-48083333D01*
X89976190Y-48130952D01*
X89880952Y-48178571D01*
X89547619Y-48178571D01*
X90547619Y-47702380D02*
X90547619Y-48511904D01*
X90595238Y-48607142D01*
X90642857Y-48654761D01*
X90738095Y-48702380D01*
X90928571Y-48702380D01*
X91023809Y-48654761D01*
X91071428Y-48607142D01*
X91119047Y-48511904D01*
X91119047Y-47702380D01*
X91452380Y-47702380D02*
X92023809Y-47702380D01*
X91738095Y-48702380D02*
X91738095Y-47702380D01*
X92214285Y-47702380D02*
X92785714Y-47702380D01*
X92500000Y-48702380D02*
X92500000Y-47702380D01*
X93309523Y-47702380D02*
X93500000Y-47702380D01*
X93595238Y-47750000D01*
X93690476Y-47845238D01*
X93738095Y-48035714D01*
X93738095Y-48369047D01*
X93690476Y-48559523D01*
X93595238Y-48654761D01*
X93500000Y-48702380D01*
X93309523Y-48702380D01*
X93214285Y-48654761D01*
X93119047Y-48559523D01*
X93071428Y-48369047D01*
X93071428Y-48035714D01*
X93119047Y-47845238D01*
X93214285Y-47750000D01*
X93309523Y-47702380D01*
X94166666Y-48702380D02*
X94166666Y-47702380D01*
X94738095Y-48702380D01*
X94738095Y-47702380D01*
X96500000Y-48702380D02*
X95928571Y-48702380D01*
X96214285Y-48702380D02*
X96214285Y-47702380D01*
X96119047Y-47845238D01*
X96023809Y-47940476D01*
X95928571Y-47988095D01*
X52714285Y-118154761D02*
X52857142Y-118202380D01*
X53095238Y-118202380D01*
X53190476Y-118154761D01*
X53238095Y-118107142D01*
X53285714Y-118011904D01*
X53285714Y-117916666D01*
X53238095Y-117821428D01*
X53190476Y-117773809D01*
X53095238Y-117726190D01*
X52904761Y-117678571D01*
X52809523Y-117630952D01*
X52761904Y-117583333D01*
X52714285Y-117488095D01*
X52714285Y-117392857D01*
X52761904Y-117297619D01*
X52809523Y-117250000D01*
X52904761Y-117202380D01*
X53142857Y-117202380D01*
X53285714Y-117250000D01*
X53714285Y-118202380D02*
X53714285Y-117202380D01*
X54047619Y-117916666D01*
X54380952Y-117202380D01*
X54380952Y-118202380D01*
X54809523Y-117916666D02*
X55285714Y-117916666D01*
X54714285Y-118202380D02*
X55047619Y-117202380D01*
X55380952Y-118202380D01*
X65904761Y-24428571D02*
X66238095Y-24428571D01*
X66380952Y-24952380D02*
X65904761Y-24952380D01*
X65904761Y-23952380D01*
X66380952Y-23952380D01*
X66761904Y-24904761D02*
X66904761Y-24952380D01*
X67142857Y-24952380D01*
X67238095Y-24904761D01*
X67285714Y-24857142D01*
X67333333Y-24761904D01*
X67333333Y-24666666D01*
X67285714Y-24571428D01*
X67238095Y-24523809D01*
X67142857Y-24476190D01*
X66952380Y-24428571D01*
X66857142Y-24380952D01*
X66809523Y-24333333D01*
X66761904Y-24238095D01*
X66761904Y-24142857D01*
X66809523Y-24047619D01*
X66857142Y-24000000D01*
X66952380Y-23952380D01*
X67190476Y-23952380D01*
X67333333Y-24000000D01*
X67761904Y-24952380D02*
X67761904Y-23952380D01*
X68142857Y-23952380D01*
X68238095Y-24000000D01*
X68285714Y-24047619D01*
X68333333Y-24142857D01*
X68333333Y-24285714D01*
X68285714Y-24380952D01*
X68238095Y-24428571D01*
X68142857Y-24476190D01*
X67761904Y-24476190D01*
X68904761Y-24380952D02*
X68809523Y-24333333D01*
X68761904Y-24285714D01*
X68714285Y-24190476D01*
X68714285Y-24142857D01*
X68761904Y-24047619D01*
X68809523Y-24000000D01*
X68904761Y-23952380D01*
X69095238Y-23952380D01*
X69190476Y-24000000D01*
X69238095Y-24047619D01*
X69285714Y-24142857D01*
X69285714Y-24190476D01*
X69238095Y-24285714D01*
X69190476Y-24333333D01*
X69095238Y-24380952D01*
X68904761Y-24380952D01*
X68809523Y-24428571D01*
X68761904Y-24476190D01*
X68714285Y-24571428D01*
X68714285Y-24761904D01*
X68761904Y-24857142D01*
X68809523Y-24904761D01*
X68904761Y-24952380D01*
X69095238Y-24952380D01*
X69190476Y-24904761D01*
X69238095Y-24857142D01*
X69285714Y-24761904D01*
X69285714Y-24571428D01*
X69238095Y-24476190D01*
X69190476Y-24428571D01*
X69095238Y-24380952D01*
X69666666Y-24047619D02*
X69714285Y-24000000D01*
X69809523Y-23952380D01*
X70047619Y-23952380D01*
X70142857Y-24000000D01*
X70190476Y-24047619D01*
X70238095Y-24142857D01*
X70238095Y-24238095D01*
X70190476Y-24380952D01*
X69619047Y-24952380D01*
X70238095Y-24952380D01*
X71095238Y-23952380D02*
X70904761Y-23952380D01*
X70809523Y-24000000D01*
X70761904Y-24047619D01*
X70666666Y-24190476D01*
X70619047Y-24380952D01*
X70619047Y-24761904D01*
X70666666Y-24857142D01*
X70714285Y-24904761D01*
X70809523Y-24952380D01*
X71000000Y-24952380D01*
X71095238Y-24904761D01*
X71142857Y-24857142D01*
X71190476Y-24761904D01*
X71190476Y-24523809D01*
X71142857Y-24428571D01*
X71095238Y-24380952D01*
X71000000Y-24333333D01*
X70809523Y-24333333D01*
X70714285Y-24380952D01*
X70666666Y-24428571D01*
X70619047Y-24523809D01*
X72047619Y-23952380D02*
X71857142Y-23952380D01*
X71761904Y-24000000D01*
X71714285Y-24047619D01*
X71619047Y-24190476D01*
X71571428Y-24380952D01*
X71571428Y-24761904D01*
X71619047Y-24857142D01*
X71666666Y-24904761D01*
X71761904Y-24952380D01*
X71952380Y-24952380D01*
X72047619Y-24904761D01*
X72095238Y-24857142D01*
X72142857Y-24761904D01*
X72142857Y-24523809D01*
X72095238Y-24428571D01*
X72047619Y-24380952D01*
X71952380Y-24333333D01*
X71761904Y-24333333D01*
X71666666Y-24380952D01*
X71619047Y-24428571D01*
X71571428Y-24523809D01*
X65928571Y-106452380D02*
X65357142Y-106452380D01*
X65642857Y-106452380D02*
X65642857Y-105452380D01*
X65547619Y-105595238D01*
X65452380Y-105690476D01*
X65357142Y-105738095D01*
X66547619Y-105452380D02*
X66642857Y-105452380D01*
X66738095Y-105500000D01*
X66785714Y-105547619D01*
X66833333Y-105642857D01*
X66880952Y-105833333D01*
X66880952Y-106071428D01*
X66833333Y-106261904D01*
X66785714Y-106357142D01*
X66738095Y-106404761D01*
X66642857Y-106452380D01*
X66547619Y-106452380D01*
X66452380Y-106404761D01*
X66404761Y-106357142D01*
X66357142Y-106261904D01*
X66309523Y-106071428D01*
X66309523Y-105833333D01*
X66357142Y-105642857D01*
X66404761Y-105547619D01*
X66452380Y-105500000D01*
X66547619Y-105452380D01*
X67738095Y-105785714D02*
X67738095Y-106452380D01*
X67309523Y-105785714D02*
X67309523Y-106309523D01*
X67357142Y-106404761D01*
X67452380Y-106452380D01*
X67595238Y-106452380D01*
X67690476Y-106404761D01*
X67738095Y-106357142D01*
X68547619Y-105928571D02*
X68214285Y-105928571D01*
X68214285Y-106452380D02*
X68214285Y-105452380D01*
X68690476Y-105452380D01*
X88547619Y-93642857D02*
X88500000Y-93595238D01*
X88452380Y-93500000D01*
X88452380Y-93261904D01*
X88500000Y-93166666D01*
X88547619Y-93119047D01*
X88642857Y-93071428D01*
X88738095Y-93071428D01*
X88880952Y-93119047D01*
X89452380Y-93690476D01*
X89452380Y-93071428D01*
X88547619Y-92690476D02*
X88500000Y-92642857D01*
X88452380Y-92547619D01*
X88452380Y-92309523D01*
X88500000Y-92214285D01*
X88547619Y-92166666D01*
X88642857Y-92119047D01*
X88738095Y-92119047D01*
X88880952Y-92166666D01*
X89452380Y-92738095D01*
X89452380Y-92119047D01*
X88785714Y-91261904D02*
X89452380Y-91261904D01*
X88785714Y-91690476D02*
X89309523Y-91690476D01*
X89404761Y-91642857D01*
X89452380Y-91547619D01*
X89452380Y-91404761D01*
X89404761Y-91309523D01*
X89357142Y-91261904D01*
X88928571Y-90452380D02*
X88928571Y-90785714D01*
X89452380Y-90785714D02*
X88452380Y-90785714D01*
X88452380Y-90309523D01*
X77333333Y-86452380D02*
X77000000Y-85976190D01*
X76761904Y-86452380D02*
X76761904Y-85452380D01*
X77142857Y-85452380D01*
X77238095Y-85500000D01*
X77285714Y-85547619D01*
X77333333Y-85642857D01*
X77333333Y-85785714D01*
X77285714Y-85880952D01*
X77238095Y-85928571D01*
X77142857Y-85976190D01*
X76761904Y-85976190D01*
X78238095Y-85452380D02*
X77761904Y-85452380D01*
X77714285Y-85928571D01*
X77761904Y-85880952D01*
X77857142Y-85833333D01*
X78095238Y-85833333D01*
X78190476Y-85880952D01*
X78238095Y-85928571D01*
X78285714Y-86023809D01*
X78285714Y-86261904D01*
X78238095Y-86357142D01*
X78190476Y-86404761D01*
X78095238Y-86452380D01*
X77857142Y-86452380D01*
X77761904Y-86404761D01*
X77714285Y-86357142D01*
X78714285Y-86452380D02*
X78714285Y-85452380D01*
X79285714Y-86452380D02*
X78857142Y-85880952D01*
X79285714Y-85452380D02*
X78714285Y-86023809D01*
X93547619Y-93642857D02*
X93500000Y-93595238D01*
X93452380Y-93500000D01*
X93452380Y-93261904D01*
X93500000Y-93166666D01*
X93547619Y-93119047D01*
X93642857Y-93071428D01*
X93738095Y-93071428D01*
X93880952Y-93119047D01*
X94452380Y-93690476D01*
X94452380Y-93071428D01*
X93547619Y-92690476D02*
X93500000Y-92642857D01*
X93452380Y-92547619D01*
X93452380Y-92309523D01*
X93500000Y-92214285D01*
X93547619Y-92166666D01*
X93642857Y-92119047D01*
X93738095Y-92119047D01*
X93880952Y-92166666D01*
X94452380Y-92738095D01*
X94452380Y-92119047D01*
X93785714Y-91261904D02*
X94452380Y-91261904D01*
X93785714Y-91690476D02*
X94309523Y-91690476D01*
X94404761Y-91642857D01*
X94452380Y-91547619D01*
X94452380Y-91404761D01*
X94404761Y-91309523D01*
X94357142Y-91261904D01*
X93928571Y-90452380D02*
X93928571Y-90785714D01*
X94452380Y-90785714D02*
X93452380Y-90785714D01*
X93452380Y-90309523D01*
X93785714Y-100500000D02*
X94452380Y-100500000D01*
X93404761Y-100738095D02*
X94119047Y-100976190D01*
X94119047Y-100357142D01*
X94357142Y-99976190D02*
X94404761Y-99928571D01*
X94452380Y-99976190D01*
X94404761Y-100023809D01*
X94357142Y-99976190D01*
X94452380Y-99976190D01*
X93452380Y-99595238D02*
X93452380Y-98928571D01*
X94452380Y-99357142D01*
X93785714Y-98119047D02*
X94452380Y-98119047D01*
X93785714Y-98547619D02*
X94309523Y-98547619D01*
X94404761Y-98500000D01*
X94452380Y-98404761D01*
X94452380Y-98261904D01*
X94404761Y-98166666D01*
X94357142Y-98119047D01*
X94452380Y-97642857D02*
X93452380Y-97642857D01*
X93928571Y-97642857D02*
X93928571Y-97071428D01*
X94452380Y-97071428D02*
X93452380Y-97071428D01*
D12*
X64714285Y-72421190D02*
X64714285Y-71921190D01*
X64714285Y-72159285D02*
X65000000Y-72159285D01*
X65000000Y-72421190D02*
X65000000Y-71921190D01*
X65214285Y-72278333D02*
X65452380Y-72278333D01*
X65166666Y-72421190D02*
X65333333Y-71921190D01*
X65500000Y-72421190D01*
X65595238Y-71921190D02*
X65761904Y-72421190D01*
X65928571Y-71921190D01*
X66095238Y-72159285D02*
X66261904Y-72159285D01*
X66333333Y-72421190D02*
X66095238Y-72421190D01*
X66095238Y-71921190D01*
X66333333Y-71921190D01*
X67023809Y-72183095D02*
X67023809Y-72421190D01*
X66857142Y-71921190D02*
X67023809Y-72183095D01*
X67190476Y-71921190D01*
X67452380Y-71921190D02*
X67547619Y-71921190D01*
X67595238Y-71945000D01*
X67642857Y-71992619D01*
X67666666Y-72087857D01*
X67666666Y-72254523D01*
X67642857Y-72349761D01*
X67595238Y-72397380D01*
X67547619Y-72421190D01*
X67452380Y-72421190D01*
X67404761Y-72397380D01*
X67357142Y-72349761D01*
X67333333Y-72254523D01*
X67333333Y-72087857D01*
X67357142Y-71992619D01*
X67404761Y-71945000D01*
X67452380Y-71921190D01*
X67880952Y-71921190D02*
X67880952Y-72325952D01*
X67904761Y-72373571D01*
X67928571Y-72397380D01*
X67976190Y-72421190D01*
X68071428Y-72421190D01*
X68119047Y-72397380D01*
X68142857Y-72373571D01*
X68166666Y-72325952D01*
X68166666Y-71921190D01*
X68785714Y-72421190D02*
X68785714Y-71921190D01*
X68785714Y-72159285D02*
X69071428Y-72159285D01*
X69071428Y-72421190D02*
X69071428Y-71921190D01*
X69309523Y-72159285D02*
X69476190Y-72159285D01*
X69547619Y-72421190D02*
X69309523Y-72421190D01*
X69309523Y-71921190D01*
X69547619Y-71921190D01*
X69738095Y-72278333D02*
X69976190Y-72278333D01*
X69690476Y-72421190D02*
X69857142Y-71921190D01*
X70023809Y-72421190D01*
X70476190Y-72421190D02*
X70309523Y-72183095D01*
X70190476Y-72421190D02*
X70190476Y-71921190D01*
X70380952Y-71921190D01*
X70428571Y-71945000D01*
X70452380Y-71968809D01*
X70476190Y-72016428D01*
X70476190Y-72087857D01*
X70452380Y-72135476D01*
X70428571Y-72159285D01*
X70380952Y-72183095D01*
X70190476Y-72183095D01*
X70690476Y-72421190D02*
X70690476Y-71921190D01*
X70809523Y-71921190D01*
X70880952Y-71945000D01*
X70928571Y-71992619D01*
X70952380Y-72040238D01*
X70976190Y-72135476D01*
X70976190Y-72206904D01*
X70952380Y-72302142D01*
X70928571Y-72349761D01*
X70880952Y-72397380D01*
X70809523Y-72421190D01*
X70690476Y-72421190D01*
X71666666Y-71921190D02*
X71761904Y-71921190D01*
X71809523Y-71945000D01*
X71857142Y-71992619D01*
X71880952Y-72087857D01*
X71880952Y-72254523D01*
X71857142Y-72349761D01*
X71809523Y-72397380D01*
X71761904Y-72421190D01*
X71666666Y-72421190D01*
X71619047Y-72397380D01*
X71571428Y-72349761D01*
X71547619Y-72254523D01*
X71547619Y-72087857D01*
X71571428Y-71992619D01*
X71619047Y-71945000D01*
X71666666Y-71921190D01*
X72261904Y-72159285D02*
X72095238Y-72159285D01*
X72095238Y-72421190D02*
X72095238Y-71921190D01*
X72333333Y-71921190D01*
X65750000Y-72726190D02*
X66035714Y-72726190D01*
X65892857Y-73226190D02*
X65892857Y-72726190D01*
X66202380Y-73226190D02*
X66202380Y-72726190D01*
X66202380Y-72964285D02*
X66488095Y-72964285D01*
X66488095Y-73226190D02*
X66488095Y-72726190D01*
X66726190Y-72964285D02*
X66892857Y-72964285D01*
X66964285Y-73226190D02*
X66726190Y-73226190D01*
X66726190Y-72726190D01*
X66964285Y-72726190D01*
X67559523Y-73226190D02*
X67559523Y-72726190D01*
X67559523Y-72964285D02*
X67845238Y-72964285D01*
X67845238Y-73226190D02*
X67845238Y-72726190D01*
X68083333Y-73226190D02*
X68083333Y-72726190D01*
X68250000Y-72726190D02*
X68535714Y-72726190D01*
X68392857Y-73226190D02*
X68392857Y-72726190D01*
X69345238Y-72750000D02*
X69297619Y-72726190D01*
X69226190Y-72726190D01*
X69154761Y-72750000D01*
X69107142Y-72797619D01*
X69083333Y-72845238D01*
X69059523Y-72940476D01*
X69059523Y-73011904D01*
X69083333Y-73107142D01*
X69107142Y-73154761D01*
X69154761Y-73202380D01*
X69226190Y-73226190D01*
X69273809Y-73226190D01*
X69345238Y-73202380D01*
X69369047Y-73178571D01*
X69369047Y-73011904D01*
X69273809Y-73011904D01*
X69559523Y-73083333D02*
X69797619Y-73083333D01*
X69511904Y-73226190D02*
X69678571Y-72726190D01*
X69845238Y-73226190D01*
X70011904Y-73226190D02*
X70011904Y-72726190D01*
X70178571Y-73083333D01*
X70345238Y-72726190D01*
X70345238Y-73226190D01*
X70583333Y-72964285D02*
X70750000Y-72964285D01*
X70821428Y-73226190D02*
X70583333Y-73226190D01*
X70583333Y-72726190D01*
X70821428Y-72726190D01*
X66416666Y-73888333D02*
X66654761Y-73888333D01*
X66369047Y-74031190D02*
X66535714Y-73531190D01*
X66702380Y-74031190D01*
X66869047Y-74031190D02*
X66869047Y-73531190D01*
X67035714Y-73888333D01*
X67202380Y-73531190D01*
X67202380Y-74031190D01*
X67535714Y-73531190D02*
X67630952Y-73531190D01*
X67678571Y-73555000D01*
X67726190Y-73602619D01*
X67750000Y-73697857D01*
X67750000Y-73864523D01*
X67726190Y-73959761D01*
X67678571Y-74007380D01*
X67630952Y-74031190D01*
X67535714Y-74031190D01*
X67488095Y-74007380D01*
X67440476Y-73959761D01*
X67416666Y-73864523D01*
X67416666Y-73697857D01*
X67440476Y-73602619D01*
X67488095Y-73555000D01*
X67535714Y-73531190D01*
X67964285Y-74031190D02*
X67964285Y-73531190D01*
X68250000Y-74031190D01*
X68250000Y-73531190D01*
X68750000Y-73555000D02*
X68702380Y-73531190D01*
X68630952Y-73531190D01*
X68559523Y-73555000D01*
X68511904Y-73602619D01*
X68488095Y-73650238D01*
X68464285Y-73745476D01*
X68464285Y-73816904D01*
X68488095Y-73912142D01*
X68511904Y-73959761D01*
X68559523Y-74007380D01*
X68630952Y-74031190D01*
X68678571Y-74031190D01*
X68750000Y-74007380D01*
X68773809Y-73983571D01*
X68773809Y-73816904D01*
X68678571Y-73816904D01*
X69369047Y-73531190D02*
X69369047Y-73935952D01*
X69392857Y-73983571D01*
X69416666Y-74007380D01*
X69464285Y-74031190D01*
X69559523Y-74031190D01*
X69607142Y-74007380D01*
X69630952Y-73983571D01*
X69654761Y-73935952D01*
X69654761Y-73531190D01*
X69869047Y-74007380D02*
X69940476Y-74031190D01*
X70059523Y-74031190D01*
X70107142Y-74007380D01*
X70130952Y-73983571D01*
X70154761Y-73935952D01*
X70154761Y-73888333D01*
X70130952Y-73840714D01*
X70107142Y-73816904D01*
X70059523Y-73793095D01*
X69964285Y-73769285D01*
X69916666Y-73745476D01*
X69892857Y-73721666D01*
X69869047Y-73674047D01*
X69869047Y-73626428D01*
X69892857Y-73578809D01*
X69916666Y-73555000D01*
X69964285Y-73531190D01*
X70083333Y-73531190D01*
X70154761Y-73555000D01*
X70440476Y-73983571D02*
X70464285Y-74007380D01*
X70440476Y-74031190D01*
X70416666Y-74007380D01*
X70440476Y-73983571D01*
X70440476Y-74031190D01*
X70345238Y-73555000D02*
X70392857Y-73531190D01*
X70511904Y-73531190D01*
X70559523Y-73555000D01*
X70583333Y-73602619D01*
X70583333Y-73650238D01*
X70559523Y-73697857D01*
X70535714Y-73721666D01*
X70488095Y-73745476D01*
X70464285Y-73769285D01*
X70440476Y-73816904D01*
X70440476Y-73840714D01*
D10*
X31476755Y-88897380D02*
X31601755Y-87897380D01*
X31982708Y-87897380D01*
X32071994Y-87945000D01*
X32113660Y-87992619D01*
X32149375Y-88087857D01*
X32131517Y-88230714D01*
X32071994Y-88325952D01*
X32018422Y-88373571D01*
X31917232Y-88421190D01*
X31536279Y-88421190D01*
X32476755Y-88897380D02*
X32601755Y-87897380D01*
X33268422Y-87897380D02*
X33458898Y-87897380D01*
X33548184Y-87945000D01*
X33631517Y-88040238D01*
X33655327Y-88230714D01*
X33613660Y-88564047D01*
X33542232Y-88754523D01*
X33435089Y-88849761D01*
X33333898Y-88897380D01*
X33143422Y-88897380D01*
X33054136Y-88849761D01*
X32970803Y-88754523D01*
X32946994Y-88564047D01*
X32988660Y-88230714D01*
X33060089Y-88040238D01*
X33167232Y-87945000D01*
X33268422Y-87897380D01*
X34000565Y-88897380D02*
X34125565Y-87897380D01*
X34571994Y-88897380D01*
X34696994Y-87897380D01*
X35113660Y-88373571D02*
X35446994Y-88373571D01*
X35524375Y-88897380D02*
X35048184Y-88897380D01*
X35173184Y-87897380D01*
X35649375Y-87897380D01*
X36018422Y-88373571D02*
X36351755Y-88373571D01*
X36429136Y-88897380D02*
X35952946Y-88897380D01*
X36077946Y-87897380D01*
X36554136Y-87897380D01*
X37429136Y-88897380D02*
X37155327Y-88421190D01*
X36857708Y-88897380D02*
X36982708Y-87897380D01*
X37363660Y-87897380D01*
X37452946Y-87945000D01*
X37494613Y-87992619D01*
X37530327Y-88087857D01*
X37512470Y-88230714D01*
X37452946Y-88325952D01*
X37399375Y-88373571D01*
X37298184Y-88421190D01*
X36917232Y-88421190D01*
X39191041Y-88897380D02*
X38917232Y-88421190D01*
X38619613Y-88897380D02*
X38744613Y-87897380D01*
X39125565Y-87897380D01*
X39214851Y-87945000D01*
X39256517Y-87992619D01*
X39292232Y-88087857D01*
X39274375Y-88230714D01*
X39214851Y-88325952D01*
X39161279Y-88373571D01*
X39060089Y-88421190D01*
X38679136Y-88421190D01*
X40048184Y-88897380D02*
X40113660Y-88373571D01*
X40077946Y-88278333D01*
X39988660Y-88230714D01*
X39798184Y-88230714D01*
X39696994Y-88278333D01*
X40054136Y-88849761D02*
X39952946Y-88897380D01*
X39714851Y-88897380D01*
X39625565Y-88849761D01*
X39589851Y-88754523D01*
X39601755Y-88659285D01*
X39661279Y-88564047D01*
X39762470Y-88516428D01*
X40000565Y-88516428D01*
X40101755Y-88468809D01*
X40952946Y-88897380D02*
X41077946Y-87897380D01*
X40958898Y-88849761D02*
X40857708Y-88897380D01*
X40667232Y-88897380D01*
X40577946Y-88849761D01*
X40536279Y-88802142D01*
X40500565Y-88706904D01*
X40536279Y-88421190D01*
X40595803Y-88325952D01*
X40649375Y-88278333D01*
X40750565Y-88230714D01*
X40941041Y-88230714D01*
X41030327Y-88278333D01*
X41429136Y-88897380D02*
X41512470Y-88230714D01*
X41554136Y-87897380D02*
X41500565Y-87945000D01*
X41542232Y-87992619D01*
X41595803Y-87945000D01*
X41554136Y-87897380D01*
X41542232Y-87992619D01*
X42048184Y-88897380D02*
X41958898Y-88849761D01*
X41917232Y-88802142D01*
X41881517Y-88706904D01*
X41917232Y-88421190D01*
X41976755Y-88325952D01*
X42030327Y-88278333D01*
X42131517Y-88230714D01*
X42274375Y-88230714D01*
X42363660Y-88278333D01*
X42405327Y-88325952D01*
X42441041Y-88421190D01*
X42405327Y-88706904D01*
X42345803Y-88802142D01*
X42292232Y-88849761D01*
X42191041Y-88897380D01*
X42048184Y-88897380D01*
X44155327Y-88802142D02*
X44101755Y-88849761D01*
X43952946Y-88897380D01*
X43857708Y-88897380D01*
X43720803Y-88849761D01*
X43637470Y-88754523D01*
X43601755Y-88659285D01*
X43577946Y-88468809D01*
X43595803Y-88325952D01*
X43667232Y-88135476D01*
X43726755Y-88040238D01*
X43833898Y-87945000D01*
X43982708Y-87897380D01*
X44077946Y-87897380D01*
X44214851Y-87945000D01*
X44256517Y-87992619D01*
X44714851Y-88897380D02*
X44625565Y-88849761D01*
X44583898Y-88802142D01*
X44548184Y-88706904D01*
X44583898Y-88421190D01*
X44643422Y-88325952D01*
X44696994Y-88278333D01*
X44798184Y-88230714D01*
X44941041Y-88230714D01*
X45030327Y-88278333D01*
X45071994Y-88325952D01*
X45107708Y-88421190D01*
X45071994Y-88706904D01*
X45012470Y-88802142D01*
X44958898Y-88849761D01*
X44857708Y-88897380D01*
X44714851Y-88897380D01*
X45476755Y-88897380D02*
X45560089Y-88230714D01*
X45548184Y-88325952D02*
X45601755Y-88278333D01*
X45702946Y-88230714D01*
X45845803Y-88230714D01*
X45935089Y-88278333D01*
X45970803Y-88373571D01*
X45905327Y-88897380D01*
X45970803Y-88373571D02*
X46030327Y-88278333D01*
X46131517Y-88230714D01*
X46274375Y-88230714D01*
X46363660Y-88278333D01*
X46399375Y-88373571D01*
X46333898Y-88897380D01*
X46810089Y-88897380D02*
X46893422Y-88230714D01*
X46881517Y-88325952D02*
X46935089Y-88278333D01*
X47036279Y-88230714D01*
X47179136Y-88230714D01*
X47268422Y-88278333D01*
X47304136Y-88373571D01*
X47238660Y-88897380D01*
X47304136Y-88373571D02*
X47363660Y-88278333D01*
X47464851Y-88230714D01*
X47607708Y-88230714D01*
X47696994Y-88278333D01*
X47732708Y-88373571D01*
X47667232Y-88897380D01*
X48655327Y-88230714D02*
X48571994Y-88897380D01*
X48226755Y-88230714D02*
X48161279Y-88754523D01*
X48196994Y-88849761D01*
X48286279Y-88897380D01*
X48429136Y-88897380D01*
X48530327Y-88849761D01*
X48583898Y-88802142D01*
X49131517Y-88230714D02*
X49048184Y-88897380D01*
X49119613Y-88325952D02*
X49173184Y-88278333D01*
X49274375Y-88230714D01*
X49417232Y-88230714D01*
X49506517Y-88278333D01*
X49542232Y-88373571D01*
X49476755Y-88897380D01*
X49952946Y-88897380D02*
X50036279Y-88230714D01*
X50077946Y-87897380D02*
X50024375Y-87945000D01*
X50066041Y-87992619D01*
X50119613Y-87945000D01*
X50077946Y-87897380D01*
X50066041Y-87992619D01*
X50863660Y-88849761D02*
X50762470Y-88897380D01*
X50571994Y-88897380D01*
X50482708Y-88849761D01*
X50441041Y-88802142D01*
X50405327Y-88706904D01*
X50441041Y-88421190D01*
X50500565Y-88325952D01*
X50554136Y-88278333D01*
X50655327Y-88230714D01*
X50845803Y-88230714D01*
X50935089Y-88278333D01*
X51714851Y-88897380D02*
X51780327Y-88373571D01*
X51744613Y-88278333D01*
X51655327Y-88230714D01*
X51464851Y-88230714D01*
X51363660Y-88278333D01*
X51720803Y-88849761D02*
X51619613Y-88897380D01*
X51381517Y-88897380D01*
X51292232Y-88849761D01*
X51256517Y-88754523D01*
X51268422Y-88659285D01*
X51327946Y-88564047D01*
X51429136Y-88516428D01*
X51667232Y-88516428D01*
X51768422Y-88468809D01*
X52131517Y-88230714D02*
X52512470Y-88230714D01*
X52316041Y-87897380D02*
X52208898Y-88754523D01*
X52244613Y-88849761D01*
X52333898Y-88897380D01*
X52429136Y-88897380D01*
X52762470Y-88897380D02*
X52845803Y-88230714D01*
X52887470Y-87897380D02*
X52833898Y-87945000D01*
X52875565Y-87992619D01*
X52929136Y-87945000D01*
X52887470Y-87897380D01*
X52875565Y-87992619D01*
X53381517Y-88897380D02*
X53292232Y-88849761D01*
X53250565Y-88802142D01*
X53214851Y-88706904D01*
X53250565Y-88421190D01*
X53310089Y-88325952D01*
X53363660Y-88278333D01*
X53464851Y-88230714D01*
X53607708Y-88230714D01*
X53696994Y-88278333D01*
X53738660Y-88325952D01*
X53774375Y-88421190D01*
X53738660Y-88706904D01*
X53679136Y-88802142D01*
X53625565Y-88849761D01*
X53524375Y-88897380D01*
X53381517Y-88897380D01*
X54226755Y-88230714D02*
X54143422Y-88897380D01*
X54214851Y-88325952D02*
X54268422Y-88278333D01*
X54369613Y-88230714D01*
X54512470Y-88230714D01*
X54601755Y-88278333D01*
X54637470Y-88373571D01*
X54571994Y-88897380D01*
X41024375Y-90507380D02*
X41149375Y-89507380D01*
X41393422Y-90221666D01*
X41816041Y-89507380D01*
X41691041Y-90507380D01*
X42310089Y-90507380D02*
X42220803Y-90459761D01*
X42179136Y-90412142D01*
X42143422Y-90316904D01*
X42179136Y-90031190D01*
X42238660Y-89935952D01*
X42292232Y-89888333D01*
X42393422Y-89840714D01*
X42536279Y-89840714D01*
X42625565Y-89888333D01*
X42667232Y-89935952D01*
X42702946Y-90031190D01*
X42667232Y-90316904D01*
X42607708Y-90412142D01*
X42554136Y-90459761D01*
X42452946Y-90507380D01*
X42310089Y-90507380D01*
X43500565Y-90507380D02*
X43625565Y-89507380D01*
X43506517Y-90459761D02*
X43405327Y-90507380D01*
X43214851Y-90507380D01*
X43125565Y-90459761D01*
X43083898Y-90412142D01*
X43048184Y-90316904D01*
X43083898Y-90031190D01*
X43143422Y-89935952D01*
X43196994Y-89888333D01*
X43298184Y-89840714D01*
X43488660Y-89840714D01*
X43577946Y-89888333D01*
X44488660Y-89840714D02*
X44405327Y-90507380D01*
X44060089Y-89840714D02*
X43994613Y-90364523D01*
X44030327Y-90459761D01*
X44119613Y-90507380D01*
X44262470Y-90507380D01*
X44363660Y-90459761D01*
X44417232Y-90412142D01*
X45024375Y-90507380D02*
X44935089Y-90459761D01*
X44899375Y-90364523D01*
X45006517Y-89507380D01*
X45792232Y-90459761D02*
X45691041Y-90507380D01*
X45500565Y-90507380D01*
X45411279Y-90459761D01*
X45375565Y-90364523D01*
X45423184Y-89983571D01*
X45482708Y-89888333D01*
X45583898Y-89840714D01*
X45774375Y-89840714D01*
X45863660Y-89888333D01*
X45899375Y-89983571D01*
X45887470Y-90078809D01*
X45399375Y-90174047D01*
X86452380Y-102452380D02*
X85880952Y-102452380D01*
X86166666Y-102452380D02*
X86166666Y-101452380D01*
X86071428Y-101595238D01*
X85976190Y-101690476D01*
X85880952Y-101738095D01*
X87071428Y-101452380D02*
X87166666Y-101452380D01*
X87261904Y-101500000D01*
X87309523Y-101547619D01*
X87357142Y-101642857D01*
X87404761Y-101833333D01*
X87404761Y-102071428D01*
X87357142Y-102261904D01*
X87309523Y-102357142D01*
X87261904Y-102404761D01*
X87166666Y-102452380D01*
X87071428Y-102452380D01*
X86976190Y-102404761D01*
X86928571Y-102357142D01*
X86880952Y-102261904D01*
X86833333Y-102071428D01*
X86833333Y-101833333D01*
X86880952Y-101642857D01*
X86928571Y-101547619D01*
X86976190Y-101500000D01*
X87071428Y-101452380D01*
X88023809Y-101452380D02*
X88119047Y-101452380D01*
X88214285Y-101500000D01*
X88261904Y-101547619D01*
X88309523Y-101642857D01*
X88357142Y-101833333D01*
X88357142Y-102071428D01*
X88309523Y-102261904D01*
X88261904Y-102357142D01*
X88214285Y-102404761D01*
X88119047Y-102452380D01*
X88023809Y-102452380D01*
X87928571Y-102404761D01*
X87880952Y-102357142D01*
X87833333Y-102261904D01*
X87785714Y-102071428D01*
X87785714Y-101833333D01*
X87833333Y-101642857D01*
X87880952Y-101547619D01*
X87928571Y-101500000D01*
X88023809Y-101452380D01*
X88785714Y-101785714D02*
X88785714Y-102452380D01*
X88785714Y-101880952D02*
X88833333Y-101833333D01*
X88928571Y-101785714D01*
X89071428Y-101785714D01*
X89166666Y-101833333D01*
X89214285Y-101928571D01*
X89214285Y-102452380D01*
X90023809Y-101928571D02*
X89690476Y-101928571D01*
X89690476Y-102452380D02*
X89690476Y-101452380D01*
X90166666Y-101452380D01*
X59785714Y-99404761D02*
X60452380Y-99404761D01*
X59404761Y-99642857D02*
X60119047Y-99880952D01*
X60119047Y-99261904D01*
X60357142Y-98880952D02*
X60404761Y-98833333D01*
X60452380Y-98880952D01*
X60404761Y-98928571D01*
X60357142Y-98880952D01*
X60452380Y-98880952D01*
X59452380Y-98499999D02*
X59452380Y-97833333D01*
X60452380Y-98261904D01*
X59785714Y-97023809D02*
X60452380Y-97023809D01*
X59785714Y-97452380D02*
X60309523Y-97452380D01*
X60404761Y-97404761D01*
X60452380Y-97309523D01*
X60452380Y-97166666D01*
X60404761Y-97071428D01*
X60357142Y-97023809D01*
X59928571Y-96214285D02*
X59928571Y-96547619D01*
X60452380Y-96547619D02*
X59452380Y-96547619D01*
X59452380Y-96071428D01*
X91333333Y-86452380D02*
X91000000Y-85976190D01*
X90761904Y-86452380D02*
X90761904Y-85452380D01*
X91142857Y-85452380D01*
X91238095Y-85500000D01*
X91285714Y-85547619D01*
X91333333Y-85642857D01*
X91333333Y-85785714D01*
X91285714Y-85880952D01*
X91238095Y-85928571D01*
X91142857Y-85976190D01*
X90761904Y-85976190D01*
X92238095Y-85452380D02*
X91761904Y-85452380D01*
X91714285Y-85928571D01*
X91761904Y-85880952D01*
X91857142Y-85833333D01*
X92095238Y-85833333D01*
X92190476Y-85880952D01*
X92238095Y-85928571D01*
X92285714Y-86023809D01*
X92285714Y-86261904D01*
X92238095Y-86357142D01*
X92190476Y-86404761D01*
X92095238Y-86452380D01*
X91857142Y-86452380D01*
X91761904Y-86404761D01*
X91714285Y-86357142D01*
X92714285Y-86452380D02*
X92714285Y-85452380D01*
X93285714Y-86452380D02*
X92857142Y-85880952D01*
X93285714Y-85452380D02*
X92714285Y-86023809D01*
X96857142Y-78452380D02*
X96523809Y-77976190D01*
X96285714Y-78452380D02*
X96285714Y-77452380D01*
X96666666Y-77452380D01*
X96761904Y-77500000D01*
X96809523Y-77547619D01*
X96857142Y-77642857D01*
X96857142Y-77785714D01*
X96809523Y-77880952D01*
X96761904Y-77928571D01*
X96666666Y-77976190D01*
X96285714Y-77976190D01*
X97190476Y-77452380D02*
X97809523Y-77452380D01*
X97476190Y-77833333D01*
X97619047Y-77833333D01*
X97714285Y-77880952D01*
X97761904Y-77928571D01*
X97809523Y-78023809D01*
X97809523Y-78261904D01*
X97761904Y-78357142D01*
X97714285Y-78404761D01*
X97619047Y-78452380D01*
X97333333Y-78452380D01*
X97238095Y-78404761D01*
X97190476Y-78357142D01*
X98190476Y-77547619D02*
X98238095Y-77500000D01*
X98333333Y-77452380D01*
X98571428Y-77452380D01*
X98666666Y-77500000D01*
X98714285Y-77547619D01*
X98761904Y-77642857D01*
X98761904Y-77738095D01*
X98714285Y-77880952D01*
X98142857Y-78452380D01*
X98761904Y-78452380D01*
X99190476Y-78452380D02*
X99190476Y-77452380D01*
X99761904Y-78452380D02*
X99333333Y-77880952D01*
X99761904Y-77452380D02*
X99190476Y-78023809D01*
X71023809Y-95547619D02*
X71071428Y-95500000D01*
X71166666Y-95452380D01*
X71404761Y-95452380D01*
X71500000Y-95500000D01*
X71547619Y-95547619D01*
X71595238Y-95642857D01*
X71595238Y-95738095D01*
X71547619Y-95880952D01*
X70976190Y-96452380D01*
X71595238Y-96452380D01*
X72023809Y-96357142D02*
X72071428Y-96404761D01*
X72023809Y-96452380D01*
X71976190Y-96404761D01*
X72023809Y-96357142D01*
X72023809Y-96452380D01*
X72452380Y-95547619D02*
X72500000Y-95500000D01*
X72595238Y-95452380D01*
X72833333Y-95452380D01*
X72928571Y-95500000D01*
X72976190Y-95547619D01*
X73023809Y-95642857D01*
X73023809Y-95738095D01*
X72976190Y-95880952D01*
X72404761Y-96452380D01*
X73023809Y-96452380D01*
X73880952Y-95785714D02*
X73880952Y-96452380D01*
X73452380Y-95785714D02*
X73452380Y-96309523D01*
X73500000Y-96404761D01*
X73595238Y-96452380D01*
X73738095Y-96452380D01*
X73833333Y-96404761D01*
X73880952Y-96357142D01*
X74357142Y-96452380D02*
X74357142Y-95452380D01*
X74357142Y-95928571D02*
X74928571Y-95928571D01*
X74928571Y-96452380D02*
X74928571Y-95452380D01*
X96857142Y-61452380D02*
X96523809Y-60976190D01*
X96285714Y-61452380D02*
X96285714Y-60452380D01*
X96666666Y-60452380D01*
X96761904Y-60500000D01*
X96809523Y-60547619D01*
X96857142Y-60642857D01*
X96857142Y-60785714D01*
X96809523Y-60880952D01*
X96761904Y-60928571D01*
X96666666Y-60976190D01*
X96285714Y-60976190D01*
X97190476Y-60452380D02*
X97809523Y-60452380D01*
X97476190Y-60833333D01*
X97619047Y-60833333D01*
X97714285Y-60880952D01*
X97761904Y-60928571D01*
X97809523Y-61023809D01*
X97809523Y-61261904D01*
X97761904Y-61357142D01*
X97714285Y-61404761D01*
X97619047Y-61452380D01*
X97333333Y-61452380D01*
X97238095Y-61404761D01*
X97190476Y-61357142D01*
X98190476Y-60547619D02*
X98238095Y-60500000D01*
X98333333Y-60452380D01*
X98571428Y-60452380D01*
X98666666Y-60500000D01*
X98714285Y-60547619D01*
X98761904Y-60642857D01*
X98761904Y-60738095D01*
X98714285Y-60880952D01*
X98142857Y-61452380D01*
X98761904Y-61452380D01*
X99190476Y-61452380D02*
X99190476Y-60452380D01*
X99761904Y-61452380D02*
X99333333Y-60880952D01*
X99761904Y-60452380D02*
X99190476Y-61023809D01*
%TO.C,SW2*%
X89154761Y-72333333D02*
X89202380Y-72190476D01*
X89202380Y-71952380D01*
X89154761Y-71857142D01*
X89107142Y-71809523D01*
X89011904Y-71761904D01*
X88916666Y-71761904D01*
X88821428Y-71809523D01*
X88773809Y-71857142D01*
X88726190Y-71952380D01*
X88678571Y-72142857D01*
X88630952Y-72238095D01*
X88583333Y-72285714D01*
X88488095Y-72333333D01*
X88392857Y-72333333D01*
X88297619Y-72285714D01*
X88250000Y-72238095D01*
X88202380Y-72142857D01*
X88202380Y-71904761D01*
X88250000Y-71761904D01*
X88202380Y-71428571D02*
X89202380Y-71190476D01*
X88488095Y-71000000D01*
X89202380Y-70809523D01*
X88202380Y-70571428D01*
X88297619Y-70238095D02*
X88250000Y-70190476D01*
X88202380Y-70095238D01*
X88202380Y-69857142D01*
X88250000Y-69761904D01*
X88297619Y-69714285D01*
X88392857Y-69666666D01*
X88488095Y-69666666D01*
X88630952Y-69714285D01*
X89202380Y-70285714D01*
X89202380Y-69666666D01*
%TO.C,U1*%
X54096904Y-82122619D02*
X54096904Y-81313095D01*
X54049285Y-81217857D01*
X54001666Y-81170238D01*
X53906428Y-81122619D01*
X53715952Y-81122619D01*
X53620714Y-81170238D01*
X53573095Y-81217857D01*
X53525476Y-81313095D01*
X53525476Y-82122619D01*
X52525476Y-81122619D02*
X53096904Y-81122619D01*
X52811190Y-81122619D02*
X52811190Y-82122619D01*
X52906428Y-81979761D01*
X53001666Y-81884523D01*
X53096904Y-81836904D01*
%TO.C,C7*%
X87083333Y-89357142D02*
X87035714Y-89404761D01*
X86892857Y-89452380D01*
X86797619Y-89452380D01*
X86654761Y-89404761D01*
X86559523Y-89309523D01*
X86511904Y-89214285D01*
X86464285Y-89023809D01*
X86464285Y-88880952D01*
X86511904Y-88690476D01*
X86559523Y-88595238D01*
X86654761Y-88500000D01*
X86797619Y-88452380D01*
X86892857Y-88452380D01*
X87035714Y-88500000D01*
X87083333Y-88547619D01*
X87416666Y-88452380D02*
X88083333Y-88452380D01*
X87654761Y-89452380D01*
%TO.C,R2*%
X92833333Y-63272380D02*
X92500000Y-62796190D01*
X92261904Y-63272380D02*
X92261904Y-62272380D01*
X92642857Y-62272380D01*
X92738095Y-62320000D01*
X92785714Y-62367619D01*
X92833333Y-62462857D01*
X92833333Y-62605714D01*
X92785714Y-62700952D01*
X92738095Y-62748571D01*
X92642857Y-62796190D01*
X92261904Y-62796190D01*
X93214285Y-62367619D02*
X93261904Y-62320000D01*
X93357142Y-62272380D01*
X93595238Y-62272380D01*
X93690476Y-62320000D01*
X93738095Y-62367619D01*
X93785714Y-62462857D01*
X93785714Y-62558095D01*
X93738095Y-62700952D01*
X93166666Y-63272380D01*
X93785714Y-63272380D01*
%TO.C,H2*%
X36238095Y-36252380D02*
X36238095Y-35252380D01*
X36238095Y-35728571D02*
X36809523Y-35728571D01*
X36809523Y-36252380D02*
X36809523Y-35252380D01*
X37238095Y-35347619D02*
X37285714Y-35300000D01*
X37380952Y-35252380D01*
X37619047Y-35252380D01*
X37714285Y-35300000D01*
X37761904Y-35347619D01*
X37809523Y-35442857D01*
X37809523Y-35538095D01*
X37761904Y-35680952D01*
X37190476Y-36252380D01*
X37809523Y-36252380D01*
%TO.C,SW1*%
X89154761Y-55333333D02*
X89202380Y-55190476D01*
X89202380Y-54952380D01*
X89154761Y-54857142D01*
X89107142Y-54809523D01*
X89011904Y-54761904D01*
X88916666Y-54761904D01*
X88821428Y-54809523D01*
X88773809Y-54857142D01*
X88726190Y-54952380D01*
X88678571Y-55142857D01*
X88630952Y-55238095D01*
X88583333Y-55285714D01*
X88488095Y-55333333D01*
X88392857Y-55333333D01*
X88297619Y-55285714D01*
X88250000Y-55238095D01*
X88202380Y-55142857D01*
X88202380Y-54904761D01*
X88250000Y-54761904D01*
X88202380Y-54428571D02*
X89202380Y-54190476D01*
X88488095Y-54000000D01*
X89202380Y-53809523D01*
X88202380Y-53571428D01*
X89202380Y-52666666D02*
X89202380Y-53238095D01*
X89202380Y-52952380D02*
X88202380Y-52952380D01*
X88345238Y-53047619D01*
X88440476Y-53142857D01*
X88488095Y-53238095D01*
%TO.C,U2*%
X54614150Y-68522660D02*
X55749867Y-68522660D01*
X55883481Y-68455853D01*
X55950288Y-68389046D01*
X56017095Y-68255432D01*
X56017095Y-67988205D01*
X55950288Y-67854591D01*
X55883481Y-67787784D01*
X55749867Y-67720977D01*
X54614150Y-67720977D01*
X54747764Y-67119715D02*
X54680957Y-67052908D01*
X54614150Y-66919294D01*
X54614150Y-66585260D01*
X54680957Y-66451646D01*
X54747764Y-66384839D01*
X54881378Y-66318032D01*
X55014992Y-66318032D01*
X55215412Y-66384839D01*
X56017095Y-67186522D01*
X56017095Y-66318032D01*
%TO.C,SW5*%
X69599761Y-89875833D02*
X69647380Y-89732976D01*
X69647380Y-89494880D01*
X69599761Y-89399642D01*
X69552142Y-89352023D01*
X69456904Y-89304404D01*
X69361666Y-89304404D01*
X69266428Y-89352023D01*
X69218809Y-89399642D01*
X69171190Y-89494880D01*
X69123571Y-89685357D01*
X69075952Y-89780595D01*
X69028333Y-89828214D01*
X68933095Y-89875833D01*
X68837857Y-89875833D01*
X68742619Y-89828214D01*
X68695000Y-89780595D01*
X68647380Y-89685357D01*
X68647380Y-89447261D01*
X68695000Y-89304404D01*
X68647380Y-88971071D02*
X69647380Y-88732976D01*
X68933095Y-88542500D01*
X69647380Y-88352023D01*
X68647380Y-88113928D01*
X68647380Y-87256785D02*
X68647380Y-87732976D01*
X69123571Y-87780595D01*
X69075952Y-87732976D01*
X69028333Y-87637738D01*
X69028333Y-87399642D01*
X69075952Y-87304404D01*
X69123571Y-87256785D01*
X69218809Y-87209166D01*
X69456904Y-87209166D01*
X69552142Y-87256785D01*
X69599761Y-87304404D01*
X69647380Y-87399642D01*
X69647380Y-87637738D01*
X69599761Y-87732976D01*
X69552142Y-87780595D01*
%TO.C,C5*%
X79857142Y-102166666D02*
X79904761Y-102214285D01*
X79952380Y-102357142D01*
X79952380Y-102452380D01*
X79904761Y-102595238D01*
X79809523Y-102690476D01*
X79714285Y-102738095D01*
X79523809Y-102785714D01*
X79380952Y-102785714D01*
X79190476Y-102738095D01*
X79095238Y-102690476D01*
X79000000Y-102595238D01*
X78952380Y-102452380D01*
X78952380Y-102357142D01*
X79000000Y-102214285D01*
X79047619Y-102166666D01*
X78952380Y-101261904D02*
X78952380Y-101738095D01*
X79428571Y-101785714D01*
X79380952Y-101738095D01*
X79333333Y-101642857D01*
X79333333Y-101404761D01*
X79380952Y-101309523D01*
X79428571Y-101261904D01*
X79523809Y-101214285D01*
X79761904Y-101214285D01*
X79857142Y-101261904D01*
X79904761Y-101309523D01*
X79952380Y-101404761D01*
X79952380Y-101642857D01*
X79904761Y-101738095D01*
X79857142Y-101785714D01*
%TO.C,J4*%
X53666666Y-107702380D02*
X53666666Y-108416666D01*
X53619047Y-108559523D01*
X53523809Y-108654761D01*
X53380952Y-108702380D01*
X53285714Y-108702380D01*
X54571428Y-108035714D02*
X54571428Y-108702380D01*
X54333333Y-107654761D02*
X54095238Y-108369047D01*
X54714285Y-108369047D01*
%TO.C,U7*%
X83238095Y-94452380D02*
X83238095Y-95261904D01*
X83285714Y-95357142D01*
X83333333Y-95404761D01*
X83428571Y-95452380D01*
X83619047Y-95452380D01*
X83714285Y-95404761D01*
X83761904Y-95357142D01*
X83809523Y-95261904D01*
X83809523Y-94452380D01*
X84190476Y-94452380D02*
X84857142Y-94452380D01*
X84428571Y-95452380D01*
%TO.C,C6*%
X87833333Y-96357142D02*
X87785714Y-96404761D01*
X87642857Y-96452380D01*
X87547619Y-96452380D01*
X87404761Y-96404761D01*
X87309523Y-96309523D01*
X87261904Y-96214285D01*
X87214285Y-96023809D01*
X87214285Y-95880952D01*
X87261904Y-95690476D01*
X87309523Y-95595238D01*
X87404761Y-95500000D01*
X87547619Y-95452380D01*
X87642857Y-95452380D01*
X87785714Y-95500000D01*
X87833333Y-95547619D01*
X88690476Y-95452380D02*
X88500000Y-95452380D01*
X88404761Y-95500000D01*
X88357142Y-95547619D01*
X88261904Y-95690476D01*
X88214285Y-95880952D01*
X88214285Y-96261904D01*
X88261904Y-96357142D01*
X88309523Y-96404761D01*
X88404761Y-96452380D01*
X88595238Y-96452380D01*
X88690476Y-96404761D01*
X88738095Y-96357142D01*
X88785714Y-96261904D01*
X88785714Y-96023809D01*
X88738095Y-95928571D01*
X88690476Y-95880952D01*
X88595238Y-95833333D01*
X88404761Y-95833333D01*
X88309523Y-95880952D01*
X88261904Y-95928571D01*
X88214285Y-96023809D01*
%TO.C,C3*%
X91833333Y-89357142D02*
X91785714Y-89404761D01*
X91642857Y-89452380D01*
X91547619Y-89452380D01*
X91404761Y-89404761D01*
X91309523Y-89309523D01*
X91261904Y-89214285D01*
X91214285Y-89023809D01*
X91214285Y-88880952D01*
X91261904Y-88690476D01*
X91309523Y-88595238D01*
X91404761Y-88500000D01*
X91547619Y-88452380D01*
X91642857Y-88452380D01*
X91785714Y-88500000D01*
X91833333Y-88547619D01*
X92166666Y-88452380D02*
X92785714Y-88452380D01*
X92452380Y-88833333D01*
X92595238Y-88833333D01*
X92690476Y-88880952D01*
X92738095Y-88928571D01*
X92785714Y-89023809D01*
X92785714Y-89261904D01*
X92738095Y-89357142D01*
X92690476Y-89404761D01*
X92595238Y-89452380D01*
X92309523Y-89452380D01*
X92214285Y-89404761D01*
X92166666Y-89357142D01*
%TO.C,J1*%
X66666666Y-111452380D02*
X66666666Y-112166666D01*
X66619047Y-112309523D01*
X66523809Y-112404761D01*
X66380952Y-112452380D01*
X66285714Y-112452380D01*
X67666666Y-112452380D02*
X67095238Y-112452380D01*
X67380952Y-112452380D02*
X67380952Y-111452380D01*
X67285714Y-111595238D01*
X67190476Y-111690476D01*
X67095238Y-111738095D01*
%TO.C,J2*%
X75666666Y-114452380D02*
X75666666Y-115166666D01*
X75619047Y-115309523D01*
X75523809Y-115404761D01*
X75380952Y-115452380D01*
X75285714Y-115452380D01*
X76095238Y-114547619D02*
X76142857Y-114500000D01*
X76238095Y-114452380D01*
X76476190Y-114452380D01*
X76571428Y-114500000D01*
X76619047Y-114547619D01*
X76666666Y-114642857D01*
X76666666Y-114738095D01*
X76619047Y-114880952D01*
X76047619Y-115452380D01*
X76666666Y-115452380D01*
%TO.C,L1*%
X73733333Y-99452380D02*
X73257142Y-99452380D01*
X73257142Y-98452380D01*
X74590476Y-99452380D02*
X74019047Y-99452380D01*
X74304761Y-99452380D02*
X74304761Y-98452380D01*
X74209523Y-98595238D01*
X74114285Y-98690476D01*
X74019047Y-98738095D01*
%TO.C,R3*%
X93295833Y-80272380D02*
X92962500Y-79796190D01*
X92724404Y-80272380D02*
X92724404Y-79272380D01*
X93105357Y-79272380D01*
X93200595Y-79320000D01*
X93248214Y-79367619D01*
X93295833Y-79462857D01*
X93295833Y-79605714D01*
X93248214Y-79700952D01*
X93200595Y-79748571D01*
X93105357Y-79796190D01*
X92724404Y-79796190D01*
X93629166Y-79272380D02*
X94248214Y-79272380D01*
X93914880Y-79653333D01*
X94057738Y-79653333D01*
X94152976Y-79700952D01*
X94200595Y-79748571D01*
X94248214Y-79843809D01*
X94248214Y-80081904D01*
X94200595Y-80177142D01*
X94152976Y-80224761D01*
X94057738Y-80272380D01*
X93772023Y-80272380D01*
X93676785Y-80224761D01*
X93629166Y-80177142D01*
%TO.C,C2*%
X66833333Y-102357142D02*
X66785714Y-102404761D01*
X66642857Y-102452380D01*
X66547619Y-102452380D01*
X66404761Y-102404761D01*
X66309523Y-102309523D01*
X66261904Y-102214285D01*
X66214285Y-102023809D01*
X66214285Y-101880952D01*
X66261904Y-101690476D01*
X66309523Y-101595238D01*
X66404761Y-101500000D01*
X66547619Y-101452380D01*
X66642857Y-101452380D01*
X66785714Y-101500000D01*
X66833333Y-101547619D01*
X67214285Y-101547619D02*
X67261904Y-101500000D01*
X67357142Y-101452380D01*
X67595238Y-101452380D01*
X67690476Y-101500000D01*
X67738095Y-101547619D01*
X67785714Y-101642857D01*
X67785714Y-101738095D01*
X67738095Y-101880952D01*
X67166666Y-102452380D01*
X67785714Y-102452380D01*
%TO.C,U6*%
X66238095Y-95052380D02*
X66238095Y-95861904D01*
X66285714Y-95957142D01*
X66333333Y-96004761D01*
X66428571Y-96052380D01*
X66619047Y-96052380D01*
X66714285Y-96004761D01*
X66761904Y-95957142D01*
X66809523Y-95861904D01*
X66809523Y-95052380D01*
X67714285Y-95052380D02*
X67523809Y-95052380D01*
X67428571Y-95100000D01*
X67380952Y-95147619D01*
X67285714Y-95290476D01*
X67238095Y-95480952D01*
X67238095Y-95861904D01*
X67285714Y-95957142D01*
X67333333Y-96004761D01*
X67428571Y-96052380D01*
X67619047Y-96052380D01*
X67714285Y-96004761D01*
X67761904Y-95957142D01*
X67809523Y-95861904D01*
X67809523Y-95623809D01*
X67761904Y-95528571D01*
X67714285Y-95480952D01*
X67619047Y-95433333D01*
X67428571Y-95433333D01*
X67333333Y-95480952D01*
X67285714Y-95528571D01*
X67238095Y-95623809D01*
%TO.C,C4*%
X75808333Y-111357142D02*
X75760714Y-111404761D01*
X75617857Y-111452380D01*
X75522619Y-111452380D01*
X75379761Y-111404761D01*
X75284523Y-111309523D01*
X75236904Y-111214285D01*
X75189285Y-111023809D01*
X75189285Y-110880952D01*
X75236904Y-110690476D01*
X75284523Y-110595238D01*
X75379761Y-110500000D01*
X75522619Y-110452380D01*
X75617857Y-110452380D01*
X75760714Y-110500000D01*
X75808333Y-110547619D01*
X76665476Y-110785714D02*
X76665476Y-111452380D01*
X76427380Y-110404761D02*
X76189285Y-111119047D01*
X76808333Y-111119047D01*
%TO.C,R1*%
X91833333Y-82632380D02*
X91500000Y-82156190D01*
X91261904Y-82632380D02*
X91261904Y-81632380D01*
X91642857Y-81632380D01*
X91738095Y-81680000D01*
X91785714Y-81727619D01*
X91833333Y-81822857D01*
X91833333Y-81965714D01*
X91785714Y-82060952D01*
X91738095Y-82108571D01*
X91642857Y-82156190D01*
X91261904Y-82156190D01*
X92785714Y-82632380D02*
X92214285Y-82632380D01*
X92500000Y-82632380D02*
X92500000Y-81632380D01*
X92404761Y-81775238D01*
X92309523Y-81870476D01*
X92214285Y-81918095D01*
%TO.C,H4*%
X92238095Y-109252380D02*
X92238095Y-108252380D01*
X92238095Y-108728571D02*
X92809523Y-108728571D01*
X92809523Y-109252380D02*
X92809523Y-108252380D01*
X93714285Y-108585714D02*
X93714285Y-109252380D01*
X93476190Y-108204761D02*
X93238095Y-108919047D01*
X93857142Y-108919047D01*
%TO.C,H1*%
X92238095Y-36252380D02*
X92238095Y-35252380D01*
X92238095Y-35728571D02*
X92809523Y-35728571D01*
X92809523Y-36252380D02*
X92809523Y-35252380D01*
X93809523Y-36252380D02*
X93238095Y-36252380D01*
X93523809Y-36252380D02*
X93523809Y-35252380D01*
X93428571Y-35395238D01*
X93333333Y-35490476D01*
X93238095Y-35538095D01*
%TO.C,C1*%
X61833333Y-95357142D02*
X61785714Y-95404761D01*
X61642857Y-95452380D01*
X61547619Y-95452380D01*
X61404761Y-95404761D01*
X61309523Y-95309523D01*
X61261904Y-95214285D01*
X61214285Y-95023809D01*
X61214285Y-94880952D01*
X61261904Y-94690476D01*
X61309523Y-94595238D01*
X61404761Y-94500000D01*
X61547619Y-94452380D01*
X61642857Y-94452380D01*
X61785714Y-94500000D01*
X61833333Y-94547619D01*
X62785714Y-95452380D02*
X62214285Y-95452380D01*
X62500000Y-95452380D02*
X62500000Y-94452380D01*
X62404761Y-94595238D01*
X62309523Y-94690476D01*
X62214285Y-94738095D01*
%TO.C,H3*%
X36238095Y-109252380D02*
X36238095Y-108252380D01*
X36238095Y-108728571D02*
X36809523Y-108728571D01*
X36809523Y-109252380D02*
X36809523Y-108252380D01*
X37190476Y-108252380D02*
X37809523Y-108252380D01*
X37476190Y-108633333D01*
X37619047Y-108633333D01*
X37714285Y-108680952D01*
X37761904Y-108728571D01*
X37809523Y-108823809D01*
X37809523Y-109061904D01*
X37761904Y-109157142D01*
X37714285Y-109204761D01*
X37619047Y-109252380D01*
X37333333Y-109252380D01*
X37238095Y-109204761D01*
X37190476Y-109157142D01*
%TO.C,L2*%
X91833333Y-96452380D02*
X91357142Y-96452380D01*
X91357142Y-95452380D01*
X92119047Y-95547619D02*
X92166666Y-95500000D01*
X92261904Y-95452380D01*
X92500000Y-95452380D01*
X92595238Y-95500000D01*
X92642857Y-95547619D01*
X92690476Y-95642857D01*
X92690476Y-95738095D01*
X92642857Y-95880952D01*
X92071428Y-96452380D01*
X92690476Y-96452380D01*
%TO.C,D1*%
X86261904Y-86272380D02*
X86261904Y-85272380D01*
X86500000Y-85272380D01*
X86642857Y-85320000D01*
X86738095Y-85415238D01*
X86785714Y-85510476D01*
X86833333Y-85700952D01*
X86833333Y-85843809D01*
X86785714Y-86034285D01*
X86738095Y-86129523D01*
X86642857Y-86224761D01*
X86500000Y-86272380D01*
X86261904Y-86272380D01*
X87785714Y-86272380D02*
X87214285Y-86272380D01*
X87500000Y-86272380D02*
X87500000Y-85272380D01*
X87404761Y-85415238D01*
X87309523Y-85510476D01*
X87214285Y-85558095D01*
D13*
%TO.C,SW2*%
X89750000Y-68750000D02*
X89750000Y-73250000D01*
X93750000Y-67500000D02*
X92250000Y-67500000D01*
X96250000Y-73250000D02*
X96250000Y-68750000D01*
X92250000Y-74500000D02*
X93750000Y-74500000D01*
%TO.C,U1*%
X30475000Y-26505000D02*
X30475000Y-72225000D01*
X38095000Y-76035000D02*
X38095000Y-69685000D01*
X34285000Y-44285000D02*
X49525000Y-44285000D01*
X45715000Y-69685000D02*
X45715000Y-76035000D01*
X50795000Y-23965000D02*
X33015000Y-23965000D01*
X50795000Y-74765000D02*
X33015000Y-74765000D01*
X34285000Y-23965000D02*
X34285000Y-44285000D01*
X45715000Y-76035000D02*
X38095000Y-76035000D01*
X53335000Y-72225000D02*
X53335000Y-26505000D01*
X48255000Y-23965000D02*
X35555000Y-23965000D01*
X49525000Y-44285000D02*
X49525000Y-23965000D01*
X38095000Y-69685000D02*
X45715000Y-69685000D01*
X33015000Y-23965000D02*
G75*
G03*
X30475000Y-26505000I0J-2540000D01*
G01*
X30475000Y-72225000D02*
G75*
G03*
X33015000Y-74765000I2540000J0D01*
G01*
X53335000Y-26505000D02*
G75*
G03*
X50795000Y-23965000I-2540000J0D01*
G01*
X50795000Y-74765000D02*
G75*
G03*
X53335000Y-72225000I0J2540000D01*
G01*
%TO.C,C7*%
X86340000Y-92711252D02*
X86340000Y-91288748D01*
X88160000Y-92711252D02*
X88160000Y-91288748D01*
%TO.C,R2*%
X93727064Y-61910000D02*
X92272936Y-61910000D01*
X93727064Y-60090000D02*
X92272936Y-60090000D01*
%TO.C,SW1*%
X89750000Y-51750000D02*
X89750000Y-56250000D01*
X92250000Y-57500000D02*
X93750000Y-57500000D01*
X93750000Y-50500000D02*
X92250000Y-50500000D01*
X96250000Y-56250000D02*
X96250000Y-51750000D01*
D14*
%TO.C,U2*%
X57570000Y-23600000D02*
X80430000Y-23600000D01*
X80430000Y-74400000D02*
X57570000Y-74400000D01*
X80430000Y-23600000D02*
X80430000Y-74400000D01*
X57570000Y-74400000D02*
X57570000Y-23600000D01*
D15*
X78090000Y-68050000D02*
G75*
G03*
X78090000Y-68050000I-200000J0D01*
G01*
D13*
%TO.C,SW5*%
X68195000Y-83592500D02*
X68195000Y-93492500D01*
X63630000Y-86512500D02*
X63630000Y-87865833D01*
X66410000Y-87865833D02*
X65140000Y-87865833D01*
X62670000Y-86512500D02*
X62670000Y-87865833D01*
X62600000Y-90572500D02*
X63870000Y-90572500D01*
X65450000Y-86512500D02*
X65450000Y-87865833D01*
X63390000Y-86512500D02*
X63390000Y-87865833D01*
X68195000Y-83592500D02*
X60815000Y-83592500D01*
X66050000Y-86512500D02*
X66050000Y-87865833D01*
X63750000Y-86512500D02*
X63750000Y-87865833D01*
X63150000Y-86512500D02*
X63150000Y-87865833D01*
X65810000Y-86512500D02*
X65810000Y-87865833D01*
X65330000Y-86512500D02*
X65330000Y-87865833D01*
X66290000Y-86512500D02*
X66290000Y-87865833D01*
X65690000Y-86512500D02*
X65690000Y-87865833D01*
X65570000Y-86512500D02*
X65570000Y-87865833D01*
X66170000Y-86512500D02*
X66170000Y-87865833D01*
X65140000Y-86512500D02*
X65140000Y-90572500D01*
X66410000Y-90572500D02*
X66410000Y-86512500D01*
X63870000Y-90572500D02*
X63870000Y-86512500D01*
X65140000Y-90572500D02*
X66410000Y-90572500D01*
X63270000Y-86512500D02*
X63270000Y-87865833D01*
X62790000Y-86512500D02*
X62790000Y-87865833D01*
X63870000Y-86512500D02*
X62600000Y-86512500D01*
X63510000Y-86512500D02*
X63510000Y-87865833D01*
X68435000Y-83352500D02*
X67052000Y-83352500D01*
X60815000Y-83592500D02*
X60815000Y-93492500D01*
X66410000Y-86512500D02*
X65140000Y-86512500D01*
X68195000Y-93492500D02*
X60815000Y-93492500D01*
X63870000Y-87865833D02*
X62600000Y-87865833D01*
X62910000Y-86512500D02*
X62910000Y-87865833D01*
X62600000Y-86512500D02*
X62600000Y-90572500D01*
X68435000Y-83352500D02*
X68435000Y-84736500D01*
X65210000Y-86512500D02*
X65210000Y-87865833D01*
X63030000Y-86512500D02*
X63030000Y-87865833D01*
X65930000Y-86512500D02*
X65930000Y-87865833D01*
%TO.C,C5*%
X81788748Y-101090000D02*
X83211252Y-101090000D01*
X81788748Y-102910000D02*
X83211252Y-102910000D01*
%TO.C,J4*%
X52550000Y-109645000D02*
X55450000Y-109645000D01*
X50645000Y-111550000D02*
X50645000Y-114450000D01*
X52550000Y-116355000D02*
X55450000Y-116355000D01*
X57355000Y-111550000D02*
X57355000Y-114450000D01*
%TO.C,U7*%
X84000000Y-99560000D02*
X83200000Y-99560000D01*
X84000000Y-96440000D02*
X82200000Y-96440000D01*
X84000000Y-96440000D02*
X84800000Y-96440000D01*
X84000000Y-99560000D02*
X84800000Y-99560000D01*
%TO.C,C6*%
X87090000Y-99711252D02*
X87090000Y-98288748D01*
X88910000Y-99711252D02*
X88910000Y-98288748D01*
%TO.C,C3*%
X91090000Y-92711252D02*
X91090000Y-91288748D01*
X92910000Y-92711252D02*
X92910000Y-91288748D01*
%TO.C,J1*%
X64470000Y-113670000D02*
X72150000Y-113670000D01*
X64470000Y-116330000D02*
X64470000Y-113670000D01*
X61870000Y-116330000D02*
X61870000Y-115000000D01*
X64470000Y-116330000D02*
X72150000Y-116330000D01*
X63200000Y-116330000D02*
X61870000Y-116330000D01*
X72150000Y-116330000D02*
X72150000Y-113670000D01*
%TO.C,J2*%
X79000000Y-116330000D02*
X77670000Y-116330000D01*
X80270000Y-113670000D02*
X82870000Y-113670000D01*
X80270000Y-116330000D02*
X82870000Y-116330000D01*
X82870000Y-116330000D02*
X82870000Y-113670000D01*
X77670000Y-116330000D02*
X77670000Y-115000000D01*
X80270000Y-116330000D02*
X80270000Y-113670000D01*
%TO.C,L1*%
X72910000Y-98164758D02*
X72910000Y-99835242D01*
X71090000Y-98164758D02*
X71090000Y-99835242D01*
%TO.C,R3*%
X94189564Y-78910000D02*
X92735436Y-78910000D01*
X94189564Y-77090000D02*
X92735436Y-77090000D01*
%TO.C,C2*%
X67711252Y-103090000D02*
X66288748Y-103090000D01*
X67711252Y-104910000D02*
X66288748Y-104910000D01*
%TO.C,U6*%
X67000000Y-99560000D02*
X66200000Y-99560000D01*
X67000000Y-96440000D02*
X67800000Y-96440000D01*
X67000000Y-99560000D02*
X67800000Y-99560000D01*
X67000000Y-96440000D02*
X65200000Y-96440000D01*
%TO.C,C4*%
X80186252Y-110090000D02*
X78763748Y-110090000D01*
X80186252Y-111910000D02*
X78763748Y-111910000D01*
%TO.C,R1*%
X91272936Y-84910000D02*
X92727064Y-84910000D01*
X91272936Y-83090000D02*
X92727064Y-83090000D01*
%TO.C,C1*%
X62910000Y-98711252D02*
X62910000Y-97288748D01*
X61090000Y-98711252D02*
X61090000Y-97288748D01*
%TO.C,L2*%
X91090000Y-99835242D02*
X91090000Y-98164758D01*
X92910000Y-99835242D02*
X92910000Y-98164758D01*
%TO.C,D1*%
X89285000Y-82865000D02*
X85400000Y-82865000D01*
X89285000Y-85135000D02*
X89285000Y-82865000D01*
X85400000Y-85135000D02*
X89285000Y-85135000D01*
%TD*%
M02*
