%TF.GenerationSoftware,KiCad,Pcbnew,(6.0.10-0)*%
%TF.CreationDate,2023-01-18T17:38:16-08:00*%
%TF.ProjectId,Pioneer Controller V2,50696f6e-6565-4722-9043-6f6e74726f6c,rev?*%
%TF.SameCoordinates,Original*%
%TF.FileFunction,Legend,Bot*%
%TF.FilePolarity,Positive*%
%FSLAX46Y46*%
G04 Gerber Fmt 4.6, Leading zero omitted, Abs format (unit mm)*
G04 Created by KiCad (PCBNEW (6.0.10-0)) date 2023-01-18 17:38:16*
%MOMM*%
%LPD*%
G01*
G04 APERTURE LIST*
%ADD10C,0.150000*%
%ADD11C,0.125000*%
%ADD12C,0.120000*%
G04 APERTURE END LIST*
D10*
X50202380Y-99702380D02*
X50678571Y-99702380D01*
X50678571Y-98702380D01*
X49726190Y-99702380D02*
X49821428Y-99654761D01*
X49869047Y-99607142D01*
X49916666Y-99511904D01*
X49916666Y-99226190D01*
X49869047Y-99130952D01*
X49821428Y-99083333D01*
X49726190Y-99035714D01*
X49583333Y-99035714D01*
X49488095Y-99083333D01*
X49440476Y-99130952D01*
X49392857Y-99226190D01*
X49392857Y-99511904D01*
X49440476Y-99607142D01*
X49488095Y-99654761D01*
X49583333Y-99702380D01*
X49726190Y-99702380D01*
X48392857Y-99702380D02*
X48726190Y-99226190D01*
X48964285Y-99702380D02*
X48964285Y-98702380D01*
X48583333Y-98702380D01*
X48488095Y-98750000D01*
X48440476Y-98797619D01*
X48392857Y-98892857D01*
X48392857Y-99035714D01*
X48440476Y-99130952D01*
X48488095Y-99178571D01*
X48583333Y-99226190D01*
X48964285Y-99226190D01*
X47535714Y-99702380D02*
X47535714Y-99178571D01*
X47583333Y-99083333D01*
X47678571Y-99035714D01*
X47869047Y-99035714D01*
X47964285Y-99083333D01*
X47535714Y-99654761D02*
X47630952Y-99702380D01*
X47869047Y-99702380D01*
X47964285Y-99654761D01*
X48011904Y-99559523D01*
X48011904Y-99464285D01*
X47964285Y-99369047D01*
X47869047Y-99321428D01*
X47630952Y-99321428D01*
X47535714Y-99273809D01*
X46297619Y-99702380D02*
X46297619Y-98702380D01*
X45964285Y-99416666D01*
X45630952Y-98702380D01*
X45630952Y-99702380D01*
X44964285Y-98702380D02*
X44773809Y-98702380D01*
X44678571Y-98750000D01*
X44583333Y-98845238D01*
X44535714Y-99035714D01*
X44535714Y-99369047D01*
X44583333Y-99559523D01*
X44678571Y-99654761D01*
X44773809Y-99702380D01*
X44964285Y-99702380D01*
X45059523Y-99654761D01*
X45154761Y-99559523D01*
X45202380Y-99369047D01*
X45202380Y-99035714D01*
X45154761Y-98845238D01*
X45059523Y-98750000D01*
X44964285Y-98702380D01*
X44107142Y-99702380D02*
X44107142Y-98702380D01*
X43869047Y-98702380D01*
X43726190Y-98750000D01*
X43630952Y-98845238D01*
X43583333Y-98940476D01*
X43535714Y-99130952D01*
X43535714Y-99273809D01*
X43583333Y-99464285D01*
X43630952Y-99559523D01*
X43726190Y-99654761D01*
X43869047Y-99702380D01*
X44107142Y-99702380D01*
X43107142Y-98702380D02*
X43107142Y-99511904D01*
X43059523Y-99607142D01*
X43011904Y-99654761D01*
X42916666Y-99702380D01*
X42726190Y-99702380D01*
X42630952Y-99654761D01*
X42583333Y-99607142D01*
X42535714Y-99511904D01*
X42535714Y-98702380D01*
X41583333Y-99702380D02*
X42059523Y-99702380D01*
X42059523Y-98702380D01*
X41250000Y-99178571D02*
X40916666Y-99178571D01*
X40773809Y-99702380D02*
X41250000Y-99702380D01*
X41250000Y-98702380D01*
X40773809Y-98702380D01*
X67928571Y-56940476D02*
X67976190Y-57083333D01*
X68023809Y-57130952D01*
X68119047Y-57178571D01*
X68261904Y-57178571D01*
X68357142Y-57130952D01*
X68404761Y-57083333D01*
X68452380Y-56988095D01*
X68452380Y-56607142D01*
X67452380Y-56607142D01*
X67452380Y-56940476D01*
X67500000Y-57035714D01*
X67547619Y-57083333D01*
X67642857Y-57130952D01*
X67738095Y-57130952D01*
X67833333Y-57083333D01*
X67880952Y-57035714D01*
X67928571Y-56940476D01*
X67928571Y-56607142D01*
X68452380Y-57607142D02*
X67452380Y-57607142D01*
X68166666Y-57940476D01*
X67452380Y-58273809D01*
X68452380Y-58273809D01*
X67928571Y-58750000D02*
X67928571Y-59083333D01*
X68452380Y-59226190D02*
X68452380Y-58750000D01*
X67452380Y-58750000D01*
X67452380Y-59226190D01*
X67452380Y-60273809D02*
X67452380Y-60845238D01*
X68452380Y-60559523D02*
X67452380Y-60559523D01*
X67928571Y-61178571D02*
X67928571Y-61511904D01*
X68452380Y-61654761D02*
X68452380Y-61178571D01*
X67452380Y-61178571D01*
X67452380Y-61654761D01*
X68452380Y-62083333D02*
X67452380Y-62083333D01*
X68166666Y-62416666D01*
X67452380Y-62750000D01*
X68452380Y-62750000D01*
X68452380Y-63226190D02*
X67452380Y-63226190D01*
X67452380Y-63607142D01*
X67500000Y-63702380D01*
X67547619Y-63750000D01*
X67642857Y-63797619D01*
X67785714Y-63797619D01*
X67880952Y-63750000D01*
X67928571Y-63702380D01*
X67976190Y-63607142D01*
X67976190Y-63226190D01*
X67928571Y-64226190D02*
X67928571Y-64559523D01*
X68452380Y-64702380D02*
X68452380Y-64226190D01*
X67452380Y-64226190D01*
X67452380Y-64702380D01*
X68452380Y-65702380D02*
X67976190Y-65369047D01*
X68452380Y-65130952D02*
X67452380Y-65130952D01*
X67452380Y-65511904D01*
X67500000Y-65607142D01*
X67547619Y-65654761D01*
X67642857Y-65702380D01*
X67785714Y-65702380D01*
X67880952Y-65654761D01*
X67928571Y-65607142D01*
X67976190Y-65511904D01*
X67976190Y-65130952D01*
X68166666Y-66083333D02*
X68166666Y-66559523D01*
X68452380Y-65988095D02*
X67452380Y-66321428D01*
X68452380Y-66654761D01*
X67452380Y-66845238D02*
X67452380Y-67416666D01*
X68452380Y-67130952D02*
X67452380Y-67130952D01*
X67452380Y-67750000D02*
X68261904Y-67750000D01*
X68357142Y-67797619D01*
X68404761Y-67845238D01*
X68452380Y-67940476D01*
X68452380Y-68130952D01*
X68404761Y-68226190D01*
X68357142Y-68273809D01*
X68261904Y-68321428D01*
X67452380Y-68321428D01*
X68452380Y-69369047D02*
X67976190Y-69035714D01*
X68452380Y-68797619D02*
X67452380Y-68797619D01*
X67452380Y-69178571D01*
X67500000Y-69273809D01*
X67547619Y-69321428D01*
X67642857Y-69369047D01*
X67785714Y-69369047D01*
X67880952Y-69321428D01*
X67928571Y-69273809D01*
X67976190Y-69178571D01*
X67976190Y-68797619D01*
X67928571Y-69797619D02*
X67928571Y-70130952D01*
X68452380Y-70273809D02*
X68452380Y-69797619D01*
X67452380Y-69797619D01*
X67452380Y-70273809D01*
X68404761Y-71416666D02*
X68452380Y-71559523D01*
X68452380Y-71797619D01*
X68404761Y-71892857D01*
X68357142Y-71940476D01*
X68261904Y-71988095D01*
X68166666Y-71988095D01*
X68071428Y-71940476D01*
X68023809Y-71892857D01*
X67976190Y-71797619D01*
X67928571Y-71607142D01*
X67880952Y-71511904D01*
X67833333Y-71464285D01*
X67738095Y-71416666D01*
X67642857Y-71416666D01*
X67547619Y-71464285D01*
X67500000Y-71511904D01*
X67452380Y-71607142D01*
X67452380Y-71845238D01*
X67500000Y-71988095D01*
X67928571Y-72416666D02*
X67928571Y-72750000D01*
X68452380Y-72892857D02*
X68452380Y-72416666D01*
X67452380Y-72416666D01*
X67452380Y-72892857D01*
X68452380Y-73321428D02*
X67452380Y-73321428D01*
X68452380Y-73892857D01*
X67452380Y-73892857D01*
X68404761Y-74321428D02*
X68452380Y-74464285D01*
X68452380Y-74702380D01*
X68404761Y-74797619D01*
X68357142Y-74845238D01*
X68261904Y-74892857D01*
X68166666Y-74892857D01*
X68071428Y-74845238D01*
X68023809Y-74797619D01*
X67976190Y-74702380D01*
X67928571Y-74511904D01*
X67880952Y-74416666D01*
X67833333Y-74369047D01*
X67738095Y-74321428D01*
X67642857Y-74321428D01*
X67547619Y-74369047D01*
X67500000Y-74416666D01*
X67452380Y-74511904D01*
X67452380Y-74750000D01*
X67500000Y-74892857D01*
X67452380Y-75511904D02*
X67452380Y-75702380D01*
X67500000Y-75797619D01*
X67595238Y-75892857D01*
X67785714Y-75940476D01*
X68119047Y-75940476D01*
X68309523Y-75892857D01*
X68404761Y-75797619D01*
X68452380Y-75702380D01*
X68452380Y-75511904D01*
X68404761Y-75416666D01*
X68309523Y-75321428D01*
X68119047Y-75273809D01*
X67785714Y-75273809D01*
X67595238Y-75321428D01*
X67500000Y-75416666D01*
X67452380Y-75511904D01*
X68452380Y-76940476D02*
X67976190Y-76607142D01*
X68452380Y-76369047D02*
X67452380Y-76369047D01*
X67452380Y-76750000D01*
X67500000Y-76845238D01*
X67547619Y-76892857D01*
X67642857Y-76940476D01*
X67785714Y-76940476D01*
X67880952Y-76892857D01*
X67928571Y-76845238D01*
X67976190Y-76750000D01*
X67976190Y-76369047D01*
X68702380Y-36869047D02*
X68226190Y-36535714D01*
X68702380Y-36297619D02*
X67702380Y-36297619D01*
X67702380Y-36678571D01*
X67750000Y-36773809D01*
X67797619Y-36821428D01*
X67892857Y-36869047D01*
X68035714Y-36869047D01*
X68130952Y-36821428D01*
X68178571Y-36773809D01*
X68226190Y-36678571D01*
X68226190Y-36297619D01*
X67702380Y-37154761D02*
X67702380Y-37726190D01*
X68702380Y-37440476D02*
X67702380Y-37440476D01*
X68607142Y-38630952D02*
X68654761Y-38583333D01*
X68702380Y-38440476D01*
X68702380Y-38345238D01*
X68654761Y-38202380D01*
X68559523Y-38107142D01*
X68464285Y-38059523D01*
X68273809Y-38011904D01*
X68130952Y-38011904D01*
X67940476Y-38059523D01*
X67845238Y-38107142D01*
X67750000Y-38202380D01*
X67702380Y-38345238D01*
X67702380Y-38440476D01*
X67750000Y-38583333D01*
X67797619Y-38630952D01*
X68607142Y-40392857D02*
X68654761Y-40345238D01*
X68702380Y-40202380D01*
X68702380Y-40107142D01*
X68654761Y-39964285D01*
X68559523Y-39869047D01*
X68464285Y-39821428D01*
X68273809Y-39773809D01*
X68130952Y-39773809D01*
X67940476Y-39821428D01*
X67845238Y-39869047D01*
X67750000Y-39964285D01*
X67702380Y-40107142D01*
X67702380Y-40202380D01*
X67750000Y-40345238D01*
X67797619Y-40392857D01*
X68702380Y-41297619D02*
X68702380Y-40821428D01*
X67702380Y-40821428D01*
X67702380Y-41821428D02*
X67702380Y-42011904D01*
X67750000Y-42107142D01*
X67845238Y-42202380D01*
X68035714Y-42250000D01*
X68369047Y-42250000D01*
X68559523Y-42202380D01*
X68654761Y-42107142D01*
X68702380Y-42011904D01*
X68702380Y-41821428D01*
X68654761Y-41726190D01*
X68559523Y-41630952D01*
X68369047Y-41583333D01*
X68035714Y-41583333D01*
X67845238Y-41630952D01*
X67750000Y-41726190D01*
X67702380Y-41821428D01*
X68607142Y-43250000D02*
X68654761Y-43202380D01*
X68702380Y-43059523D01*
X68702380Y-42964285D01*
X68654761Y-42821428D01*
X68559523Y-42726190D01*
X68464285Y-42678571D01*
X68273809Y-42630952D01*
X68130952Y-42630952D01*
X67940476Y-42678571D01*
X67845238Y-42726190D01*
X67750000Y-42821428D01*
X67702380Y-42964285D01*
X67702380Y-43059523D01*
X67750000Y-43202380D01*
X67797619Y-43250000D01*
X68702380Y-43678571D02*
X67702380Y-43678571D01*
X68702380Y-44250000D02*
X68130952Y-43821428D01*
X67702380Y-44250000D02*
X68273809Y-43678571D01*
D11*
X77714285Y-84828809D02*
X77714285Y-85328809D01*
X77714285Y-85090714D02*
X78000000Y-85090714D01*
X78000000Y-84828809D02*
X78000000Y-85328809D01*
X78214285Y-84971666D02*
X78452380Y-84971666D01*
X78166666Y-84828809D02*
X78333333Y-85328809D01*
X78500000Y-84828809D01*
X78595238Y-85328809D02*
X78761904Y-84828809D01*
X78928571Y-85328809D01*
X79095238Y-85090714D02*
X79261904Y-85090714D01*
X79333333Y-84828809D02*
X79095238Y-84828809D01*
X79095238Y-85328809D01*
X79333333Y-85328809D01*
X80023809Y-85066904D02*
X80023809Y-84828809D01*
X79857142Y-85328809D02*
X80023809Y-85066904D01*
X80190476Y-85328809D01*
X80452380Y-85328809D02*
X80547619Y-85328809D01*
X80595238Y-85305000D01*
X80642857Y-85257380D01*
X80666666Y-85162142D01*
X80666666Y-84995476D01*
X80642857Y-84900238D01*
X80595238Y-84852619D01*
X80547619Y-84828809D01*
X80452380Y-84828809D01*
X80404761Y-84852619D01*
X80357142Y-84900238D01*
X80333333Y-84995476D01*
X80333333Y-85162142D01*
X80357142Y-85257380D01*
X80404761Y-85305000D01*
X80452380Y-85328809D01*
X80880952Y-85328809D02*
X80880952Y-84924047D01*
X80904761Y-84876428D01*
X80928571Y-84852619D01*
X80976190Y-84828809D01*
X81071428Y-84828809D01*
X81119047Y-84852619D01*
X81142857Y-84876428D01*
X81166666Y-84924047D01*
X81166666Y-85328809D01*
X81785714Y-84828809D02*
X81785714Y-85328809D01*
X81785714Y-85090714D02*
X82071428Y-85090714D01*
X82071428Y-84828809D02*
X82071428Y-85328809D01*
X82309523Y-85090714D02*
X82476190Y-85090714D01*
X82547619Y-84828809D02*
X82309523Y-84828809D01*
X82309523Y-85328809D01*
X82547619Y-85328809D01*
X82738095Y-84971666D02*
X82976190Y-84971666D01*
X82690476Y-84828809D02*
X82857142Y-85328809D01*
X83023809Y-84828809D01*
X83476190Y-84828809D02*
X83309523Y-85066904D01*
X83190476Y-84828809D02*
X83190476Y-85328809D01*
X83380952Y-85328809D01*
X83428571Y-85305000D01*
X83452380Y-85281190D01*
X83476190Y-85233571D01*
X83476190Y-85162142D01*
X83452380Y-85114523D01*
X83428571Y-85090714D01*
X83380952Y-85066904D01*
X83190476Y-85066904D01*
X83690476Y-84828809D02*
X83690476Y-85328809D01*
X83809523Y-85328809D01*
X83880952Y-85305000D01*
X83928571Y-85257380D01*
X83952380Y-85209761D01*
X83976190Y-85114523D01*
X83976190Y-85043095D01*
X83952380Y-84947857D01*
X83928571Y-84900238D01*
X83880952Y-84852619D01*
X83809523Y-84828809D01*
X83690476Y-84828809D01*
X84666666Y-85328809D02*
X84761904Y-85328809D01*
X84809523Y-85305000D01*
X84857142Y-85257380D01*
X84880952Y-85162142D01*
X84880952Y-84995476D01*
X84857142Y-84900238D01*
X84809523Y-84852619D01*
X84761904Y-84828809D01*
X84666666Y-84828809D01*
X84619047Y-84852619D01*
X84571428Y-84900238D01*
X84547619Y-84995476D01*
X84547619Y-85162142D01*
X84571428Y-85257380D01*
X84619047Y-85305000D01*
X84666666Y-85328809D01*
X85261904Y-85090714D02*
X85095238Y-85090714D01*
X85095238Y-84828809D02*
X85095238Y-85328809D01*
X85333333Y-85328809D01*
X78750000Y-84523809D02*
X79035714Y-84523809D01*
X78892857Y-84023809D02*
X78892857Y-84523809D01*
X79202380Y-84023809D02*
X79202380Y-84523809D01*
X79202380Y-84285714D02*
X79488095Y-84285714D01*
X79488095Y-84023809D02*
X79488095Y-84523809D01*
X79726190Y-84285714D02*
X79892857Y-84285714D01*
X79964285Y-84023809D02*
X79726190Y-84023809D01*
X79726190Y-84523809D01*
X79964285Y-84523809D01*
X80559523Y-84023809D02*
X80559523Y-84523809D01*
X80559523Y-84285714D02*
X80845238Y-84285714D01*
X80845238Y-84023809D02*
X80845238Y-84523809D01*
X81083333Y-84023809D02*
X81083333Y-84523809D01*
X81250000Y-84523809D02*
X81535714Y-84523809D01*
X81392857Y-84023809D02*
X81392857Y-84523809D01*
X82345238Y-84500000D02*
X82297619Y-84523809D01*
X82226190Y-84523809D01*
X82154761Y-84500000D01*
X82107142Y-84452380D01*
X82083333Y-84404761D01*
X82059523Y-84309523D01*
X82059523Y-84238095D01*
X82083333Y-84142857D01*
X82107142Y-84095238D01*
X82154761Y-84047619D01*
X82226190Y-84023809D01*
X82273809Y-84023809D01*
X82345238Y-84047619D01*
X82369047Y-84071428D01*
X82369047Y-84238095D01*
X82273809Y-84238095D01*
X82559523Y-84166666D02*
X82797619Y-84166666D01*
X82511904Y-84023809D02*
X82678571Y-84523809D01*
X82845238Y-84023809D01*
X83011904Y-84023809D02*
X83011904Y-84523809D01*
X83178571Y-84166666D01*
X83345238Y-84523809D01*
X83345238Y-84023809D01*
X83583333Y-84285714D02*
X83750000Y-84285714D01*
X83821428Y-84023809D02*
X83583333Y-84023809D01*
X83583333Y-84523809D01*
X83821428Y-84523809D01*
X79416666Y-83361666D02*
X79654761Y-83361666D01*
X79369047Y-83218809D02*
X79535714Y-83718809D01*
X79702380Y-83218809D01*
X79869047Y-83218809D02*
X79869047Y-83718809D01*
X80035714Y-83361666D01*
X80202380Y-83718809D01*
X80202380Y-83218809D01*
X80535714Y-83718809D02*
X80630952Y-83718809D01*
X80678571Y-83695000D01*
X80726190Y-83647380D01*
X80750000Y-83552142D01*
X80750000Y-83385476D01*
X80726190Y-83290238D01*
X80678571Y-83242619D01*
X80630952Y-83218809D01*
X80535714Y-83218809D01*
X80488095Y-83242619D01*
X80440476Y-83290238D01*
X80416666Y-83385476D01*
X80416666Y-83552142D01*
X80440476Y-83647380D01*
X80488095Y-83695000D01*
X80535714Y-83718809D01*
X80964285Y-83218809D02*
X80964285Y-83718809D01*
X81250000Y-83218809D01*
X81250000Y-83718809D01*
X81750000Y-83695000D02*
X81702380Y-83718809D01*
X81630952Y-83718809D01*
X81559523Y-83695000D01*
X81511904Y-83647380D01*
X81488095Y-83599761D01*
X81464285Y-83504523D01*
X81464285Y-83433095D01*
X81488095Y-83337857D01*
X81511904Y-83290238D01*
X81559523Y-83242619D01*
X81630952Y-83218809D01*
X81678571Y-83218809D01*
X81750000Y-83242619D01*
X81773809Y-83266428D01*
X81773809Y-83433095D01*
X81678571Y-83433095D01*
X82369047Y-83718809D02*
X82369047Y-83314047D01*
X82392857Y-83266428D01*
X82416666Y-83242619D01*
X82464285Y-83218809D01*
X82559523Y-83218809D01*
X82607142Y-83242619D01*
X82630952Y-83266428D01*
X82654761Y-83314047D01*
X82654761Y-83718809D01*
X82869047Y-83242619D02*
X82940476Y-83218809D01*
X83059523Y-83218809D01*
X83107142Y-83242619D01*
X83130952Y-83266428D01*
X83154761Y-83314047D01*
X83154761Y-83361666D01*
X83130952Y-83409285D01*
X83107142Y-83433095D01*
X83059523Y-83456904D01*
X82964285Y-83480714D01*
X82916666Y-83504523D01*
X82892857Y-83528333D01*
X82869047Y-83575952D01*
X82869047Y-83623571D01*
X82892857Y-83671190D01*
X82916666Y-83695000D01*
X82964285Y-83718809D01*
X83083333Y-83718809D01*
X83154761Y-83695000D01*
X83440476Y-83266428D02*
X83464285Y-83242619D01*
X83440476Y-83218809D01*
X83416666Y-83242619D01*
X83440476Y-83266428D01*
X83440476Y-83218809D01*
X83345238Y-83695000D02*
X83392857Y-83718809D01*
X83511904Y-83718809D01*
X83559523Y-83695000D01*
X83583333Y-83647380D01*
X83583333Y-83599761D01*
X83559523Y-83552142D01*
X83535714Y-83528333D01*
X83488095Y-83504523D01*
X83464285Y-83480714D01*
X83440476Y-83433095D01*
X83440476Y-83409285D01*
D10*
X76452380Y-111702380D02*
X76452380Y-110702380D01*
X76119047Y-111416666D01*
X75785714Y-110702380D01*
X75785714Y-111702380D01*
X75309523Y-111702380D02*
X75309523Y-110702380D01*
X74261904Y-111607142D02*
X74309523Y-111654761D01*
X74452380Y-111702380D01*
X74547619Y-111702380D01*
X74690476Y-111654761D01*
X74785714Y-111559523D01*
X74833333Y-111464285D01*
X74880952Y-111273809D01*
X74880952Y-111130952D01*
X74833333Y-110940476D01*
X74785714Y-110845238D01*
X74690476Y-110750000D01*
X74547619Y-110702380D01*
X74452380Y-110702380D01*
X74309523Y-110750000D01*
X74261904Y-110797619D01*
X73261904Y-111702380D02*
X73595238Y-111226190D01*
X73833333Y-111702380D02*
X73833333Y-110702380D01*
X73452380Y-110702380D01*
X73357142Y-110750000D01*
X73309523Y-110797619D01*
X73261904Y-110892857D01*
X73261904Y-111035714D01*
X73309523Y-111130952D01*
X73357142Y-111178571D01*
X73452380Y-111226190D01*
X73833333Y-111226190D01*
X72642857Y-110702380D02*
X72452380Y-110702380D01*
X72357142Y-110750000D01*
X72261904Y-110845238D01*
X72214285Y-111035714D01*
X72214285Y-111369047D01*
X72261904Y-111559523D01*
X72357142Y-111654761D01*
X72452380Y-111702380D01*
X72642857Y-111702380D01*
X72738095Y-111654761D01*
X72833333Y-111559523D01*
X72880952Y-111369047D01*
X72880952Y-111035714D01*
X72833333Y-110845238D01*
X72738095Y-110750000D01*
X72642857Y-110702380D01*
X71071428Y-111654761D02*
X70928571Y-111702380D01*
X70690476Y-111702380D01*
X70595238Y-111654761D01*
X70547619Y-111607142D01*
X70500000Y-111511904D01*
X70500000Y-111416666D01*
X70547619Y-111321428D01*
X70595238Y-111273809D01*
X70690476Y-111226190D01*
X70880952Y-111178571D01*
X70976190Y-111130952D01*
X71023809Y-111083333D01*
X71071428Y-110988095D01*
X71071428Y-110892857D01*
X71023809Y-110797619D01*
X70976190Y-110750000D01*
X70880952Y-110702380D01*
X70642857Y-110702380D01*
X70500000Y-110750000D01*
X70071428Y-111702380D02*
X70071428Y-110702380D01*
X69833333Y-110702380D01*
X69690476Y-110750000D01*
X69595238Y-110845238D01*
X69547619Y-110940476D01*
X69500000Y-111130952D01*
X69500000Y-111273809D01*
X69547619Y-111464285D01*
X69595238Y-111559523D01*
X69690476Y-111654761D01*
X69833333Y-111702380D01*
X70071428Y-111702380D01*
%TO.C,U5*%
X63452380Y-66238095D02*
X64261904Y-66238095D01*
X64357142Y-66285714D01*
X64404761Y-66333333D01*
X64452380Y-66428571D01*
X64452380Y-66619047D01*
X64404761Y-66714285D01*
X64357142Y-66761904D01*
X64261904Y-66809523D01*
X63452380Y-66809523D01*
X63452380Y-67761904D02*
X63452380Y-67285714D01*
X63928571Y-67238095D01*
X63880952Y-67285714D01*
X63833333Y-67380952D01*
X63833333Y-67619047D01*
X63880952Y-67714285D01*
X63928571Y-67761904D01*
X64023809Y-67809523D01*
X64261904Y-67809523D01*
X64357142Y-67761904D01*
X64404761Y-67714285D01*
X64452380Y-67619047D01*
X64452380Y-67380952D01*
X64404761Y-67285714D01*
X64357142Y-67238095D01*
%TO.C,U8*%
X72488095Y-118117619D02*
X72488095Y-117308095D01*
X72535714Y-117212857D01*
X72583333Y-117165238D01*
X72678571Y-117117619D01*
X72869047Y-117117619D01*
X72964285Y-117165238D01*
X73011904Y-117212857D01*
X73059523Y-117308095D01*
X73059523Y-118117619D01*
X73678571Y-117689047D02*
X73583333Y-117736666D01*
X73535714Y-117784285D01*
X73488095Y-117879523D01*
X73488095Y-117927142D01*
X73535714Y-118022380D01*
X73583333Y-118070000D01*
X73678571Y-118117619D01*
X73869047Y-118117619D01*
X73964285Y-118070000D01*
X74011904Y-118022380D01*
X74059523Y-117927142D01*
X74059523Y-117879523D01*
X74011904Y-117784285D01*
X73964285Y-117736666D01*
X73869047Y-117689047D01*
X73678571Y-117689047D01*
X73583333Y-117641428D01*
X73535714Y-117593809D01*
X73488095Y-117498571D01*
X73488095Y-117308095D01*
X73535714Y-117212857D01*
X73583333Y-117165238D01*
X73678571Y-117117619D01*
X73869047Y-117117619D01*
X73964285Y-117165238D01*
X74011904Y-117212857D01*
X74059523Y-117308095D01*
X74059523Y-117498571D01*
X74011904Y-117593809D01*
X73964285Y-117641428D01*
X73869047Y-117689047D01*
%TO.C,U4*%
X43761904Y-106962380D02*
X43761904Y-107771904D01*
X43714285Y-107867142D01*
X43666666Y-107914761D01*
X43571428Y-107962380D01*
X43380952Y-107962380D01*
X43285714Y-107914761D01*
X43238095Y-107867142D01*
X43190476Y-107771904D01*
X43190476Y-106962380D01*
X42285714Y-107295714D02*
X42285714Y-107962380D01*
X42523809Y-106914761D02*
X42761904Y-107629047D01*
X42142857Y-107629047D01*
%TO.C,U3*%
X62307380Y-40238095D02*
X63116904Y-40238095D01*
X63212142Y-40285714D01*
X63259761Y-40333333D01*
X63307380Y-40428571D01*
X63307380Y-40619047D01*
X63259761Y-40714285D01*
X63212142Y-40761904D01*
X63116904Y-40809523D01*
X62307380Y-40809523D01*
X62307380Y-41190476D02*
X62307380Y-41809523D01*
X62688333Y-41476190D01*
X62688333Y-41619047D01*
X62735952Y-41714285D01*
X62783571Y-41761904D01*
X62878809Y-41809523D01*
X63116904Y-41809523D01*
X63212142Y-41761904D01*
X63259761Y-41714285D01*
X63307380Y-41619047D01*
X63307380Y-41333333D01*
X63259761Y-41238095D01*
X63212142Y-41190476D01*
D12*
%TO.C,U5*%
X84240000Y-79700000D02*
X71540000Y-79700000D01*
X69000000Y-77160000D02*
X69000000Y-56840000D01*
X86780000Y-56840000D02*
X86780000Y-77160000D01*
X71540000Y-54300000D02*
X84240000Y-54300000D01*
X86780000Y-56840000D02*
G75*
G03*
X84240000Y-54300000I-2540001J-1D01*
G01*
X84240000Y-79700000D02*
G75*
G03*
X86780000Y-77160000I0J2540000D01*
G01*
X71540000Y-54300000D02*
G75*
G03*
X69000000Y-56840000I1J-2540001D01*
G01*
X69000000Y-77160000D02*
G75*
G03*
X71540000Y-79700000I2540000J0D01*
G01*
%TO.C,U8*%
X85950000Y-110720000D02*
X85950000Y-81510000D01*
X61820000Y-111990000D02*
X84680000Y-111990000D01*
X61820000Y-80240000D02*
X84680000Y-80240000D01*
X60550000Y-81510000D02*
X60550000Y-110720000D01*
X61820000Y-80240000D02*
G75*
G03*
X60550000Y-81510000I-1J-1269999D01*
G01*
X84680000Y-111990000D02*
G75*
G03*
X85950000Y-110720000I0J1270000D01*
G01*
X60550000Y-110720000D02*
G75*
G03*
X61820000Y-111990000I1269999J-1D01*
G01*
X85950000Y-81510000D02*
G75*
G03*
X84680000Y-80240000I-1270000J0D01*
G01*
%TO.C,U4*%
X31300000Y-106510000D02*
X54160000Y-106510000D01*
X31300000Y-79840000D02*
X31300000Y-106510000D01*
X54160000Y-77300000D02*
X33840000Y-77300000D01*
X56700000Y-103970000D02*
X56700000Y-79840000D01*
X54160000Y-83650000D02*
X37650000Y-83650000D01*
X37650000Y-83650000D02*
X37650000Y-100160000D01*
X37650000Y-100160000D02*
X54160000Y-100160000D01*
X54160000Y-100160000D02*
X54160000Y-83650000D01*
X54160000Y-106510000D02*
G75*
G03*
X56700000Y-103970000I0J2540000D01*
G01*
X56700000Y-79840000D02*
G75*
G03*
X54160000Y-77300000I-2540000J0D01*
G01*
X33840000Y-77300000D02*
G75*
G03*
X31300000Y-79840000I1J-2540001D01*
G01*
%TO.C,U3*%
X86985000Y-51160000D02*
X86985000Y-30840000D01*
X84445000Y-28300000D02*
X71745000Y-28300000D01*
X69205000Y-30840000D02*
X69205000Y-51160000D01*
X71745000Y-53700000D02*
X84445000Y-53700000D01*
X71745000Y-28300000D02*
G75*
G03*
X69205000Y-30840000I1J-2540001D01*
G01*
X86985000Y-30840000D02*
G75*
G03*
X84445000Y-28300000I-2540001J-1D01*
G01*
X84445000Y-53700000D02*
G75*
G03*
X86985000Y-51160000I0J2540000D01*
G01*
X69205000Y-51160000D02*
G75*
G03*
X71745000Y-53700000I2540000J0D01*
G01*
%TD*%
M02*
