%TF.GenerationSoftware,KiCad,Pcbnew,(6.0.5-0)*%
%TF.CreationDate,2022-10-17T18:29:33-07:00*%
%TF.ProjectId,Pioneer Controller,50696f6e-6565-4722-9043-6f6e74726f6c,rev?*%
%TF.SameCoordinates,Original*%
%TF.FileFunction,Paste,Top*%
%TF.FilePolarity,Positive*%
%FSLAX46Y46*%
G04 Gerber Fmt 4.6, Leading zero omitted, Abs format (unit mm)*
G04 Created by KiCad (PCBNEW (6.0.5-0)) date 2022-10-17 18:29:33*
%MOMM*%
%LPD*%
G01*
G04 APERTURE LIST*
G04 Aperture macros list*
%AMRoundRect*
0 Rectangle with rounded corners*
0 $1 Rounding radius*
0 $2 $3 $4 $5 $6 $7 $8 $9 X,Y pos of 4 corners*
0 Add a 4 corners polygon primitive as box body*
4,1,4,$2,$3,$4,$5,$6,$7,$8,$9,$2,$3,0*
0 Add four circle primitives for the rounded corners*
1,1,$1+$1,$2,$3*
1,1,$1+$1,$4,$5*
1,1,$1+$1,$6,$7*
1,1,$1+$1,$8,$9*
0 Add four rect primitives between the rounded corners*
20,1,$1+$1,$2,$3,$4,$5,0*
20,1,$1+$1,$4,$5,$6,$7,0*
20,1,$1+$1,$6,$7,$8,$9,0*
20,1,$1+$1,$8,$9,$2,$3,0*%
G04 Aperture macros list end*
%ADD10RoundRect,0.250000X-0.700000X0.275000X-0.700000X-0.275000X0.700000X-0.275000X0.700000X0.275000X0*%
%ADD11RoundRect,0.150000X-0.512500X-0.150000X0.512500X-0.150000X0.512500X0.150000X-0.512500X0.150000X0*%
%ADD12RoundRect,0.250000X0.312500X0.625000X-0.312500X0.625000X-0.312500X-0.625000X0.312500X-0.625000X0*%
%ADD13RoundRect,0.250000X-0.325000X-0.650000X0.325000X-0.650000X0.325000X0.650000X-0.325000X0.650000X0*%
%ADD14RoundRect,0.250000X-0.650000X0.325000X-0.650000X-0.325000X0.650000X-0.325000X0.650000X0.325000X0*%
%ADD15RoundRect,0.250000X0.375000X0.625000X-0.375000X0.625000X-0.375000X-0.625000X0.375000X-0.625000X0*%
%ADD16RoundRect,0.250000X0.325000X0.650000X-0.325000X0.650000X-0.325000X-0.650000X0.325000X-0.650000X0*%
%ADD17RoundRect,0.250000X-0.275000X-0.700000X0.275000X-0.700000X0.275000X0.700000X-0.275000X0.700000X0*%
G04 APERTURE END LIST*
D10*
%TO.C,L2*%
X84455000Y-93040000D03*
X84455000Y-96190000D03*
%TD*%
D11*
%TO.C,U6*%
X71252500Y-100650000D03*
X71252500Y-101600000D03*
X71252500Y-102550000D03*
X73527500Y-102550000D03*
X73527500Y-100650000D03*
%TD*%
D12*
%TO.C,R7*%
X77662500Y-88900000D03*
X74737500Y-88900000D03*
%TD*%
D13*
%TO.C,C2*%
X79525000Y-104000000D03*
X82475000Y-104000000D03*
%TD*%
%TO.C,C5*%
X90525000Y-109000000D03*
X93475000Y-109000000D03*
%TD*%
D14*
%TO.C,C1*%
X68000000Y-100525000D03*
X68000000Y-103475000D03*
%TD*%
D15*
%TO.C,D1*%
X63630000Y-85725000D03*
X60830000Y-85725000D03*
%TD*%
D12*
%TO.C,R3*%
X87822500Y-62230000D03*
X84897500Y-62230000D03*
%TD*%
%TO.C,R2*%
X87822500Y-58420000D03*
X84897500Y-58420000D03*
%TD*%
D16*
%TO.C,C6*%
X82120000Y-93345000D03*
X79170000Y-93345000D03*
%TD*%
%TO.C,C7*%
X67515000Y-94615000D03*
X64565000Y-94615000D03*
%TD*%
D11*
%TO.C,U7*%
X71252500Y-93030000D03*
X71252500Y-93980000D03*
X71252500Y-94930000D03*
X73527500Y-94930000D03*
X73527500Y-93980000D03*
X73527500Y-93030000D03*
%TD*%
D15*
%TO.C,D3*%
X77600000Y-85725000D03*
X74800000Y-85725000D03*
%TD*%
D12*
%TO.C,R4*%
X70677500Y-88900000D03*
X67752500Y-88900000D03*
%TD*%
D15*
%TO.C,D2*%
X70615000Y-85725000D03*
X67815000Y-85725000D03*
%TD*%
D12*
%TO.C,R6*%
X87822500Y-69850000D03*
X84897500Y-69850000D03*
%TD*%
%TO.C,R1*%
X63692500Y-88900000D03*
X60767500Y-88900000D03*
%TD*%
D14*
%TO.C,C8*%
X62230000Y-94410000D03*
X62230000Y-97360000D03*
%TD*%
D17*
%TO.C,L1*%
X79425000Y-100000000D03*
X82575000Y-100000000D03*
%TD*%
D12*
%TO.C,R5*%
X87822500Y-66040000D03*
X84897500Y-66040000D03*
%TD*%
M02*
