%TF.GenerationSoftware,KiCad,Pcbnew,(6.0.5-0)*%
%TF.CreationDate,2022-10-17T18:29:33-07:00*%
%TF.ProjectId,Pioneer Controller,50696f6e-6565-4722-9043-6f6e74726f6c,rev?*%
%TF.SameCoordinates,Original*%
%TF.FileFunction,Soldermask,Bot*%
%TF.FilePolarity,Negative*%
%FSLAX46Y46*%
G04 Gerber Fmt 4.6, Leading zero omitted, Abs format (unit mm)*
G04 Created by KiCad (PCBNEW (6.0.5-0)) date 2022-10-17 18:29:33*
%MOMM*%
%LPD*%
G01*
G04 APERTURE LIST*
%ADD10C,2.286000*%
%ADD11R,1.508000X1.508000*%
%ADD12C,1.508000*%
%ADD13C,3.556000*%
%ADD14C,1.524000*%
%ADD15C,2.000000*%
%ADD16C,5.200000*%
%ADD17C,2.050000*%
%ADD18C,2.250000*%
%ADD19C,1.700000*%
%ADD20O,1.700000X1.700000*%
%ADD21R,1.700000X1.700000*%
%ADD22C,2.750000*%
%ADD23R,1.600000X1.600000*%
%ADD24O,1.600000X1.600000*%
G04 APERTURE END LIST*
D10*
%TO.C,U2*%
X55245000Y-33655000D03*
X74295000Y-33655000D03*
D11*
X74930000Y-75565000D03*
D12*
X74930000Y-73025000D03*
X74930000Y-70485000D03*
X74930000Y-67945000D03*
X74930000Y-65405000D03*
X74930000Y-62865000D03*
X74930000Y-60325000D03*
X74930000Y-57785000D03*
X74930000Y-55245000D03*
X74930000Y-52705000D03*
X74930000Y-50165000D03*
X74930000Y-47625000D03*
X74930000Y-45085000D03*
X74930000Y-42545000D03*
X74930000Y-40005000D03*
X74930000Y-37465000D03*
X54610000Y-65405000D03*
X54610000Y-62865000D03*
X54610000Y-60325000D03*
X54610000Y-57785000D03*
X54610000Y-55245000D03*
X54610000Y-52705000D03*
X54610000Y-50165000D03*
X54610000Y-47625000D03*
X54610000Y-45085000D03*
X54610000Y-42545000D03*
X54610000Y-40005000D03*
X54610000Y-37465000D03*
D13*
X73660000Y-79375000D03*
X55880000Y-79375000D03*
%TD*%
D14*
%TO.C,U1*%
X51340000Y-73025000D03*
X51340000Y-70485000D03*
X51340000Y-65405000D03*
X51340000Y-62865000D03*
X51340000Y-60325000D03*
X51340000Y-57785000D03*
X51340000Y-55245000D03*
X51340000Y-52705000D03*
X31020000Y-65405000D03*
X31020000Y-42545000D03*
X31020000Y-45085000D03*
X31020000Y-47625000D03*
X31020000Y-50165000D03*
X31020000Y-52705000D03*
X31020000Y-55245000D03*
X31020000Y-57785000D03*
X51340000Y-37465000D03*
X31020000Y-62865000D03*
X51340000Y-67945000D03*
X51340000Y-47625000D03*
X51340000Y-45085000D03*
X51340000Y-75565000D03*
X51340000Y-42545000D03*
X51340000Y-50165000D03*
X31020000Y-40005000D03*
X31020000Y-37465000D03*
X51340000Y-40005000D03*
X31020000Y-60325000D03*
%TD*%
D15*
%TO.C,SW2*%
X92000000Y-70140000D03*
X98500000Y-70140000D03*
X92000000Y-74640000D03*
X98500000Y-74640000D03*
%TD*%
%TO.C,SW3*%
X98500000Y-79030000D03*
X92000000Y-79030000D03*
X98500000Y-83530000D03*
X92000000Y-83530000D03*
%TD*%
D16*
%TO.C,REF\u002A\u002A*%
X37000000Y-40000000D03*
%TD*%
D17*
%TO.C,J4*%
X51000000Y-112776000D03*
D18*
X48460000Y-115316000D03*
X48460000Y-110236000D03*
X53540000Y-110236000D03*
X53540000Y-115316000D03*
%TD*%
D19*
%TO.C,J3*%
X61595000Y-76200000D03*
X60325000Y-76200000D03*
X61595000Y-73660000D03*
D20*
X60325000Y-73660000D03*
X60325000Y-71120000D03*
D19*
X61595000Y-71120000D03*
D20*
X60325000Y-68580000D03*
D19*
X61595000Y-68580000D03*
D20*
X60325000Y-66040000D03*
D19*
X61595000Y-66040000D03*
X61595000Y-63500000D03*
D20*
X60325000Y-63500000D03*
X60325000Y-60960000D03*
D19*
X61595000Y-60960000D03*
X61595000Y-58420000D03*
D20*
X60325000Y-58420000D03*
X60325000Y-55880000D03*
D19*
X61595000Y-55880000D03*
X61595000Y-53340000D03*
D20*
X60325000Y-53340000D03*
X60325000Y-50800000D03*
D19*
X61595000Y-50800000D03*
X61595000Y-48260000D03*
D20*
X60325000Y-48260000D03*
D19*
X61595000Y-45720000D03*
D20*
X60325000Y-45720000D03*
D19*
X61595000Y-43180000D03*
D20*
X60325000Y-43180000D03*
X60325000Y-40640000D03*
D19*
X61595000Y-40640000D03*
X45085000Y-40640000D03*
X43815000Y-40640000D03*
X43815000Y-43180000D03*
D20*
X45085000Y-43180000D03*
X45085000Y-45720000D03*
D19*
X43815000Y-45720000D03*
X43815000Y-48260000D03*
D20*
X45085000Y-48260000D03*
D19*
X43815000Y-50800000D03*
D20*
X45085000Y-50800000D03*
X45085000Y-53340000D03*
D19*
X43815000Y-53340000D03*
D20*
X45085000Y-55880000D03*
D19*
X43815000Y-55880000D03*
X43815000Y-58420000D03*
D20*
X45085000Y-58420000D03*
X45085000Y-60960000D03*
D19*
X43815000Y-60960000D03*
D20*
X45085000Y-63500000D03*
D19*
X43815000Y-63500000D03*
D20*
X45085000Y-66040000D03*
D19*
X43815000Y-66040000D03*
X43815000Y-68580000D03*
D20*
X45085000Y-68580000D03*
D19*
X43815000Y-71120000D03*
D20*
X45085000Y-71120000D03*
D19*
X43815000Y-73660000D03*
D20*
X45085000Y-73660000D03*
X45085000Y-76200000D03*
D19*
X43815000Y-76200000D03*
%TD*%
D21*
%TO.C,J2*%
X83820000Y-113030000D03*
D20*
X86360000Y-113030000D03*
%TD*%
D15*
%TO.C,SW1*%
X98500000Y-61250000D03*
X92000000Y-61250000D03*
X92000000Y-65750000D03*
X98500000Y-65750000D03*
%TD*%
D22*
%TO.C,A1*%
X35770000Y-50620000D03*
X93770000Y-50620000D03*
X35770000Y-27620000D03*
X93770000Y-27620000D03*
D11*
X40640000Y-28890000D03*
D12*
X40640000Y-26350000D03*
X43180000Y-28890000D03*
X43180000Y-26350000D03*
X45720000Y-28890000D03*
X45720000Y-26350000D03*
X48260000Y-28890000D03*
X48260000Y-26350000D03*
X50800000Y-28890000D03*
X50800000Y-26350000D03*
X53340000Y-28890000D03*
X53340000Y-26350000D03*
X55880000Y-28890000D03*
X55880000Y-26350000D03*
X58420000Y-28890000D03*
X58420000Y-26350000D03*
X60960000Y-28890000D03*
X60960000Y-26350000D03*
X63500000Y-28890000D03*
X63500000Y-26350000D03*
X66040000Y-28890000D03*
X66040000Y-26350000D03*
X68580000Y-28890000D03*
X68580000Y-26350000D03*
X71120000Y-28890000D03*
X71120000Y-26350000D03*
X73660000Y-28890000D03*
X73660000Y-26350000D03*
X76200000Y-28890000D03*
X76200000Y-26350000D03*
X78740000Y-28890000D03*
X78740000Y-26350000D03*
X81280000Y-28890000D03*
X81280000Y-26350000D03*
X83820000Y-28890000D03*
X83820000Y-26350000D03*
X86360000Y-28890000D03*
X86360000Y-26350000D03*
X88900000Y-28890000D03*
X88900000Y-26350000D03*
%TD*%
D15*
%TO.C,SW4*%
X98500000Y-87920000D03*
X92000000Y-87920000D03*
X98500000Y-92420000D03*
X92000000Y-92420000D03*
%TD*%
D23*
%TO.C,SW5*%
X86360000Y-78740000D03*
D24*
X83820000Y-78740000D03*
X83820000Y-86360000D03*
X86360000Y-86360000D03*
%TD*%
D21*
%TO.C,J1*%
X69860000Y-113030000D03*
D20*
X72400000Y-113030000D03*
X74940000Y-113030000D03*
X77480000Y-113030000D03*
%TD*%
D16*
%TO.C,REF\u002A\u002A*%
X93000000Y-40000000D03*
%TD*%
D14*
%TO.C,U5*%
X78200000Y-66040000D03*
X78200000Y-78740000D03*
X78200000Y-68580000D03*
X78200000Y-71120000D03*
X78200000Y-76200000D03*
X78200000Y-73660000D03*
X78200000Y-63500000D03*
%TD*%
%TO.C,U3*%
X78454000Y-48895000D03*
X78454000Y-46355000D03*
X78454000Y-38735000D03*
X78454000Y-53975000D03*
X78454000Y-41275000D03*
X78454000Y-43815000D03*
X78454000Y-51435000D03*
X78454000Y-36195000D03*
%TD*%
%TO.C,U4*%
X56515000Y-102616000D03*
X56515000Y-89916000D03*
X56515000Y-92456000D03*
X31115000Y-84836000D03*
X31115000Y-87376000D03*
X31115000Y-89916000D03*
X31115000Y-92456000D03*
X31115000Y-94996000D03*
X56515000Y-87376000D03*
X56515000Y-97536000D03*
X56515000Y-100076000D03*
X56515000Y-105156000D03*
X56515000Y-94996000D03*
X34445000Y-103632000D03*
X56515000Y-84836000D03*
%TD*%
M02*
