%TF.GenerationSoftware,KiCad,Pcbnew,(6.0.5-0)*%
%TF.CreationDate,2022-10-17T18:29:33-07:00*%
%TF.ProjectId,Pioneer Controller,50696f6e-6565-4722-9043-6f6e74726f6c,rev?*%
%TF.SameCoordinates,Original*%
%TF.FileFunction,Legend,Bot*%
%TF.FilePolarity,Positive*%
%FSLAX46Y46*%
G04 Gerber Fmt 4.6, Leading zero omitted, Abs format (unit mm)*
G04 Created by KiCad (PCBNEW (6.0.5-0)) date 2022-10-17 18:29:33*
%MOMM*%
%LPD*%
G01*
G04 APERTURE LIST*
%ADD10C,0.150000*%
%ADD11C,0.120000*%
G04 APERTURE END LIST*
D10*
%TO.C,U5*%
X57412380Y-70358095D02*
X58221904Y-70358095D01*
X58317142Y-70405714D01*
X58364761Y-70453333D01*
X58412380Y-70548571D01*
X58412380Y-70739047D01*
X58364761Y-70834285D01*
X58317142Y-70881904D01*
X58221904Y-70929523D01*
X57412380Y-70929523D01*
X57412380Y-71881904D02*
X57412380Y-71405714D01*
X57888571Y-71358095D01*
X57840952Y-71405714D01*
X57793333Y-71500952D01*
X57793333Y-71739047D01*
X57840952Y-71834285D01*
X57888571Y-71881904D01*
X57983809Y-71929523D01*
X58221904Y-71929523D01*
X58317142Y-71881904D01*
X58364761Y-71834285D01*
X58412380Y-71739047D01*
X58412380Y-71500952D01*
X58364761Y-71405714D01*
X58317142Y-71358095D01*
%TO.C,U3*%
X56062380Y-44323095D02*
X56871904Y-44323095D01*
X56967142Y-44370714D01*
X57014761Y-44418333D01*
X57062380Y-44513571D01*
X57062380Y-44704047D01*
X57014761Y-44799285D01*
X56967142Y-44846904D01*
X56871904Y-44894523D01*
X56062380Y-44894523D01*
X56062380Y-45275476D02*
X56062380Y-45894523D01*
X56443333Y-45561190D01*
X56443333Y-45704047D01*
X56490952Y-45799285D01*
X56538571Y-45846904D01*
X56633809Y-45894523D01*
X56871904Y-45894523D01*
X56967142Y-45846904D01*
X57014761Y-45799285D01*
X57062380Y-45704047D01*
X57062380Y-45418333D01*
X57014761Y-45323095D01*
X56967142Y-45275476D01*
%TO.C,U4*%
X22947380Y-94234095D02*
X23756904Y-94234095D01*
X23852142Y-94281714D01*
X23899761Y-94329333D01*
X23947380Y-94424571D01*
X23947380Y-94615047D01*
X23899761Y-94710285D01*
X23852142Y-94757904D01*
X23756904Y-94805523D01*
X22947380Y-94805523D01*
X23280714Y-95710285D02*
X23947380Y-95710285D01*
X22899761Y-95472190D02*
X23614047Y-95234095D01*
X23614047Y-95853142D01*
D11*
%TO.C,U5*%
X78200000Y-83820000D02*
X65500000Y-83820000D01*
X65500000Y-58420000D02*
X78200000Y-58420000D01*
X62960000Y-81280000D02*
X62960000Y-60960000D01*
X80740000Y-60960000D02*
X80740000Y-81280000D01*
X62960000Y-81280000D02*
G75*
G03*
X65500000Y-83820000I2540000J0D01*
G01*
X65500000Y-58420000D02*
G75*
G03*
X62960000Y-60960000I1J-2540001D01*
G01*
X78200000Y-83820000D02*
G75*
G03*
X80740000Y-81280000I0J2540000D01*
G01*
X80740000Y-60960000D02*
G75*
G03*
X78200000Y-58420000I-2540001J-1D01*
G01*
%TO.C,U3*%
X62960000Y-34925000D02*
X62960000Y-55245000D01*
X65500000Y-57785000D02*
X78200000Y-57785000D01*
X78200000Y-32385000D02*
X65500000Y-32385000D01*
X80740000Y-55245000D02*
X80740000Y-34925000D01*
X78200000Y-57785000D02*
G75*
G03*
X80740000Y-55245000I0J2540000D01*
G01*
X62960000Y-55245000D02*
G75*
G03*
X65500000Y-57785000I2540000J0D01*
G01*
X80740000Y-34925000D02*
G75*
G03*
X78200000Y-32385000I-2540001J-1D01*
G01*
X65500000Y-32385000D02*
G75*
G03*
X62960000Y-34925000I1J-2540001D01*
G01*
%TO.C,U4*%
X32385000Y-107696000D02*
X56515000Y-107696000D01*
X29845000Y-82296000D02*
X29845000Y-105156000D01*
X56515000Y-82296000D02*
X29845000Y-82296000D01*
X59055000Y-105156000D02*
X59055000Y-84836000D01*
X52705000Y-105156000D02*
X36195000Y-105156000D01*
X36195000Y-105156000D02*
X36195000Y-88646000D01*
X36195000Y-88646000D02*
X52705000Y-88646000D01*
X52705000Y-88646000D02*
X52705000Y-105156000D01*
X56515000Y-107696000D02*
G75*
G03*
X59055000Y-105156000I0J2540000D01*
G01*
X29845000Y-105156000D02*
G75*
G03*
X32385000Y-107696000I2540000J0D01*
G01*
X59055000Y-84836000D02*
G75*
G03*
X56515000Y-82296000I-2540001J-1D01*
G01*
%TD*%
M02*
