%TF.GenerationSoftware,KiCad,Pcbnew,(6.0.5-0)*%
%TF.CreationDate,2022-10-17T18:29:33-07:00*%
%TF.ProjectId,Pioneer Controller,50696f6e-6565-4722-9043-6f6e74726f6c,rev?*%
%TF.SameCoordinates,Original*%
%TF.FileFunction,Legend,Top*%
%TF.FilePolarity,Positive*%
%FSLAX46Y46*%
G04 Gerber Fmt 4.6, Leading zero omitted, Abs format (unit mm)*
G04 Created by KiCad (PCBNEW (6.0.5-0)) date 2022-10-17 18:29:33*
%MOMM*%
%LPD*%
G01*
G04 APERTURE LIST*
%ADD10C,0.150000*%
%ADD11C,0.127000*%
%ADD12C,0.203200*%
%ADD13C,0.120000*%
G04 APERTURE END LIST*
D10*
%TO.C,U2*%
X50384150Y-76037660D02*
X51519867Y-76037660D01*
X51653481Y-75970853D01*
X51720288Y-75904046D01*
X51787095Y-75770432D01*
X51787095Y-75503205D01*
X51720288Y-75369591D01*
X51653481Y-75302784D01*
X51519867Y-75235977D01*
X50384150Y-75235977D01*
X50517764Y-74634715D02*
X50450957Y-74567908D01*
X50384150Y-74434294D01*
X50384150Y-74100260D01*
X50450957Y-73966646D01*
X50517764Y-73899839D01*
X50651378Y-73833032D01*
X50784992Y-73833032D01*
X50985412Y-73899839D01*
X51787095Y-74701522D01*
X51787095Y-73833032D01*
%TO.C,L2*%
X84907380Y-91606666D02*
X84907380Y-92082857D01*
X83907380Y-92082857D01*
X84002619Y-91320952D02*
X83955000Y-91273333D01*
X83907380Y-91178095D01*
X83907380Y-90940000D01*
X83955000Y-90844761D01*
X84002619Y-90797142D01*
X84097857Y-90749523D01*
X84193095Y-90749523D01*
X84335952Y-90797142D01*
X84907380Y-91368571D01*
X84907380Y-90749523D01*
X86812380Y-96571428D02*
X85812380Y-96571428D01*
X86812380Y-96095238D02*
X85812380Y-96095238D01*
X86812380Y-95523809D01*
X85812380Y-95523809D01*
X86812380Y-95047619D02*
X85812380Y-95047619D01*
X85812380Y-94809523D01*
X85860000Y-94666666D01*
X85955238Y-94571428D01*
X86050476Y-94523809D01*
X86240952Y-94476190D01*
X86383809Y-94476190D01*
X86574285Y-94523809D01*
X86669523Y-94571428D01*
X86764761Y-94666666D01*
X86812380Y-94809523D01*
X86812380Y-95047619D01*
X86145714Y-92857142D02*
X86812380Y-92857142D01*
X85764761Y-93095238D02*
X86479047Y-93333333D01*
X86479047Y-92714285D01*
X86717142Y-92333333D02*
X86764761Y-92285714D01*
X86812380Y-92333333D01*
X86764761Y-92380952D01*
X86717142Y-92333333D01*
X86812380Y-92333333D01*
X85812380Y-91952380D02*
X85812380Y-91285714D01*
X86812380Y-91714285D01*
X86145714Y-90476190D02*
X86812380Y-90476190D01*
X86145714Y-90904761D02*
X86669523Y-90904761D01*
X86764761Y-90857142D01*
X86812380Y-90761904D01*
X86812380Y-90619047D01*
X86764761Y-90523809D01*
X86717142Y-90476190D01*
X86812380Y-90000000D02*
X85812380Y-90000000D01*
X86288571Y-90000000D02*
X86288571Y-89428571D01*
X86812380Y-89428571D02*
X85812380Y-89428571D01*
%TO.C,U6*%
X71628095Y-98652380D02*
X71628095Y-99461904D01*
X71675714Y-99557142D01*
X71723333Y-99604761D01*
X71818571Y-99652380D01*
X72009047Y-99652380D01*
X72104285Y-99604761D01*
X72151904Y-99557142D01*
X72199523Y-99461904D01*
X72199523Y-98652380D01*
X73104285Y-98652380D02*
X72913809Y-98652380D01*
X72818571Y-98700000D01*
X72770952Y-98747619D01*
X72675714Y-98890476D01*
X72628095Y-99080952D01*
X72628095Y-99461904D01*
X72675714Y-99557142D01*
X72723333Y-99604761D01*
X72818571Y-99652380D01*
X73009047Y-99652380D01*
X73104285Y-99604761D01*
X73151904Y-99557142D01*
X73199523Y-99461904D01*
X73199523Y-99223809D01*
X73151904Y-99128571D01*
X73104285Y-99080952D01*
X73009047Y-99033333D01*
X72818571Y-99033333D01*
X72723333Y-99080952D01*
X72675714Y-99128571D01*
X72628095Y-99223809D01*
%TO.C,U1*%
X53371904Y-89272619D02*
X53371904Y-88463095D01*
X53324285Y-88367857D01*
X53276666Y-88320238D01*
X53181428Y-88272619D01*
X52990952Y-88272619D01*
X52895714Y-88320238D01*
X52848095Y-88367857D01*
X52800476Y-88463095D01*
X52800476Y-89272619D01*
X51800476Y-88272619D02*
X52371904Y-88272619D01*
X52086190Y-88272619D02*
X52086190Y-89272619D01*
X52181428Y-89129761D01*
X52276666Y-89034523D01*
X52371904Y-88986904D01*
%TO.C,R7*%
X79208333Y-89352380D02*
X78875000Y-88876190D01*
X78636904Y-89352380D02*
X78636904Y-88352380D01*
X79017857Y-88352380D01*
X79113095Y-88400000D01*
X79160714Y-88447619D01*
X79208333Y-88542857D01*
X79208333Y-88685714D01*
X79160714Y-88780952D01*
X79113095Y-88828571D01*
X79017857Y-88876190D01*
X78636904Y-88876190D01*
X79541666Y-88352380D02*
X80208333Y-88352380D01*
X79779761Y-89352380D01*
X74517380Y-91257380D02*
X74184047Y-90781190D01*
X73945952Y-91257380D02*
X73945952Y-90257380D01*
X74326904Y-90257380D01*
X74422142Y-90305000D01*
X74469761Y-90352619D01*
X74517380Y-90447857D01*
X74517380Y-90590714D01*
X74469761Y-90685952D01*
X74422142Y-90733571D01*
X74326904Y-90781190D01*
X73945952Y-90781190D01*
X75469761Y-91257380D02*
X74898333Y-91257380D01*
X75184047Y-91257380D02*
X75184047Y-90257380D01*
X75088809Y-90400238D01*
X74993571Y-90495476D01*
X74898333Y-90543095D01*
X76088809Y-90257380D02*
X76184047Y-90257380D01*
X76279285Y-90305000D01*
X76326904Y-90352619D01*
X76374523Y-90447857D01*
X76422142Y-90638333D01*
X76422142Y-90876428D01*
X76374523Y-91066904D01*
X76326904Y-91162142D01*
X76279285Y-91209761D01*
X76184047Y-91257380D01*
X76088809Y-91257380D01*
X75993571Y-91209761D01*
X75945952Y-91162142D01*
X75898333Y-91066904D01*
X75850714Y-90876428D01*
X75850714Y-90638333D01*
X75898333Y-90447857D01*
X75945952Y-90352619D01*
X75993571Y-90305000D01*
X76088809Y-90257380D01*
X76850714Y-91257380D02*
X76850714Y-90257380D01*
X76945952Y-90876428D02*
X77231666Y-91257380D01*
X77231666Y-90590714D02*
X76850714Y-90971666D01*
%TO.C,C2*%
X80833333Y-102452142D02*
X80785714Y-102499761D01*
X80642857Y-102547380D01*
X80547619Y-102547380D01*
X80404761Y-102499761D01*
X80309523Y-102404523D01*
X80261904Y-102309285D01*
X80214285Y-102118809D01*
X80214285Y-101975952D01*
X80261904Y-101785476D01*
X80309523Y-101690238D01*
X80404761Y-101595000D01*
X80547619Y-101547380D01*
X80642857Y-101547380D01*
X80785714Y-101595000D01*
X80833333Y-101642619D01*
X81214285Y-101642619D02*
X81261904Y-101595000D01*
X81357142Y-101547380D01*
X81595238Y-101547380D01*
X81690476Y-101595000D01*
X81738095Y-101642619D01*
X81785714Y-101737857D01*
X81785714Y-101833095D01*
X81738095Y-101975952D01*
X81166666Y-102547380D01*
X81785714Y-102547380D01*
X79928571Y-106302380D02*
X79357142Y-106302380D01*
X79642857Y-106302380D02*
X79642857Y-105302380D01*
X79547619Y-105445238D01*
X79452380Y-105540476D01*
X79357142Y-105588095D01*
X80547619Y-105302380D02*
X80642857Y-105302380D01*
X80738095Y-105350000D01*
X80785714Y-105397619D01*
X80833333Y-105492857D01*
X80880952Y-105683333D01*
X80880952Y-105921428D01*
X80833333Y-106111904D01*
X80785714Y-106207142D01*
X80738095Y-106254761D01*
X80642857Y-106302380D01*
X80547619Y-106302380D01*
X80452380Y-106254761D01*
X80404761Y-106207142D01*
X80357142Y-106111904D01*
X80309523Y-105921428D01*
X80309523Y-105683333D01*
X80357142Y-105492857D01*
X80404761Y-105397619D01*
X80452380Y-105350000D01*
X80547619Y-105302380D01*
X81738095Y-105635714D02*
X81738095Y-106302380D01*
X81309523Y-105635714D02*
X81309523Y-106159523D01*
X81357142Y-106254761D01*
X81452380Y-106302380D01*
X81595238Y-106302380D01*
X81690476Y-106254761D01*
X81738095Y-106207142D01*
X82547619Y-105778571D02*
X82214285Y-105778571D01*
X82214285Y-106302380D02*
X82214285Y-105302380D01*
X82690476Y-105302380D01*
%TO.C,C5*%
X95008333Y-109357142D02*
X94960714Y-109404761D01*
X94817857Y-109452380D01*
X94722619Y-109452380D01*
X94579761Y-109404761D01*
X94484523Y-109309523D01*
X94436904Y-109214285D01*
X94389285Y-109023809D01*
X94389285Y-108880952D01*
X94436904Y-108690476D01*
X94484523Y-108595238D01*
X94579761Y-108500000D01*
X94722619Y-108452380D01*
X94817857Y-108452380D01*
X94960714Y-108500000D01*
X95008333Y-108547619D01*
X95913095Y-108452380D02*
X95436904Y-108452380D01*
X95389285Y-108928571D01*
X95436904Y-108880952D01*
X95532142Y-108833333D01*
X95770238Y-108833333D01*
X95865476Y-108880952D01*
X95913095Y-108928571D01*
X95960714Y-109023809D01*
X95960714Y-109261904D01*
X95913095Y-109357142D01*
X95865476Y-109404761D01*
X95770238Y-109452380D01*
X95532142Y-109452380D01*
X95436904Y-109404761D01*
X95389285Y-109357142D01*
X90928571Y-107547380D02*
X90357142Y-107547380D01*
X90642857Y-107547380D02*
X90642857Y-106547380D01*
X90547619Y-106690238D01*
X90452380Y-106785476D01*
X90357142Y-106833095D01*
X91547619Y-106547380D02*
X91642857Y-106547380D01*
X91738095Y-106595000D01*
X91785714Y-106642619D01*
X91833333Y-106737857D01*
X91880952Y-106928333D01*
X91880952Y-107166428D01*
X91833333Y-107356904D01*
X91785714Y-107452142D01*
X91738095Y-107499761D01*
X91642857Y-107547380D01*
X91547619Y-107547380D01*
X91452380Y-107499761D01*
X91404761Y-107452142D01*
X91357142Y-107356904D01*
X91309523Y-107166428D01*
X91309523Y-106928333D01*
X91357142Y-106737857D01*
X91404761Y-106642619D01*
X91452380Y-106595000D01*
X91547619Y-106547380D01*
X92738095Y-106880714D02*
X92738095Y-107547380D01*
X92309523Y-106880714D02*
X92309523Y-107404523D01*
X92357142Y-107499761D01*
X92452380Y-107547380D01*
X92595238Y-107547380D01*
X92690476Y-107499761D01*
X92738095Y-107452142D01*
X93547619Y-107023571D02*
X93214285Y-107023571D01*
X93214285Y-107547380D02*
X93214285Y-106547380D01*
X93690476Y-106547380D01*
%TO.C,C1*%
X68357142Y-105341666D02*
X68404761Y-105389285D01*
X68452380Y-105532142D01*
X68452380Y-105627380D01*
X68404761Y-105770238D01*
X68309523Y-105865476D01*
X68214285Y-105913095D01*
X68023809Y-105960714D01*
X67880952Y-105960714D01*
X67690476Y-105913095D01*
X67595238Y-105865476D01*
X67500000Y-105770238D01*
X67452380Y-105627380D01*
X67452380Y-105532142D01*
X67500000Y-105389285D01*
X67547619Y-105341666D01*
X68452380Y-104389285D02*
X68452380Y-104960714D01*
X68452380Y-104675000D02*
X67452380Y-104675000D01*
X67595238Y-104770238D01*
X67690476Y-104865476D01*
X67738095Y-104960714D01*
X69690714Y-103404761D02*
X70357380Y-103404761D01*
X69309761Y-103642857D02*
X70024047Y-103880952D01*
X70024047Y-103261904D01*
X70262142Y-102880952D02*
X70309761Y-102833333D01*
X70357380Y-102880952D01*
X70309761Y-102928571D01*
X70262142Y-102880952D01*
X70357380Y-102880952D01*
X69357380Y-102500000D02*
X69357380Y-101833333D01*
X70357380Y-102261904D01*
X69690714Y-101023809D02*
X70357380Y-101023809D01*
X69690714Y-101452380D02*
X70214523Y-101452380D01*
X70309761Y-101404761D01*
X70357380Y-101309523D01*
X70357380Y-101166666D01*
X70309761Y-101071428D01*
X70262142Y-101023809D01*
X69833571Y-100214285D02*
X69833571Y-100547619D01*
X70357380Y-100547619D02*
X69357380Y-100547619D01*
X69357380Y-100071428D01*
%TO.C,SW2*%
X93916666Y-68544761D02*
X94059523Y-68592380D01*
X94297619Y-68592380D01*
X94392857Y-68544761D01*
X94440476Y-68497142D01*
X94488095Y-68401904D01*
X94488095Y-68306666D01*
X94440476Y-68211428D01*
X94392857Y-68163809D01*
X94297619Y-68116190D01*
X94107142Y-68068571D01*
X94011904Y-68020952D01*
X93964285Y-67973333D01*
X93916666Y-67878095D01*
X93916666Y-67782857D01*
X93964285Y-67687619D01*
X94011904Y-67640000D01*
X94107142Y-67592380D01*
X94345238Y-67592380D01*
X94488095Y-67640000D01*
X94821428Y-67592380D02*
X95059523Y-68592380D01*
X95250000Y-67878095D01*
X95440476Y-68592380D01*
X95678571Y-67592380D01*
X96011904Y-67687619D02*
X96059523Y-67640000D01*
X96154761Y-67592380D01*
X96392857Y-67592380D01*
X96488095Y-67640000D01*
X96535714Y-67687619D01*
X96583333Y-67782857D01*
X96583333Y-67878095D01*
X96535714Y-68020952D01*
X95964285Y-68592380D01*
X96583333Y-68592380D01*
%TO.C,D1*%
X64031904Y-84272380D02*
X64031904Y-83272380D01*
X64270000Y-83272380D01*
X64412857Y-83320000D01*
X64508095Y-83415238D01*
X64555714Y-83510476D01*
X64603333Y-83700952D01*
X64603333Y-83843809D01*
X64555714Y-84034285D01*
X64508095Y-84129523D01*
X64412857Y-84224761D01*
X64270000Y-84272380D01*
X64031904Y-84272380D01*
X65555714Y-84272380D02*
X64984285Y-84272380D01*
X65270000Y-84272380D02*
X65270000Y-83272380D01*
X65174761Y-83415238D01*
X65079523Y-83510476D01*
X64984285Y-83558095D01*
X60317142Y-84357380D02*
X59840952Y-84357380D01*
X59840952Y-83357380D01*
X60650476Y-83833571D02*
X60983809Y-83833571D01*
X61126666Y-84357380D02*
X60650476Y-84357380D01*
X60650476Y-83357380D01*
X61126666Y-83357380D01*
X61555238Y-84357380D02*
X61555238Y-83357380D01*
X61793333Y-83357380D01*
X61936190Y-83405000D01*
X62031428Y-83500238D01*
X62079047Y-83595476D01*
X62126666Y-83785952D01*
X62126666Y-83928809D01*
X62079047Y-84119285D01*
X62031428Y-84214523D01*
X61936190Y-84309761D01*
X61793333Y-84357380D01*
X61555238Y-84357380D01*
%TO.C,R3*%
X88098333Y-60777380D02*
X87765000Y-60301190D01*
X87526904Y-60777380D02*
X87526904Y-59777380D01*
X87907857Y-59777380D01*
X88003095Y-59825000D01*
X88050714Y-59872619D01*
X88098333Y-59967857D01*
X88098333Y-60110714D01*
X88050714Y-60205952D01*
X88003095Y-60253571D01*
X87907857Y-60301190D01*
X87526904Y-60301190D01*
X88431666Y-59777380D02*
X89050714Y-59777380D01*
X88717380Y-60158333D01*
X88860238Y-60158333D01*
X88955476Y-60205952D01*
X89003095Y-60253571D01*
X89050714Y-60348809D01*
X89050714Y-60586904D01*
X89003095Y-60682142D01*
X88955476Y-60729761D01*
X88860238Y-60777380D01*
X88574523Y-60777380D01*
X88479285Y-60729761D01*
X88431666Y-60682142D01*
X84042380Y-60862380D02*
X83709047Y-60386190D01*
X83470952Y-60862380D02*
X83470952Y-59862380D01*
X83851904Y-59862380D01*
X83947142Y-59910000D01*
X83994761Y-59957619D01*
X84042380Y-60052857D01*
X84042380Y-60195714D01*
X83994761Y-60290952D01*
X83947142Y-60338571D01*
X83851904Y-60386190D01*
X83470952Y-60386190D01*
X84375714Y-59862380D02*
X84994761Y-59862380D01*
X84661428Y-60243333D01*
X84804285Y-60243333D01*
X84899523Y-60290952D01*
X84947142Y-60338571D01*
X84994761Y-60433809D01*
X84994761Y-60671904D01*
X84947142Y-60767142D01*
X84899523Y-60814761D01*
X84804285Y-60862380D01*
X84518571Y-60862380D01*
X84423333Y-60814761D01*
X84375714Y-60767142D01*
X85375714Y-59957619D02*
X85423333Y-59910000D01*
X85518571Y-59862380D01*
X85756666Y-59862380D01*
X85851904Y-59910000D01*
X85899523Y-59957619D01*
X85947142Y-60052857D01*
X85947142Y-60148095D01*
X85899523Y-60290952D01*
X85328095Y-60862380D01*
X85947142Y-60862380D01*
X86375714Y-60862380D02*
X86375714Y-59862380D01*
X86470952Y-60481428D02*
X86756666Y-60862380D01*
X86756666Y-60195714D02*
X86375714Y-60576666D01*
%TO.C,R2*%
X88098333Y-56967380D02*
X87765000Y-56491190D01*
X87526904Y-56967380D02*
X87526904Y-55967380D01*
X87907857Y-55967380D01*
X88003095Y-56015000D01*
X88050714Y-56062619D01*
X88098333Y-56157857D01*
X88098333Y-56300714D01*
X88050714Y-56395952D01*
X88003095Y-56443571D01*
X87907857Y-56491190D01*
X87526904Y-56491190D01*
X88479285Y-56062619D02*
X88526904Y-56015000D01*
X88622142Y-55967380D01*
X88860238Y-55967380D01*
X88955476Y-56015000D01*
X89003095Y-56062619D01*
X89050714Y-56157857D01*
X89050714Y-56253095D01*
X89003095Y-56395952D01*
X88431666Y-56967380D01*
X89050714Y-56967380D01*
X84042380Y-57052380D02*
X83709047Y-56576190D01*
X83470952Y-57052380D02*
X83470952Y-56052380D01*
X83851904Y-56052380D01*
X83947142Y-56100000D01*
X83994761Y-56147619D01*
X84042380Y-56242857D01*
X84042380Y-56385714D01*
X83994761Y-56480952D01*
X83947142Y-56528571D01*
X83851904Y-56576190D01*
X83470952Y-56576190D01*
X84375714Y-56052380D02*
X84994761Y-56052380D01*
X84661428Y-56433333D01*
X84804285Y-56433333D01*
X84899523Y-56480952D01*
X84947142Y-56528571D01*
X84994761Y-56623809D01*
X84994761Y-56861904D01*
X84947142Y-56957142D01*
X84899523Y-57004761D01*
X84804285Y-57052380D01*
X84518571Y-57052380D01*
X84423333Y-57004761D01*
X84375714Y-56957142D01*
X85375714Y-56147619D02*
X85423333Y-56100000D01*
X85518571Y-56052380D01*
X85756666Y-56052380D01*
X85851904Y-56100000D01*
X85899523Y-56147619D01*
X85947142Y-56242857D01*
X85947142Y-56338095D01*
X85899523Y-56480952D01*
X85328095Y-57052380D01*
X85947142Y-57052380D01*
X86375714Y-57052380D02*
X86375714Y-56052380D01*
X86470952Y-56671428D02*
X86756666Y-57052380D01*
X86756666Y-56385714D02*
X86375714Y-56766666D01*
%TO.C,SW3*%
X93916666Y-77434761D02*
X94059523Y-77482380D01*
X94297619Y-77482380D01*
X94392857Y-77434761D01*
X94440476Y-77387142D01*
X94488095Y-77291904D01*
X94488095Y-77196666D01*
X94440476Y-77101428D01*
X94392857Y-77053809D01*
X94297619Y-77006190D01*
X94107142Y-76958571D01*
X94011904Y-76910952D01*
X93964285Y-76863333D01*
X93916666Y-76768095D01*
X93916666Y-76672857D01*
X93964285Y-76577619D01*
X94011904Y-76530000D01*
X94107142Y-76482380D01*
X94345238Y-76482380D01*
X94488095Y-76530000D01*
X94821428Y-76482380D02*
X95059523Y-77482380D01*
X95250000Y-76768095D01*
X95440476Y-77482380D01*
X95678571Y-76482380D01*
X95964285Y-76482380D02*
X96583333Y-76482380D01*
X96250000Y-76863333D01*
X96392857Y-76863333D01*
X96488095Y-76910952D01*
X96535714Y-76958571D01*
X96583333Y-77053809D01*
X96583333Y-77291904D01*
X96535714Y-77387142D01*
X96488095Y-77434761D01*
X96392857Y-77482380D01*
X96107142Y-77482380D01*
X96011904Y-77434761D01*
X95964285Y-77387142D01*
%TO.C,REF\u002A\u002A*%
X35666666Y-36252380D02*
X35333333Y-35776190D01*
X35095238Y-36252380D02*
X35095238Y-35252380D01*
X35476190Y-35252380D01*
X35571428Y-35300000D01*
X35619047Y-35347619D01*
X35666666Y-35442857D01*
X35666666Y-35585714D01*
X35619047Y-35680952D01*
X35571428Y-35728571D01*
X35476190Y-35776190D01*
X35095238Y-35776190D01*
X36095238Y-35728571D02*
X36428571Y-35728571D01*
X36571428Y-36252380D02*
X36095238Y-36252380D01*
X36095238Y-35252380D01*
X36571428Y-35252380D01*
X37333333Y-35728571D02*
X37000000Y-35728571D01*
X37000000Y-36252380D02*
X37000000Y-35252380D01*
X37476190Y-35252380D01*
X38000000Y-35252380D02*
X38000000Y-35490476D01*
X37761904Y-35395238D02*
X38000000Y-35490476D01*
X38238095Y-35395238D01*
X37857142Y-35680952D02*
X38000000Y-35490476D01*
X38142857Y-35680952D01*
X38761904Y-35252380D02*
X38761904Y-35490476D01*
X38523809Y-35395238D02*
X38761904Y-35490476D01*
X39000000Y-35395238D01*
X38619047Y-35680952D02*
X38761904Y-35490476D01*
X38904761Y-35680952D01*
%TO.C,J4*%
X50666666Y-107478380D02*
X50666666Y-108192666D01*
X50619047Y-108335523D01*
X50523809Y-108430761D01*
X50380952Y-108478380D01*
X50285714Y-108478380D01*
X51571428Y-107811714D02*
X51571428Y-108478380D01*
X51333333Y-107430761D02*
X51095238Y-108145047D01*
X51714285Y-108145047D01*
%TO.C,C6*%
X80478333Y-95607142D02*
X80430714Y-95654761D01*
X80287857Y-95702380D01*
X80192619Y-95702380D01*
X80049761Y-95654761D01*
X79954523Y-95559523D01*
X79906904Y-95464285D01*
X79859285Y-95273809D01*
X79859285Y-95130952D01*
X79906904Y-94940476D01*
X79954523Y-94845238D01*
X80049761Y-94750000D01*
X80192619Y-94702380D01*
X80287857Y-94702380D01*
X80430714Y-94750000D01*
X80478333Y-94797619D01*
X81335476Y-94702380D02*
X81145000Y-94702380D01*
X81049761Y-94750000D01*
X81002142Y-94797619D01*
X80906904Y-94940476D01*
X80859285Y-95130952D01*
X80859285Y-95511904D01*
X80906904Y-95607142D01*
X80954523Y-95654761D01*
X81049761Y-95702380D01*
X81240238Y-95702380D01*
X81335476Y-95654761D01*
X81383095Y-95607142D01*
X81430714Y-95511904D01*
X81430714Y-95273809D01*
X81383095Y-95178571D01*
X81335476Y-95130952D01*
X81240238Y-95083333D01*
X81049761Y-95083333D01*
X80954523Y-95130952D01*
X80906904Y-95178571D01*
X80859285Y-95273809D01*
X79097380Y-91947380D02*
X78525952Y-91947380D01*
X78811666Y-91947380D02*
X78811666Y-90947380D01*
X78716428Y-91090238D01*
X78621190Y-91185476D01*
X78525952Y-91233095D01*
X79716428Y-90947380D02*
X79811666Y-90947380D01*
X79906904Y-90995000D01*
X79954523Y-91042619D01*
X80002142Y-91137857D01*
X80049761Y-91328333D01*
X80049761Y-91566428D01*
X80002142Y-91756904D01*
X79954523Y-91852142D01*
X79906904Y-91899761D01*
X79811666Y-91947380D01*
X79716428Y-91947380D01*
X79621190Y-91899761D01*
X79573571Y-91852142D01*
X79525952Y-91756904D01*
X79478333Y-91566428D01*
X79478333Y-91328333D01*
X79525952Y-91137857D01*
X79573571Y-91042619D01*
X79621190Y-90995000D01*
X79716428Y-90947380D01*
X80668809Y-90947380D02*
X80764047Y-90947380D01*
X80859285Y-90995000D01*
X80906904Y-91042619D01*
X80954523Y-91137857D01*
X81002142Y-91328333D01*
X81002142Y-91566428D01*
X80954523Y-91756904D01*
X80906904Y-91852142D01*
X80859285Y-91899761D01*
X80764047Y-91947380D01*
X80668809Y-91947380D01*
X80573571Y-91899761D01*
X80525952Y-91852142D01*
X80478333Y-91756904D01*
X80430714Y-91566428D01*
X80430714Y-91328333D01*
X80478333Y-91137857D01*
X80525952Y-91042619D01*
X80573571Y-90995000D01*
X80668809Y-90947380D01*
X81430714Y-91280714D02*
X81430714Y-91947380D01*
X81430714Y-91375952D02*
X81478333Y-91328333D01*
X81573571Y-91280714D01*
X81716428Y-91280714D01*
X81811666Y-91328333D01*
X81859285Y-91423571D01*
X81859285Y-91947380D01*
X82668809Y-91423571D02*
X82335476Y-91423571D01*
X82335476Y-91947380D02*
X82335476Y-90947380D01*
X82811666Y-90947380D01*
%TO.C,J2*%
X84761666Y-109942380D02*
X84761666Y-110656666D01*
X84714047Y-110799523D01*
X84618809Y-110894761D01*
X84475952Y-110942380D01*
X84380714Y-110942380D01*
X85190238Y-110037619D02*
X85237857Y-109990000D01*
X85333095Y-109942380D01*
X85571190Y-109942380D01*
X85666428Y-109990000D01*
X85714047Y-110037619D01*
X85761666Y-110132857D01*
X85761666Y-110228095D01*
X85714047Y-110370952D01*
X85142619Y-110942380D01*
X85761666Y-110942380D01*
X79976190Y-116452380D02*
X79976190Y-115452380D01*
X80357142Y-115452380D01*
X80452380Y-115500000D01*
X80500000Y-115547619D01*
X80547619Y-115642857D01*
X80547619Y-115785714D01*
X80500000Y-115880952D01*
X80452380Y-115928571D01*
X80357142Y-115976190D01*
X79976190Y-115976190D01*
X81119047Y-116452380D02*
X81023809Y-116404761D01*
X80976190Y-116357142D01*
X80928571Y-116261904D01*
X80928571Y-115976190D01*
X80976190Y-115880952D01*
X81023809Y-115833333D01*
X81119047Y-115785714D01*
X81261904Y-115785714D01*
X81357142Y-115833333D01*
X81404761Y-115880952D01*
X81452380Y-115976190D01*
X81452380Y-116261904D01*
X81404761Y-116357142D01*
X81357142Y-116404761D01*
X81261904Y-116452380D01*
X81119047Y-116452380D01*
X81785714Y-115785714D02*
X81976190Y-116452380D01*
X82166666Y-115976190D01*
X82357142Y-116452380D01*
X82547619Y-115785714D01*
X83309523Y-116404761D02*
X83214285Y-116452380D01*
X83023809Y-116452380D01*
X82928571Y-116404761D01*
X82880952Y-116309523D01*
X82880952Y-115928571D01*
X82928571Y-115833333D01*
X83023809Y-115785714D01*
X83214285Y-115785714D01*
X83309523Y-115833333D01*
X83357142Y-115928571D01*
X83357142Y-116023809D01*
X82880952Y-116119047D01*
X83785714Y-116452380D02*
X83785714Y-115785714D01*
X83785714Y-115976190D02*
X83833333Y-115880952D01*
X83880952Y-115833333D01*
X83976190Y-115785714D01*
X84071428Y-115785714D01*
X85452380Y-116833333D02*
X85404761Y-116785714D01*
X85309523Y-116642857D01*
X85261904Y-116547619D01*
X85214285Y-116404761D01*
X85166666Y-116166666D01*
X85166666Y-115976190D01*
X85214285Y-115738095D01*
X85261904Y-115595238D01*
X85309523Y-115500000D01*
X85404761Y-115357142D01*
X85452380Y-115309523D01*
X85833333Y-115452380D02*
X85833333Y-116261904D01*
X85880952Y-116357142D01*
X85928571Y-116404761D01*
X86023809Y-116452380D01*
X86214285Y-116452380D01*
X86309523Y-116404761D01*
X86357142Y-116357142D01*
X86404761Y-116261904D01*
X86404761Y-115452380D01*
X86833333Y-116404761D02*
X86976190Y-116452380D01*
X87214285Y-116452380D01*
X87309523Y-116404761D01*
X87357142Y-116357142D01*
X87404761Y-116261904D01*
X87404761Y-116166666D01*
X87357142Y-116071428D01*
X87309523Y-116023809D01*
X87214285Y-115976190D01*
X87023809Y-115928571D01*
X86928571Y-115880952D01*
X86880952Y-115833333D01*
X86833333Y-115738095D01*
X86833333Y-115642857D01*
X86880952Y-115547619D01*
X86928571Y-115500000D01*
X87023809Y-115452380D01*
X87261904Y-115452380D01*
X87404761Y-115500000D01*
X88166666Y-115928571D02*
X88309523Y-115976190D01*
X88357142Y-116023809D01*
X88404761Y-116119047D01*
X88404761Y-116261904D01*
X88357142Y-116357142D01*
X88309523Y-116404761D01*
X88214285Y-116452380D01*
X87833333Y-116452380D01*
X87833333Y-115452380D01*
X88166666Y-115452380D01*
X88261904Y-115500000D01*
X88309523Y-115547619D01*
X88357142Y-115642857D01*
X88357142Y-115738095D01*
X88309523Y-115833333D01*
X88261904Y-115880952D01*
X88166666Y-115928571D01*
X87833333Y-115928571D01*
X89404761Y-116357142D02*
X89357142Y-116404761D01*
X89214285Y-116452380D01*
X89119047Y-116452380D01*
X88976190Y-116404761D01*
X88880952Y-116309523D01*
X88833333Y-116214285D01*
X88785714Y-116023809D01*
X88785714Y-115880952D01*
X88833333Y-115690476D01*
X88880952Y-115595238D01*
X88976190Y-115500000D01*
X89119047Y-115452380D01*
X89214285Y-115452380D01*
X89357142Y-115500000D01*
X89404761Y-115547619D01*
X89738095Y-116833333D02*
X89785714Y-116785714D01*
X89880952Y-116642857D01*
X89928571Y-116547619D01*
X89976190Y-116404761D01*
X90023809Y-116166666D01*
X90023809Y-115976190D01*
X89976190Y-115738095D01*
X89928571Y-115595238D01*
X89880952Y-115500000D01*
X89785714Y-115357142D01*
X89738095Y-115309523D01*
%TO.C,SW1*%
X93916666Y-59654761D02*
X94059523Y-59702380D01*
X94297619Y-59702380D01*
X94392857Y-59654761D01*
X94440476Y-59607142D01*
X94488095Y-59511904D01*
X94488095Y-59416666D01*
X94440476Y-59321428D01*
X94392857Y-59273809D01*
X94297619Y-59226190D01*
X94107142Y-59178571D01*
X94011904Y-59130952D01*
X93964285Y-59083333D01*
X93916666Y-58988095D01*
X93916666Y-58892857D01*
X93964285Y-58797619D01*
X94011904Y-58750000D01*
X94107142Y-58702380D01*
X94345238Y-58702380D01*
X94488095Y-58750000D01*
X94821428Y-58702380D02*
X95059523Y-59702380D01*
X95250000Y-58988095D01*
X95440476Y-59702380D01*
X95678571Y-58702380D01*
X96583333Y-59702380D02*
X96011904Y-59702380D01*
X96297619Y-59702380D02*
X96297619Y-58702380D01*
X96202380Y-58845238D01*
X96107142Y-58940476D01*
X96011904Y-58988095D01*
%TO.C,A1*%
X37130364Y-23026981D02*
X37607454Y-23026981D01*
X37034946Y-23313235D02*
X37368909Y-22311345D01*
X37702872Y-23313235D01*
X38561635Y-23313235D02*
X37989127Y-23313235D01*
X38275381Y-23313235D02*
X38275381Y-22311345D01*
X38179963Y-22454473D01*
X38084545Y-22549891D01*
X37989127Y-22597600D01*
X40526107Y-32114028D02*
X40068492Y-32114028D01*
X40297300Y-32114028D02*
X40297300Y-31313201D01*
X40221030Y-31427605D01*
X40144761Y-31503874D01*
X40068492Y-31542009D01*
%TO.C,C7*%
X65873333Y-96822142D02*
X65825714Y-96869761D01*
X65682857Y-96917380D01*
X65587619Y-96917380D01*
X65444761Y-96869761D01*
X65349523Y-96774523D01*
X65301904Y-96679285D01*
X65254285Y-96488809D01*
X65254285Y-96345952D01*
X65301904Y-96155476D01*
X65349523Y-96060238D01*
X65444761Y-95965000D01*
X65587619Y-95917380D01*
X65682857Y-95917380D01*
X65825714Y-95965000D01*
X65873333Y-96012619D01*
X66206666Y-95917380D02*
X66873333Y-95917380D01*
X66444761Y-96917380D01*
X64397142Y-92312619D02*
X64444761Y-92265000D01*
X64540000Y-92217380D01*
X64778095Y-92217380D01*
X64873333Y-92265000D01*
X64920952Y-92312619D01*
X64968571Y-92407857D01*
X64968571Y-92503095D01*
X64920952Y-92645952D01*
X64349523Y-93217380D01*
X64968571Y-93217380D01*
X65349523Y-92312619D02*
X65397142Y-92265000D01*
X65492380Y-92217380D01*
X65730476Y-92217380D01*
X65825714Y-92265000D01*
X65873333Y-92312619D01*
X65920952Y-92407857D01*
X65920952Y-92503095D01*
X65873333Y-92645952D01*
X65301904Y-93217380D01*
X65920952Y-93217380D01*
X66778095Y-92550714D02*
X66778095Y-93217380D01*
X66349523Y-92550714D02*
X66349523Y-93074523D01*
X66397142Y-93169761D01*
X66492380Y-93217380D01*
X66635238Y-93217380D01*
X66730476Y-93169761D01*
X66778095Y-93122142D01*
X67587619Y-92693571D02*
X67254285Y-92693571D01*
X67254285Y-93217380D02*
X67254285Y-92217380D01*
X67730476Y-92217380D01*
%TO.C,SW4*%
X93916666Y-86324761D02*
X94059523Y-86372380D01*
X94297619Y-86372380D01*
X94392857Y-86324761D01*
X94440476Y-86277142D01*
X94488095Y-86181904D01*
X94488095Y-86086666D01*
X94440476Y-85991428D01*
X94392857Y-85943809D01*
X94297619Y-85896190D01*
X94107142Y-85848571D01*
X94011904Y-85800952D01*
X93964285Y-85753333D01*
X93916666Y-85658095D01*
X93916666Y-85562857D01*
X93964285Y-85467619D01*
X94011904Y-85420000D01*
X94107142Y-85372380D01*
X94345238Y-85372380D01*
X94488095Y-85420000D01*
X94821428Y-85372380D02*
X95059523Y-86372380D01*
X95250000Y-85658095D01*
X95440476Y-86372380D01*
X95678571Y-85372380D01*
X96488095Y-85705714D02*
X96488095Y-86372380D01*
X96250000Y-85324761D02*
X96011904Y-86039047D01*
X96630952Y-86039047D01*
%TO.C,SW5*%
X90184761Y-83883333D02*
X90232380Y-83740476D01*
X90232380Y-83502380D01*
X90184761Y-83407142D01*
X90137142Y-83359523D01*
X90041904Y-83311904D01*
X89946666Y-83311904D01*
X89851428Y-83359523D01*
X89803809Y-83407142D01*
X89756190Y-83502380D01*
X89708571Y-83692857D01*
X89660952Y-83788095D01*
X89613333Y-83835714D01*
X89518095Y-83883333D01*
X89422857Y-83883333D01*
X89327619Y-83835714D01*
X89280000Y-83788095D01*
X89232380Y-83692857D01*
X89232380Y-83454761D01*
X89280000Y-83311904D01*
X89232380Y-82978571D02*
X90232380Y-82740476D01*
X89518095Y-82550000D01*
X90232380Y-82359523D01*
X89232380Y-82121428D01*
X89232380Y-81264285D02*
X89232380Y-81740476D01*
X89708571Y-81788095D01*
X89660952Y-81740476D01*
X89613333Y-81645238D01*
X89613333Y-81407142D01*
X89660952Y-81311904D01*
X89708571Y-81264285D01*
X89803809Y-81216666D01*
X90041904Y-81216666D01*
X90137142Y-81264285D01*
X90184761Y-81311904D01*
X90232380Y-81407142D01*
X90232380Y-81645238D01*
X90184761Y-81740476D01*
X90137142Y-81788095D01*
%TO.C,U7*%
X71628095Y-91032380D02*
X71628095Y-91841904D01*
X71675714Y-91937142D01*
X71723333Y-91984761D01*
X71818571Y-92032380D01*
X72009047Y-92032380D01*
X72104285Y-91984761D01*
X72151904Y-91937142D01*
X72199523Y-91841904D01*
X72199523Y-91032380D01*
X72580476Y-91032380D02*
X73247142Y-91032380D01*
X72818571Y-92032380D01*
X68175714Y-96546666D02*
X68651904Y-96546666D01*
X68080476Y-96832380D02*
X68413809Y-95832380D01*
X68747142Y-96832380D01*
X69080476Y-96832380D02*
X69080476Y-95832380D01*
X69461428Y-95832380D01*
X69556666Y-95880000D01*
X69604285Y-95927619D01*
X69651904Y-96022857D01*
X69651904Y-96165714D01*
X69604285Y-96260952D01*
X69556666Y-96308571D01*
X69461428Y-96356190D01*
X69080476Y-96356190D01*
X70509047Y-95832380D02*
X70318571Y-95832380D01*
X70223333Y-95880000D01*
X70175714Y-95927619D01*
X70080476Y-96070476D01*
X70032857Y-96260952D01*
X70032857Y-96641904D01*
X70080476Y-96737142D01*
X70128095Y-96784761D01*
X70223333Y-96832380D01*
X70413809Y-96832380D01*
X70509047Y-96784761D01*
X70556666Y-96737142D01*
X70604285Y-96641904D01*
X70604285Y-96403809D01*
X70556666Y-96308571D01*
X70509047Y-96260952D01*
X70413809Y-96213333D01*
X70223333Y-96213333D01*
X70128095Y-96260952D01*
X70080476Y-96308571D01*
X70032857Y-96403809D01*
X70937619Y-95832380D02*
X71556666Y-95832380D01*
X71223333Y-96213333D01*
X71366190Y-96213333D01*
X71461428Y-96260952D01*
X71509047Y-96308571D01*
X71556666Y-96403809D01*
X71556666Y-96641904D01*
X71509047Y-96737142D01*
X71461428Y-96784761D01*
X71366190Y-96832380D01*
X71080476Y-96832380D01*
X70985238Y-96784761D01*
X70937619Y-96737142D01*
X71937619Y-95927619D02*
X71985238Y-95880000D01*
X72080476Y-95832380D01*
X72318571Y-95832380D01*
X72413809Y-95880000D01*
X72461428Y-95927619D01*
X72509047Y-96022857D01*
X72509047Y-96118095D01*
X72461428Y-96260952D01*
X71890000Y-96832380D01*
X72509047Y-96832380D01*
X73128095Y-95832380D02*
X73223333Y-95832380D01*
X73318571Y-95880000D01*
X73366190Y-95927619D01*
X73413809Y-96022857D01*
X73461428Y-96213333D01*
X73461428Y-96451428D01*
X73413809Y-96641904D01*
X73366190Y-96737142D01*
X73318571Y-96784761D01*
X73223333Y-96832380D01*
X73128095Y-96832380D01*
X73032857Y-96784761D01*
X72985238Y-96737142D01*
X72937619Y-96641904D01*
X72890000Y-96451428D01*
X72890000Y-96213333D01*
X72937619Y-96022857D01*
X72985238Y-95927619D01*
X73032857Y-95880000D01*
X73128095Y-95832380D01*
X74366190Y-95832380D02*
X73890000Y-95832380D01*
X73842380Y-96308571D01*
X73890000Y-96260952D01*
X73985238Y-96213333D01*
X74223333Y-96213333D01*
X74318571Y-96260952D01*
X74366190Y-96308571D01*
X74413809Y-96403809D01*
X74413809Y-96641904D01*
X74366190Y-96737142D01*
X74318571Y-96784761D01*
X74223333Y-96832380D01*
X73985238Y-96832380D01*
X73890000Y-96784761D01*
X73842380Y-96737142D01*
X74747142Y-95832380D02*
X74985238Y-96832380D01*
X75175714Y-96118095D01*
X75366190Y-96832380D01*
X75604285Y-95832380D01*
X75985238Y-95832380D02*
X75985238Y-96641904D01*
X76032857Y-96737142D01*
X76080476Y-96784761D01*
X76175714Y-96832380D01*
X76366190Y-96832380D01*
X76461428Y-96784761D01*
X76509047Y-96737142D01*
X76556666Y-96641904D01*
X76556666Y-95832380D01*
%TO.C,D3*%
X78001904Y-84272380D02*
X78001904Y-83272380D01*
X78240000Y-83272380D01*
X78382857Y-83320000D01*
X78478095Y-83415238D01*
X78525714Y-83510476D01*
X78573333Y-83700952D01*
X78573333Y-83843809D01*
X78525714Y-84034285D01*
X78478095Y-84129523D01*
X78382857Y-84224761D01*
X78240000Y-84272380D01*
X78001904Y-84272380D01*
X78906666Y-83272380D02*
X79525714Y-83272380D01*
X79192380Y-83653333D01*
X79335238Y-83653333D01*
X79430476Y-83700952D01*
X79478095Y-83748571D01*
X79525714Y-83843809D01*
X79525714Y-84081904D01*
X79478095Y-84177142D01*
X79430476Y-84224761D01*
X79335238Y-84272380D01*
X79049523Y-84272380D01*
X78954285Y-84224761D01*
X78906666Y-84177142D01*
X74287142Y-84357380D02*
X73810952Y-84357380D01*
X73810952Y-83357380D01*
X74620476Y-83833571D02*
X74953809Y-83833571D01*
X75096666Y-84357380D02*
X74620476Y-84357380D01*
X74620476Y-83357380D01*
X75096666Y-83357380D01*
X75525238Y-84357380D02*
X75525238Y-83357380D01*
X75763333Y-83357380D01*
X75906190Y-83405000D01*
X76001428Y-83500238D01*
X76049047Y-83595476D01*
X76096666Y-83785952D01*
X76096666Y-83928809D01*
X76049047Y-84119285D01*
X76001428Y-84214523D01*
X75906190Y-84309761D01*
X75763333Y-84357380D01*
X75525238Y-84357380D01*
%TO.C,R4*%
X72223333Y-89352380D02*
X71890000Y-88876190D01*
X71651904Y-89352380D02*
X71651904Y-88352380D01*
X72032857Y-88352380D01*
X72128095Y-88400000D01*
X72175714Y-88447619D01*
X72223333Y-88542857D01*
X72223333Y-88685714D01*
X72175714Y-88780952D01*
X72128095Y-88828571D01*
X72032857Y-88876190D01*
X71651904Y-88876190D01*
X73080476Y-88685714D02*
X73080476Y-89352380D01*
X72842380Y-88304761D02*
X72604285Y-89019047D01*
X73223333Y-89019047D01*
X67532380Y-91257380D02*
X67199047Y-90781190D01*
X66960952Y-91257380D02*
X66960952Y-90257380D01*
X67341904Y-90257380D01*
X67437142Y-90305000D01*
X67484761Y-90352619D01*
X67532380Y-90447857D01*
X67532380Y-90590714D01*
X67484761Y-90685952D01*
X67437142Y-90733571D01*
X67341904Y-90781190D01*
X66960952Y-90781190D01*
X68484761Y-91257380D02*
X67913333Y-91257380D01*
X68199047Y-91257380D02*
X68199047Y-90257380D01*
X68103809Y-90400238D01*
X68008571Y-90495476D01*
X67913333Y-90543095D01*
X69103809Y-90257380D02*
X69199047Y-90257380D01*
X69294285Y-90305000D01*
X69341904Y-90352619D01*
X69389523Y-90447857D01*
X69437142Y-90638333D01*
X69437142Y-90876428D01*
X69389523Y-91066904D01*
X69341904Y-91162142D01*
X69294285Y-91209761D01*
X69199047Y-91257380D01*
X69103809Y-91257380D01*
X69008571Y-91209761D01*
X68960952Y-91162142D01*
X68913333Y-91066904D01*
X68865714Y-90876428D01*
X68865714Y-90638333D01*
X68913333Y-90447857D01*
X68960952Y-90352619D01*
X69008571Y-90305000D01*
X69103809Y-90257380D01*
X69865714Y-91257380D02*
X69865714Y-90257380D01*
X69960952Y-90876428D02*
X70246666Y-91257380D01*
X70246666Y-90590714D02*
X69865714Y-90971666D01*
%TO.C,D2*%
X71016904Y-84272380D02*
X71016904Y-83272380D01*
X71255000Y-83272380D01*
X71397857Y-83320000D01*
X71493095Y-83415238D01*
X71540714Y-83510476D01*
X71588333Y-83700952D01*
X71588333Y-83843809D01*
X71540714Y-84034285D01*
X71493095Y-84129523D01*
X71397857Y-84224761D01*
X71255000Y-84272380D01*
X71016904Y-84272380D01*
X71969285Y-83367619D02*
X72016904Y-83320000D01*
X72112142Y-83272380D01*
X72350238Y-83272380D01*
X72445476Y-83320000D01*
X72493095Y-83367619D01*
X72540714Y-83462857D01*
X72540714Y-83558095D01*
X72493095Y-83700952D01*
X71921666Y-84272380D01*
X72540714Y-84272380D01*
X67302142Y-84357380D02*
X66825952Y-84357380D01*
X66825952Y-83357380D01*
X67635476Y-83833571D02*
X67968809Y-83833571D01*
X68111666Y-84357380D02*
X67635476Y-84357380D01*
X67635476Y-83357380D01*
X68111666Y-83357380D01*
X68540238Y-84357380D02*
X68540238Y-83357380D01*
X68778333Y-83357380D01*
X68921190Y-83405000D01*
X69016428Y-83500238D01*
X69064047Y-83595476D01*
X69111666Y-83785952D01*
X69111666Y-83928809D01*
X69064047Y-84119285D01*
X69016428Y-84214523D01*
X68921190Y-84309761D01*
X68778333Y-84357380D01*
X68540238Y-84357380D01*
%TO.C,J1*%
X72691666Y-109942380D02*
X72691666Y-110656666D01*
X72644047Y-110799523D01*
X72548809Y-110894761D01*
X72405952Y-110942380D01*
X72310714Y-110942380D01*
X73691666Y-110942380D02*
X73120238Y-110942380D01*
X73405952Y-110942380D02*
X73405952Y-109942380D01*
X73310714Y-110085238D01*
X73215476Y-110180476D01*
X73120238Y-110228095D01*
X67183809Y-115974761D02*
X67326666Y-116022380D01*
X67564761Y-116022380D01*
X67660000Y-115974761D01*
X67707619Y-115927142D01*
X67755238Y-115831904D01*
X67755238Y-115736666D01*
X67707619Y-115641428D01*
X67660000Y-115593809D01*
X67564761Y-115546190D01*
X67374285Y-115498571D01*
X67279047Y-115450952D01*
X67231428Y-115403333D01*
X67183809Y-115308095D01*
X67183809Y-115212857D01*
X67231428Y-115117619D01*
X67279047Y-115070000D01*
X67374285Y-115022380D01*
X67612380Y-115022380D01*
X67755238Y-115070000D01*
X68564761Y-115974761D02*
X68469523Y-116022380D01*
X68279047Y-116022380D01*
X68183809Y-115974761D01*
X68136190Y-115879523D01*
X68136190Y-115498571D01*
X68183809Y-115403333D01*
X68279047Y-115355714D01*
X68469523Y-115355714D01*
X68564761Y-115403333D01*
X68612380Y-115498571D01*
X68612380Y-115593809D01*
X68136190Y-115689047D01*
X69040952Y-115355714D02*
X69040952Y-116022380D01*
X69040952Y-115450952D02*
X69088571Y-115403333D01*
X69183809Y-115355714D01*
X69326666Y-115355714D01*
X69421904Y-115403333D01*
X69469523Y-115498571D01*
X69469523Y-116022380D01*
X69898095Y-115974761D02*
X69993333Y-116022380D01*
X70183809Y-116022380D01*
X70279047Y-115974761D01*
X70326666Y-115879523D01*
X70326666Y-115831904D01*
X70279047Y-115736666D01*
X70183809Y-115689047D01*
X70040952Y-115689047D01*
X69945714Y-115641428D01*
X69898095Y-115546190D01*
X69898095Y-115498571D01*
X69945714Y-115403333D01*
X70040952Y-115355714D01*
X70183809Y-115355714D01*
X70279047Y-115403333D01*
X70898095Y-116022380D02*
X70802857Y-115974761D01*
X70755238Y-115927142D01*
X70707619Y-115831904D01*
X70707619Y-115546190D01*
X70755238Y-115450952D01*
X70802857Y-115403333D01*
X70898095Y-115355714D01*
X71040952Y-115355714D01*
X71136190Y-115403333D01*
X71183809Y-115450952D01*
X71231428Y-115546190D01*
X71231428Y-115831904D01*
X71183809Y-115927142D01*
X71136190Y-115974761D01*
X71040952Y-116022380D01*
X70898095Y-116022380D01*
X71660000Y-116022380D02*
X71660000Y-115355714D01*
X71660000Y-115546190D02*
X71707619Y-115450952D01*
X71755238Y-115403333D01*
X71850476Y-115355714D01*
X71945714Y-115355714D01*
X73612380Y-115927142D02*
X73564761Y-115974761D01*
X73421904Y-116022380D01*
X73326666Y-116022380D01*
X73183809Y-115974761D01*
X73088571Y-115879523D01*
X73040952Y-115784285D01*
X72993333Y-115593809D01*
X72993333Y-115450952D01*
X73040952Y-115260476D01*
X73088571Y-115165238D01*
X73183809Y-115070000D01*
X73326666Y-115022380D01*
X73421904Y-115022380D01*
X73564761Y-115070000D01*
X73612380Y-115117619D01*
X74183809Y-116022380D02*
X74088571Y-115974761D01*
X74040952Y-115927142D01*
X73993333Y-115831904D01*
X73993333Y-115546190D01*
X74040952Y-115450952D01*
X74088571Y-115403333D01*
X74183809Y-115355714D01*
X74326666Y-115355714D01*
X74421904Y-115403333D01*
X74469523Y-115450952D01*
X74517142Y-115546190D01*
X74517142Y-115831904D01*
X74469523Y-115927142D01*
X74421904Y-115974761D01*
X74326666Y-116022380D01*
X74183809Y-116022380D01*
X74945714Y-115355714D02*
X74945714Y-116022380D01*
X74945714Y-115450952D02*
X74993333Y-115403333D01*
X75088571Y-115355714D01*
X75231428Y-115355714D01*
X75326666Y-115403333D01*
X75374285Y-115498571D01*
X75374285Y-116022380D01*
X75850476Y-115355714D02*
X75850476Y-116022380D01*
X75850476Y-115450952D02*
X75898095Y-115403333D01*
X75993333Y-115355714D01*
X76136190Y-115355714D01*
X76231428Y-115403333D01*
X76279047Y-115498571D01*
X76279047Y-116022380D01*
X77136190Y-115974761D02*
X77040952Y-116022380D01*
X76850476Y-116022380D01*
X76755238Y-115974761D01*
X76707619Y-115879523D01*
X76707619Y-115498571D01*
X76755238Y-115403333D01*
X76850476Y-115355714D01*
X77040952Y-115355714D01*
X77136190Y-115403333D01*
X77183809Y-115498571D01*
X77183809Y-115593809D01*
X76707619Y-115689047D01*
X78040952Y-115974761D02*
X77945714Y-116022380D01*
X77755238Y-116022380D01*
X77660000Y-115974761D01*
X77612380Y-115927142D01*
X77564761Y-115831904D01*
X77564761Y-115546190D01*
X77612380Y-115450952D01*
X77660000Y-115403333D01*
X77755238Y-115355714D01*
X77945714Y-115355714D01*
X78040952Y-115403333D01*
X78326666Y-115355714D02*
X78707619Y-115355714D01*
X78469523Y-115022380D02*
X78469523Y-115879523D01*
X78517142Y-115974761D01*
X78612380Y-116022380D01*
X78707619Y-116022380D01*
X79183809Y-116022380D02*
X79088571Y-115974761D01*
X79040952Y-115927142D01*
X78993333Y-115831904D01*
X78993333Y-115546190D01*
X79040952Y-115450952D01*
X79088571Y-115403333D01*
X79183809Y-115355714D01*
X79326666Y-115355714D01*
X79421904Y-115403333D01*
X79469523Y-115450952D01*
X79517142Y-115546190D01*
X79517142Y-115831904D01*
X79469523Y-115927142D01*
X79421904Y-115974761D01*
X79326666Y-116022380D01*
X79183809Y-116022380D01*
X79945714Y-116022380D02*
X79945714Y-115355714D01*
X79945714Y-115546190D02*
X79993333Y-115450952D01*
X80040952Y-115403333D01*
X80136190Y-115355714D01*
X80231428Y-115355714D01*
%TO.C,R6*%
X88098333Y-68397380D02*
X87765000Y-67921190D01*
X87526904Y-68397380D02*
X87526904Y-67397380D01*
X87907857Y-67397380D01*
X88003095Y-67445000D01*
X88050714Y-67492619D01*
X88098333Y-67587857D01*
X88098333Y-67730714D01*
X88050714Y-67825952D01*
X88003095Y-67873571D01*
X87907857Y-67921190D01*
X87526904Y-67921190D01*
X88955476Y-67397380D02*
X88765000Y-67397380D01*
X88669761Y-67445000D01*
X88622142Y-67492619D01*
X88526904Y-67635476D01*
X88479285Y-67825952D01*
X88479285Y-68206904D01*
X88526904Y-68302142D01*
X88574523Y-68349761D01*
X88669761Y-68397380D01*
X88860238Y-68397380D01*
X88955476Y-68349761D01*
X89003095Y-68302142D01*
X89050714Y-68206904D01*
X89050714Y-67968809D01*
X89003095Y-67873571D01*
X88955476Y-67825952D01*
X88860238Y-67778333D01*
X88669761Y-67778333D01*
X88574523Y-67825952D01*
X88526904Y-67873571D01*
X88479285Y-67968809D01*
X84042380Y-68482380D02*
X83709047Y-68006190D01*
X83470952Y-68482380D02*
X83470952Y-67482380D01*
X83851904Y-67482380D01*
X83947142Y-67530000D01*
X83994761Y-67577619D01*
X84042380Y-67672857D01*
X84042380Y-67815714D01*
X83994761Y-67910952D01*
X83947142Y-67958571D01*
X83851904Y-68006190D01*
X83470952Y-68006190D01*
X84375714Y-67482380D02*
X84994761Y-67482380D01*
X84661428Y-67863333D01*
X84804285Y-67863333D01*
X84899523Y-67910952D01*
X84947142Y-67958571D01*
X84994761Y-68053809D01*
X84994761Y-68291904D01*
X84947142Y-68387142D01*
X84899523Y-68434761D01*
X84804285Y-68482380D01*
X84518571Y-68482380D01*
X84423333Y-68434761D01*
X84375714Y-68387142D01*
X85375714Y-67577619D02*
X85423333Y-67530000D01*
X85518571Y-67482380D01*
X85756666Y-67482380D01*
X85851904Y-67530000D01*
X85899523Y-67577619D01*
X85947142Y-67672857D01*
X85947142Y-67768095D01*
X85899523Y-67910952D01*
X85328095Y-68482380D01*
X85947142Y-68482380D01*
X86375714Y-68482380D02*
X86375714Y-67482380D01*
X86470952Y-68101428D02*
X86756666Y-68482380D01*
X86756666Y-67815714D02*
X86375714Y-68196666D01*
%TO.C,R1*%
X65238333Y-89352380D02*
X64905000Y-88876190D01*
X64666904Y-89352380D02*
X64666904Y-88352380D01*
X65047857Y-88352380D01*
X65143095Y-88400000D01*
X65190714Y-88447619D01*
X65238333Y-88542857D01*
X65238333Y-88685714D01*
X65190714Y-88780952D01*
X65143095Y-88828571D01*
X65047857Y-88876190D01*
X64666904Y-88876190D01*
X66190714Y-89352380D02*
X65619285Y-89352380D01*
X65905000Y-89352380D02*
X65905000Y-88352380D01*
X65809761Y-88495238D01*
X65714523Y-88590476D01*
X65619285Y-88638095D01*
X60547380Y-91257380D02*
X60214047Y-90781190D01*
X59975952Y-91257380D02*
X59975952Y-90257380D01*
X60356904Y-90257380D01*
X60452142Y-90305000D01*
X60499761Y-90352619D01*
X60547380Y-90447857D01*
X60547380Y-90590714D01*
X60499761Y-90685952D01*
X60452142Y-90733571D01*
X60356904Y-90781190D01*
X59975952Y-90781190D01*
X61499761Y-91257380D02*
X60928333Y-91257380D01*
X61214047Y-91257380D02*
X61214047Y-90257380D01*
X61118809Y-90400238D01*
X61023571Y-90495476D01*
X60928333Y-90543095D01*
X62118809Y-90257380D02*
X62214047Y-90257380D01*
X62309285Y-90305000D01*
X62356904Y-90352619D01*
X62404523Y-90447857D01*
X62452142Y-90638333D01*
X62452142Y-90876428D01*
X62404523Y-91066904D01*
X62356904Y-91162142D01*
X62309285Y-91209761D01*
X62214047Y-91257380D01*
X62118809Y-91257380D01*
X62023571Y-91209761D01*
X61975952Y-91162142D01*
X61928333Y-91066904D01*
X61880714Y-90876428D01*
X61880714Y-90638333D01*
X61928333Y-90447857D01*
X61975952Y-90352619D01*
X62023571Y-90305000D01*
X62118809Y-90257380D01*
X62880714Y-91257380D02*
X62880714Y-90257380D01*
X62975952Y-90876428D02*
X63261666Y-91257380D01*
X63261666Y-90590714D02*
X62880714Y-90971666D01*
%TO.C,C8*%
X62587142Y-99861666D02*
X62634761Y-99909285D01*
X62682380Y-100052142D01*
X62682380Y-100147380D01*
X62634761Y-100290238D01*
X62539523Y-100385476D01*
X62444285Y-100433095D01*
X62253809Y-100480714D01*
X62110952Y-100480714D01*
X61920476Y-100433095D01*
X61825238Y-100385476D01*
X61730000Y-100290238D01*
X61682380Y-100147380D01*
X61682380Y-100052142D01*
X61730000Y-99909285D01*
X61777619Y-99861666D01*
X62110952Y-99290238D02*
X62063333Y-99385476D01*
X62015714Y-99433095D01*
X61920476Y-99480714D01*
X61872857Y-99480714D01*
X61777619Y-99433095D01*
X61730000Y-99385476D01*
X61682380Y-99290238D01*
X61682380Y-99099761D01*
X61730000Y-99004523D01*
X61777619Y-98956904D01*
X61872857Y-98909285D01*
X61920476Y-98909285D01*
X62015714Y-98956904D01*
X62063333Y-99004523D01*
X62110952Y-99099761D01*
X62110952Y-99290238D01*
X62158571Y-99385476D01*
X62206190Y-99433095D01*
X62301428Y-99480714D01*
X62491904Y-99480714D01*
X62587142Y-99433095D01*
X62634761Y-99385476D01*
X62682380Y-99290238D01*
X62682380Y-99099761D01*
X62634761Y-99004523D01*
X62587142Y-98956904D01*
X62491904Y-98909285D01*
X62301428Y-98909285D01*
X62206190Y-98956904D01*
X62158571Y-99004523D01*
X62110952Y-99099761D01*
X59927619Y-97527857D02*
X59880000Y-97480238D01*
X59832380Y-97385000D01*
X59832380Y-97146904D01*
X59880000Y-97051666D01*
X59927619Y-97004047D01*
X60022857Y-96956428D01*
X60118095Y-96956428D01*
X60260952Y-97004047D01*
X60832380Y-97575476D01*
X60832380Y-96956428D01*
X59927619Y-96575476D02*
X59880000Y-96527857D01*
X59832380Y-96432619D01*
X59832380Y-96194523D01*
X59880000Y-96099285D01*
X59927619Y-96051666D01*
X60022857Y-96004047D01*
X60118095Y-96004047D01*
X60260952Y-96051666D01*
X60832380Y-96623095D01*
X60832380Y-96004047D01*
X60165714Y-95146904D02*
X60832380Y-95146904D01*
X60165714Y-95575476D02*
X60689523Y-95575476D01*
X60784761Y-95527857D01*
X60832380Y-95432619D01*
X60832380Y-95289761D01*
X60784761Y-95194523D01*
X60737142Y-95146904D01*
X60308571Y-94337380D02*
X60308571Y-94670714D01*
X60832380Y-94670714D02*
X59832380Y-94670714D01*
X59832380Y-94194523D01*
%TO.C,REF\u002A\u002A*%
X91666666Y-36252380D02*
X91333333Y-35776190D01*
X91095238Y-36252380D02*
X91095238Y-35252380D01*
X91476190Y-35252380D01*
X91571428Y-35300000D01*
X91619047Y-35347619D01*
X91666666Y-35442857D01*
X91666666Y-35585714D01*
X91619047Y-35680952D01*
X91571428Y-35728571D01*
X91476190Y-35776190D01*
X91095238Y-35776190D01*
X92095238Y-35728571D02*
X92428571Y-35728571D01*
X92571428Y-36252380D02*
X92095238Y-36252380D01*
X92095238Y-35252380D01*
X92571428Y-35252380D01*
X93333333Y-35728571D02*
X93000000Y-35728571D01*
X93000000Y-36252380D02*
X93000000Y-35252380D01*
X93476190Y-35252380D01*
X94000000Y-35252380D02*
X94000000Y-35490476D01*
X93761904Y-35395238D02*
X94000000Y-35490476D01*
X94238095Y-35395238D01*
X93857142Y-35680952D02*
X94000000Y-35490476D01*
X94142857Y-35680952D01*
X94761904Y-35252380D02*
X94761904Y-35490476D01*
X94523809Y-35395238D02*
X94761904Y-35490476D01*
X95000000Y-35395238D01*
X94619047Y-35680952D02*
X94761904Y-35490476D01*
X94904761Y-35680952D01*
%TO.C,L1*%
X77658333Y-100452380D02*
X77182142Y-100452380D01*
X77182142Y-99452380D01*
X78515476Y-100452380D02*
X77944047Y-100452380D01*
X78229761Y-100452380D02*
X78229761Y-99452380D01*
X78134523Y-99595238D01*
X78039285Y-99690476D01*
X77944047Y-99738095D01*
X77428571Y-98547380D02*
X77428571Y-97547380D01*
X77904761Y-98547380D02*
X77904761Y-97547380D01*
X78476190Y-98547380D01*
X78476190Y-97547380D01*
X78952380Y-98547380D02*
X78952380Y-97547380D01*
X79190476Y-97547380D01*
X79333333Y-97595000D01*
X79428571Y-97690238D01*
X79476190Y-97785476D01*
X79523809Y-97975952D01*
X79523809Y-98118809D01*
X79476190Y-98309285D01*
X79428571Y-98404523D01*
X79333333Y-98499761D01*
X79190476Y-98547380D01*
X78952380Y-98547380D01*
X80666666Y-97642619D02*
X80714285Y-97595000D01*
X80809523Y-97547380D01*
X81047619Y-97547380D01*
X81142857Y-97595000D01*
X81190476Y-97642619D01*
X81238095Y-97737857D01*
X81238095Y-97833095D01*
X81190476Y-97975952D01*
X80619047Y-98547380D01*
X81238095Y-98547380D01*
X81666666Y-98452142D02*
X81714285Y-98499761D01*
X81666666Y-98547380D01*
X81619047Y-98499761D01*
X81666666Y-98452142D01*
X81666666Y-98547380D01*
X82095238Y-97642619D02*
X82142857Y-97595000D01*
X82238095Y-97547380D01*
X82476190Y-97547380D01*
X82571428Y-97595000D01*
X82619047Y-97642619D01*
X82666666Y-97737857D01*
X82666666Y-97833095D01*
X82619047Y-97975952D01*
X82047619Y-98547380D01*
X82666666Y-98547380D01*
X83523809Y-97880714D02*
X83523809Y-98547380D01*
X83095238Y-97880714D02*
X83095238Y-98404523D01*
X83142857Y-98499761D01*
X83238095Y-98547380D01*
X83380952Y-98547380D01*
X83476190Y-98499761D01*
X83523809Y-98452142D01*
X84000000Y-98547380D02*
X84000000Y-97547380D01*
X84000000Y-98023571D02*
X84571428Y-98023571D01*
X84571428Y-98547380D02*
X84571428Y-97547380D01*
%TO.C,R5*%
X88098333Y-64587380D02*
X87765000Y-64111190D01*
X87526904Y-64587380D02*
X87526904Y-63587380D01*
X87907857Y-63587380D01*
X88003095Y-63635000D01*
X88050714Y-63682619D01*
X88098333Y-63777857D01*
X88098333Y-63920714D01*
X88050714Y-64015952D01*
X88003095Y-64063571D01*
X87907857Y-64111190D01*
X87526904Y-64111190D01*
X89003095Y-63587380D02*
X88526904Y-63587380D01*
X88479285Y-64063571D01*
X88526904Y-64015952D01*
X88622142Y-63968333D01*
X88860238Y-63968333D01*
X88955476Y-64015952D01*
X89003095Y-64063571D01*
X89050714Y-64158809D01*
X89050714Y-64396904D01*
X89003095Y-64492142D01*
X88955476Y-64539761D01*
X88860238Y-64587380D01*
X88622142Y-64587380D01*
X88526904Y-64539761D01*
X88479285Y-64492142D01*
X84042380Y-64672380D02*
X83709047Y-64196190D01*
X83470952Y-64672380D02*
X83470952Y-63672380D01*
X83851904Y-63672380D01*
X83947142Y-63720000D01*
X83994761Y-63767619D01*
X84042380Y-63862857D01*
X84042380Y-64005714D01*
X83994761Y-64100952D01*
X83947142Y-64148571D01*
X83851904Y-64196190D01*
X83470952Y-64196190D01*
X84375714Y-63672380D02*
X84994761Y-63672380D01*
X84661428Y-64053333D01*
X84804285Y-64053333D01*
X84899523Y-64100952D01*
X84947142Y-64148571D01*
X84994761Y-64243809D01*
X84994761Y-64481904D01*
X84947142Y-64577142D01*
X84899523Y-64624761D01*
X84804285Y-64672380D01*
X84518571Y-64672380D01*
X84423333Y-64624761D01*
X84375714Y-64577142D01*
X85375714Y-63767619D02*
X85423333Y-63720000D01*
X85518571Y-63672380D01*
X85756666Y-63672380D01*
X85851904Y-63720000D01*
X85899523Y-63767619D01*
X85947142Y-63862857D01*
X85947142Y-63958095D01*
X85899523Y-64100952D01*
X85328095Y-64672380D01*
X85947142Y-64672380D01*
X86375714Y-64672380D02*
X86375714Y-63672380D01*
X86470952Y-64291428D02*
X86756666Y-64672380D01*
X86756666Y-64005714D02*
X86375714Y-64386666D01*
D11*
%TO.C,U2*%
X76200000Y-31115000D02*
X76200000Y-81915000D01*
X53340000Y-31115000D02*
X76200000Y-31115000D01*
X76200000Y-81915000D02*
X53340000Y-81915000D01*
X53340000Y-81915000D02*
X53340000Y-31115000D01*
D12*
X73860000Y-75565000D02*
G75*
G03*
X73860000Y-75565000I-200000J0D01*
G01*
D13*
%TO.C,L2*%
X85365000Y-93779758D02*
X85365000Y-95450242D01*
X83545000Y-93779758D02*
X83545000Y-95450242D01*
%TO.C,U6*%
X72390000Y-100040000D02*
X70590000Y-100040000D01*
X72390000Y-103160000D02*
X71590000Y-103160000D01*
X72390000Y-103160000D02*
X73190000Y-103160000D01*
X72390000Y-100040000D02*
X73190000Y-100040000D01*
%TO.C,U1*%
X33560000Y-31115000D02*
X33560000Y-51435000D01*
X44990000Y-83185000D02*
X37370000Y-83185000D01*
X37370000Y-76835000D02*
X44990000Y-76835000D01*
X48800000Y-51435000D02*
X48800000Y-31115000D01*
X47530000Y-31115000D02*
X34830000Y-31115000D01*
X29750000Y-33655000D02*
X29750000Y-79375000D01*
X44990000Y-76835000D02*
X44990000Y-83185000D01*
X50070000Y-81915000D02*
X32290000Y-81915000D01*
X52610000Y-79375000D02*
X52610000Y-33655000D01*
X33560000Y-51435000D02*
X48800000Y-51435000D01*
X37370000Y-83185000D02*
X37370000Y-76835000D01*
X50070000Y-31115000D02*
X32290000Y-31115000D01*
X29750000Y-79375000D02*
G75*
G03*
X32290000Y-81915000I2540000J0D01*
G01*
X52610000Y-33655000D02*
G75*
G03*
X50070000Y-31115000I-2540000J0D01*
G01*
X50070000Y-81915000D02*
G75*
G03*
X52610000Y-79375000I0J2540000D01*
G01*
X32290000Y-31115000D02*
G75*
G03*
X29750000Y-33655000I0J-2540000D01*
G01*
%TO.C,R7*%
X76927064Y-87990000D02*
X75472936Y-87990000D01*
X76927064Y-89810000D02*
X75472936Y-89810000D01*
%TO.C,C2*%
X80288748Y-103090000D02*
X81711252Y-103090000D01*
X80288748Y-104910000D02*
X81711252Y-104910000D01*
%TO.C,C5*%
X91288748Y-109910000D02*
X92711252Y-109910000D01*
X91288748Y-108090000D02*
X92711252Y-108090000D01*
%TO.C,C1*%
X67090000Y-101288748D02*
X67090000Y-102711252D01*
X68910000Y-101288748D02*
X68910000Y-102711252D01*
%TO.C,SW2*%
X93000000Y-75640000D02*
X97500000Y-75640000D01*
X97500000Y-69140000D02*
X93000000Y-69140000D01*
X91750000Y-71640000D02*
X91750000Y-73140000D01*
X98750000Y-73140000D02*
X98750000Y-71640000D01*
%TO.C,D1*%
X64515000Y-84590000D02*
X60630000Y-84590000D01*
X64515000Y-86860000D02*
X64515000Y-84590000D01*
X60630000Y-86860000D02*
X64515000Y-86860000D01*
%TO.C,R3*%
X87087064Y-63140000D02*
X85632936Y-63140000D01*
X87087064Y-61320000D02*
X85632936Y-61320000D01*
%TO.C,R2*%
X87087064Y-57510000D02*
X85632936Y-57510000D01*
X87087064Y-59330000D02*
X85632936Y-59330000D01*
%TO.C,SW3*%
X91750000Y-80530000D02*
X91750000Y-82030000D01*
X98750000Y-82030000D02*
X98750000Y-80530000D01*
X93000000Y-84530000D02*
X97500000Y-84530000D01*
X97500000Y-78030000D02*
X93000000Y-78030000D01*
%TO.C,J4*%
X47645000Y-111326000D02*
X47645000Y-114226000D01*
X49550000Y-109421000D02*
X52450000Y-109421000D01*
X54355000Y-111326000D02*
X54355000Y-114226000D01*
X49550000Y-116131000D02*
X52450000Y-116131000D01*
%TO.C,C6*%
X81356252Y-94255000D02*
X79933748Y-94255000D01*
X81356252Y-92435000D02*
X79933748Y-92435000D01*
%TO.C,J2*%
X82490000Y-114360000D02*
X82490000Y-113030000D01*
X87690000Y-114360000D02*
X87690000Y-111700000D01*
X85090000Y-114360000D02*
X87690000Y-114360000D01*
X83820000Y-114360000D02*
X82490000Y-114360000D01*
X85090000Y-114360000D02*
X85090000Y-111700000D01*
X85090000Y-111700000D02*
X87690000Y-111700000D01*
%TO.C,SW1*%
X98750000Y-64250000D02*
X98750000Y-62750000D01*
X93000000Y-66750000D02*
X97500000Y-66750000D01*
X97500000Y-60250000D02*
X93000000Y-60250000D01*
X91750000Y-62750000D02*
X91750000Y-64250000D01*
D11*
%TO.C,A1*%
X32270000Y-27120000D02*
X32270000Y-51120000D01*
X69170000Y-54120000D02*
X77520000Y-54120000D01*
X94270000Y-24120000D02*
X35270000Y-24120000D01*
X97270000Y-51120000D02*
X97270000Y-27120000D01*
X81770000Y-54120000D02*
X90120000Y-54120000D01*
X35270000Y-54120000D02*
X94270000Y-54120000D01*
X97270000Y-27120000D02*
G75*
G03*
X94270000Y-24120000I-3000000J0D01*
G01*
X35270000Y-24120000D02*
G75*
G03*
X32270000Y-27120000I1J-3000001D01*
G01*
X32270000Y-51120000D02*
G75*
G03*
X35270000Y-54120000I3000001J1D01*
G01*
X94270000Y-54120000D02*
G75*
G03*
X97270000Y-51120000I0J3000000D01*
G01*
D13*
%TO.C,C7*%
X66751252Y-95525000D02*
X65328748Y-95525000D01*
X66751252Y-93705000D02*
X65328748Y-93705000D01*
%TO.C,SW4*%
X98750000Y-90920000D02*
X98750000Y-89420000D01*
X91750000Y-89420000D02*
X91750000Y-90920000D01*
X93000000Y-93420000D02*
X97500000Y-93420000D01*
X97500000Y-86920000D02*
X93000000Y-86920000D01*
%TO.C,SW5*%
X83615000Y-80520000D02*
X83615000Y-81873333D01*
X86275000Y-80520000D02*
X86275000Y-81873333D01*
X84455000Y-80520000D02*
X83185000Y-80520000D01*
X83185000Y-80520000D02*
X83185000Y-84580000D01*
X83975000Y-80520000D02*
X83975000Y-81873333D01*
X86515000Y-80520000D02*
X86515000Y-81873333D01*
X84455000Y-84580000D02*
X84455000Y-80520000D01*
X86395000Y-80520000D02*
X86395000Y-81873333D01*
X84335000Y-80520000D02*
X84335000Y-81873333D01*
X86875000Y-80520000D02*
X86875000Y-81873333D01*
X85915000Y-80520000D02*
X85915000Y-81873333D01*
X89020000Y-77360000D02*
X89020000Y-78744000D01*
X84095000Y-80520000D02*
X84095000Y-81873333D01*
X83735000Y-80520000D02*
X83735000Y-81873333D01*
X83255000Y-80520000D02*
X83255000Y-81873333D01*
X86995000Y-81873333D02*
X85725000Y-81873333D01*
X86995000Y-80520000D02*
X85725000Y-80520000D01*
X83855000Y-80520000D02*
X83855000Y-81873333D01*
X85725000Y-84580000D02*
X86995000Y-84580000D01*
X86995000Y-84580000D02*
X86995000Y-80520000D01*
X89020000Y-77360000D02*
X87637000Y-77360000D01*
X88780000Y-77600000D02*
X81400000Y-77600000D01*
X84215000Y-80520000D02*
X84215000Y-81873333D01*
X86155000Y-80520000D02*
X86155000Y-81873333D01*
X84455000Y-81873333D02*
X83185000Y-81873333D01*
X88780000Y-77600000D02*
X88780000Y-87500000D01*
X85725000Y-80520000D02*
X85725000Y-84580000D01*
X83495000Y-80520000D02*
X83495000Y-81873333D01*
X83375000Y-80520000D02*
X83375000Y-81873333D01*
X81400000Y-77600000D02*
X81400000Y-87500000D01*
X86035000Y-80520000D02*
X86035000Y-81873333D01*
X85795000Y-80520000D02*
X85795000Y-81873333D01*
X83185000Y-84580000D02*
X84455000Y-84580000D01*
X86755000Y-80520000D02*
X86755000Y-81873333D01*
X88780000Y-87500000D02*
X81400000Y-87500000D01*
X86635000Y-80520000D02*
X86635000Y-81873333D01*
%TO.C,U7*%
X72390000Y-95540000D02*
X73190000Y-95540000D01*
X72390000Y-92420000D02*
X73190000Y-92420000D01*
X72390000Y-92420000D02*
X70590000Y-92420000D01*
X72390000Y-95540000D02*
X71590000Y-95540000D01*
%TO.C,D3*%
X78485000Y-86860000D02*
X78485000Y-84590000D01*
X78485000Y-84590000D02*
X74600000Y-84590000D01*
X74600000Y-86860000D02*
X78485000Y-86860000D01*
%TO.C,R4*%
X69942064Y-89810000D02*
X68487936Y-89810000D01*
X69942064Y-87990000D02*
X68487936Y-87990000D01*
%TO.C,D2*%
X71500000Y-86860000D02*
X71500000Y-84590000D01*
X67615000Y-86860000D02*
X71500000Y-86860000D01*
X71500000Y-84590000D02*
X67615000Y-84590000D01*
%TO.C,J1*%
X71130000Y-111700000D02*
X78810000Y-111700000D01*
X71130000Y-114360000D02*
X78810000Y-114360000D01*
X78810000Y-114360000D02*
X78810000Y-111700000D01*
X71130000Y-114360000D02*
X71130000Y-111700000D01*
X69860000Y-114360000D02*
X68530000Y-114360000D01*
X68530000Y-114360000D02*
X68530000Y-113030000D01*
%TO.C,R6*%
X87087064Y-70760000D02*
X85632936Y-70760000D01*
X87087064Y-68940000D02*
X85632936Y-68940000D01*
%TO.C,R1*%
X62957064Y-87990000D02*
X61502936Y-87990000D01*
X62957064Y-89810000D02*
X61502936Y-89810000D01*
%TO.C,C8*%
X61320000Y-95173748D02*
X61320000Y-96596252D01*
X63140000Y-95173748D02*
X63140000Y-96596252D01*
%TO.C,L1*%
X80164758Y-99090000D02*
X81835242Y-99090000D01*
X80164758Y-100910000D02*
X81835242Y-100910000D01*
%TO.C,R5*%
X87087064Y-66950000D02*
X85632936Y-66950000D01*
X87087064Y-65130000D02*
X85632936Y-65130000D01*
%TD*%
M02*
