%TF.GenerationSoftware,KiCad,Pcbnew,7.0.1-0*%
%TF.CreationDate,2023-04-22T10:01:52-07:00*%
%TF.ProjectId,Pioneer Controller V3,50696f6e-6565-4722-9043-6f6e74726f6c,rev?*%
%TF.SameCoordinates,Original*%
%TF.FileFunction,Soldermask,Top*%
%TF.FilePolarity,Negative*%
%FSLAX46Y46*%
G04 Gerber Fmt 4.6, Leading zero omitted, Abs format (unit mm)*
G04 Created by KiCad (PCBNEW 7.0.1-0) date 2023-04-22 10:01:52*
%MOMM*%
%LPD*%
G01*
G04 APERTURE LIST*
G04 Aperture macros list*
%AMRoundRect*
0 Rectangle with rounded corners*
0 $1 Rounding radius*
0 $2 $3 $4 $5 $6 $7 $8 $9 X,Y pos of 4 corners*
0 Add a 4 corners polygon primitive as box body*
4,1,4,$2,$3,$4,$5,$6,$7,$8,$9,$2,$3,0*
0 Add four circle primitives for the rounded corners*
1,1,$1+$1,$2,$3*
1,1,$1+$1,$4,$5*
1,1,$1+$1,$6,$7*
1,1,$1+$1,$8,$9*
0 Add four rect primitives between the rounded corners*
20,1,$1+$1,$2,$3,$4,$5,0*
20,1,$1+$1,$4,$5,$6,$7,0*
20,1,$1+$1,$6,$7,$8,$9,0*
20,1,$1+$1,$8,$9,$2,$3,0*%
G04 Aperture macros list end*
%ADD10C,2.000000*%
%ADD11C,1.524000*%
%ADD12RoundRect,0.250000X0.650000X-0.325000X0.650000X0.325000X-0.650000X0.325000X-0.650000X-0.325000X0*%
%ADD13RoundRect,0.250000X0.312500X0.625000X-0.312500X0.625000X-0.312500X-0.625000X0.312500X-0.625000X0*%
%ADD14C,5.200000*%
%ADD15C,2.286000*%
%ADD16R,1.508000X1.508000*%
%ADD17C,1.508000*%
%ADD18C,3.556000*%
%ADD19R,1.600000X1.600000*%
%ADD20O,1.600000X1.600000*%
%ADD21RoundRect,0.250000X-0.325000X-0.650000X0.325000X-0.650000X0.325000X0.650000X-0.325000X0.650000X0*%
%ADD22C,2.050000*%
%ADD23C,2.250000*%
%ADD24RoundRect,0.150000X-0.512500X-0.150000X0.512500X-0.150000X0.512500X0.150000X-0.512500X0.150000X0*%
%ADD25R,1.700000X1.700000*%
%ADD26O,1.700000X1.700000*%
%ADD27RoundRect,0.250000X0.325000X0.650000X-0.325000X0.650000X-0.325000X-0.650000X0.325000X-0.650000X0*%
%ADD28RoundRect,0.250000X-0.312500X-0.625000X0.312500X-0.625000X0.312500X0.625000X-0.312500X0.625000X0*%
%ADD29RoundRect,0.250000X0.700000X-0.275000X0.700000X0.275000X-0.700000X0.275000X-0.700000X-0.275000X0*%
%ADD30RoundRect,0.250000X0.375000X0.625000X-0.375000X0.625000X-0.375000X-0.625000X0.375000X-0.625000X0*%
G04 APERTURE END LIST*
D10*
%TO.C,SW2*%
X90750000Y-74250000D03*
X90750000Y-67750000D03*
X95250000Y-74250000D03*
X95250000Y-67750000D03*
%TD*%
D11*
%TO.C,U1*%
X52065000Y-65875000D03*
X52065000Y-63335000D03*
X52065000Y-58255000D03*
X52065000Y-55715000D03*
X52065000Y-53175000D03*
X52065000Y-50635000D03*
X52065000Y-48095000D03*
X52065000Y-45555000D03*
X31745000Y-58255000D03*
X31745000Y-35395000D03*
X31745000Y-37935000D03*
X31745000Y-40475000D03*
X31745000Y-43015000D03*
X31745000Y-45555000D03*
X31745000Y-48095000D03*
X31745000Y-50635000D03*
X52065000Y-30315000D03*
X31745000Y-55715000D03*
X52065000Y-60795000D03*
X52065000Y-40475000D03*
X52065000Y-37935000D03*
X52065000Y-68415000D03*
X52065000Y-35395000D03*
X52065000Y-43015000D03*
X31745000Y-32855000D03*
X31745000Y-30315000D03*
X52065000Y-32855000D03*
X31745000Y-53175000D03*
%TD*%
D12*
%TO.C,C7*%
X87250000Y-93475000D03*
X87250000Y-90525000D03*
%TD*%
D13*
%TO.C,R2*%
X94462500Y-61000000D03*
X91537500Y-61000000D03*
%TD*%
D14*
%TO.C,H2*%
X37000000Y-40000000D03*
%TD*%
D10*
%TO.C,SW1*%
X90750000Y-57250000D03*
X90750000Y-50750000D03*
X95250000Y-57250000D03*
X95250000Y-50750000D03*
%TD*%
D15*
%TO.C,U2*%
X59475000Y-26140000D03*
X78525000Y-26140000D03*
D16*
X79160000Y-68050000D03*
D17*
X79160000Y-65510000D03*
X79160000Y-62970000D03*
X79160000Y-60430000D03*
X79160000Y-57890000D03*
X79160000Y-55350000D03*
X79160000Y-52810000D03*
X79160000Y-50270000D03*
X79160000Y-47730000D03*
X79160000Y-45190000D03*
X79160000Y-42650000D03*
X79160000Y-40110000D03*
X79160000Y-37570000D03*
X79160000Y-35030000D03*
X79160000Y-32490000D03*
X79160000Y-29950000D03*
X58840000Y-57890000D03*
X58840000Y-55350000D03*
X58840000Y-52810000D03*
X58840000Y-50270000D03*
X58840000Y-47730000D03*
X58840000Y-45190000D03*
X58840000Y-42650000D03*
X58840000Y-40110000D03*
X58840000Y-37570000D03*
X58840000Y-35030000D03*
X58840000Y-32490000D03*
X58840000Y-29950000D03*
D18*
X77890000Y-71860000D03*
X60110000Y-71860000D03*
%TD*%
D19*
%TO.C,SW5*%
X65775000Y-84732500D03*
D20*
X63235000Y-84732500D03*
X63235000Y-92352500D03*
X65775000Y-92352500D03*
%TD*%
D21*
%TO.C,C5*%
X81025000Y-102000000D03*
X83975000Y-102000000D03*
%TD*%
D22*
%TO.C,J4*%
X54000000Y-113000000D03*
D23*
X51460000Y-110460000D03*
X51460000Y-115540000D03*
X56540000Y-110460000D03*
X56540000Y-115540000D03*
%TD*%
D24*
%TO.C,U7*%
X82862500Y-97050000D03*
X82862500Y-98000000D03*
X82862500Y-98950000D03*
X85137500Y-98950000D03*
X85137500Y-98000000D03*
X85137500Y-97050000D03*
%TD*%
D12*
%TO.C,C6*%
X88000000Y-100475000D03*
X88000000Y-97525000D03*
%TD*%
%TO.C,C3*%
X92000000Y-93475000D03*
X92000000Y-90525000D03*
%TD*%
D25*
%TO.C,J1*%
X63200000Y-115000000D03*
D26*
X65740000Y-115000000D03*
X68280000Y-115000000D03*
X70820000Y-115000000D03*
%TD*%
D25*
%TO.C,J2*%
X79000000Y-115000000D03*
D26*
X81540000Y-115000000D03*
%TD*%
D13*
%TO.C,R3*%
X94925000Y-78000000D03*
X92000000Y-78000000D03*
%TD*%
D27*
%TO.C,C4*%
X80950000Y-111000000D03*
X78000000Y-111000000D03*
%TD*%
D28*
%TO.C,R1*%
X90537500Y-84000000D03*
X93462500Y-84000000D03*
%TD*%
D14*
%TO.C,H4*%
X93000000Y-113000000D03*
%TD*%
%TO.C,H1*%
X93000000Y-40000000D03*
%TD*%
%TO.C,H3*%
X37000000Y-113000000D03*
%TD*%
D29*
%TO.C,L2*%
X92000000Y-100575000D03*
X92000000Y-97425000D03*
%TD*%
D30*
%TO.C,D1*%
X88400000Y-84000000D03*
X85600000Y-84000000D03*
%TD*%
D11*
%TO.C,U5*%
X84240000Y-61920000D03*
X84240000Y-74620000D03*
X84240000Y-64460000D03*
X84240000Y-67000000D03*
X84240000Y-72080000D03*
X84240000Y-69540000D03*
X84240000Y-59380000D03*
%TD*%
%TO.C,U8*%
X66900000Y-81510000D03*
X64360000Y-81510000D03*
X82140000Y-81510000D03*
X71980000Y-81510000D03*
X79600000Y-81510000D03*
X77060000Y-81510000D03*
X74520000Y-81510000D03*
X69440000Y-81510000D03*
%TD*%
%TO.C,U4*%
X51620000Y-79840000D03*
X38920000Y-79840000D03*
X41460000Y-79840000D03*
X33840000Y-105240000D03*
X36380000Y-105240000D03*
X38920000Y-105240000D03*
X41460000Y-105240000D03*
X44000000Y-105240000D03*
X36380000Y-79840000D03*
X46540000Y-79840000D03*
X49080000Y-79840000D03*
X54160000Y-79840000D03*
X44000000Y-79840000D03*
X52636000Y-101910000D03*
X33840000Y-79840000D03*
%TD*%
%TO.C,U3*%
X84699000Y-44810000D03*
X84699000Y-42270000D03*
X84699000Y-34650000D03*
X84699000Y-49890000D03*
X84699000Y-37190000D03*
X84699000Y-39730000D03*
X84699000Y-47350000D03*
X84699000Y-32110000D03*
%TD*%
M02*
