M48
; DRILL file {KiCad 7.0.1-0} date 2023 April 22, Saturday 10:01:54
; FORMAT={-:-/ absolute / inch / decimal}
; #@! TF.CreationDate,2023-04-22T10:01:54-07:00
; #@! TF.GenerationSoftware,Kicad,Pcbnew,7.0.1-0
; #@! TF.FileFunction,Plated,1,2,PTH
FMAT,2
INCH
; #@! TA.AperFunction,Plated,PTH,ViaDrill
T1C0.0157
; #@! TA.AperFunction,Plated,PTH,ComponentDrill
T2C0.0300
; #@! TA.AperFunction,Plated,PTH,ComponentDrill
T3C0.0315
; #@! TA.AperFunction,Plated,PTH,ComponentDrill
T4C0.0394
; #@! TA.AperFunction,Plated,PTH,ComponentDrill
T5C0.0433
; #@! TA.AperFunction,Plated,PTH,ComponentDrill
T6C0.0591
; #@! TA.AperFunction,Plated,PTH,ComponentDrill
T7C0.0669
; #@! TA.AperFunction,Plated,PTH,ComponentDrill
T8C0.1000
%
G90
G05
T1
X1.3976Y-1.7244
X1.437Y-1.762
X1.4764Y-1.7935
X1.5354Y-1.378
X1.5551Y-1.9488
X1.6339Y-1.9488
X1.6535Y-2.9921
X1.6929Y-1.9488
X1.6929Y-2.9134
X1.6929Y-3.0315
X1.7323Y-3.0709
X1.8307Y-1.7126
X1.8701Y-1.6732
X1.8701Y-2.3425
X1.8898Y-1.6142
X1.9094Y-1.3091
X2.15Y-2.075
X2.2Y-3.0
X2.2933Y-3.002
X2.3228Y-3.775
X2.325Y-3.2
X2.3622Y-2.9921
X2.4016Y-1.9685
X2.4213Y-1.7913
X2.4311Y-3.0118
X2.5098Y-3.0413
X2.5197Y-2.1949
X2.5959Y-4.2888
X2.9724Y-1.378
X2.9774Y-3.0561
X2.9823Y-1.5748
X3.0118Y-3.0295
X3.35Y-3.525
X3.4Y-2.65
X3.45Y-2.85
X3.4843Y-2.6969
X3.937Y-2.8346
T2
X1.2498Y-1.1935
X1.2498Y-1.2935
X1.2498Y-1.3935
X1.2498Y-1.4935
X1.2498Y-1.5935
X1.2498Y-1.6935
X1.2498Y-1.7935
X1.2498Y-1.8935
X1.2498Y-1.9935
X1.2498Y-2.0935
X1.2498Y-2.1935
X1.2498Y-2.2935
X1.3323Y-3.1433
X1.3323Y-4.1433
X1.4323Y-3.1433
X1.4323Y-4.1433
X1.5323Y-3.1433
X1.5323Y-4.1433
X1.6323Y-3.1433
X1.6323Y-4.1433
X1.7323Y-3.1433
X1.7323Y-4.1433
X1.8323Y-3.1433
X1.9323Y-3.1433
X2.0323Y-3.1433
X2.0498Y-1.1935
X2.0498Y-1.2935
X2.0498Y-1.3935
X2.0498Y-1.4935
X2.0498Y-1.5935
X2.0498Y-1.6935
X2.0498Y-1.7935
X2.0498Y-1.8935
X2.0498Y-1.9935
X2.0498Y-2.0935
X2.0498Y-2.1935
X2.0498Y-2.2935
X2.0498Y-2.3935
X2.0498Y-2.4935
X2.0498Y-2.5935
X2.0498Y-2.6935
X2.0723Y-4.0122
X2.1323Y-3.1433
X2.5339Y-3.2091
X2.6339Y-3.2091
X2.7339Y-3.2091
X2.8339Y-3.2091
X2.9339Y-3.2091
X3.0339Y-3.2091
X3.1339Y-3.2091
X3.2339Y-3.2091
X3.3165Y-2.3378
X3.3165Y-2.4378
X3.3165Y-2.5378
X3.3165Y-2.6378
X3.3165Y-2.7378
X3.3165Y-2.8378
X3.3165Y-2.9378
X3.3346Y-1.2642
X3.3346Y-1.3642
X3.3346Y-1.4642
X3.3346Y-1.5642
X3.3346Y-1.6642
X3.3346Y-1.7642
X3.3346Y-1.8642
X3.3346Y-1.9642
T3
X2.4896Y-3.3359
X2.4896Y-3.6359
X2.5896Y-3.3359
X2.5896Y-3.6359
T4
X2.3165Y-1.1791
X2.3165Y-1.2791
X2.3165Y-1.3791
X2.3165Y-1.4791
X2.3165Y-1.5791
X2.3165Y-1.6791
X2.3165Y-1.7791
X2.3165Y-1.8791
X2.3165Y-1.9791
X2.3165Y-2.0791
X2.3165Y-2.1791
X2.3165Y-2.2791
X2.4882Y-4.5276
X2.5882Y-4.5276
X2.6882Y-4.5276
X2.7882Y-4.5276
X3.1102Y-4.5276
X3.1165Y-1.1791
X3.1165Y-1.2791
X3.1165Y-1.3791
X3.1165Y-1.4791
X3.1165Y-1.5791
X3.1165Y-1.6791
X3.1165Y-1.7791
X3.1165Y-1.8791
X3.1165Y-1.9791
X3.1165Y-2.0791
X3.1165Y-2.1791
X3.1165Y-2.2791
X3.1165Y-2.3791
X3.1165Y-2.4791
X3.1165Y-2.5791
X3.1165Y-2.6791
X3.2102Y-4.5276
T5
X3.5728Y-1.998
X3.5728Y-2.2539
X3.5728Y-2.6673
X3.5728Y-2.9232
X3.75Y-1.998
X3.75Y-2.2539
X3.75Y-2.6673
X3.75Y-2.9232
T6
X2.126Y-4.4488
T7
X2.026Y-4.3488
X2.026Y-4.5488
X2.226Y-4.3488
X2.226Y-4.5488
T8
X2.3665Y-2.8291
X3.0665Y-2.8291
T0
M30
