%TF.GenerationSoftware,KiCad,Pcbnew,7.0.1-0*%
%TF.CreationDate,2023-04-22T10:01:52-07:00*%
%TF.ProjectId,Pioneer Controller V3,50696f6e-6565-4722-9043-6f6e74726f6c,rev?*%
%TF.SameCoordinates,Original*%
%TF.FileFunction,Copper,L2,Bot*%
%TF.FilePolarity,Positive*%
%FSLAX46Y46*%
G04 Gerber Fmt 4.6, Leading zero omitted, Abs format (unit mm)*
G04 Created by KiCad (PCBNEW 7.0.1-0) date 2023-04-22 10:01:52*
%MOMM*%
%LPD*%
G01*
G04 APERTURE LIST*
%TA.AperFunction,ComponentPad*%
%ADD10C,2.000000*%
%TD*%
%TA.AperFunction,ComponentPad*%
%ADD11C,1.524000*%
%TD*%
%TA.AperFunction,ComponentPad*%
%ADD12R,1.508000X1.508000*%
%TD*%
%TA.AperFunction,ComponentPad*%
%ADD13C,1.508000*%
%TD*%
%TA.AperFunction,ComponentPad*%
%ADD14C,3.556000*%
%TD*%
%TA.AperFunction,ComponentPad*%
%ADD15R,1.600000X1.600000*%
%TD*%
%TA.AperFunction,ComponentPad*%
%ADD16O,1.600000X1.600000*%
%TD*%
%TA.AperFunction,ComponentPad*%
%ADD17C,2.050000*%
%TD*%
%TA.AperFunction,ComponentPad*%
%ADD18C,2.250000*%
%TD*%
%TA.AperFunction,ComponentPad*%
%ADD19R,1.700000X1.700000*%
%TD*%
%TA.AperFunction,ComponentPad*%
%ADD20O,1.700000X1.700000*%
%TD*%
%TA.AperFunction,ViaPad*%
%ADD21C,0.800000*%
%TD*%
%TA.AperFunction,Conductor*%
%ADD22C,0.750000*%
%TD*%
%TA.AperFunction,Conductor*%
%ADD23C,0.400000*%
%TD*%
G04 APERTURE END LIST*
D10*
%TO.P,SW2,1,1*%
%TO.N,+5V*%
X90750000Y-74250000D03*
X90750000Y-67750000D03*
%TO.P,SW2,2,2*%
%TO.N,/SW2*%
X95250000Y-74250000D03*
X95250000Y-67750000D03*
%TD*%
D11*
%TO.P,U1,3V,3V*%
%TO.N,unconnected-(U1-Pad3V)*%
X52065000Y-65875000D03*
X52065000Y-63335000D03*
%TO.P,U1,A0,A0*%
%TO.N,unconnected-(U1-PadA0)*%
X52065000Y-58255000D03*
%TO.P,U1,A1,A1*%
%TO.N,unconnected-(U1-PadA1)*%
X52065000Y-55715000D03*
%TO.P,U1,A2,A2*%
%TO.N,unconnected-(U1-PadA2)*%
X52065000Y-53175000D03*
%TO.P,U1,A3,A3*%
%TO.N,unconnected-(U1-PadA3)*%
X52065000Y-50635000D03*
%TO.P,U1,A4,A4*%
%TO.N,/SW5*%
X52065000Y-48095000D03*
%TO.P,U1,A5,A5*%
%TO.N,/SW6*%
X52065000Y-45555000D03*
%TO.P,U1,BAT,BAT*%
%TO.N,unconnected-(U1-PadBAT)*%
X31745000Y-58255000D03*
%TO.P,U1,D5,D5*%
%TO.N,/CS1*%
X31745000Y-35395000D03*
%TO.P,U1,D6,D6*%
%TO.N,/LED1*%
X31745000Y-37935000D03*
%TO.P,U1,D9,D9*%
%TO.N,/G0*%
X31745000Y-40475000D03*
%TO.P,U1,D10,D10*%
%TO.N,/CS0*%
X31745000Y-43015000D03*
%TO.P,U1,D11,D11*%
%TO.N,/RST*%
X31745000Y-45555000D03*
%TO.P,U1,D12,D12*%
%TO.N,/SW2*%
X31745000Y-48095000D03*
%TO.P,U1,D13,D13*%
%TO.N,/SW1*%
X31745000Y-50635000D03*
%TO.P,U1,DB,DB*%
%TO.N,unconnected-(U1-PadDB)*%
X52065000Y-30315000D03*
%TO.P,U1,EN,EN*%
%TO.N,unconnected-(U1-PadEN)*%
X31745000Y-55715000D03*
%TO.P,U1,GND,GND*%
%TO.N,GND*%
X52065000Y-60795000D03*
%TO.P,U1,M0,M0*%
%TO.N,/MISO*%
X52065000Y-40475000D03*
%TO.P,U1,M1,M1*%
%TO.N,/MOSI*%
X52065000Y-37935000D03*
%TO.P,U1,RST,RST*%
%TO.N,unconnected-(U1-PadRST)*%
X52065000Y-68415000D03*
%TO.P,U1,RX,RX*%
%TO.N,/RX*%
X52065000Y-35395000D03*
%TO.P,U1,SCK,SCK*%
%TO.N,/SCK*%
X52065000Y-43015000D03*
%TO.P,U1,SCL,SCL*%
%TO.N,/SCL*%
X31745000Y-32855000D03*
%TO.P,U1,SDA,SDA*%
%TO.N,/SDA*%
X31745000Y-30315000D03*
%TO.P,U1,TX,TX*%
%TO.N,/TX*%
X52065000Y-32855000D03*
%TO.P,U1,USB,USB*%
%TO.N,+5V*%
X31745000Y-53175000D03*
%TD*%
D10*
%TO.P,SW1,1,1*%
%TO.N,+5V*%
X90750000Y-57250000D03*
X90750000Y-50750000D03*
%TO.P,SW1,2,2*%
%TO.N,/SW1*%
X95250000Y-57250000D03*
X95250000Y-50750000D03*
%TD*%
D12*
%TO.P,U2,1,RST*%
%TO.N,unconnected-(U2-RST-Pad1)*%
X79160000Y-68050000D03*
D13*
%TO.P,U2,2,3V*%
%TO.N,unconnected-(U2-3V-Pad2)*%
X79160000Y-65510000D03*
%TO.P,U2,3*%
%TO.N,N/C*%
X79160000Y-62970000D03*
%TO.P,U2,4,GND*%
%TO.N,GND*%
X79160000Y-60430000D03*
%TO.P,U2,5,ADC*%
%TO.N,unconnected-(U2-ADC-Pad5)*%
X79160000Y-57890000D03*
%TO.P,U2,6*%
%TO.N,N/C*%
X79160000Y-55350000D03*
%TO.P,U2,7*%
X79160000Y-52810000D03*
%TO.P,U2,8*%
X79160000Y-50270000D03*
%TO.P,U2,9*%
X79160000Y-47730000D03*
%TO.P,U2,10*%
X79160000Y-45190000D03*
%TO.P,U2,11,SCK*%
%TO.N,/SCK*%
X79160000Y-42650000D03*
%TO.P,U2,12,MOSI*%
%TO.N,/MOSI*%
X79160000Y-40110000D03*
%TO.P,U2,13,MIS0*%
%TO.N,/MISO*%
X79160000Y-37570000D03*
%TO.P,U2,14,RX*%
%TO.N,/RX*%
X79160000Y-35030000D03*
%TO.P,U2,15,TX*%
%TO.N,/TX*%
X79160000Y-32490000D03*
%TO.P,U2,16,CHPD*%
%TO.N,unconnected-(U2-CHPD-Pad16)*%
X79160000Y-29950000D03*
%TO.P,U2,17,BAT*%
%TO.N,unconnected-(U2-BAT-Pad17)*%
X58840000Y-57890000D03*
%TO.P,U2,18,EN*%
%TO.N,unconnected-(U2-EN-Pad18)*%
X58840000Y-55350000D03*
%TO.P,U2,19,USB*%
%TO.N,+5V*%
X58840000Y-52810000D03*
%TO.P,U2,20,GPIO14*%
%TO.N,/SW2*%
X58840000Y-50270000D03*
%TO.P,U2,21,GPIO12*%
%TO.N,/LED1*%
X58840000Y-47730000D03*
%TO.P,U2,22,GPIO13*%
%TO.N,/SW1*%
X58840000Y-45190000D03*
%TO.P,U2,23,GPIO15*%
%TO.N,/G0*%
X58840000Y-42650000D03*
%TO.P,U2,24,GPIO0*%
%TO.N,/CS1*%
X58840000Y-40110000D03*
%TO.P,U2,25,GPIO16*%
%TO.N,/RST*%
X58840000Y-37570000D03*
%TO.P,U2,26,GPIO2*%
%TO.N,/CS0*%
X58840000Y-35030000D03*
%TO.P,U2,27,SCL/GPIO5*%
%TO.N,/SCL*%
X58840000Y-32490000D03*
%TO.P,U2,28,SDA/GPIO4*%
%TO.N,/SDA*%
X58840000Y-29950000D03*
D14*
%TO.P,U2,S1*%
%TO.N,N/C*%
X77890000Y-71860000D03*
%TO.P,U2,S2*%
X60110000Y-71860000D03*
%TD*%
D15*
%TO.P,SW5,1*%
%TO.N,/SW5*%
X65775000Y-84732500D03*
D16*
%TO.P,SW5,2*%
%TO.N,/SW6*%
X63235000Y-84732500D03*
%TO.P,SW5,3*%
%TO.N,+5V*%
X63235000Y-92352500D03*
%TO.P,SW5,4*%
X65775000Y-92352500D03*
%TD*%
D17*
%TO.P,J4,1,In*%
%TO.N,/SMA*%
X54000000Y-113000000D03*
D18*
%TO.P,J4,2,Ext*%
%TO.N,GND*%
X51460000Y-110460000D03*
X51460000Y-115540000D03*
X56540000Y-110460000D03*
X56540000Y-115540000D03*
%TD*%
D19*
%TO.P,J1,1,Pin_1*%
%TO.N,/TX*%
X63200000Y-115000000D03*
D20*
%TO.P,J1,2,Pin_2*%
%TO.N,/RX*%
X65740000Y-115000000D03*
%TO.P,J1,3,Pin_3*%
%TO.N,GND*%
X68280000Y-115000000D03*
%TO.P,J1,4,Pin_4*%
%TO.N,+5V*%
X70820000Y-115000000D03*
%TD*%
D19*
%TO.P,J2,1,Pin_1*%
%TO.N,GND*%
X79000000Y-115000000D03*
D20*
%TO.P,J2,2,Pin_2*%
%TO.N,VIN*%
X81540000Y-115000000D03*
%TD*%
D11*
%TO.P,U5,3P3_V,3P3_V*%
%TO.N,unconnected-(U5-Pad3P3_V)*%
X84240000Y-61920000D03*
%TO.P,U5,CS,CS*%
%TO.N,unconnected-(U5-PadCS)*%
X84240000Y-74620000D03*
%TO.P,U5,GND,GND*%
%TO.N,GND*%
X84240000Y-64460000D03*
%TO.P,U5,SCK,SCK*%
%TO.N,/SCL*%
X84240000Y-67000000D03*
%TO.P,U5,SDI,SDI*%
%TO.N,/SDA*%
X84240000Y-72080000D03*
%TO.P,U5,SDO,SDO*%
%TO.N,unconnected-(U5-PadSDO)*%
X84240000Y-69540000D03*
%TO.P,U5,VIN,VIN*%
%TO.N,+5V*%
X84240000Y-59380000D03*
%TD*%
%TO.P,U8,3.3V,3.3V*%
%TO.N,unconnected-(U8-Pad3.3V)*%
X66900000Y-81510000D03*
%TO.P,U8,5V,5V*%
%TO.N,+5V*%
X64360000Y-81510000D03*
%TO.P,U8,CD,CD*%
%TO.N,unconnected-(U8-PadCD)*%
X82140000Y-81510000D03*
%TO.P,U8,CLK,CLK*%
%TO.N,/SCK*%
X71980000Y-81510000D03*
%TO.P,U8,CS,CS*%
%TO.N,/CS1*%
X79600000Y-81510000D03*
%TO.P,U8,DI,DI*%
%TO.N,/MOSI*%
X77060000Y-81510000D03*
%TO.P,U8,DO,DO*%
%TO.N,/MISO*%
X74520000Y-81510000D03*
%TO.P,U8,GND,GND*%
%TO.N,GND*%
X69440000Y-81510000D03*
%TD*%
%TO.P,U4,CS,CS*%
%TO.N,/CS0*%
X51620000Y-79840000D03*
%TO.P,U4,EN,EN*%
%TO.N,unconnected-(U4-PadEN)*%
X38920000Y-79840000D03*
%TO.P,U4,G0,G0*%
%TO.N,/G0*%
X41460000Y-79840000D03*
%TO.P,U4,G1,G1*%
%TO.N,unconnected-(U4-PadG1)*%
X33840000Y-105240000D03*
%TO.P,U4,G2,G2*%
%TO.N,unconnected-(U4-PadG2)*%
X36380000Y-105240000D03*
%TO.P,U4,G3,G3*%
%TO.N,unconnected-(U4-PadG3)*%
X38920000Y-105240000D03*
%TO.P,U4,G4,G4*%
%TO.N,unconnected-(U4-PadG4)*%
X41460000Y-105240000D03*
%TO.P,U4,G5,G5*%
%TO.N,unconnected-(U4-PadG5)*%
X44000000Y-105240000D03*
%TO.P,U4,GND,GND*%
%TO.N,GND*%
X36380000Y-79840000D03*
%TO.P,U4,MISO,MISO*%
%TO.N,/MISO*%
X46540000Y-79840000D03*
%TO.P,U4,MOSI,MOSI*%
%TO.N,/MOSI*%
X49080000Y-79840000D03*
%TO.P,U4,RST,RST*%
%TO.N,/RST*%
X54160000Y-79840000D03*
%TO.P,U4,SCK,SCK*%
%TO.N,/SCK*%
X44000000Y-79840000D03*
%TO.P,U4,SMA,SMA*%
%TO.N,/SMA*%
X52636000Y-101910000D03*
%TO.P,U4,VIN,VIN*%
%TO.N,+5V*%
X33840000Y-79840000D03*
%TD*%
%TO.P,U3,32K,32K*%
%TO.N,unconnected-(U3-Pad32K)*%
X84699000Y-44810000D03*
%TO.P,U3,BAT,BAT*%
%TO.N,unconnected-(U3-PadBAT)*%
X84699000Y-42270000D03*
%TO.P,U3,GND,GND*%
%TO.N,GND*%
X84699000Y-34650000D03*
%TO.P,U3,RST,RST*%
%TO.N,unconnected-(U3-PadRST)*%
X84699000Y-49890000D03*
%TO.P,U3,SCL,SCL*%
%TO.N,/SCL*%
X84699000Y-37190000D03*
%TO.P,U3,SDA,SDA*%
%TO.N,/SDA*%
X84699000Y-39730000D03*
%TO.P,U3,SQW,SQW*%
%TO.N,unconnected-(U3-PadSQW)*%
X84699000Y-47350000D03*
%TO.P,U3,VIN,VIN*%
%TO.N,+5V*%
X84699000Y-32110000D03*
%TD*%
D21*
%TO.N,+5V*%
X54610000Y-52705000D03*
X55880000Y-76200000D03*
X85090000Y-89535000D03*
X59055000Y-81280000D03*
X59000000Y-95885000D03*
X86360000Y-67310000D03*
%TO.N,/LED1*%
X47500000Y-59500000D03*
X39000000Y-35000000D03*
%TO.N,/TX*%
X75500000Y-35000000D03*
%TO.N,/RX*%
X65934668Y-108934668D03*
%TO.N,/SW5*%
X58250000Y-76250000D03*
%TO.N,/SW6*%
X60000000Y-76000000D03*
%TO.N,/G0*%
X48000000Y-41000000D03*
X35500000Y-43800020D03*
%TO.N,/RST*%
X46500000Y-43500000D03*
X37500000Y-45555000D03*
X43000000Y-74000000D03*
%TO.N,/MISO*%
X41500000Y-49500000D03*
X44000000Y-78000000D03*
X63750000Y-77250000D03*
X75750000Y-40000000D03*
%TO.N,/MOSI*%
X43000000Y-77000000D03*
X39500000Y-49500000D03*
%TO.N,/SCK*%
X43000000Y-49500000D03*
X61750000Y-76500000D03*
%TO.N,/SCL*%
X88500000Y-68500000D03*
%TO.N,/SDA*%
X87630000Y-72390000D03*
%TO.N,/SW2*%
X100000000Y-72000000D03*
X75625000Y-77625000D03*
%TO.N,/SW1*%
X76500000Y-76950500D03*
X61000000Y-50000000D03*
%TO.N,/CS1*%
X64000000Y-55750000D03*
X61500000Y-45500000D03*
X48500000Y-33250000D03*
%TO.N,/CS0*%
X36500000Y-44755500D03*
X42000000Y-76000000D03*
X47500000Y-42500000D03*
%TD*%
D22*
%TO.N,+5V*%
X95885000Y-47625000D02*
X91440000Y-47625000D01*
X81915000Y-55245000D02*
X81915000Y-58110000D01*
X90750000Y-48315000D02*
X90750000Y-50750000D01*
X96880000Y-32110000D02*
X99060000Y-34290000D01*
X83185000Y-33624000D02*
X83185000Y-53975000D01*
X84699000Y-32110000D02*
X83185000Y-33624000D01*
X64130000Y-81280000D02*
X64360000Y-81510000D01*
X86360000Y-78740000D02*
X86995000Y-79375000D01*
X81915000Y-58110000D02*
X83185000Y-59380000D01*
X54610000Y-52705000D02*
X54610000Y-74930000D01*
X83185000Y-59380000D02*
X84240000Y-59380000D01*
X59000000Y-86870000D02*
X64360000Y-81510000D01*
X59000000Y-95885000D02*
X59000000Y-86870000D01*
X54610000Y-74930000D02*
X55880000Y-76200000D01*
X84699000Y-32110000D02*
X96880000Y-32110000D01*
X83185000Y-53975000D02*
X81915000Y-55245000D01*
X86995000Y-79375000D02*
X86995000Y-87630000D01*
X59055000Y-81280000D02*
X64130000Y-81280000D01*
X86995000Y-87630000D02*
X85090000Y-89535000D01*
X99060000Y-44450000D02*
X95885000Y-47625000D01*
X91440000Y-47625000D02*
X90750000Y-48315000D01*
X99060000Y-34290000D02*
X99060000Y-44450000D01*
X86360000Y-67310000D02*
X86360000Y-78740000D01*
D23*
%TO.N,/LED1*%
X47000000Y-48000000D02*
X41000000Y-42000000D01*
X41000000Y-42000000D02*
X41000000Y-37000000D01*
X47500000Y-59500000D02*
X47000000Y-59000000D01*
X41000000Y-37000000D02*
X39000000Y-35000000D01*
X47000000Y-59000000D02*
X47000000Y-48000000D01*
%TO.N,/TX*%
X72350000Y-60748528D02*
X74850000Y-58248528D01*
X84000000Y-95000000D02*
X84000000Y-80401472D01*
X63200000Y-115000000D02*
X63200000Y-112800000D01*
X74850000Y-58248528D02*
X74850000Y-50001472D01*
X78998528Y-75400000D02*
X76500000Y-75400000D01*
X74850000Y-50001472D02*
X72600000Y-47751472D01*
X74000000Y-35000000D02*
X75500000Y-35000000D01*
X84000000Y-80401472D02*
X78998528Y-75400000D01*
X74972924Y-104000000D02*
X75000000Y-104000000D01*
X72600000Y-47751472D02*
X72600000Y-36400000D01*
X68000000Y-108000000D02*
X70972924Y-108000000D01*
X72350000Y-71250000D02*
X72350000Y-60748528D01*
X63200000Y-112800000D02*
X68000000Y-108000000D01*
X76500000Y-75400000D02*
X72350000Y-71250000D01*
X72600000Y-36400000D02*
X74000000Y-35000000D01*
X75000000Y-104000000D02*
X84000000Y-95000000D01*
X70972924Y-108000000D02*
X74972924Y-104000000D01*
%TO.N,/RX*%
X74250000Y-50250000D02*
X72000000Y-48000000D01*
X83302000Y-94698000D02*
X83302000Y-80552000D01*
X65934668Y-108934668D02*
X67869336Y-107000000D01*
X71750000Y-71500000D02*
X71750000Y-60500000D01*
X72000000Y-48000000D02*
X72000000Y-36000000D01*
X83302000Y-80552000D02*
X78750000Y-76000000D01*
X74250000Y-58000000D02*
X74250000Y-50250000D01*
X72000000Y-36000000D02*
X74000000Y-34000000D01*
X78130000Y-34000000D02*
X79160000Y-35030000D01*
X76250000Y-76000000D02*
X71750000Y-71500000D01*
X71000000Y-107000000D02*
X83302000Y-94698000D01*
X71750000Y-60500000D02*
X74250000Y-58000000D01*
X67869336Y-107000000D02*
X71000000Y-107000000D01*
X74000000Y-34000000D02*
X78130000Y-34000000D01*
X78750000Y-76000000D02*
X76250000Y-76000000D01*
%TO.N,/SW5*%
X56000000Y-74000000D02*
X58250000Y-76250000D01*
X52065000Y-48095000D02*
X55095000Y-48095000D01*
X56000000Y-49000000D02*
X56000000Y-74000000D01*
X55095000Y-48095000D02*
X56000000Y-49000000D01*
%TO.N,/SW6*%
X57000000Y-73500000D02*
X59500000Y-76000000D01*
X52065000Y-45555000D02*
X56055000Y-45555000D01*
X59500000Y-76000000D02*
X60000000Y-76000000D01*
X56055000Y-45555000D02*
X57000000Y-46500000D01*
X57000000Y-46500000D02*
X57000000Y-73500000D01*
%TO.N,/G0*%
X34000000Y-70000000D02*
X41460000Y-77460000D01*
X48636511Y-41636511D02*
X57826511Y-41636511D01*
X35500000Y-43800020D02*
X35500000Y-49400978D01*
X34000000Y-50900978D02*
X34000000Y-70000000D01*
X35500000Y-49400978D02*
X34000000Y-50900978D01*
X57826511Y-41636511D02*
X58840000Y-42650000D01*
X41460000Y-77460000D02*
X41460000Y-79840000D01*
X48000000Y-41000000D02*
X48636511Y-41636511D01*
%TO.N,/RST*%
X61000000Y-36500000D02*
X59930000Y-37570000D01*
X59930000Y-37570000D02*
X58840000Y-37570000D01*
X54983489Y-34016511D02*
X55356489Y-33643511D01*
X36000000Y-51500000D02*
X37500000Y-50000000D01*
X41000000Y-74000000D02*
X36000000Y-69000000D01*
X46500000Y-39317374D02*
X51800863Y-34016511D01*
X51800863Y-34016511D02*
X54983489Y-34016511D01*
X61000000Y-34000000D02*
X61000000Y-36500000D01*
X36000000Y-69000000D02*
X36000000Y-51500000D01*
X55356489Y-33643511D02*
X60643511Y-33643511D01*
X46500000Y-43500000D02*
X46500000Y-39317374D01*
X37500000Y-50000000D02*
X37500000Y-45555000D01*
X43000000Y-74000000D02*
X41000000Y-74000000D01*
X60643511Y-33643511D02*
X61000000Y-34000000D01*
%TO.N,/MISO*%
X78180000Y-37570000D02*
X79160000Y-37570000D01*
X44400480Y-77599520D02*
X44400480Y-52400480D01*
X62750000Y-78000000D02*
X63000000Y-78000000D01*
X46540000Y-79840000D02*
X48380000Y-78000000D01*
X75750000Y-40000000D02*
X78180000Y-37570000D01*
X44000000Y-78000000D02*
X44400480Y-77599520D01*
X63000000Y-78000000D02*
X63750000Y-77250000D01*
X44400480Y-52400480D02*
X41500000Y-49500000D01*
X48380000Y-78000000D02*
X62750000Y-78000000D01*
%TO.N,/MOSI*%
X43800960Y-53800960D02*
X39500000Y-49500000D01*
X74228000Y-78678000D02*
X77060000Y-81510000D01*
X43000000Y-77000000D02*
X43800960Y-76199040D01*
X50242000Y-78678000D02*
X74228000Y-78678000D01*
X49080000Y-79840000D02*
X50242000Y-78678000D01*
X43800960Y-76199040D02*
X43800960Y-53800960D01*
%TO.N,/SCK*%
X46590000Y-77250000D02*
X61000000Y-77250000D01*
X45000000Y-51500000D02*
X45000000Y-78840000D01*
X61000000Y-77250000D02*
X61750000Y-76500000D01*
X44000000Y-79840000D02*
X46590000Y-77250000D01*
X45000000Y-78840000D02*
X44000000Y-79840000D01*
X43000000Y-49500000D02*
X45000000Y-51500000D01*
%TO.N,/SCL*%
X88500000Y-41196000D02*
X84494000Y-37190000D01*
X88500000Y-68500000D02*
X88500000Y-41196000D01*
%TO.N,/SDA*%
X84494000Y-39730000D02*
X87500000Y-42736000D01*
X87500000Y-70000000D02*
X87500000Y-72260000D01*
X87500000Y-42736000D02*
X87500000Y-70000000D01*
X87500000Y-72260000D02*
X87630000Y-72390000D01*
%TO.N,/SW2*%
X61570000Y-53000000D02*
X58840000Y-50270000D01*
X70250000Y-60250000D02*
X63000000Y-53000000D01*
X100000000Y-72000000D02*
X97500000Y-72000000D01*
X97500000Y-72000000D02*
X95250000Y-74250000D01*
X70250000Y-72250000D02*
X70250000Y-60250000D01*
X63000000Y-53000000D02*
X61570000Y-53000000D01*
X75625000Y-77625000D02*
X70250000Y-72250000D01*
%TO.N,/SW1*%
X76075000Y-76825000D02*
X71000000Y-71750000D01*
X76374500Y-76825000D02*
X76075000Y-76825000D01*
X61000000Y-50000000D02*
X60500000Y-49500000D01*
X71000000Y-71750000D02*
X71000000Y-60000000D01*
X60500000Y-49500000D02*
X60500000Y-46850000D01*
X76500000Y-76950500D02*
X76374500Y-76825000D01*
X60500000Y-46850000D02*
X58840000Y-45190000D01*
X71000000Y-60000000D02*
X61000000Y-50000000D01*
%TO.N,/CS1*%
X61500000Y-45500000D02*
X61500000Y-42770000D01*
X61500000Y-42770000D02*
X58840000Y-40110000D01*
X69500000Y-72631371D02*
X69500000Y-61250000D01*
X61750000Y-24500000D02*
X60750000Y-23500000D01*
X76890000Y-78800000D02*
X75668629Y-78800000D01*
X60750000Y-23500000D02*
X50250000Y-23500000D01*
X79600000Y-81510000D02*
X76890000Y-78800000D01*
X50250000Y-23500000D02*
X48500000Y-25250000D01*
X75668629Y-78800000D02*
X69500000Y-72631371D01*
X69500000Y-61250000D02*
X64000000Y-55750000D01*
X58840000Y-40110000D02*
X61750000Y-37200000D01*
X61750000Y-37200000D02*
X61750000Y-24500000D01*
X48500000Y-25250000D02*
X48500000Y-33250000D01*
%TO.N,/CS0*%
X35000000Y-69500000D02*
X35000000Y-51000000D01*
X36500000Y-49500000D02*
X36500000Y-44755500D01*
X47500000Y-42500000D02*
X47200489Y-42200489D01*
X47200489Y-42200489D02*
X47200489Y-40668831D01*
X35000000Y-51000000D02*
X36500000Y-49500000D01*
X57096511Y-36773489D02*
X58840000Y-35030000D01*
X42000000Y-76000000D02*
X41500000Y-76000000D01*
X47200489Y-40668831D02*
X51095831Y-36773489D01*
X41500000Y-76000000D02*
X35000000Y-69500000D01*
X51095831Y-36773489D02*
X57096511Y-36773489D01*
%TD*%
%TA.AperFunction,Conductor*%
%TO.N,GND*%
G36*
X96510133Y-33002939D02*
G01*
X96550361Y-33029819D01*
X98140181Y-34619638D01*
X98167061Y-34659866D01*
X98176500Y-34707319D01*
X98176500Y-44032680D01*
X98167061Y-44080133D01*
X98140181Y-44120361D01*
X95555361Y-46705181D01*
X95515133Y-46732061D01*
X95467680Y-46741500D01*
X91519289Y-46741500D01*
X91499891Y-46739973D01*
X91486493Y-46737851D01*
X91452721Y-46739621D01*
X91420112Y-46741330D01*
X91413622Y-46741500D01*
X91393688Y-46741500D01*
X91373869Y-46743582D01*
X91367406Y-46744091D01*
X91301027Y-46747570D01*
X91287922Y-46751082D01*
X91268800Y-46754626D01*
X91255301Y-46756045D01*
X91255297Y-46756046D01*
X91255298Y-46756046D01*
X91192069Y-46776589D01*
X91185857Y-46778429D01*
X91121635Y-46795637D01*
X91109536Y-46801802D01*
X91091576Y-46809241D01*
X91078670Y-46813435D01*
X91021099Y-46846673D01*
X91015397Y-46849769D01*
X90956158Y-46879953D01*
X90945608Y-46888496D01*
X90929583Y-46899510D01*
X90917832Y-46906294D01*
X90868420Y-46950784D01*
X90863490Y-46954994D01*
X90848013Y-46967528D01*
X90833915Y-46981624D01*
X90829215Y-46986084D01*
X90779812Y-47030567D01*
X90771831Y-47041552D01*
X90759200Y-47056340D01*
X90181338Y-47634202D01*
X90166546Y-47646837D01*
X90155566Y-47654814D01*
X90111084Y-47704216D01*
X90106623Y-47708916D01*
X90092528Y-47723013D01*
X90079994Y-47738490D01*
X90075784Y-47743420D01*
X90031294Y-47792832D01*
X90024510Y-47804583D01*
X90013496Y-47820608D01*
X90004953Y-47831158D01*
X89974769Y-47890397D01*
X89971673Y-47896099D01*
X89938435Y-47953670D01*
X89934241Y-47966576D01*
X89926802Y-47984536D01*
X89920637Y-47996636D01*
X89903427Y-48060864D01*
X89901584Y-48067087D01*
X89881045Y-48130298D01*
X89879626Y-48143796D01*
X89876083Y-48162912D01*
X89872570Y-48176026D01*
X89869089Y-48242425D01*
X89868580Y-48248888D01*
X89866500Y-48268688D01*
X89866500Y-48288603D01*
X89866330Y-48295093D01*
X89862850Y-48361493D01*
X89864973Y-48374897D01*
X89866500Y-48394295D01*
X89866500Y-49463607D01*
X89855110Y-49515521D01*
X89823033Y-49557895D01*
X89690181Y-49671362D01*
X89680031Y-49680031D01*
X89525823Y-49860585D01*
X89500969Y-49901143D01*
X89440282Y-50000176D01*
X89438227Y-50003529D01*
X89392237Y-50047401D01*
X89330552Y-50062724D01*
X89269379Y-50045471D01*
X89224790Y-50000176D01*
X89208500Y-49938739D01*
X89208500Y-41221169D01*
X89208726Y-41213682D01*
X89209098Y-41207533D01*
X89212402Y-41152908D01*
X89201425Y-41093011D01*
X89200301Y-41085621D01*
X89198594Y-41071560D01*
X89192965Y-41025199D01*
X89189288Y-41015503D01*
X89183260Y-40993880D01*
X89181389Y-40983670D01*
X89168965Y-40956067D01*
X89156398Y-40928146D01*
X89153549Y-40921269D01*
X89131954Y-40864325D01*
X89126060Y-40855786D01*
X89115034Y-40836240D01*
X89110775Y-40826775D01*
X89073234Y-40778857D01*
X89068801Y-40772832D01*
X89034215Y-40722726D01*
X88988647Y-40682357D01*
X88983193Y-40677223D01*
X88305970Y-40000000D01*
X89394559Y-40000000D01*
X89414310Y-40376873D01*
X89473345Y-40749609D01*
X89571021Y-41114142D01*
X89706265Y-41466464D01*
X89877598Y-41802724D01*
X90083134Y-42119221D01*
X90083137Y-42119225D01*
X90320635Y-42412511D01*
X90587489Y-42679365D01*
X90880775Y-42916863D01*
X90880777Y-42916864D01*
X90880778Y-42916865D01*
X91197275Y-43122401D01*
X91533535Y-43293734D01*
X91885857Y-43428978D01*
X92250390Y-43526654D01*
X92436758Y-43556171D01*
X92623129Y-43585690D01*
X92889174Y-43599632D01*
X92905719Y-43600500D01*
X92905720Y-43600500D01*
X93094280Y-43600500D01*
X93094281Y-43600500D01*
X93109910Y-43599680D01*
X93376871Y-43585690D01*
X93627279Y-43546029D01*
X93749609Y-43526654D01*
X93752132Y-43525978D01*
X94114143Y-43428978D01*
X94466465Y-43293734D01*
X94802720Y-43122403D01*
X94802719Y-43122403D01*
X94802724Y-43122401D01*
X95001751Y-42993151D01*
X95119225Y-42916863D01*
X95412511Y-42679365D01*
X95679365Y-42412511D01*
X95916863Y-42119225D01*
X96052403Y-41910512D01*
X96122401Y-41802725D01*
X96171415Y-41706530D01*
X96293734Y-41466465D01*
X96428978Y-41114143D01*
X96526653Y-40749613D01*
X96530912Y-40722727D01*
X96559306Y-40543450D01*
X96585690Y-40376871D01*
X96605441Y-40000000D01*
X96585690Y-39623129D01*
X96545679Y-39370511D01*
X96526654Y-39250390D01*
X96428978Y-38885857D01*
X96293734Y-38533535D01*
X96122401Y-38197275D01*
X95916865Y-37880778D01*
X95916863Y-37880775D01*
X95679365Y-37587489D01*
X95412511Y-37320635D01*
X95119225Y-37083137D01*
X95119223Y-37083136D01*
X95119221Y-37083134D01*
X94802724Y-36877598D01*
X94466464Y-36706265D01*
X94114142Y-36571021D01*
X93749609Y-36473345D01*
X93376873Y-36414310D01*
X93094281Y-36399500D01*
X93094280Y-36399500D01*
X92905720Y-36399500D01*
X92905719Y-36399500D01*
X92623126Y-36414310D01*
X92250390Y-36473345D01*
X91885857Y-36571021D01*
X91533535Y-36706265D01*
X91197275Y-36877598D01*
X90880778Y-37083134D01*
X90587485Y-37320638D01*
X90320638Y-37587485D01*
X90083134Y-37880778D01*
X89877598Y-38197274D01*
X89706265Y-38533535D01*
X89571021Y-38885857D01*
X89473345Y-39250390D01*
X89414310Y-39623126D01*
X89394559Y-40000000D01*
X88305970Y-40000000D01*
X85955401Y-37649431D01*
X85923307Y-37593843D01*
X85923308Y-37529655D01*
X85954978Y-37411464D01*
X85974353Y-37190000D01*
X85957650Y-36999077D01*
X85954978Y-36968537D01*
X85897440Y-36753804D01*
X85803488Y-36552324D01*
X85675977Y-36370219D01*
X85518781Y-36213023D01*
X85336677Y-36085512D01*
X85292665Y-36064989D01*
X85212683Y-36027692D01*
X85160507Y-35981934D01*
X85141088Y-35915309D01*
X85160508Y-35848684D01*
X85212684Y-35802927D01*
X85332412Y-35747097D01*
X85397186Y-35701740D01*
X84433127Y-34737681D01*
X84401033Y-34682093D01*
X84401033Y-34650001D01*
X85052553Y-34650001D01*
X85750740Y-35348186D01*
X85796100Y-35283408D01*
X85889420Y-35083281D01*
X85946575Y-34869978D01*
X85965821Y-34649999D01*
X85946575Y-34430021D01*
X85889421Y-34216720D01*
X85796098Y-34016589D01*
X85750740Y-33951811D01*
X85052553Y-34650000D01*
X85052553Y-34650001D01*
X84401033Y-34650001D01*
X84401033Y-34617906D01*
X84433127Y-34562319D01*
X84699000Y-34296447D01*
X85397187Y-33598258D01*
X85332406Y-33552898D01*
X85212683Y-33497071D01*
X85160506Y-33451314D01*
X85141087Y-33384689D01*
X85160507Y-33318064D01*
X85212682Y-33272307D01*
X85336677Y-33214488D01*
X85518781Y-33086977D01*
X85575939Y-33029818D01*
X85616167Y-33002939D01*
X85663620Y-32993500D01*
X96462680Y-32993500D01*
X96510133Y-33002939D01*
G37*
%TD.AperFunction*%
%TA.AperFunction,Conductor*%
G36*
X95002442Y-22000596D02*
G01*
X95008703Y-22000841D01*
X95241171Y-22009975D01*
X95241419Y-22010051D01*
X95241420Y-22009985D01*
X95241531Y-22009989D01*
X95472173Y-22019529D01*
X95481571Y-22020278D01*
X95723187Y-22048876D01*
X95952341Y-22077440D01*
X95961183Y-22078870D01*
X96199560Y-22126286D01*
X96200339Y-22126445D01*
X96426298Y-22173824D01*
X96434444Y-22175824D01*
X96668182Y-22241745D01*
X96669753Y-22242200D01*
X96890895Y-22308037D01*
X96898400Y-22310535D01*
X97126259Y-22394597D01*
X97128273Y-22395362D01*
X97343145Y-22479205D01*
X97349963Y-22482104D01*
X97570464Y-22583756D01*
X97572903Y-22584914D01*
X97780180Y-22686245D01*
X97786241Y-22689421D01*
X97998057Y-22808044D01*
X98000853Y-22809659D01*
X98199040Y-22927753D01*
X98204420Y-22931150D01*
X98406284Y-23066031D01*
X98409373Y-23068166D01*
X98597098Y-23202199D01*
X98601768Y-23205704D01*
X98680682Y-23267914D01*
X98792387Y-23355976D01*
X98795748Y-23358722D01*
X98971759Y-23507796D01*
X98975764Y-23511341D01*
X99153973Y-23676076D01*
X99157483Y-23679451D01*
X99320547Y-23842515D01*
X99323922Y-23846025D01*
X99488657Y-24024234D01*
X99492208Y-24028246D01*
X99579045Y-24130774D01*
X99641266Y-24204238D01*
X99644022Y-24207611D01*
X99794285Y-24398218D01*
X99797810Y-24402915D01*
X99931814Y-24590599D01*
X99933982Y-24593737D01*
X100068845Y-24795574D01*
X100072259Y-24800980D01*
X100142617Y-24919056D01*
X100190298Y-24999074D01*
X100191964Y-25001959D01*
X100268894Y-25139326D01*
X100306739Y-25206904D01*
X100310559Y-25213724D01*
X100313771Y-25219853D01*
X100415059Y-25427042D01*
X100416268Y-25429589D01*
X100517890Y-25650026D01*
X100520797Y-25656864D01*
X100604608Y-25871653D01*
X100605427Y-25873809D01*
X100689457Y-26101582D01*
X100691966Y-26109119D01*
X100757777Y-26330173D01*
X100758276Y-26331896D01*
X100824166Y-26565524D01*
X100826183Y-26573736D01*
X100873506Y-26799430D01*
X100873762Y-26800686D01*
X100921127Y-27038810D01*
X100922558Y-27047663D01*
X100951103Y-27276658D01*
X100951195Y-27277421D01*
X100979717Y-27518401D01*
X100980471Y-27527852D01*
X100990014Y-27758577D01*
X100990024Y-27758833D01*
X100999404Y-27997557D01*
X100999500Y-28002425D01*
X100999500Y-71451411D01*
X100982887Y-71513411D01*
X100937500Y-71558798D01*
X100875500Y-71575411D01*
X100813500Y-71558798D01*
X100768113Y-71513411D01*
X100739042Y-71463058D01*
X100710357Y-71431200D01*
X100611253Y-71321134D01*
X100456752Y-71208882D01*
X100456751Y-71208881D01*
X100282285Y-71131204D01*
X100095489Y-71091500D01*
X100095487Y-71091500D01*
X99904513Y-71091500D01*
X99904511Y-71091500D01*
X99717714Y-71131204D01*
X99543248Y-71208881D01*
X99462130Y-71267818D01*
X99427562Y-71285431D01*
X99389244Y-71291500D01*
X97525169Y-71291500D01*
X97517682Y-71291274D01*
X97456905Y-71287597D01*
X97397030Y-71298569D01*
X97389631Y-71299695D01*
X97329200Y-71307034D01*
X97319496Y-71310714D01*
X97297889Y-71316738D01*
X97287668Y-71318611D01*
X97232157Y-71343594D01*
X97225242Y-71346459D01*
X97168324Y-71368046D01*
X97159775Y-71373947D01*
X97140239Y-71384965D01*
X97130776Y-71389224D01*
X97082857Y-71426765D01*
X97076829Y-71431200D01*
X97026727Y-71465784D01*
X96986357Y-71511352D01*
X96981224Y-71516804D01*
X95742135Y-72755893D01*
X95688113Y-72787556D01*
X95625508Y-72788786D01*
X95486714Y-72755465D01*
X95250000Y-72736835D01*
X95013287Y-72755465D01*
X94782406Y-72810894D01*
X94563035Y-72901761D01*
X94360585Y-73025823D01*
X94180031Y-73180031D01*
X94025823Y-73360585D01*
X93901761Y-73563035D01*
X93810894Y-73782406D01*
X93755465Y-74013287D01*
X93736835Y-74249999D01*
X93755465Y-74486712D01*
X93810894Y-74717593D01*
X93836885Y-74780341D01*
X93901760Y-74936963D01*
X94025824Y-75139416D01*
X94180031Y-75319969D01*
X94360584Y-75474176D01*
X94563037Y-75598240D01*
X94782406Y-75689105D01*
X95013289Y-75744535D01*
X95250000Y-75763165D01*
X95486711Y-75744535D01*
X95717594Y-75689105D01*
X95936963Y-75598240D01*
X96139416Y-75474176D01*
X96319969Y-75319969D01*
X96474176Y-75139416D01*
X96598240Y-74936963D01*
X96689105Y-74717594D01*
X96744535Y-74486711D01*
X96763165Y-74250000D01*
X96744535Y-74013289D01*
X96711212Y-73874490D01*
X96712442Y-73811885D01*
X96744103Y-73757865D01*
X97757150Y-72744819D01*
X97797379Y-72717939D01*
X97844832Y-72708500D01*
X99389244Y-72708500D01*
X99427562Y-72714569D01*
X99462130Y-72732182D01*
X99543248Y-72791118D01*
X99717714Y-72868795D01*
X99904511Y-72908500D01*
X99904513Y-72908500D01*
X100095487Y-72908500D01*
X100095489Y-72908500D01*
X100282285Y-72868795D01*
X100282286Y-72868794D01*
X100282288Y-72868794D01*
X100456752Y-72791118D01*
X100611253Y-72678866D01*
X100739040Y-72536944D01*
X100739042Y-72536941D01*
X100768113Y-72486589D01*
X100813500Y-72441202D01*
X100875500Y-72424589D01*
X100937500Y-72441202D01*
X100982887Y-72486589D01*
X100999500Y-72548589D01*
X100999500Y-114754933D01*
X100999404Y-114759802D01*
X100990033Y-114998291D01*
X100990023Y-114998547D01*
X100980470Y-115229505D01*
X100979716Y-115238955D01*
X100951195Y-115479927D01*
X100951103Y-115480690D01*
X100922555Y-115709709D01*
X100921124Y-115718562D01*
X100873799Y-115956484D01*
X100873543Y-115957739D01*
X100826174Y-116183654D01*
X100824157Y-116191867D01*
X100758294Y-116425399D01*
X100757795Y-116427121D01*
X100691964Y-116648246D01*
X100689455Y-116655784D01*
X100605461Y-116883459D01*
X100604642Y-116885615D01*
X100520785Y-117100521D01*
X100517878Y-117107360D01*
X100416291Y-117327720D01*
X100415082Y-117330266D01*
X100313769Y-117537506D01*
X100310557Y-117543635D01*
X100191985Y-117755359D01*
X100190319Y-117758244D01*
X100072241Y-117956404D01*
X100068820Y-117961820D01*
X99934016Y-118163570D01*
X99931831Y-118166734D01*
X99797806Y-118354447D01*
X99794268Y-118359161D01*
X99644040Y-118549724D01*
X99641284Y-118553097D01*
X99492210Y-118729109D01*
X99488643Y-118733139D01*
X99323931Y-118911323D01*
X99320556Y-118914833D01*
X99157474Y-119077915D01*
X99153964Y-119081290D01*
X98975767Y-119246013D01*
X98971737Y-119249579D01*
X98795755Y-119398628D01*
X98792382Y-119401385D01*
X98601790Y-119551636D01*
X98597076Y-119555174D01*
X98409409Y-119689166D01*
X98406246Y-119691351D01*
X98204443Y-119826192D01*
X98199025Y-119829613D01*
X98000895Y-119947672D01*
X97998011Y-119949338D01*
X97786278Y-120067915D01*
X97780150Y-120071126D01*
X97572932Y-120172429D01*
X97570385Y-120173639D01*
X97349986Y-120275244D01*
X97343147Y-120278151D01*
X97128284Y-120361991D01*
X97126128Y-120362810D01*
X96898435Y-120446811D01*
X96890898Y-120449320D01*
X96669789Y-120515147D01*
X96668065Y-120515647D01*
X96434484Y-120581523D01*
X96426272Y-120583539D01*
X96200433Y-120630892D01*
X96199178Y-120631148D01*
X95961203Y-120678484D01*
X95952350Y-120679915D01*
X95723172Y-120708483D01*
X95722447Y-120708571D01*
X95678460Y-120713777D01*
X95481609Y-120737076D01*
X95472160Y-120737829D01*
X95240944Y-120747393D01*
X95240687Y-120747403D01*
X95002468Y-120756763D01*
X94997600Y-120756859D01*
X35002425Y-120756859D01*
X34997557Y-120756763D01*
X34748575Y-120746980D01*
X34748328Y-120746970D01*
X34528376Y-120737890D01*
X34518916Y-120737136D01*
X34270880Y-120707779D01*
X34270117Y-120707687D01*
X34048217Y-120680027D01*
X34039364Y-120678596D01*
X33796880Y-120630363D01*
X33795624Y-120630107D01*
X33574304Y-120583701D01*
X33566092Y-120581684D01*
X33329177Y-120514867D01*
X33327454Y-120514368D01*
X33109735Y-120449550D01*
X33102198Y-120447041D01*
X32871721Y-120362013D01*
X32869565Y-120361194D01*
X32657500Y-120278445D01*
X32650661Y-120275538D01*
X32427931Y-120172858D01*
X32425384Y-120171648D01*
X32220504Y-120071487D01*
X32214376Y-120068276D01*
X32000661Y-119948589D01*
X31997776Y-119946923D01*
X31801653Y-119830059D01*
X31796236Y-119826638D01*
X31592665Y-119690616D01*
X31589502Y-119688431D01*
X31403607Y-119555704D01*
X31398893Y-119552166D01*
X31298840Y-119473290D01*
X31206689Y-119400643D01*
X31203354Y-119397917D01*
X31028981Y-119250231D01*
X31024957Y-119246669D01*
X30845278Y-119080575D01*
X30841767Y-119077200D01*
X30680169Y-118915601D01*
X30676795Y-118912091D01*
X30510712Y-118732422D01*
X30507146Y-118728392D01*
X30359479Y-118554042D01*
X30356745Y-118550698D01*
X30205181Y-118358438D01*
X30201686Y-118353781D01*
X30068926Y-118167838D01*
X30066752Y-118164690D01*
X29930738Y-117961128D01*
X29927318Y-117955711D01*
X29810477Y-117759625D01*
X29808810Y-117756740D01*
X29689095Y-117542970D01*
X29685884Y-117536842D01*
X29661229Y-117486409D01*
X29585699Y-117331908D01*
X29584530Y-117329446D01*
X29481849Y-117106710D01*
X29478943Y-117099874D01*
X29475186Y-117090246D01*
X29396152Y-116887695D01*
X29395362Y-116885615D01*
X29384239Y-116855465D01*
X50498087Y-116855465D01*
X50501895Y-116858718D01*
X50719982Y-116992361D01*
X50956294Y-117090246D01*
X51205006Y-117149956D01*
X51460000Y-117170024D01*
X51714993Y-117149956D01*
X51963705Y-117090246D01*
X52200012Y-116992363D01*
X52418108Y-116858715D01*
X52421911Y-116855465D01*
X55578087Y-116855465D01*
X55581895Y-116858718D01*
X55799982Y-116992361D01*
X56036294Y-117090246D01*
X56285006Y-117149956D01*
X56540000Y-117170024D01*
X56794993Y-117149956D01*
X57043705Y-117090246D01*
X57280012Y-116992363D01*
X57498108Y-116858715D01*
X57501911Y-116855465D01*
X57501912Y-116855464D01*
X56540000Y-115893553D01*
X55578087Y-116855464D01*
X55578087Y-116855465D01*
X52421911Y-116855465D01*
X52421912Y-116855464D01*
X51460000Y-115893553D01*
X50498087Y-116855464D01*
X50498087Y-116855465D01*
X29384239Y-116855465D01*
X29310332Y-116655128D01*
X29307852Y-116647679D01*
X29243000Y-116429839D01*
X29242552Y-116428296D01*
X29175694Y-116191228D01*
X29173694Y-116183081D01*
X29127276Y-115961701D01*
X29127068Y-115960683D01*
X29078790Y-115717963D01*
X29077364Y-115709135D01*
X29049680Y-115487031D01*
X29020250Y-115238371D01*
X29019504Y-115229001D01*
X29010814Y-115018874D01*
X29002323Y-114802720D01*
X29000596Y-114758752D01*
X29000500Y-114753885D01*
X29000500Y-113000000D01*
X33394559Y-113000000D01*
X33414310Y-113376873D01*
X33473345Y-113749609D01*
X33571021Y-114114142D01*
X33706265Y-114466464D01*
X33877598Y-114802724D01*
X34083134Y-115119221D01*
X34083137Y-115119225D01*
X34320635Y-115412511D01*
X34587489Y-115679365D01*
X34880775Y-115916863D01*
X34880777Y-115916864D01*
X34880778Y-115916865D01*
X35197275Y-116122401D01*
X35533535Y-116293734D01*
X35885857Y-116428978D01*
X36250390Y-116526654D01*
X36436757Y-116556171D01*
X36623129Y-116585690D01*
X36889174Y-116599632D01*
X36905719Y-116600500D01*
X36905720Y-116600500D01*
X37094280Y-116600500D01*
X37094281Y-116600500D01*
X37109910Y-116599680D01*
X37376871Y-116585690D01*
X37619482Y-116547263D01*
X37749609Y-116526654D01*
X37841948Y-116501912D01*
X38114143Y-116428978D01*
X38466465Y-116293734D01*
X38802720Y-116122403D01*
X38802719Y-116122403D01*
X38802724Y-116122401D01*
X38986731Y-116002905D01*
X39119225Y-115916863D01*
X39412511Y-115679365D01*
X39551877Y-115539999D01*
X49829975Y-115539999D01*
X49850043Y-115794993D01*
X49909753Y-116043705D01*
X50007636Y-116280012D01*
X50141284Y-116498108D01*
X50144533Y-116501911D01*
X50144535Y-116501911D01*
X51106447Y-115540001D01*
X51813553Y-115540001D01*
X52775464Y-116501912D01*
X52775465Y-116501911D01*
X52778715Y-116498108D01*
X52912363Y-116280012D01*
X53010246Y-116043705D01*
X53069956Y-115794993D01*
X53090024Y-115539999D01*
X54909975Y-115539999D01*
X54930043Y-115794993D01*
X54989753Y-116043705D01*
X55087636Y-116280012D01*
X55221284Y-116498108D01*
X55224533Y-116501911D01*
X55224535Y-116501911D01*
X56186447Y-115540001D01*
X56893553Y-115540001D01*
X57855464Y-116501912D01*
X57855465Y-116501911D01*
X57858715Y-116498108D01*
X57992363Y-116280012D01*
X58090246Y-116043705D01*
X58149956Y-115794993D01*
X58170024Y-115539999D01*
X58149956Y-115285006D01*
X58090246Y-115036294D01*
X57992361Y-114799982D01*
X57858718Y-114581895D01*
X57855465Y-114578087D01*
X57855464Y-114578087D01*
X56893553Y-115540000D01*
X56893553Y-115540001D01*
X56186447Y-115540001D01*
X56186447Y-115540000D01*
X55224534Y-114578087D01*
X55224533Y-114578087D01*
X55221281Y-114581895D01*
X55087638Y-114799982D01*
X54989753Y-115036294D01*
X54930043Y-115285006D01*
X54909975Y-115539999D01*
X53090024Y-115539999D01*
X53069956Y-115285006D01*
X53010246Y-115036294D01*
X52912361Y-114799982D01*
X52778718Y-114581895D01*
X52775465Y-114578087D01*
X52775464Y-114578087D01*
X51813553Y-115540000D01*
X51813553Y-115540001D01*
X51106447Y-115540001D01*
X51106447Y-115540000D01*
X50144534Y-114578087D01*
X50144533Y-114578087D01*
X50141281Y-114581895D01*
X50007638Y-114799982D01*
X49909753Y-115036294D01*
X49850043Y-115285006D01*
X49829975Y-115539999D01*
X39551877Y-115539999D01*
X39679365Y-115412511D01*
X39916863Y-115119225D01*
X40019633Y-114960972D01*
X40122401Y-114802725D01*
X40234919Y-114581895D01*
X40293734Y-114466465D01*
X40386603Y-114224534D01*
X50498087Y-114224534D01*
X51460000Y-115186447D01*
X51460001Y-115186447D01*
X52421911Y-114224535D01*
X52421911Y-114224533D01*
X52418108Y-114221284D01*
X52200012Y-114087636D01*
X51963705Y-113989753D01*
X51714993Y-113930043D01*
X51460000Y-113909975D01*
X51205006Y-113930043D01*
X50956294Y-113989753D01*
X50719982Y-114087638D01*
X50501895Y-114221281D01*
X50498087Y-114224533D01*
X50498087Y-114224534D01*
X40386603Y-114224534D01*
X40428978Y-114114143D01*
X40526653Y-113749613D01*
X40537908Y-113678556D01*
X40570093Y-113475343D01*
X40585690Y-113376871D01*
X40605441Y-113000000D01*
X52461758Y-113000000D01*
X52480696Y-113240635D01*
X52537044Y-113475343D01*
X52580188Y-113579500D01*
X52629416Y-113698347D01*
X52755536Y-113904156D01*
X52912299Y-114087701D01*
X53095844Y-114244464D01*
X53301653Y-114370584D01*
X53466406Y-114438826D01*
X53524656Y-114462955D01*
X53598806Y-114480756D01*
X53759366Y-114519304D01*
X54000000Y-114538242D01*
X54240634Y-114519304D01*
X54475343Y-114462955D01*
X54698347Y-114370584D01*
X54904156Y-114244464D01*
X54927491Y-114224534D01*
X55578087Y-114224534D01*
X56540000Y-115186447D01*
X56540001Y-115186447D01*
X57501911Y-114224535D01*
X57501911Y-114224533D01*
X57498108Y-114221284D01*
X57280012Y-114087636D01*
X57043705Y-113989753D01*
X56794993Y-113930043D01*
X56540000Y-113909975D01*
X56285006Y-113930043D01*
X56036294Y-113989753D01*
X55799982Y-114087638D01*
X55581895Y-114221281D01*
X55578087Y-114224533D01*
X55578087Y-114224534D01*
X54927491Y-114224534D01*
X55087701Y-114087701D01*
X55244464Y-113904156D01*
X55370584Y-113698347D01*
X55462955Y-113475343D01*
X55519304Y-113240634D01*
X55538242Y-113000000D01*
X55519304Y-112759366D01*
X55462955Y-112524657D01*
X55370584Y-112301653D01*
X55244464Y-112095844D01*
X55087701Y-111912299D01*
X54927490Y-111775465D01*
X55578087Y-111775465D01*
X55581895Y-111778718D01*
X55799982Y-111912361D01*
X56036294Y-112010246D01*
X56285006Y-112069956D01*
X56540000Y-112090024D01*
X56794993Y-112069956D01*
X57043705Y-112010246D01*
X57280012Y-111912363D01*
X57498108Y-111778715D01*
X57501911Y-111775465D01*
X57501912Y-111775464D01*
X56540000Y-110813553D01*
X55578087Y-111775464D01*
X55578087Y-111775465D01*
X54927490Y-111775465D01*
X54904156Y-111755536D01*
X54698347Y-111629416D01*
X54615970Y-111595294D01*
X54475343Y-111537044D01*
X54240635Y-111480696D01*
X54000000Y-111461758D01*
X53759364Y-111480696D01*
X53524656Y-111537044D01*
X53301651Y-111629417D01*
X53095845Y-111755535D01*
X52912299Y-111912299D01*
X52755535Y-112095845D01*
X52629417Y-112301651D01*
X52537044Y-112524656D01*
X52480696Y-112759364D01*
X52461758Y-113000000D01*
X40605441Y-113000000D01*
X40585690Y-112623129D01*
X40546679Y-112376827D01*
X40526654Y-112250390D01*
X40428978Y-111885857D01*
X40386602Y-111775465D01*
X50498087Y-111775465D01*
X50501895Y-111778718D01*
X50719982Y-111912361D01*
X50956294Y-112010246D01*
X51205006Y-112069956D01*
X51460000Y-112090024D01*
X51714993Y-112069956D01*
X51963705Y-112010246D01*
X52200012Y-111912363D01*
X52418108Y-111778715D01*
X52421911Y-111775465D01*
X52421912Y-111775464D01*
X51460000Y-110813553D01*
X50498087Y-111775464D01*
X50498087Y-111775465D01*
X40386602Y-111775465D01*
X40293734Y-111533535D01*
X40122401Y-111197275D01*
X39916865Y-110880778D01*
X39916863Y-110880775D01*
X39679365Y-110587489D01*
X39551875Y-110459999D01*
X49829975Y-110459999D01*
X49850043Y-110714993D01*
X49909753Y-110963705D01*
X50007636Y-111200012D01*
X50141284Y-111418108D01*
X50144533Y-111421911D01*
X50144535Y-111421911D01*
X51106447Y-110460001D01*
X51813553Y-110460001D01*
X52775464Y-111421912D01*
X52775465Y-111421911D01*
X52778715Y-111418108D01*
X52912363Y-111200012D01*
X53010246Y-110963705D01*
X53069956Y-110714993D01*
X53090024Y-110459999D01*
X54909975Y-110459999D01*
X54930043Y-110714993D01*
X54989753Y-110963705D01*
X55087636Y-111200012D01*
X55221284Y-111418108D01*
X55224533Y-111421911D01*
X55224535Y-111421911D01*
X56186447Y-110460001D01*
X56893553Y-110460001D01*
X57855464Y-111421912D01*
X57855465Y-111421911D01*
X57858715Y-111418108D01*
X57992363Y-111200012D01*
X58090246Y-110963705D01*
X58149956Y-110714993D01*
X58170024Y-110459999D01*
X58149956Y-110205006D01*
X58090246Y-109956294D01*
X57992361Y-109719982D01*
X57858718Y-109501895D01*
X57855465Y-109498087D01*
X57855464Y-109498087D01*
X56893553Y-110460000D01*
X56893553Y-110460001D01*
X56186447Y-110460001D01*
X56186447Y-110460000D01*
X55224534Y-109498087D01*
X55224533Y-109498087D01*
X55221281Y-109501895D01*
X55087638Y-109719982D01*
X54989753Y-109956294D01*
X54930043Y-110205006D01*
X54909975Y-110459999D01*
X53090024Y-110459999D01*
X53069956Y-110205006D01*
X53010246Y-109956294D01*
X52912361Y-109719982D01*
X52778718Y-109501895D01*
X52775465Y-109498087D01*
X52775464Y-109498087D01*
X51813553Y-110460000D01*
X51813553Y-110460001D01*
X51106447Y-110460001D01*
X51106447Y-110460000D01*
X50144534Y-109498087D01*
X50144533Y-109498087D01*
X50141281Y-109501895D01*
X50007638Y-109719982D01*
X49909753Y-109956294D01*
X49850043Y-110205006D01*
X49829975Y-110459999D01*
X39551875Y-110459999D01*
X39412511Y-110320635D01*
X39119225Y-110083137D01*
X39119223Y-110083136D01*
X39119221Y-110083134D01*
X38802724Y-109877598D01*
X38466464Y-109706265D01*
X38114142Y-109571021D01*
X37749609Y-109473345D01*
X37376873Y-109414310D01*
X37094281Y-109399500D01*
X37094280Y-109399500D01*
X36905720Y-109399500D01*
X36905719Y-109399500D01*
X36623126Y-109414310D01*
X36250390Y-109473345D01*
X35885857Y-109571021D01*
X35533535Y-109706265D01*
X35197275Y-109877598D01*
X34880778Y-110083134D01*
X34587485Y-110320638D01*
X34320638Y-110587485D01*
X34083134Y-110880778D01*
X33877598Y-111197274D01*
X33706265Y-111533535D01*
X33571021Y-111885857D01*
X33473345Y-112250390D01*
X33414310Y-112623126D01*
X33394559Y-113000000D01*
X29000500Y-113000000D01*
X29000500Y-109144534D01*
X50498087Y-109144534D01*
X51460000Y-110106447D01*
X51460001Y-110106447D01*
X52421911Y-109144535D01*
X52421911Y-109144534D01*
X55578087Y-109144534D01*
X56540000Y-110106447D01*
X56540001Y-110106447D01*
X57501911Y-109144535D01*
X57501911Y-109144533D01*
X57498108Y-109141284D01*
X57280012Y-109007636D01*
X57043705Y-108909753D01*
X56794993Y-108850043D01*
X56540000Y-108829975D01*
X56285006Y-108850043D01*
X56036294Y-108909753D01*
X55799982Y-109007638D01*
X55581895Y-109141281D01*
X55578087Y-109144533D01*
X55578087Y-109144534D01*
X52421911Y-109144534D01*
X52421911Y-109144533D01*
X52418108Y-109141284D01*
X52200012Y-109007636D01*
X51963705Y-108909753D01*
X51714993Y-108850043D01*
X51460000Y-108829975D01*
X51205006Y-108850043D01*
X50956294Y-108909753D01*
X50719982Y-109007638D01*
X50501895Y-109141281D01*
X50498087Y-109144533D01*
X50498087Y-109144534D01*
X29000500Y-109144534D01*
X29000500Y-105240000D01*
X32564646Y-105240000D01*
X32584021Y-105461460D01*
X32641560Y-105676197D01*
X32658052Y-105711563D01*
X32735512Y-105877677D01*
X32863023Y-106059781D01*
X33020219Y-106216977D01*
X33202323Y-106344488D01*
X33403804Y-106438440D01*
X33618537Y-106495978D01*
X33840000Y-106515353D01*
X34061463Y-106495978D01*
X34276196Y-106438440D01*
X34477677Y-106344488D01*
X34659781Y-106216977D01*
X34816977Y-106059781D01*
X34944488Y-105877677D01*
X34997618Y-105763738D01*
X35043375Y-105711563D01*
X35110000Y-105692144D01*
X35176625Y-105711563D01*
X35222381Y-105763738D01*
X35275512Y-105877677D01*
X35403023Y-106059781D01*
X35560219Y-106216977D01*
X35742323Y-106344488D01*
X35943804Y-106438440D01*
X36158537Y-106495978D01*
X36380000Y-106515353D01*
X36601463Y-106495978D01*
X36816196Y-106438440D01*
X37017677Y-106344488D01*
X37199781Y-106216977D01*
X37356977Y-106059781D01*
X37484488Y-105877677D01*
X37537618Y-105763738D01*
X37583375Y-105711563D01*
X37650000Y-105692144D01*
X37716625Y-105711563D01*
X37762381Y-105763738D01*
X37815512Y-105877677D01*
X37943023Y-106059781D01*
X38100219Y-106216977D01*
X38282323Y-106344488D01*
X38483804Y-106438440D01*
X38698537Y-106495978D01*
X38920000Y-106515353D01*
X39141463Y-106495978D01*
X39356196Y-106438440D01*
X39557677Y-106344488D01*
X39739781Y-106216977D01*
X39896977Y-106059781D01*
X40024488Y-105877677D01*
X40077618Y-105763738D01*
X40123375Y-105711563D01*
X40190000Y-105692144D01*
X40256625Y-105711563D01*
X40302381Y-105763738D01*
X40355512Y-105877677D01*
X40483023Y-106059781D01*
X40640219Y-106216977D01*
X40822323Y-106344488D01*
X41023804Y-106438440D01*
X41238537Y-106495978D01*
X41460000Y-106515353D01*
X41681463Y-106495978D01*
X41896196Y-106438440D01*
X42097677Y-106344488D01*
X42279781Y-106216977D01*
X42436977Y-106059781D01*
X42564488Y-105877677D01*
X42617618Y-105763738D01*
X42663375Y-105711563D01*
X42730000Y-105692144D01*
X42796625Y-105711563D01*
X42842381Y-105763738D01*
X42895512Y-105877677D01*
X43023023Y-106059781D01*
X43180219Y-106216977D01*
X43362323Y-106344488D01*
X43563804Y-106438440D01*
X43778537Y-106495978D01*
X44000000Y-106515353D01*
X44221463Y-106495978D01*
X44436196Y-106438440D01*
X44637677Y-106344488D01*
X44819781Y-106216977D01*
X44976977Y-106059781D01*
X45104488Y-105877677D01*
X45198440Y-105676196D01*
X45255978Y-105461463D01*
X45275353Y-105240000D01*
X45255978Y-105018537D01*
X45198440Y-104803804D01*
X45104488Y-104602324D01*
X44976977Y-104420219D01*
X44819781Y-104263023D01*
X44637677Y-104135512D01*
X44544781Y-104092194D01*
X44436197Y-104041560D01*
X44221460Y-103984021D01*
X44000000Y-103964646D01*
X43778539Y-103984021D01*
X43563802Y-104041560D01*
X43362323Y-104135512D01*
X43180218Y-104263023D01*
X43023023Y-104420218D01*
X42895512Y-104602323D01*
X42842382Y-104716261D01*
X42796625Y-104768437D01*
X42730000Y-104787856D01*
X42663375Y-104768437D01*
X42617618Y-104716261D01*
X42608130Y-104695914D01*
X42564488Y-104602324D01*
X42436977Y-104420219D01*
X42279781Y-104263023D01*
X42097677Y-104135512D01*
X42004781Y-104092194D01*
X41896197Y-104041560D01*
X41681460Y-103984021D01*
X41460000Y-103964646D01*
X41238539Y-103984021D01*
X41023802Y-104041560D01*
X40822323Y-104135512D01*
X40640218Y-104263023D01*
X40483023Y-104420218D01*
X40355512Y-104602323D01*
X40302382Y-104716261D01*
X40256625Y-104768437D01*
X40190000Y-104787856D01*
X40123375Y-104768437D01*
X40077618Y-104716261D01*
X40068130Y-104695914D01*
X40024488Y-104602324D01*
X39896977Y-104420219D01*
X39739781Y-104263023D01*
X39557677Y-104135512D01*
X39464781Y-104092194D01*
X39356197Y-104041560D01*
X39141460Y-103984021D01*
X38920000Y-103964646D01*
X38698539Y-103984021D01*
X38483802Y-104041560D01*
X38282323Y-104135512D01*
X38100218Y-104263023D01*
X37943023Y-104420218D01*
X37815512Y-104602323D01*
X37762382Y-104716261D01*
X37716625Y-104768437D01*
X37650000Y-104787856D01*
X37583375Y-104768437D01*
X37537618Y-104716261D01*
X37528130Y-104695914D01*
X37484488Y-104602324D01*
X37356977Y-104420219D01*
X37199781Y-104263023D01*
X37017677Y-104135512D01*
X36924781Y-104092194D01*
X36816197Y-104041560D01*
X36601460Y-103984021D01*
X36380000Y-103964646D01*
X36158539Y-103984021D01*
X35943802Y-104041560D01*
X35742323Y-104135512D01*
X35560218Y-104263023D01*
X35403023Y-104420218D01*
X35275512Y-104602323D01*
X35222382Y-104716261D01*
X35176625Y-104768437D01*
X35110000Y-104787856D01*
X35043375Y-104768437D01*
X34997618Y-104716261D01*
X34988130Y-104695914D01*
X34944488Y-104602324D01*
X34816977Y-104420219D01*
X34659781Y-104263023D01*
X34477677Y-104135512D01*
X34384781Y-104092194D01*
X34276197Y-104041560D01*
X34061460Y-103984021D01*
X33840000Y-103964646D01*
X33618539Y-103984021D01*
X33403802Y-104041560D01*
X33202323Y-104135512D01*
X33020218Y-104263023D01*
X32863023Y-104420218D01*
X32735512Y-104602323D01*
X32641560Y-104803802D01*
X32584021Y-105018539D01*
X32564646Y-105240000D01*
X29000500Y-105240000D01*
X29000500Y-101909999D01*
X51360646Y-101909999D01*
X51380021Y-102131460D01*
X51380022Y-102131463D01*
X51437560Y-102346196D01*
X51531512Y-102547677D01*
X51659023Y-102729781D01*
X51816219Y-102886977D01*
X51998323Y-103014488D01*
X52199804Y-103108440D01*
X52414537Y-103165978D01*
X52636000Y-103185353D01*
X52857463Y-103165978D01*
X53072196Y-103108440D01*
X53273677Y-103014488D01*
X53455781Y-102886977D01*
X53612977Y-102729781D01*
X53740488Y-102547677D01*
X53834440Y-102346196D01*
X53891978Y-102131463D01*
X53911353Y-101910000D01*
X53891978Y-101688537D01*
X53834440Y-101473804D01*
X53740488Y-101272324D01*
X53612977Y-101090219D01*
X53455781Y-100933023D01*
X53273677Y-100805512D01*
X53180781Y-100762194D01*
X53072197Y-100711560D01*
X52857460Y-100654021D01*
X52636000Y-100634646D01*
X52414539Y-100654021D01*
X52199802Y-100711560D01*
X51998323Y-100805512D01*
X51816218Y-100933023D01*
X51659023Y-101090218D01*
X51531512Y-101272323D01*
X51437560Y-101473802D01*
X51380021Y-101688539D01*
X51360646Y-101909999D01*
X29000500Y-101909999D01*
X29000500Y-95884999D01*
X58086496Y-95884999D01*
X58106458Y-96074929D01*
X58165472Y-96256556D01*
X58260957Y-96421941D01*
X58260960Y-96421944D01*
X58388747Y-96563866D01*
X58543247Y-96676117D01*
X58543248Y-96676118D01*
X58717714Y-96753795D01*
X58904511Y-96793500D01*
X58904513Y-96793500D01*
X59095487Y-96793500D01*
X59095489Y-96793500D01*
X59282285Y-96753795D01*
X59282286Y-96753794D01*
X59282288Y-96753794D01*
X59456752Y-96676118D01*
X59611253Y-96563866D01*
X59739040Y-96421944D01*
X59834527Y-96256556D01*
X59893542Y-96074928D01*
X59913504Y-95885000D01*
X59893542Y-95695072D01*
X59889569Y-95682844D01*
X59883500Y-95644527D01*
X59883500Y-92352500D01*
X61921501Y-92352500D01*
X61941456Y-92580584D01*
X62000717Y-92801746D01*
X62097474Y-93009244D01*
X62097476Y-93009246D01*
X62097477Y-93009249D01*
X62228802Y-93196800D01*
X62390700Y-93358698D01*
X62578251Y-93490023D01*
X62785757Y-93586784D01*
X63006913Y-93646043D01*
X63235000Y-93665998D01*
X63463087Y-93646043D01*
X63684243Y-93586784D01*
X63891749Y-93490023D01*
X64079300Y-93358698D01*
X64241198Y-93196800D01*
X64372523Y-93009249D01*
X64392618Y-92966154D01*
X64438372Y-92913980D01*
X64504997Y-92894559D01*
X64571623Y-92913978D01*
X64617381Y-92966153D01*
X64637477Y-93009249D01*
X64768802Y-93196800D01*
X64930700Y-93358698D01*
X65118251Y-93490023D01*
X65325757Y-93586784D01*
X65546913Y-93646043D01*
X65775000Y-93665998D01*
X66003087Y-93646043D01*
X66224243Y-93586784D01*
X66431749Y-93490023D01*
X66619300Y-93358698D01*
X66781198Y-93196800D01*
X66912523Y-93009249D01*
X67009284Y-92801743D01*
X67068543Y-92580587D01*
X67088498Y-92352500D01*
X67068543Y-92124413D01*
X67009284Y-91903257D01*
X66912523Y-91695751D01*
X66781198Y-91508200D01*
X66619300Y-91346302D01*
X66431749Y-91214977D01*
X66431746Y-91214976D01*
X66431744Y-91214974D01*
X66224246Y-91118217D01*
X66224243Y-91118216D01*
X66113664Y-91088586D01*
X66003084Y-91058956D01*
X65774999Y-91039001D01*
X65546915Y-91058956D01*
X65325753Y-91118217D01*
X65118255Y-91214974D01*
X64930696Y-91346305D01*
X64768805Y-91508196D01*
X64637476Y-91695753D01*
X64617382Y-91738845D01*
X64571625Y-91791021D01*
X64505000Y-91810440D01*
X64438375Y-91791021D01*
X64392618Y-91738845D01*
X64391214Y-91735834D01*
X64372523Y-91695751D01*
X64241198Y-91508200D01*
X64079300Y-91346302D01*
X63891749Y-91214977D01*
X63891746Y-91214976D01*
X63891744Y-91214974D01*
X63684246Y-91118217D01*
X63684243Y-91118216D01*
X63573664Y-91088586D01*
X63463084Y-91058956D01*
X63234999Y-91039001D01*
X63006915Y-91058956D01*
X62785753Y-91118217D01*
X62578255Y-91214974D01*
X62390696Y-91346305D01*
X62228805Y-91508196D01*
X62097474Y-91695755D01*
X62000717Y-91903253D01*
X61941456Y-92124415D01*
X61921501Y-92352500D01*
X59883500Y-92352500D01*
X59883500Y-87287320D01*
X59892939Y-87239867D01*
X59919819Y-87199639D01*
X60401546Y-86717912D01*
X61855460Y-85263996D01*
X61905851Y-85233418D01*
X61964671Y-85229563D01*
X62018625Y-85253303D01*
X62055521Y-85299274D01*
X62097477Y-85389249D01*
X62228802Y-85576800D01*
X62390700Y-85738698D01*
X62578251Y-85870023D01*
X62785757Y-85966784D01*
X63006913Y-86026043D01*
X63235000Y-86045998D01*
X63463087Y-86026043D01*
X63684243Y-85966784D01*
X63891749Y-85870023D01*
X64079300Y-85738698D01*
X64241198Y-85576800D01*
X64246564Y-85569135D01*
X64291402Y-85529998D01*
X64349316Y-85516262D01*
X64406958Y-85531094D01*
X64451049Y-85571076D01*
X64471429Y-85626998D01*
X64473010Y-85641701D01*
X64524110Y-85778703D01*
X64611738Y-85895761D01*
X64728796Y-85983389D01*
X64865794Y-86034488D01*
X64865797Y-86034488D01*
X64865799Y-86034489D01*
X64926362Y-86041000D01*
X66623634Y-86041000D01*
X66623638Y-86041000D01*
X66684201Y-86034489D01*
X66684203Y-86034488D01*
X66684205Y-86034488D01*
X66762124Y-86005424D01*
X66821204Y-85983389D01*
X66938261Y-85895761D01*
X67025889Y-85778704D01*
X67076989Y-85641701D01*
X67083500Y-85581138D01*
X67083500Y-83883862D01*
X67076989Y-83823299D01*
X67076988Y-83823297D01*
X67076988Y-83823294D01*
X67025889Y-83686296D01*
X66938261Y-83569238D01*
X66821203Y-83481610D01*
X66684205Y-83430511D01*
X66653919Y-83427255D01*
X66623638Y-83424000D01*
X64926362Y-83424000D01*
X64899445Y-83426893D01*
X64865794Y-83430511D01*
X64728796Y-83481610D01*
X64611738Y-83569238D01*
X64524110Y-83686296D01*
X64473009Y-83823299D01*
X64471429Y-83838001D01*
X64451049Y-83893922D01*
X64406959Y-83933905D01*
X64349318Y-83948737D01*
X64291405Y-83935002D01*
X64246564Y-83895864D01*
X64245204Y-83893922D01*
X64241198Y-83888200D01*
X64079300Y-83726302D01*
X63891749Y-83594977D01*
X63835974Y-83568969D01*
X63801774Y-83553021D01*
X63755803Y-83516125D01*
X63732063Y-83462171D01*
X63735918Y-83403352D01*
X63766496Y-83352960D01*
X64299709Y-82819746D01*
X64334983Y-82795048D01*
X64376578Y-82783902D01*
X64581463Y-82765978D01*
X64796196Y-82708440D01*
X64997677Y-82614488D01*
X65179781Y-82486977D01*
X65336977Y-82329781D01*
X65464488Y-82147677D01*
X65517618Y-82033738D01*
X65563375Y-81981563D01*
X65630000Y-81962144D01*
X65696625Y-81981563D01*
X65742381Y-82033738D01*
X65795512Y-82147677D01*
X65923023Y-82329781D01*
X66080219Y-82486977D01*
X66262323Y-82614488D01*
X66463804Y-82708440D01*
X66678537Y-82765978D01*
X66900000Y-82785353D01*
X67121463Y-82765978D01*
X67336196Y-82708440D01*
X67537677Y-82614488D01*
X67613009Y-82561740D01*
X68741812Y-82561740D01*
X68806593Y-82607101D01*
X69006718Y-82700420D01*
X69220021Y-82757575D01*
X69440000Y-82776821D01*
X69659978Y-82757575D01*
X69873281Y-82700420D01*
X70073408Y-82607100D01*
X70138187Y-82561740D01*
X69440001Y-81863553D01*
X69440000Y-81863553D01*
X68741812Y-82561740D01*
X67613009Y-82561740D01*
X67719781Y-82486977D01*
X67876977Y-82329781D01*
X68004488Y-82147677D01*
X68062307Y-82023682D01*
X68108064Y-81971507D01*
X68174689Y-81952087D01*
X68241314Y-81971506D01*
X68287071Y-82023683D01*
X68342898Y-82143406D01*
X68388258Y-82208187D01*
X69086446Y-81509999D01*
X69086446Y-81509998D01*
X68388258Y-80811812D01*
X68342900Y-80876589D01*
X68287071Y-80996317D01*
X68241314Y-81048493D01*
X68174689Y-81067912D01*
X68108064Y-81048493D01*
X68062307Y-80996317D01*
X68057617Y-80986260D01*
X68004488Y-80872324D01*
X67876977Y-80690219D01*
X67719781Y-80533023D01*
X67613006Y-80458258D01*
X68741811Y-80458258D01*
X69440000Y-81156446D01*
X69440001Y-81156446D01*
X70138187Y-80458258D01*
X70073406Y-80412898D01*
X69873281Y-80319579D01*
X69659978Y-80262424D01*
X69440000Y-80243178D01*
X69220021Y-80262424D01*
X69006719Y-80319578D01*
X68806589Y-80412900D01*
X68741812Y-80458258D01*
X68741811Y-80458258D01*
X67613006Y-80458258D01*
X67537677Y-80405512D01*
X67436602Y-80358380D01*
X67336197Y-80311560D01*
X67121460Y-80254021D01*
X66900000Y-80234646D01*
X66678539Y-80254021D01*
X66463802Y-80311560D01*
X66262323Y-80405512D01*
X66080218Y-80533023D01*
X65923023Y-80690218D01*
X65795513Y-80872321D01*
X65742381Y-80986262D01*
X65696623Y-81038437D01*
X65629998Y-81057856D01*
X65563373Y-81038436D01*
X65517617Y-80986260D01*
X65498138Y-80944488D01*
X65464488Y-80872324D01*
X65336977Y-80690219D01*
X65179781Y-80533023D01*
X64997677Y-80405512D01*
X64896602Y-80358380D01*
X64796197Y-80311560D01*
X64581460Y-80254021D01*
X64360000Y-80234646D01*
X64138539Y-80254021D01*
X63923802Y-80311560D01*
X63766565Y-80384882D01*
X63714160Y-80396500D01*
X59281134Y-80396500D01*
X59255353Y-80393790D01*
X59150488Y-80371500D01*
X59150487Y-80371500D01*
X58959513Y-80371500D01*
X58959511Y-80371500D01*
X58772714Y-80411204D01*
X58598248Y-80488881D01*
X58443748Y-80601133D01*
X58315957Y-80743058D01*
X58220472Y-80908443D01*
X58161458Y-81090070D01*
X58141496Y-81280000D01*
X58161458Y-81469929D01*
X58220472Y-81651556D01*
X58315957Y-81816941D01*
X58315960Y-81816944D01*
X58443747Y-81958866D01*
X58598248Y-82071118D01*
X58772714Y-82148795D01*
X58959511Y-82188500D01*
X58959513Y-82188500D01*
X59150487Y-82188500D01*
X59150488Y-82188500D01*
X59255353Y-82166210D01*
X59281134Y-82163500D01*
X62157681Y-82163500D01*
X62213976Y-82177015D01*
X62257999Y-82214615D01*
X62280154Y-82268102D01*
X62275612Y-82325818D01*
X62245362Y-82375181D01*
X58431339Y-86189201D01*
X58416547Y-86201835D01*
X58405569Y-86209811D01*
X58361084Y-86259216D01*
X58356623Y-86263916D01*
X58342528Y-86278013D01*
X58329994Y-86293490D01*
X58325784Y-86298420D01*
X58281294Y-86347832D01*
X58274510Y-86359583D01*
X58263496Y-86375608D01*
X58254953Y-86386158D01*
X58224769Y-86445397D01*
X58221673Y-86451099D01*
X58188435Y-86508670D01*
X58184241Y-86521576D01*
X58176802Y-86539536D01*
X58170637Y-86551636D01*
X58153427Y-86615864D01*
X58151584Y-86622087D01*
X58131045Y-86685298D01*
X58129626Y-86698796D01*
X58126083Y-86717912D01*
X58122570Y-86731026D01*
X58119089Y-86797425D01*
X58118580Y-86803888D01*
X58116500Y-86823688D01*
X58116500Y-86843603D01*
X58116330Y-86850093D01*
X58112850Y-86916493D01*
X58114973Y-86929897D01*
X58116500Y-86949295D01*
X58116500Y-95644527D01*
X58110430Y-95682844D01*
X58106458Y-95695072D01*
X58089560Y-95855843D01*
X58086496Y-95884999D01*
X29000500Y-95884999D01*
X29000500Y-79839999D01*
X32564646Y-79839999D01*
X32584021Y-80061460D01*
X32641560Y-80276197D01*
X32653363Y-80301508D01*
X32735512Y-80477677D01*
X32863023Y-80659781D01*
X33020219Y-80816977D01*
X33202323Y-80944488D01*
X33403804Y-81038440D01*
X33618537Y-81095978D01*
X33840000Y-81115353D01*
X34061463Y-81095978D01*
X34276196Y-81038440D01*
X34477677Y-80944488D01*
X34553009Y-80891740D01*
X35681812Y-80891740D01*
X35746593Y-80937101D01*
X35946718Y-81030420D01*
X36160021Y-81087575D01*
X36380000Y-81106821D01*
X36599978Y-81087575D01*
X36813281Y-81030420D01*
X37013408Y-80937100D01*
X37078187Y-80891740D01*
X36380001Y-80193553D01*
X36380000Y-80193553D01*
X35681812Y-80891740D01*
X34553009Y-80891740D01*
X34659781Y-80816977D01*
X34816977Y-80659781D01*
X34944488Y-80477677D01*
X35002307Y-80353682D01*
X35048064Y-80301507D01*
X35114689Y-80282087D01*
X35181314Y-80301506D01*
X35227071Y-80353683D01*
X35282898Y-80473406D01*
X35328258Y-80538187D01*
X36026446Y-79840001D01*
X36026446Y-79840000D01*
X35328258Y-79141811D01*
X35328258Y-79141812D01*
X35282900Y-79206589D01*
X35227071Y-79326317D01*
X35181314Y-79378493D01*
X35114689Y-79397912D01*
X35048064Y-79378493D01*
X35002307Y-79326317D01*
X34972394Y-79262169D01*
X34944488Y-79202324D01*
X34816977Y-79020219D01*
X34659781Y-78863023D01*
X34553006Y-78788258D01*
X35681811Y-78788258D01*
X36380000Y-79486446D01*
X36380001Y-79486446D01*
X37078187Y-78788258D01*
X37013406Y-78742898D01*
X36813281Y-78649579D01*
X36599978Y-78592424D01*
X36380000Y-78573178D01*
X36160021Y-78592424D01*
X35946719Y-78649578D01*
X35746589Y-78742900D01*
X35681812Y-78788258D01*
X35681811Y-78788258D01*
X34553006Y-78788258D01*
X34477677Y-78735512D01*
X34317253Y-78660705D01*
X34276197Y-78641560D01*
X34061460Y-78584021D01*
X33840000Y-78564646D01*
X33618539Y-78584021D01*
X33403802Y-78641560D01*
X33202323Y-78735512D01*
X33020218Y-78863023D01*
X32863023Y-79020218D01*
X32735512Y-79202323D01*
X32641560Y-79403802D01*
X32584021Y-79618539D01*
X32564646Y-79839999D01*
X29000500Y-79839999D01*
X29000500Y-72224999D01*
X31739646Y-72224999D01*
X31759021Y-72446460D01*
X31816560Y-72661197D01*
X31849661Y-72732182D01*
X31910512Y-72862677D01*
X32038023Y-73044781D01*
X32195219Y-73201977D01*
X32377323Y-73329488D01*
X32578804Y-73423440D01*
X32793537Y-73480978D01*
X33015000Y-73500353D01*
X33236463Y-73480978D01*
X33451196Y-73423440D01*
X33652677Y-73329488D01*
X33834781Y-73201977D01*
X33991977Y-73044781D01*
X34119488Y-72862677D01*
X34213440Y-72661196D01*
X34270978Y-72446463D01*
X34290353Y-72225000D01*
X34270978Y-72003537D01*
X34213440Y-71788804D01*
X34119488Y-71587324D01*
X33991977Y-71405219D01*
X33834781Y-71248023D01*
X33652677Y-71120512D01*
X33544823Y-71070219D01*
X33451197Y-71026560D01*
X33236460Y-70969021D01*
X33015000Y-70949646D01*
X32793539Y-70969021D01*
X32578802Y-71026560D01*
X32377323Y-71120512D01*
X32195218Y-71248023D01*
X32038023Y-71405218D01*
X31910512Y-71587323D01*
X31816560Y-71788802D01*
X31759021Y-72003539D01*
X31739646Y-72224999D01*
X29000500Y-72224999D01*
X29000500Y-70043095D01*
X33287597Y-70043095D01*
X33298569Y-70102970D01*
X33299696Y-70110369D01*
X33307035Y-70170802D01*
X33310713Y-70180500D01*
X33316738Y-70202111D01*
X33318611Y-70212329D01*
X33343597Y-70267848D01*
X33346463Y-70274766D01*
X33364492Y-70322305D01*
X33368047Y-70331677D01*
X33373941Y-70340216D01*
X33384964Y-70359760D01*
X33389224Y-70369225D01*
X33426761Y-70417137D01*
X33431200Y-70423170D01*
X33465782Y-70473270D01*
X33465784Y-70473272D01*
X33465785Y-70473273D01*
X33511370Y-70513658D01*
X33516805Y-70518775D01*
X40715181Y-77717151D01*
X40742061Y-77757379D01*
X40751500Y-77804832D01*
X40751500Y-78720553D01*
X40737489Y-78777810D01*
X40698625Y-78822126D01*
X40640219Y-78863023D01*
X40640215Y-78863026D01*
X40483023Y-79020218D01*
X40355512Y-79202323D01*
X40302382Y-79316261D01*
X40256625Y-79368437D01*
X40190000Y-79387856D01*
X40123375Y-79368437D01*
X40077618Y-79316261D01*
X40042973Y-79241965D01*
X40024488Y-79202324D01*
X39896977Y-79020219D01*
X39739781Y-78863023D01*
X39557677Y-78735512D01*
X39397253Y-78660705D01*
X39356197Y-78641560D01*
X39141460Y-78584021D01*
X38920000Y-78564646D01*
X38698539Y-78584021D01*
X38483802Y-78641560D01*
X38282323Y-78735512D01*
X38100218Y-78863023D01*
X37943023Y-79020218D01*
X37815513Y-79202321D01*
X37757692Y-79326318D01*
X37711934Y-79378493D01*
X37645309Y-79397912D01*
X37578684Y-79378492D01*
X37532928Y-79326316D01*
X37477099Y-79206590D01*
X37431740Y-79141811D01*
X36733553Y-79840000D01*
X36733553Y-79840001D01*
X37431740Y-80538186D01*
X37477097Y-80473412D01*
X37532927Y-80353684D01*
X37578684Y-80301508D01*
X37645309Y-80282088D01*
X37711934Y-80301507D01*
X37757692Y-80353683D01*
X37795084Y-80433869D01*
X37815512Y-80477677D01*
X37943023Y-80659781D01*
X38100219Y-80816977D01*
X38282323Y-80944488D01*
X38483804Y-81038440D01*
X38698537Y-81095978D01*
X38920000Y-81115353D01*
X39141463Y-81095978D01*
X39356196Y-81038440D01*
X39557677Y-80944488D01*
X39739781Y-80816977D01*
X39896977Y-80659781D01*
X40024488Y-80477677D01*
X40077618Y-80363738D01*
X40123375Y-80311563D01*
X40190000Y-80292144D01*
X40256625Y-80311563D01*
X40302381Y-80363738D01*
X40355512Y-80477677D01*
X40483023Y-80659781D01*
X40640219Y-80816977D01*
X40822323Y-80944488D01*
X41023804Y-81038440D01*
X41238537Y-81095978D01*
X41460000Y-81115353D01*
X41681463Y-81095978D01*
X41896196Y-81038440D01*
X42097677Y-80944488D01*
X42279781Y-80816977D01*
X42436977Y-80659781D01*
X42564488Y-80477677D01*
X42617618Y-80363738D01*
X42663375Y-80311563D01*
X42730000Y-80292144D01*
X42796625Y-80311563D01*
X42842381Y-80363738D01*
X42895512Y-80477677D01*
X43023023Y-80659781D01*
X43180219Y-80816977D01*
X43362323Y-80944488D01*
X43563804Y-81038440D01*
X43778537Y-81095978D01*
X44000000Y-81115353D01*
X44221463Y-81095978D01*
X44436196Y-81038440D01*
X44637677Y-80944488D01*
X44819781Y-80816977D01*
X44976977Y-80659781D01*
X45104488Y-80477677D01*
X45157618Y-80363738D01*
X45203375Y-80311563D01*
X45270000Y-80292144D01*
X45336625Y-80311563D01*
X45382381Y-80363738D01*
X45435512Y-80477677D01*
X45563023Y-80659781D01*
X45720219Y-80816977D01*
X45902323Y-80944488D01*
X46103804Y-81038440D01*
X46318537Y-81095978D01*
X46540000Y-81115353D01*
X46761463Y-81095978D01*
X46976196Y-81038440D01*
X47177677Y-80944488D01*
X47359781Y-80816977D01*
X47516977Y-80659781D01*
X47644488Y-80477677D01*
X47697618Y-80363738D01*
X47743375Y-80311563D01*
X47810000Y-80292144D01*
X47876625Y-80311563D01*
X47922381Y-80363738D01*
X47975512Y-80477677D01*
X48103023Y-80659781D01*
X48260219Y-80816977D01*
X48442323Y-80944488D01*
X48643804Y-81038440D01*
X48858537Y-81095978D01*
X49080000Y-81115353D01*
X49301463Y-81095978D01*
X49516196Y-81038440D01*
X49717677Y-80944488D01*
X49899781Y-80816977D01*
X50056977Y-80659781D01*
X50184488Y-80477677D01*
X50237618Y-80363738D01*
X50283375Y-80311563D01*
X50350000Y-80292144D01*
X50416625Y-80311563D01*
X50462381Y-80363738D01*
X50515512Y-80477677D01*
X50643023Y-80659781D01*
X50800219Y-80816977D01*
X50982323Y-80944488D01*
X51183804Y-81038440D01*
X51398537Y-81095978D01*
X51620000Y-81115353D01*
X51841463Y-81095978D01*
X52056196Y-81038440D01*
X52257677Y-80944488D01*
X52439781Y-80816977D01*
X52596977Y-80659781D01*
X52724488Y-80477677D01*
X52777618Y-80363738D01*
X52823375Y-80311563D01*
X52890000Y-80292144D01*
X52956625Y-80311563D01*
X53002381Y-80363738D01*
X53055512Y-80477677D01*
X53183023Y-80659781D01*
X53340219Y-80816977D01*
X53522323Y-80944488D01*
X53723804Y-81038440D01*
X53938537Y-81095978D01*
X54160000Y-81115353D01*
X54381463Y-81095978D01*
X54596196Y-81038440D01*
X54797677Y-80944488D01*
X54979781Y-80816977D01*
X55136977Y-80659781D01*
X55264488Y-80477677D01*
X55358440Y-80276196D01*
X55415978Y-80061463D01*
X55435353Y-79840000D01*
X55415978Y-79618537D01*
X55395629Y-79542594D01*
X55393787Y-79486309D01*
X55417028Y-79435014D01*
X55460560Y-79399288D01*
X55515404Y-79386500D01*
X73883168Y-79386500D01*
X73930621Y-79395939D01*
X73970849Y-79422819D01*
X74573511Y-80025481D01*
X74606891Y-80086323D01*
X74602352Y-80155573D01*
X74561316Y-80211538D01*
X74496637Y-80236690D01*
X74298539Y-80254021D01*
X74083802Y-80311560D01*
X73882323Y-80405512D01*
X73700218Y-80533023D01*
X73543023Y-80690218D01*
X73415512Y-80872323D01*
X73362382Y-80986261D01*
X73316625Y-81038437D01*
X73250000Y-81057856D01*
X73183375Y-81038437D01*
X73137618Y-80986261D01*
X73114694Y-80937101D01*
X73084488Y-80872324D01*
X72956977Y-80690219D01*
X72799781Y-80533023D01*
X72617677Y-80405512D01*
X72516602Y-80358380D01*
X72416197Y-80311560D01*
X72201460Y-80254021D01*
X71980000Y-80234646D01*
X71758539Y-80254021D01*
X71543802Y-80311560D01*
X71342323Y-80405512D01*
X71160218Y-80533023D01*
X71003023Y-80690218D01*
X70875513Y-80872321D01*
X70817692Y-80996318D01*
X70771934Y-81048493D01*
X70705309Y-81067912D01*
X70638684Y-81048492D01*
X70592928Y-80996316D01*
X70537099Y-80876590D01*
X70491740Y-80811811D01*
X69793553Y-81509998D01*
X69793553Y-81509999D01*
X70491740Y-82208186D01*
X70537097Y-82143412D01*
X70592927Y-82023684D01*
X70638684Y-81971508D01*
X70705309Y-81952088D01*
X70771934Y-81971507D01*
X70817692Y-82023683D01*
X70839812Y-82071118D01*
X70875512Y-82147677D01*
X71003023Y-82329781D01*
X71160219Y-82486977D01*
X71342323Y-82614488D01*
X71543804Y-82708440D01*
X71758537Y-82765978D01*
X71980000Y-82785353D01*
X72201463Y-82765978D01*
X72416196Y-82708440D01*
X72617677Y-82614488D01*
X72799781Y-82486977D01*
X72956977Y-82329781D01*
X73084488Y-82147677D01*
X73137618Y-82033738D01*
X73183375Y-81981563D01*
X73250000Y-81962144D01*
X73316625Y-81981563D01*
X73362381Y-82033738D01*
X73415512Y-82147677D01*
X73543023Y-82329781D01*
X73700219Y-82486977D01*
X73882323Y-82614488D01*
X74083804Y-82708440D01*
X74298537Y-82765978D01*
X74520000Y-82785353D01*
X74741463Y-82765978D01*
X74956196Y-82708440D01*
X75157677Y-82614488D01*
X75339781Y-82486977D01*
X75496977Y-82329781D01*
X75624488Y-82147677D01*
X75677618Y-82033738D01*
X75723375Y-81981563D01*
X75790000Y-81962144D01*
X75856625Y-81981563D01*
X75902381Y-82033738D01*
X75955512Y-82147677D01*
X76083023Y-82329781D01*
X76240219Y-82486977D01*
X76422323Y-82614488D01*
X76623804Y-82708440D01*
X76838537Y-82765978D01*
X77060000Y-82785353D01*
X77281463Y-82765978D01*
X77496196Y-82708440D01*
X77697677Y-82614488D01*
X77879781Y-82486977D01*
X78036977Y-82329781D01*
X78164488Y-82147677D01*
X78217618Y-82033738D01*
X78263375Y-81981563D01*
X78330000Y-81962144D01*
X78396625Y-81981563D01*
X78442381Y-82033738D01*
X78495512Y-82147677D01*
X78623023Y-82329781D01*
X78780219Y-82486977D01*
X78962323Y-82614488D01*
X79163804Y-82708440D01*
X79378537Y-82765978D01*
X79600000Y-82785353D01*
X79821463Y-82765978D01*
X80036196Y-82708440D01*
X80237677Y-82614488D01*
X80419781Y-82486977D01*
X80576977Y-82329781D01*
X80704488Y-82147677D01*
X80757618Y-82033738D01*
X80803375Y-81981563D01*
X80870000Y-81962144D01*
X80936625Y-81981563D01*
X80982381Y-82033738D01*
X81035512Y-82147677D01*
X81163023Y-82329781D01*
X81320219Y-82486977D01*
X81502323Y-82614488D01*
X81703804Y-82708440D01*
X81918537Y-82765978D01*
X82140000Y-82785353D01*
X82361463Y-82765978D01*
X82437405Y-82745629D01*
X82493691Y-82743787D01*
X82544986Y-82767028D01*
X82580712Y-82810560D01*
X82593500Y-82865404D01*
X82593500Y-94353168D01*
X82584061Y-94400621D01*
X82557181Y-94440849D01*
X70742849Y-106255181D01*
X70702621Y-106282061D01*
X70655168Y-106291500D01*
X67894505Y-106291500D01*
X67887018Y-106291274D01*
X67826241Y-106287597D01*
X67766366Y-106298569D01*
X67758967Y-106299695D01*
X67698536Y-106307034D01*
X67688832Y-106310714D01*
X67667225Y-106316738D01*
X67657007Y-106318610D01*
X67601497Y-106343593D01*
X67594581Y-106346457D01*
X67537661Y-106368045D01*
X67529111Y-106373946D01*
X67509576Y-106384964D01*
X67500109Y-106389225D01*
X67452192Y-106426765D01*
X67446163Y-106431201D01*
X67396064Y-106465783D01*
X67355693Y-106511352D01*
X67350560Y-106516804D01*
X65867715Y-107999650D01*
X65839202Y-108020942D01*
X65805816Y-108033259D01*
X65652381Y-108065873D01*
X65477916Y-108143549D01*
X65323416Y-108255801D01*
X65195625Y-108397726D01*
X65100140Y-108563111D01*
X65041126Y-108744738D01*
X65021164Y-108934667D01*
X65041126Y-109124597D01*
X65100140Y-109306224D01*
X65195627Y-109471612D01*
X65273616Y-109558226D01*
X65302289Y-109613305D01*
X65300664Y-109675378D01*
X65269148Y-109728880D01*
X62716804Y-112281224D01*
X62711352Y-112286357D01*
X62665783Y-112326728D01*
X62631201Y-112376827D01*
X62626765Y-112382856D01*
X62589225Y-112430773D01*
X62584964Y-112440240D01*
X62573946Y-112459775D01*
X62568045Y-112468325D01*
X62546457Y-112525245D01*
X62543593Y-112532161D01*
X62518610Y-112587671D01*
X62516738Y-112597889D01*
X62510714Y-112619496D01*
X62507035Y-112629196D01*
X62499696Y-112689632D01*
X62498569Y-112697031D01*
X62487597Y-112756904D01*
X62491274Y-112817676D01*
X62491500Y-112825163D01*
X62491500Y-113517500D01*
X62474887Y-113579500D01*
X62429500Y-113624887D01*
X62367500Y-113641500D01*
X62301362Y-113641500D01*
X62274445Y-113644393D01*
X62240794Y-113648011D01*
X62103796Y-113699110D01*
X61986738Y-113786738D01*
X61899110Y-113903796D01*
X61848011Y-114040794D01*
X61844574Y-114072773D01*
X61841500Y-114101362D01*
X61841500Y-115898638D01*
X61843460Y-115916865D01*
X61848011Y-115959205D01*
X61899110Y-116096203D01*
X61986738Y-116213261D01*
X62103796Y-116300889D01*
X62240794Y-116351988D01*
X62240797Y-116351988D01*
X62240799Y-116351989D01*
X62301362Y-116358500D01*
X64098634Y-116358500D01*
X64098638Y-116358500D01*
X64159201Y-116351989D01*
X64159203Y-116351988D01*
X64159205Y-116351988D01*
X64241097Y-116321443D01*
X64296204Y-116300889D01*
X64413261Y-116213261D01*
X64500889Y-116096204D01*
X64546137Y-115974889D01*
X64582089Y-115923677D01*
X64638471Y-115896539D01*
X64700925Y-115900387D01*
X64753548Y-115934241D01*
X64784514Y-115967878D01*
X64816760Y-116002906D01*
X64994424Y-116141189D01*
X65192426Y-116248342D01*
X65405365Y-116321444D01*
X65627431Y-116358500D01*
X65852569Y-116358500D01*
X66074635Y-116321444D01*
X66287574Y-116248342D01*
X66485576Y-116141189D01*
X66663240Y-116002906D01*
X66815722Y-115837268D01*
X66909748Y-115693349D01*
X66953663Y-115652595D01*
X67011562Y-115637188D01*
X67069926Y-115650726D01*
X67115131Y-115690048D01*
X67241892Y-115871080D01*
X67408918Y-116038106D01*
X67602423Y-116173600D01*
X67816507Y-116273430D01*
X68029999Y-116330635D01*
X68030000Y-116330636D01*
X68030000Y-116330635D01*
X68530000Y-116330635D01*
X68743492Y-116273430D01*
X68957576Y-116173600D01*
X69151081Y-116038106D01*
X69318106Y-115871081D01*
X69444868Y-115690048D01*
X69490072Y-115650726D01*
X69548436Y-115637188D01*
X69606335Y-115652595D01*
X69650252Y-115693351D01*
X69744276Y-115837267D01*
X69817369Y-115916665D01*
X69896760Y-116002906D01*
X70074424Y-116141189D01*
X70272426Y-116248342D01*
X70485365Y-116321444D01*
X70707431Y-116358500D01*
X70932569Y-116358500D01*
X71154635Y-116321444D01*
X71367574Y-116248342D01*
X71565576Y-116141189D01*
X71743240Y-116002906D01*
X71895722Y-115837268D01*
X72018860Y-115648791D01*
X72109296Y-115442616D01*
X72158073Y-115250000D01*
X77650000Y-115250000D01*
X77650000Y-115897824D01*
X77656402Y-115957375D01*
X77706647Y-116092089D01*
X77792811Y-116207188D01*
X77907910Y-116293352D01*
X78042624Y-116343597D01*
X78102176Y-116350000D01*
X78750000Y-116350000D01*
X79250000Y-116350000D01*
X79897824Y-116350000D01*
X79957375Y-116343597D01*
X80092089Y-116293352D01*
X80207188Y-116207188D01*
X80293352Y-116092088D01*
X80339680Y-115967878D01*
X80375631Y-115916665D01*
X80432013Y-115889526D01*
X80494467Y-115893374D01*
X80547091Y-115927227D01*
X80584514Y-115967878D01*
X80616760Y-116002906D01*
X80794424Y-116141189D01*
X80992426Y-116248342D01*
X81205365Y-116321444D01*
X81427431Y-116358500D01*
X81652569Y-116358500D01*
X81874635Y-116321444D01*
X82087574Y-116248342D01*
X82285576Y-116141189D01*
X82463240Y-116002906D01*
X82615722Y-115837268D01*
X82738860Y-115648791D01*
X82829296Y-115442616D01*
X82884564Y-115224368D01*
X82903156Y-115000000D01*
X82884564Y-114775632D01*
X82829296Y-114557384D01*
X82738860Y-114351209D01*
X82615722Y-114162732D01*
X82463240Y-113997094D01*
X82285576Y-113858811D01*
X82087574Y-113751658D01*
X82087573Y-113751657D01*
X82087572Y-113751657D01*
X81874636Y-113678556D01*
X81652569Y-113641500D01*
X81427431Y-113641500D01*
X81205363Y-113678556D01*
X80992427Y-113751657D01*
X80794424Y-113858811D01*
X80616759Y-113997094D01*
X80547090Y-114072773D01*
X80494466Y-114106626D01*
X80432012Y-114110473D01*
X80375631Y-114083335D01*
X80339680Y-114032121D01*
X80293352Y-113907911D01*
X80207188Y-113792811D01*
X80092089Y-113706647D01*
X79957375Y-113656402D01*
X79897824Y-113650000D01*
X79250000Y-113650000D01*
X79250000Y-116350000D01*
X78750000Y-116350000D01*
X78750000Y-115250000D01*
X77650000Y-115250000D01*
X72158073Y-115250000D01*
X72164564Y-115224368D01*
X72183156Y-115000000D01*
X72164564Y-114775632D01*
X72158073Y-114750000D01*
X77650000Y-114750000D01*
X78750000Y-114750000D01*
X78750000Y-113650000D01*
X78102176Y-113650000D01*
X78042624Y-113656402D01*
X77907910Y-113706647D01*
X77792811Y-113792811D01*
X77706647Y-113907910D01*
X77656402Y-114042624D01*
X77650000Y-114102176D01*
X77650000Y-114750000D01*
X72158073Y-114750000D01*
X72109296Y-114557384D01*
X72018860Y-114351209D01*
X71895722Y-114162732D01*
X71743240Y-113997094D01*
X71565576Y-113858811D01*
X71367574Y-113751658D01*
X71367573Y-113751657D01*
X71367572Y-113751657D01*
X71154636Y-113678556D01*
X70932569Y-113641500D01*
X70707431Y-113641500D01*
X70485363Y-113678556D01*
X70272427Y-113751657D01*
X70074424Y-113858811D01*
X69896760Y-113997094D01*
X69744275Y-114162734D01*
X69650250Y-114306650D01*
X69606334Y-114347405D01*
X69548435Y-114362812D01*
X69490071Y-114349274D01*
X69444867Y-114309951D01*
X69318109Y-114128921D01*
X69151081Y-113961893D01*
X68957576Y-113826399D01*
X68743492Y-113726569D01*
X68530000Y-113669364D01*
X68530000Y-116330635D01*
X68030000Y-116330635D01*
X68030000Y-113669364D01*
X68029999Y-113669364D01*
X67816507Y-113726569D01*
X67602421Y-113826400D01*
X67408921Y-113961890D01*
X67241893Y-114128918D01*
X67115132Y-114309952D01*
X67069928Y-114349274D01*
X67011564Y-114362812D01*
X66953665Y-114347405D01*
X66909748Y-114306649D01*
X66815723Y-114162732D01*
X66726451Y-114065759D01*
X66663240Y-113997094D01*
X66485576Y-113858811D01*
X66287574Y-113751658D01*
X66287573Y-113751657D01*
X66287572Y-113751657D01*
X66074636Y-113678556D01*
X65852569Y-113641500D01*
X65627431Y-113641500D01*
X65405363Y-113678556D01*
X65192427Y-113751657D01*
X64994424Y-113858811D01*
X64816759Y-113997094D01*
X64753548Y-114065759D01*
X64700924Y-114099612D01*
X64638470Y-114103460D01*
X64582089Y-114076322D01*
X64546138Y-114025110D01*
X64521427Y-113958861D01*
X64500889Y-113903796D01*
X64442951Y-113826400D01*
X64413261Y-113786738D01*
X64296203Y-113699110D01*
X64159205Y-113648011D01*
X64128919Y-113644755D01*
X64098638Y-113641500D01*
X64098634Y-113641500D01*
X64032500Y-113641500D01*
X63970500Y-113624887D01*
X63925113Y-113579500D01*
X63908500Y-113517500D01*
X63908500Y-113144832D01*
X63917939Y-113097379D01*
X63944819Y-113057151D01*
X64001970Y-113000000D01*
X89394559Y-113000000D01*
X89414310Y-113376873D01*
X89473345Y-113749609D01*
X89571021Y-114114142D01*
X89706265Y-114466464D01*
X89877598Y-114802724D01*
X90083134Y-115119221D01*
X90083137Y-115119225D01*
X90320635Y-115412511D01*
X90587489Y-115679365D01*
X90880775Y-115916863D01*
X90880777Y-115916864D01*
X90880778Y-115916865D01*
X91197275Y-116122401D01*
X91533535Y-116293734D01*
X91885857Y-116428978D01*
X92250390Y-116526654D01*
X92436757Y-116556171D01*
X92623129Y-116585690D01*
X92889174Y-116599632D01*
X92905719Y-116600500D01*
X92905720Y-116600500D01*
X93094280Y-116600500D01*
X93094281Y-116600500D01*
X93109910Y-116599680D01*
X93376871Y-116585690D01*
X93619482Y-116547263D01*
X93749609Y-116526654D01*
X93841948Y-116501912D01*
X94114143Y-116428978D01*
X94466465Y-116293734D01*
X94802720Y-116122403D01*
X94802719Y-116122403D01*
X94802724Y-116122401D01*
X94986731Y-116002905D01*
X95119225Y-115916863D01*
X95412511Y-115679365D01*
X95679365Y-115412511D01*
X95916863Y-115119225D01*
X96019633Y-114960972D01*
X96122401Y-114802725D01*
X96234919Y-114581895D01*
X96293734Y-114466465D01*
X96428978Y-114114143D01*
X96526653Y-113749613D01*
X96537908Y-113678556D01*
X96570093Y-113475343D01*
X96585690Y-113376871D01*
X96605441Y-113000000D01*
X96585690Y-112623129D01*
X96546679Y-112376827D01*
X96526654Y-112250390D01*
X96428978Y-111885857D01*
X96293734Y-111533535D01*
X96122401Y-111197275D01*
X95916865Y-110880778D01*
X95916863Y-110880775D01*
X95679365Y-110587489D01*
X95412511Y-110320635D01*
X95119225Y-110083137D01*
X95119223Y-110083136D01*
X95119221Y-110083134D01*
X94802724Y-109877598D01*
X94466464Y-109706265D01*
X94114142Y-109571021D01*
X93749609Y-109473345D01*
X93376873Y-109414310D01*
X93094281Y-109399500D01*
X93094280Y-109399500D01*
X92905720Y-109399500D01*
X92905719Y-109399500D01*
X92623126Y-109414310D01*
X92250390Y-109473345D01*
X91885857Y-109571021D01*
X91533535Y-109706265D01*
X91197275Y-109877598D01*
X90880778Y-110083134D01*
X90587485Y-110320638D01*
X90320638Y-110587485D01*
X90083134Y-110880778D01*
X89877598Y-111197274D01*
X89706265Y-111533535D01*
X89571021Y-111885857D01*
X89473345Y-112250390D01*
X89414310Y-112623126D01*
X89394559Y-113000000D01*
X64001970Y-113000000D01*
X68257151Y-108744819D01*
X68297379Y-108717939D01*
X68344832Y-108708500D01*
X70947761Y-108708500D01*
X70955248Y-108708726D01*
X71016017Y-108712402D01*
X71075918Y-108701424D01*
X71083288Y-108700303D01*
X71143725Y-108692965D01*
X71153422Y-108689287D01*
X71175048Y-108683259D01*
X71185253Y-108681389D01*
X71240774Y-108656400D01*
X71247676Y-108653542D01*
X71288113Y-108638205D01*
X71304599Y-108631954D01*
X71313143Y-108626055D01*
X71332678Y-108615037D01*
X71342150Y-108610775D01*
X71390086Y-108573217D01*
X71396067Y-108568816D01*
X71446197Y-108534215D01*
X71486597Y-108488611D01*
X71491684Y-108483208D01*
X75343870Y-104631022D01*
X75358205Y-104621130D01*
X75357370Y-104620064D01*
X75417156Y-104573223D01*
X75423143Y-104568816D01*
X75473273Y-104534215D01*
X75513673Y-104488611D01*
X75518760Y-104483208D01*
X84483208Y-95518760D01*
X84488611Y-95513673D01*
X84534215Y-95473273D01*
X84568816Y-95423143D01*
X84573222Y-95417157D01*
X84610775Y-95369226D01*
X84615037Y-95359754D01*
X84626055Y-95340219D01*
X84631954Y-95331675D01*
X84638205Y-95315189D01*
X84653542Y-95274752D01*
X84656400Y-95267850D01*
X84681389Y-95212329D01*
X84683259Y-95202123D01*
X84689287Y-95180499D01*
X84689747Y-95179283D01*
X84692965Y-95170801D01*
X84700303Y-95110364D01*
X84701424Y-95102994D01*
X84712402Y-95043093D01*
X84708726Y-94982324D01*
X84708500Y-94974837D01*
X84708500Y-90535833D01*
X84720579Y-90482450D01*
X84754464Y-90439467D01*
X84803553Y-90415259D01*
X84858281Y-90414543D01*
X84994512Y-90443500D01*
X84994513Y-90443500D01*
X85185487Y-90443500D01*
X85185489Y-90443500D01*
X85372285Y-90403795D01*
X85372286Y-90403794D01*
X85372288Y-90403794D01*
X85546752Y-90326118D01*
X85701253Y-90213866D01*
X85829040Y-90071944D01*
X85857115Y-90023314D01*
X85876816Y-89997640D01*
X87563660Y-88310795D01*
X87578451Y-88298163D01*
X87589434Y-88290185D01*
X87633941Y-88240752D01*
X87638372Y-88236083D01*
X87652472Y-88221985D01*
X87665008Y-88206502D01*
X87669218Y-88201574D01*
X87713704Y-88152169D01*
X87720492Y-88140409D01*
X87731508Y-88124383D01*
X87740047Y-88113839D01*
X87770236Y-88054588D01*
X87773296Y-88048950D01*
X87806564Y-87991331D01*
X87810756Y-87978428D01*
X87818205Y-87960447D01*
X87824360Y-87948366D01*
X87824362Y-87948363D01*
X87841574Y-87884121D01*
X87843407Y-87877935D01*
X87863954Y-87814702D01*
X87865373Y-87801198D01*
X87868916Y-87782083D01*
X87872430Y-87768971D01*
X87875909Y-87702568D01*
X87876419Y-87696096D01*
X87878500Y-87676306D01*
X87878500Y-87656397D01*
X87878670Y-87649907D01*
X87882150Y-87583507D01*
X87880027Y-87570103D01*
X87878500Y-87550705D01*
X87878500Y-79454295D01*
X87880027Y-79434896D01*
X87882150Y-79421493D01*
X87878669Y-79355092D01*
X87878500Y-79348603D01*
X87878500Y-79328694D01*
X87878250Y-79326316D01*
X87876417Y-79308884D01*
X87875909Y-79302425D01*
X87873799Y-79262168D01*
X87872430Y-79236029D01*
X87868914Y-79222910D01*
X87865372Y-79203797D01*
X87863954Y-79190298D01*
X87843409Y-79127068D01*
X87841565Y-79120841D01*
X87824363Y-79056641D01*
X87824362Y-79056637D01*
X87818199Y-79044543D01*
X87810757Y-79026575D01*
X87806564Y-79013669D01*
X87795289Y-78994140D01*
X87773323Y-78956094D01*
X87770224Y-78950387D01*
X87740048Y-78891161D01*
X87731504Y-78880611D01*
X87720486Y-78864578D01*
X87713704Y-78852831D01*
X87669211Y-78803417D01*
X87665001Y-78798487D01*
X87652471Y-78783013D01*
X87638398Y-78768940D01*
X87633930Y-78764232D01*
X87589433Y-78714814D01*
X87578447Y-78706832D01*
X87563654Y-78694197D01*
X87279819Y-78410361D01*
X87252939Y-78370133D01*
X87243500Y-78322680D01*
X87243500Y-74249999D01*
X89236835Y-74249999D01*
X89255465Y-74486712D01*
X89310894Y-74717593D01*
X89336885Y-74780341D01*
X89401760Y-74936963D01*
X89525824Y-75139416D01*
X89680031Y-75319969D01*
X89860584Y-75474176D01*
X90063037Y-75598240D01*
X90282406Y-75689105D01*
X90513289Y-75744535D01*
X90750000Y-75763165D01*
X90986711Y-75744535D01*
X91217594Y-75689105D01*
X91436963Y-75598240D01*
X91639416Y-75474176D01*
X91819969Y-75319969D01*
X91974176Y-75139416D01*
X92098240Y-74936963D01*
X92189105Y-74717594D01*
X92244535Y-74486711D01*
X92263165Y-74250000D01*
X92244535Y-74013289D01*
X92189105Y-73782406D01*
X92098240Y-73563037D01*
X91974176Y-73360584D01*
X91819969Y-73180031D01*
X91639416Y-73025824D01*
X91436963Y-72901760D01*
X91296793Y-72843700D01*
X91217593Y-72810894D01*
X90986712Y-72755465D01*
X90750000Y-72736835D01*
X90513287Y-72755465D01*
X90282406Y-72810894D01*
X90063035Y-72901761D01*
X89860585Y-73025823D01*
X89680031Y-73180031D01*
X89525823Y-73360585D01*
X89401761Y-73563035D01*
X89310894Y-73782406D01*
X89255465Y-74013287D01*
X89236835Y-74249999D01*
X87243500Y-74249999D01*
X87243500Y-73389771D01*
X87255579Y-73336388D01*
X87289464Y-73293405D01*
X87338553Y-73269197D01*
X87393281Y-73268481D01*
X87534511Y-73298500D01*
X87534513Y-73298500D01*
X87725487Y-73298500D01*
X87725489Y-73298500D01*
X87912285Y-73258795D01*
X87912286Y-73258794D01*
X87912288Y-73258794D01*
X88086752Y-73181118D01*
X88241253Y-73068866D01*
X88369040Y-72926944D01*
X88371652Y-72922421D01*
X88464527Y-72761556D01*
X88513796Y-72609922D01*
X88523542Y-72579928D01*
X88543504Y-72390000D01*
X88523542Y-72200072D01*
X88464527Y-72018444D01*
X88464527Y-72018443D01*
X88369040Y-71853055D01*
X88240350Y-71710131D01*
X88216736Y-71671597D01*
X88208500Y-71627159D01*
X88208500Y-69519963D01*
X88220580Y-69466579D01*
X88254465Y-69423597D01*
X88303553Y-69399389D01*
X88358280Y-69398673D01*
X88404513Y-69408500D01*
X88595487Y-69408500D01*
X88595489Y-69408500D01*
X88782285Y-69368795D01*
X88782286Y-69368794D01*
X88782288Y-69368794D01*
X88956752Y-69291118D01*
X89111253Y-69178866D01*
X89239040Y-69036944D01*
X89334527Y-68871556D01*
X89373465Y-68751716D01*
X89409027Y-68697346D01*
X89467203Y-68668419D01*
X89532021Y-68672880D01*
X89585684Y-68709503D01*
X89680031Y-68819969D01*
X89860584Y-68974176D01*
X90063037Y-69098240D01*
X90282406Y-69189105D01*
X90513289Y-69244535D01*
X90750000Y-69263165D01*
X90986711Y-69244535D01*
X91217594Y-69189105D01*
X91436963Y-69098240D01*
X91639416Y-68974176D01*
X91819969Y-68819969D01*
X91974176Y-68639416D01*
X92098240Y-68436963D01*
X92189105Y-68217594D01*
X92244535Y-67986711D01*
X92263165Y-67750000D01*
X93736835Y-67750000D01*
X93755465Y-67986712D01*
X93810894Y-68217593D01*
X93826794Y-68255978D01*
X93901760Y-68436963D01*
X94025824Y-68639416D01*
X94180031Y-68819969D01*
X94360584Y-68974176D01*
X94563037Y-69098240D01*
X94782406Y-69189105D01*
X95013289Y-69244535D01*
X95250000Y-69263165D01*
X95486711Y-69244535D01*
X95717594Y-69189105D01*
X95936963Y-69098240D01*
X96139416Y-68974176D01*
X96319969Y-68819969D01*
X96474176Y-68639416D01*
X96598240Y-68436963D01*
X96689105Y-68217594D01*
X96744535Y-67986711D01*
X96763165Y-67750000D01*
X96744535Y-67513289D01*
X96689105Y-67282406D01*
X96598240Y-67063037D01*
X96474176Y-66860584D01*
X96319969Y-66680031D01*
X96139416Y-66525824D01*
X95936963Y-66401760D01*
X95827278Y-66356327D01*
X95717593Y-66310894D01*
X95486712Y-66255465D01*
X95250000Y-66236835D01*
X95013287Y-66255465D01*
X94782406Y-66310894D01*
X94563035Y-66401761D01*
X94360585Y-66525823D01*
X94180031Y-66680031D01*
X94025823Y-66860585D01*
X93901761Y-67063035D01*
X93810894Y-67282406D01*
X93755465Y-67513287D01*
X93736835Y-67750000D01*
X92263165Y-67750000D01*
X92244535Y-67513289D01*
X92189105Y-67282406D01*
X92098240Y-67063037D01*
X91974176Y-66860584D01*
X91819969Y-66680031D01*
X91639416Y-66525824D01*
X91436963Y-66401760D01*
X91327278Y-66356327D01*
X91217593Y-66310894D01*
X90986712Y-66255465D01*
X90750000Y-66236835D01*
X90513287Y-66255465D01*
X90282406Y-66310894D01*
X90063035Y-66401761D01*
X89860585Y-66525823D01*
X89816115Y-66563804D01*
X89680031Y-66680031D01*
X89525824Y-66860584D01*
X89440282Y-67000176D01*
X89438227Y-67003529D01*
X89392237Y-67047401D01*
X89330552Y-67062724D01*
X89269379Y-67045471D01*
X89224790Y-67000176D01*
X89208500Y-66938739D01*
X89208500Y-58061261D01*
X89224790Y-57999824D01*
X89269379Y-57954529D01*
X89330552Y-57937276D01*
X89392237Y-57952599D01*
X89438226Y-57996470D01*
X89525824Y-58139416D01*
X89680031Y-58319969D01*
X89860584Y-58474176D01*
X90063037Y-58598240D01*
X90282406Y-58689105D01*
X90513289Y-58744535D01*
X90750000Y-58763165D01*
X90986711Y-58744535D01*
X91217594Y-58689105D01*
X91436963Y-58598240D01*
X91639416Y-58474176D01*
X91819969Y-58319969D01*
X91974176Y-58139416D01*
X92098240Y-57936963D01*
X92189105Y-57717594D01*
X92244535Y-57486711D01*
X92263165Y-57250000D01*
X92263165Y-57249999D01*
X93736835Y-57249999D01*
X93755465Y-57486712D01*
X93810894Y-57717593D01*
X93852816Y-57818802D01*
X93901760Y-57936963D01*
X94025824Y-58139416D01*
X94180031Y-58319969D01*
X94360584Y-58474176D01*
X94563037Y-58598240D01*
X94782406Y-58689105D01*
X95013289Y-58744535D01*
X95250000Y-58763165D01*
X95486711Y-58744535D01*
X95717594Y-58689105D01*
X95936963Y-58598240D01*
X96139416Y-58474176D01*
X96319969Y-58319969D01*
X96474176Y-58139416D01*
X96598240Y-57936963D01*
X96689105Y-57717594D01*
X96744535Y-57486711D01*
X96763165Y-57250000D01*
X96744535Y-57013289D01*
X96689105Y-56782406D01*
X96598240Y-56563037D01*
X96474176Y-56360584D01*
X96319969Y-56180031D01*
X96139416Y-56025824D01*
X95936963Y-55901760D01*
X95827278Y-55856327D01*
X95717593Y-55810894D01*
X95486712Y-55755465D01*
X95250000Y-55736835D01*
X95013287Y-55755465D01*
X94782406Y-55810894D01*
X94563035Y-55901761D01*
X94360585Y-56025823D01*
X94180031Y-56180031D01*
X94025823Y-56360585D01*
X93901761Y-56563035D01*
X93810894Y-56782406D01*
X93755465Y-57013287D01*
X93736835Y-57249999D01*
X92263165Y-57249999D01*
X92244535Y-57013289D01*
X92189105Y-56782406D01*
X92098240Y-56563037D01*
X91974176Y-56360584D01*
X91819969Y-56180031D01*
X91639416Y-56025824D01*
X91436963Y-55901760D01*
X91327278Y-55856327D01*
X91217593Y-55810894D01*
X90986712Y-55755465D01*
X90750000Y-55736835D01*
X90513287Y-55755465D01*
X90282406Y-55810894D01*
X90063035Y-55901761D01*
X89860585Y-56025823D01*
X89680031Y-56180031D01*
X89525823Y-56360585D01*
X89477930Y-56438739D01*
X89440282Y-56500176D01*
X89438227Y-56503529D01*
X89392237Y-56547401D01*
X89330552Y-56562724D01*
X89269379Y-56545471D01*
X89224790Y-56500176D01*
X89208500Y-56438739D01*
X89208500Y-51561261D01*
X89224790Y-51499824D01*
X89269379Y-51454529D01*
X89330552Y-51437276D01*
X89392237Y-51452599D01*
X89438226Y-51496470D01*
X89525824Y-51639416D01*
X89680031Y-51819969D01*
X89860584Y-51974176D01*
X90063037Y-52098240D01*
X90282406Y-52189105D01*
X90513289Y-52244535D01*
X90750000Y-52263165D01*
X90986711Y-52244535D01*
X91217594Y-52189105D01*
X91436963Y-52098240D01*
X91639416Y-51974176D01*
X91819969Y-51819969D01*
X91974176Y-51639416D01*
X92098240Y-51436963D01*
X92189105Y-51217594D01*
X92244535Y-50986711D01*
X92263165Y-50750000D01*
X93736835Y-50750000D01*
X93755465Y-50986712D01*
X93810894Y-51217593D01*
X93844151Y-51297881D01*
X93901760Y-51436963D01*
X94025824Y-51639416D01*
X94180031Y-51819969D01*
X94360584Y-51974176D01*
X94563037Y-52098240D01*
X94782406Y-52189105D01*
X95013289Y-52244535D01*
X95250000Y-52263165D01*
X95486711Y-52244535D01*
X95717594Y-52189105D01*
X95936963Y-52098240D01*
X96139416Y-51974176D01*
X96319969Y-51819969D01*
X96474176Y-51639416D01*
X96598240Y-51436963D01*
X96689105Y-51217594D01*
X96744535Y-50986711D01*
X96763165Y-50750000D01*
X96744535Y-50513289D01*
X96689105Y-50282406D01*
X96598240Y-50063037D01*
X96474176Y-49860584D01*
X96319969Y-49680031D01*
X96139416Y-49525824D01*
X95936963Y-49401760D01*
X95799526Y-49344832D01*
X95717593Y-49310894D01*
X95486712Y-49255465D01*
X95250000Y-49236835D01*
X95013287Y-49255465D01*
X94782406Y-49310894D01*
X94595162Y-49388453D01*
X94572371Y-49397894D01*
X94563035Y-49401761D01*
X94360585Y-49525823D01*
X94180031Y-49680031D01*
X94025823Y-49860585D01*
X93901761Y-50063035D01*
X93810894Y-50282406D01*
X93755465Y-50513287D01*
X93736835Y-50750000D01*
X92263165Y-50750000D01*
X92244535Y-50513289D01*
X92189105Y-50282406D01*
X92098240Y-50063037D01*
X91974176Y-49860584D01*
X91819969Y-49680031D01*
X91676966Y-49557895D01*
X91644890Y-49515521D01*
X91633500Y-49463607D01*
X91633500Y-48732320D01*
X91642939Y-48684867D01*
X91669819Y-48644639D01*
X91769639Y-48544819D01*
X91809867Y-48517939D01*
X91857320Y-48508500D01*
X95805705Y-48508500D01*
X95825103Y-48510026D01*
X95838507Y-48512150D01*
X95904907Y-48508669D01*
X95911397Y-48508500D01*
X95931306Y-48508500D01*
X95951111Y-48506417D01*
X95957568Y-48505909D01*
X96023971Y-48502430D01*
X96037083Y-48498916D01*
X96056198Y-48495373D01*
X96069702Y-48493954D01*
X96132952Y-48473401D01*
X96139121Y-48471574D01*
X96203363Y-48454362D01*
X96209789Y-48451087D01*
X96215447Y-48448205D01*
X96233428Y-48440756D01*
X96246331Y-48436564D01*
X96303950Y-48403296D01*
X96309588Y-48400236D01*
X96368839Y-48370047D01*
X96379383Y-48361508D01*
X96395423Y-48350485D01*
X96405213Y-48344833D01*
X96407169Y-48343704D01*
X96456619Y-48299177D01*
X96461464Y-48295040D01*
X96476986Y-48282472D01*
X96491094Y-48268362D01*
X96495763Y-48263931D01*
X96545185Y-48219434D01*
X96553169Y-48208443D01*
X96565794Y-48193662D01*
X99628662Y-45130794D01*
X99643451Y-45118163D01*
X99654434Y-45110185D01*
X99698931Y-45060763D01*
X99703362Y-45056094D01*
X99717472Y-45041986D01*
X99730040Y-45026464D01*
X99734177Y-45021619D01*
X99778704Y-44972169D01*
X99785485Y-44960422D01*
X99796508Y-44944383D01*
X99805047Y-44933839D01*
X99835236Y-44874588D01*
X99838296Y-44868950D01*
X99871564Y-44811331D01*
X99875756Y-44798428D01*
X99883205Y-44780447D01*
X99889360Y-44768366D01*
X99889362Y-44768363D01*
X99906574Y-44704121D01*
X99908407Y-44697935D01*
X99928954Y-44634702D01*
X99930373Y-44621198D01*
X99933916Y-44602083D01*
X99937430Y-44588971D01*
X99940909Y-44522568D01*
X99941419Y-44516096D01*
X99943500Y-44496306D01*
X99943500Y-44476397D01*
X99943670Y-44469907D01*
X99944686Y-44450512D01*
X99947150Y-44403507D01*
X99945027Y-44390103D01*
X99943500Y-44370705D01*
X99943500Y-34369295D01*
X99945027Y-34349896D01*
X99947150Y-34336493D01*
X99943669Y-34270092D01*
X99943500Y-34263603D01*
X99943500Y-34243694D01*
X99942836Y-34237382D01*
X99941417Y-34223884D01*
X99940909Y-34217425D01*
X99940461Y-34208882D01*
X99937430Y-34151029D01*
X99933914Y-34137910D01*
X99930372Y-34118797D01*
X99928954Y-34105298D01*
X99908409Y-34042068D01*
X99906565Y-34035841D01*
X99889363Y-33971641D01*
X99889362Y-33971637D01*
X99883199Y-33959543D01*
X99875757Y-33941575D01*
X99871564Y-33928669D01*
X99871562Y-33928665D01*
X99838323Y-33871094D01*
X99835224Y-33865387D01*
X99805048Y-33806161D01*
X99796504Y-33795611D01*
X99785486Y-33779578D01*
X99778704Y-33767831D01*
X99734211Y-33718417D01*
X99730001Y-33713487D01*
X99717471Y-33698013D01*
X99703398Y-33683940D01*
X99698930Y-33679232D01*
X99654433Y-33629814D01*
X99643447Y-33621832D01*
X99628654Y-33609197D01*
X97560798Y-31541340D01*
X97548159Y-31526542D01*
X97542806Y-31519174D01*
X97540185Y-31515566D01*
X97490775Y-31471077D01*
X97486066Y-31466608D01*
X97471988Y-31452530D01*
X97471986Y-31452528D01*
X97456490Y-31439979D01*
X97451581Y-31435787D01*
X97409684Y-31398062D01*
X97402168Y-31391295D01*
X97390409Y-31384506D01*
X97374381Y-31373490D01*
X97363839Y-31364953D01*
X97363837Y-31364952D01*
X97363836Y-31364951D01*
X97304603Y-31334770D01*
X97298914Y-31331681D01*
X97260042Y-31309238D01*
X97241328Y-31298434D01*
X97228426Y-31294242D01*
X97210454Y-31286798D01*
X97198361Y-31280637D01*
X97134140Y-31263428D01*
X97127918Y-31261585D01*
X97064702Y-31241045D01*
X97051209Y-31239627D01*
X97032084Y-31236083D01*
X97018970Y-31232569D01*
X96952575Y-31229089D01*
X96946112Y-31228580D01*
X96926312Y-31226500D01*
X96926306Y-31226500D01*
X96906397Y-31226500D01*
X96899907Y-31226330D01*
X96833507Y-31222850D01*
X96833506Y-31222850D01*
X96820103Y-31224973D01*
X96800705Y-31226500D01*
X85663620Y-31226500D01*
X85616167Y-31217061D01*
X85575939Y-31190181D01*
X85518784Y-31133026D01*
X85518781Y-31133023D01*
X85336677Y-31005512D01*
X85223372Y-30952677D01*
X85135197Y-30911560D01*
X84920460Y-30854021D01*
X84699000Y-30834646D01*
X84477539Y-30854021D01*
X84262802Y-30911560D01*
X84061323Y-31005512D01*
X83879218Y-31133023D01*
X83722023Y-31290218D01*
X83594512Y-31472323D01*
X83500560Y-31673802D01*
X83443021Y-31888539D01*
X83425097Y-32093416D01*
X83413951Y-32135014D01*
X83389250Y-32170290D01*
X82616338Y-32943202D01*
X82601546Y-32955837D01*
X82590566Y-32963814D01*
X82546084Y-33013216D01*
X82541623Y-33017916D01*
X82527528Y-33032013D01*
X82514994Y-33047490D01*
X82510784Y-33052420D01*
X82466294Y-33101832D01*
X82459510Y-33113583D01*
X82448496Y-33129608D01*
X82439953Y-33140158D01*
X82409769Y-33199397D01*
X82406673Y-33205099D01*
X82373435Y-33262670D01*
X82369241Y-33275576D01*
X82361802Y-33293536D01*
X82355637Y-33305636D01*
X82338427Y-33369864D01*
X82336584Y-33376087D01*
X82316045Y-33439298D01*
X82314626Y-33452796D01*
X82311083Y-33471912D01*
X82307570Y-33485026D01*
X82304089Y-33551425D01*
X82303580Y-33557888D01*
X82301500Y-33577688D01*
X82301500Y-33597603D01*
X82301330Y-33604092D01*
X82300701Y-33616100D01*
X82297850Y-33670493D01*
X82299973Y-33683897D01*
X82301500Y-33703295D01*
X82301500Y-53557680D01*
X82292061Y-53605133D01*
X82265181Y-53645361D01*
X81346339Y-54564201D01*
X81331547Y-54576835D01*
X81320569Y-54584811D01*
X81276084Y-54634216D01*
X81271623Y-54638916D01*
X81257528Y-54653013D01*
X81244994Y-54668490D01*
X81240784Y-54673420D01*
X81196294Y-54722832D01*
X81189510Y-54734583D01*
X81178496Y-54750608D01*
X81169953Y-54761158D01*
X81139769Y-54820397D01*
X81136673Y-54826099D01*
X81103435Y-54883670D01*
X81099241Y-54896576D01*
X81091802Y-54914536D01*
X81085637Y-54926636D01*
X81068427Y-54990864D01*
X81066584Y-54997087D01*
X81046045Y-55060298D01*
X81044626Y-55073796D01*
X81041083Y-55092912D01*
X81037570Y-55106026D01*
X81034089Y-55172425D01*
X81033580Y-55178888D01*
X81031500Y-55198688D01*
X81031500Y-55218603D01*
X81031330Y-55225093D01*
X81027850Y-55291493D01*
X81029973Y-55304897D01*
X81031500Y-55324295D01*
X81031500Y-58030705D01*
X81029973Y-58050104D01*
X81027850Y-58063506D01*
X81031330Y-58129907D01*
X81031500Y-58136397D01*
X81031500Y-58156312D01*
X81033580Y-58176112D01*
X81034089Y-58182575D01*
X81037569Y-58248970D01*
X81041083Y-58262084D01*
X81044627Y-58281209D01*
X81046045Y-58294702D01*
X81066585Y-58357918D01*
X81068428Y-58364140D01*
X81085637Y-58428361D01*
X81091798Y-58440454D01*
X81099242Y-58458426D01*
X81103434Y-58471328D01*
X81106397Y-58476460D01*
X81136681Y-58528914D01*
X81139770Y-58534603D01*
X81163002Y-58580197D01*
X81169953Y-58593839D01*
X81178490Y-58604381D01*
X81189506Y-58620409D01*
X81195682Y-58631107D01*
X81196296Y-58632169D01*
X81240787Y-58681581D01*
X81244979Y-58686490D01*
X81257528Y-58701986D01*
X81257530Y-58701988D01*
X81271608Y-58716066D01*
X81276077Y-58720775D01*
X81296079Y-58742990D01*
X81320566Y-58770185D01*
X81331545Y-58778162D01*
X81346340Y-58790798D01*
X82504201Y-59948659D01*
X82516839Y-59963456D01*
X82524814Y-59974434D01*
X82574223Y-60018921D01*
X82578932Y-60023390D01*
X82593014Y-60037472D01*
X82608505Y-60050017D01*
X82613420Y-60054214D01*
X82638111Y-60076446D01*
X82662831Y-60098704D01*
X82674583Y-60105489D01*
X82690617Y-60116508D01*
X82701161Y-60125047D01*
X82760388Y-60155224D01*
X82766086Y-60158318D01*
X82823666Y-60191563D01*
X82836568Y-60195755D01*
X82854546Y-60203202D01*
X82866636Y-60209362D01*
X82930842Y-60226565D01*
X82937068Y-60228409D01*
X82961508Y-60236350D01*
X83000298Y-60248954D01*
X83013797Y-60250372D01*
X83032910Y-60253914D01*
X83046029Y-60257430D01*
X83112417Y-60260908D01*
X83118884Y-60261417D01*
X83138694Y-60263500D01*
X83158616Y-60263500D01*
X83165105Y-60263670D01*
X83231493Y-60267149D01*
X83242937Y-60265336D01*
X83244899Y-60265026D01*
X83264294Y-60263500D01*
X83275380Y-60263500D01*
X83322833Y-60272939D01*
X83363061Y-60299818D01*
X83420219Y-60356977D01*
X83602323Y-60484488D01*
X83683293Y-60522245D01*
X83716260Y-60537618D01*
X83768436Y-60583375D01*
X83787855Y-60650000D01*
X83768436Y-60716625D01*
X83716260Y-60762382D01*
X83602323Y-60815512D01*
X83420218Y-60943023D01*
X83263023Y-61100218D01*
X83135512Y-61282323D01*
X83041560Y-61483802D01*
X82984021Y-61698539D01*
X82964646Y-61920000D01*
X82984021Y-62141460D01*
X83041560Y-62356197D01*
X83042413Y-62358026D01*
X83135512Y-62557677D01*
X83263023Y-62739781D01*
X83420219Y-62896977D01*
X83602323Y-63024488D01*
X83704732Y-63072242D01*
X83726316Y-63082307D01*
X83778492Y-63128064D01*
X83797911Y-63194689D01*
X83778492Y-63261314D01*
X83726316Y-63307071D01*
X83606589Y-63362900D01*
X83541812Y-63408258D01*
X83541811Y-63408258D01*
X84240000Y-64106446D01*
X84240001Y-64106446D01*
X84938187Y-63408258D01*
X84873406Y-63362898D01*
X84753683Y-63307071D01*
X84701506Y-63261314D01*
X84682087Y-63194689D01*
X84701507Y-63128064D01*
X84753682Y-63082307D01*
X84877677Y-63024488D01*
X85059781Y-62896977D01*
X85216977Y-62739781D01*
X85344488Y-62557677D01*
X85438440Y-62356196D01*
X85495978Y-62141463D01*
X85515353Y-61920000D01*
X85495978Y-61698537D01*
X85438440Y-61483804D01*
X85344488Y-61282324D01*
X85216977Y-61100219D01*
X85059781Y-60943023D01*
X84877677Y-60815512D01*
X84763738Y-60762381D01*
X84711563Y-60716625D01*
X84692144Y-60650000D01*
X84711563Y-60583375D01*
X84763739Y-60537618D01*
X84877677Y-60484488D01*
X85059781Y-60356977D01*
X85216977Y-60199781D01*
X85344488Y-60017677D01*
X85438440Y-59816196D01*
X85495978Y-59601463D01*
X85515353Y-59380000D01*
X85495978Y-59158537D01*
X85438440Y-58943804D01*
X85344488Y-58742324D01*
X85216977Y-58560219D01*
X85059781Y-58403023D01*
X84877677Y-58275512D01*
X84877676Y-58275511D01*
X84877674Y-58275510D01*
X84763739Y-58222381D01*
X84711563Y-58176623D01*
X84692144Y-58109998D01*
X84711564Y-58043373D01*
X84763738Y-57997618D01*
X84877677Y-57944488D01*
X85059781Y-57816977D01*
X85216977Y-57659781D01*
X85344488Y-57477677D01*
X85438440Y-57276196D01*
X85495978Y-57061463D01*
X85515353Y-56840000D01*
X85513558Y-56819488D01*
X85498854Y-56651408D01*
X85495978Y-56618537D01*
X85438440Y-56403804D01*
X85344488Y-56202324D01*
X85216977Y-56020219D01*
X85059781Y-55863023D01*
X84877677Y-55735512D01*
X84784781Y-55692194D01*
X84676197Y-55641560D01*
X84461460Y-55584021D01*
X84240000Y-55564646D01*
X84018539Y-55584021D01*
X83803802Y-55641560D01*
X83602323Y-55735512D01*
X83420218Y-55863023D01*
X83263023Y-56020218D01*
X83135512Y-56202323D01*
X83036975Y-56413636D01*
X83035734Y-56413057D01*
X83013922Y-56452816D01*
X82964910Y-56485564D01*
X82906314Y-56491981D01*
X82851376Y-56470617D01*
X82812511Y-56426299D01*
X82798500Y-56369042D01*
X82798500Y-55662320D01*
X82807939Y-55614867D01*
X82834819Y-55574639D01*
X83059459Y-55349999D01*
X83753662Y-54655794D01*
X83768451Y-54643163D01*
X83779434Y-54635185D01*
X83823931Y-54585763D01*
X83828362Y-54581094D01*
X83842472Y-54566986D01*
X83855040Y-54551464D01*
X83859177Y-54546619D01*
X83903704Y-54497169D01*
X83910485Y-54485422D01*
X83921508Y-54469383D01*
X83930047Y-54458839D01*
X83960236Y-54399588D01*
X83963296Y-54393950D01*
X83996564Y-54336331D01*
X84000756Y-54323428D01*
X84008205Y-54305447D01*
X84014360Y-54293366D01*
X84014362Y-54293363D01*
X84031574Y-54229121D01*
X84033407Y-54222935D01*
X84053954Y-54159702D01*
X84055373Y-54146198D01*
X84058916Y-54127083D01*
X84062430Y-54113971D01*
X84065908Y-54047584D01*
X84066418Y-54041107D01*
X84068500Y-54021307D01*
X84068500Y-54001384D01*
X84068670Y-53994895D01*
X84070099Y-53967618D01*
X84072149Y-53928507D01*
X84070026Y-53915101D01*
X84068500Y-53895706D01*
X84068500Y-51192476D01*
X84083786Y-51132834D01*
X84125875Y-51087896D01*
X84184390Y-51068742D01*
X84244904Y-51080094D01*
X84262799Y-51088438D01*
X84262800Y-51088438D01*
X84262804Y-51088440D01*
X84477537Y-51145978D01*
X84699000Y-51165353D01*
X84920463Y-51145978D01*
X85135196Y-51088440D01*
X85336677Y-50994488D01*
X85518781Y-50866977D01*
X85675977Y-50709781D01*
X85803488Y-50527677D01*
X85897440Y-50326196D01*
X85954978Y-50111463D01*
X85974353Y-49890000D01*
X85954978Y-49668537D01*
X85897440Y-49453804D01*
X85803488Y-49252324D01*
X85675977Y-49070219D01*
X85518781Y-48913023D01*
X85336677Y-48785512D01*
X85222738Y-48732381D01*
X85170563Y-48686625D01*
X85151144Y-48620000D01*
X85170563Y-48553375D01*
X85222739Y-48507618D01*
X85225310Y-48506419D01*
X85336677Y-48454488D01*
X85518781Y-48326977D01*
X85675977Y-48169781D01*
X85803488Y-47987677D01*
X85897440Y-47786196D01*
X85954978Y-47571463D01*
X85974353Y-47350000D01*
X85954978Y-47128537D01*
X85897440Y-46913804D01*
X85803488Y-46712324D01*
X85675977Y-46530219D01*
X85518781Y-46373023D01*
X85336677Y-46245512D01*
X85222738Y-46192381D01*
X85170563Y-46146625D01*
X85151144Y-46080000D01*
X85170563Y-46013375D01*
X85222739Y-45967618D01*
X85336677Y-45914488D01*
X85518781Y-45786977D01*
X85675977Y-45629781D01*
X85803488Y-45447677D01*
X85897440Y-45246196D01*
X85954978Y-45031463D01*
X85974353Y-44810000D01*
X85954978Y-44588537D01*
X85897440Y-44373804D01*
X85803488Y-44172324D01*
X85675977Y-43990219D01*
X85518781Y-43833023D01*
X85336677Y-43705512D01*
X85222738Y-43652381D01*
X85170563Y-43606625D01*
X85151144Y-43540000D01*
X85170563Y-43473375D01*
X85222739Y-43427618D01*
X85336677Y-43374488D01*
X85518781Y-43246977D01*
X85675977Y-43089781D01*
X85803488Y-42907677D01*
X85897440Y-42706196D01*
X85954978Y-42491463D01*
X85955817Y-42481872D01*
X85980967Y-42417194D01*
X86036932Y-42376156D01*
X86106182Y-42371616D01*
X86167026Y-42404996D01*
X86755181Y-42993151D01*
X86782061Y-43033379D01*
X86791500Y-43080832D01*
X86791500Y-66319794D01*
X86779421Y-66373177D01*
X86745536Y-66416160D01*
X86696447Y-66440368D01*
X86641719Y-66441084D01*
X86455489Y-66401500D01*
X86455487Y-66401500D01*
X86264513Y-66401500D01*
X86264511Y-66401500D01*
X86077714Y-66441204D01*
X85903248Y-66518881D01*
X85841421Y-66563802D01*
X85748747Y-66631134D01*
X85748745Y-66631135D01*
X85748745Y-66631136D01*
X85676324Y-66711567D01*
X85620945Y-66747017D01*
X85555227Y-66749168D01*
X85497649Y-66717415D01*
X85464400Y-66660688D01*
X85438440Y-66563804D01*
X85344488Y-66362324D01*
X85216977Y-66180219D01*
X85059781Y-66023023D01*
X84877677Y-65895512D01*
X84833689Y-65875000D01*
X84753683Y-65837692D01*
X84701507Y-65791934D01*
X84682088Y-65725309D01*
X84701508Y-65658684D01*
X84753684Y-65612927D01*
X84873412Y-65557097D01*
X84938187Y-65511740D01*
X84240001Y-64813553D01*
X84240000Y-64813553D01*
X83541812Y-65511740D01*
X83606592Y-65557100D01*
X83726316Y-65612928D01*
X83778492Y-65658684D01*
X83797912Y-65725309D01*
X83778493Y-65791934D01*
X83726318Y-65837692D01*
X83602321Y-65895513D01*
X83420218Y-66023023D01*
X83263023Y-66180218D01*
X83135512Y-66362323D01*
X83041560Y-66563802D01*
X82984021Y-66778539D01*
X82964646Y-66999999D01*
X82984021Y-67221460D01*
X83041560Y-67436197D01*
X83077508Y-67513287D01*
X83135512Y-67637677D01*
X83263023Y-67819781D01*
X83420219Y-67976977D01*
X83602323Y-68104488D01*
X83683293Y-68142245D01*
X83716260Y-68157618D01*
X83768436Y-68203375D01*
X83787855Y-68270000D01*
X83768436Y-68336625D01*
X83716260Y-68382382D01*
X83602323Y-68435512D01*
X83420218Y-68563023D01*
X83263023Y-68720218D01*
X83135512Y-68902323D01*
X83041560Y-69103802D01*
X82984021Y-69318539D01*
X82964646Y-69540000D01*
X82984021Y-69761460D01*
X83041560Y-69976197D01*
X83072755Y-70043095D01*
X83135512Y-70177677D01*
X83263023Y-70359781D01*
X83420219Y-70516977D01*
X83602323Y-70644488D01*
X83683293Y-70682245D01*
X83716260Y-70697618D01*
X83768436Y-70743375D01*
X83787855Y-70810000D01*
X83768436Y-70876625D01*
X83716260Y-70922382D01*
X83602323Y-70975512D01*
X83420218Y-71103023D01*
X83263023Y-71260218D01*
X83135512Y-71442323D01*
X83041560Y-71643802D01*
X82984021Y-71858539D01*
X82964646Y-72080000D01*
X82984021Y-72301460D01*
X83041560Y-72516197D01*
X83071279Y-72579929D01*
X83135512Y-72717677D01*
X83263023Y-72899781D01*
X83420219Y-73056977D01*
X83602323Y-73184488D01*
X83683293Y-73222245D01*
X83716260Y-73237618D01*
X83768436Y-73283375D01*
X83787855Y-73350000D01*
X83768436Y-73416625D01*
X83716260Y-73462382D01*
X83602323Y-73515512D01*
X83420218Y-73643023D01*
X83263023Y-73800218D01*
X83135512Y-73982323D01*
X83041560Y-74183802D01*
X82984021Y-74398539D01*
X82964646Y-74620000D01*
X82984021Y-74841460D01*
X83041560Y-75056197D01*
X83068841Y-75114701D01*
X83135512Y-75257677D01*
X83263023Y-75439781D01*
X83420219Y-75596977D01*
X83602323Y-75724488D01*
X83683293Y-75762245D01*
X83716260Y-75777618D01*
X83768436Y-75823375D01*
X83787855Y-75890000D01*
X83768436Y-75956625D01*
X83716260Y-76002382D01*
X83602323Y-76055512D01*
X83420218Y-76183023D01*
X83263023Y-76340218D01*
X83135512Y-76522323D01*
X83041560Y-76723802D01*
X82984021Y-76938539D01*
X82964646Y-77160000D01*
X82984021Y-77381460D01*
X83041560Y-77596197D01*
X83089889Y-77699838D01*
X83135512Y-77797677D01*
X83263023Y-77979781D01*
X83420219Y-78136977D01*
X83602323Y-78264488D01*
X83803804Y-78358440D01*
X84018537Y-78415978D01*
X84240000Y-78435353D01*
X84461463Y-78415978D01*
X84676196Y-78358440D01*
X84877677Y-78264488D01*
X85059781Y-78136977D01*
X85216977Y-77979781D01*
X85250927Y-77931294D01*
X85298142Y-77890970D01*
X85358990Y-77878591D01*
X85418210Y-77897263D01*
X85460953Y-77942305D01*
X85476500Y-78002421D01*
X85476500Y-78660705D01*
X85474973Y-78680103D01*
X85472850Y-78693507D01*
X85474703Y-78728861D01*
X85476330Y-78759907D01*
X85476500Y-78766397D01*
X85476500Y-78786312D01*
X85478580Y-78806112D01*
X85479089Y-78812575D01*
X85482569Y-78878970D01*
X85486083Y-78892084D01*
X85489627Y-78911209D01*
X85491045Y-78924702D01*
X85511585Y-78987918D01*
X85513428Y-78994140D01*
X85530637Y-79058361D01*
X85536798Y-79070454D01*
X85544242Y-79088426D01*
X85548434Y-79101328D01*
X85548436Y-79101331D01*
X85581681Y-79158914D01*
X85584770Y-79164603D01*
X85614951Y-79223836D01*
X85614953Y-79223839D01*
X85623490Y-79234381D01*
X85634506Y-79250409D01*
X85641296Y-79262169D01*
X85685787Y-79311581D01*
X85689979Y-79316490D01*
X85702528Y-79331986D01*
X85702530Y-79331988D01*
X85716608Y-79346066D01*
X85721077Y-79350775D01*
X85746033Y-79378492D01*
X85765566Y-79400185D01*
X85776545Y-79408162D01*
X85791340Y-79420798D01*
X86075181Y-79704638D01*
X86102061Y-79744866D01*
X86111500Y-79792319D01*
X86111500Y-87212681D01*
X86102061Y-87260134D01*
X86075181Y-87300362D01*
X84920181Y-88455361D01*
X84870818Y-88485611D01*
X84813102Y-88490153D01*
X84759615Y-88467998D01*
X84722015Y-88423975D01*
X84708500Y-88367680D01*
X84708500Y-80426641D01*
X84708726Y-80419154D01*
X84710260Y-80393790D01*
X84712402Y-80358380D01*
X84701425Y-80298483D01*
X84700301Y-80291093D01*
X84699208Y-80282088D01*
X84692965Y-80230671D01*
X84689288Y-80220975D01*
X84683260Y-80199352D01*
X84681389Y-80189142D01*
X84656404Y-80133631D01*
X84653549Y-80126741D01*
X84631954Y-80069797D01*
X84631952Y-80069794D01*
X84626060Y-80061258D01*
X84615034Y-80041712D01*
X84610775Y-80032247D01*
X84573234Y-79984329D01*
X84568801Y-79978304D01*
X84534215Y-79928198D01*
X84488647Y-79887829D01*
X84483193Y-79882695D01*
X79517303Y-74916805D01*
X79512186Y-74911370D01*
X79471801Y-74865785D01*
X79471800Y-74865784D01*
X79471798Y-74865782D01*
X79421698Y-74831200D01*
X79415665Y-74826761D01*
X79367753Y-74789224D01*
X79358288Y-74784964D01*
X79338744Y-74773941D01*
X79330205Y-74768047D01*
X79330203Y-74768046D01*
X79273295Y-74746463D01*
X79266376Y-74743597D01*
X79210857Y-74718611D01*
X79200639Y-74716738D01*
X79179028Y-74710713D01*
X79169330Y-74707035D01*
X79108897Y-74699696D01*
X79101498Y-74698569D01*
X79041623Y-74687597D01*
X78980852Y-74691274D01*
X78973365Y-74691500D01*
X76844832Y-74691500D01*
X76797379Y-74682061D01*
X76757151Y-74655181D01*
X73961970Y-71860000D01*
X75598594Y-71860000D01*
X75618197Y-72159095D01*
X75676671Y-72453058D01*
X75773016Y-72736883D01*
X75905583Y-73005702D01*
X76072104Y-73254919D01*
X76095907Y-73282061D01*
X76269731Y-73480269D01*
X76364110Y-73563037D01*
X76495080Y-73677895D01*
X76744297Y-73844416D01*
X77013116Y-73976983D01*
X77120065Y-74013287D01*
X77296940Y-74073328D01*
X77395828Y-74092998D01*
X77590904Y-74131802D01*
X77590906Y-74131802D01*
X77590911Y-74131803D01*
X77890000Y-74151406D01*
X78189089Y-74131803D01*
X78189093Y-74131802D01*
X78189095Y-74131802D01*
X78285283Y-74112668D01*
X78483060Y-74073328D01*
X78766883Y-73976983D01*
X79035703Y-73844416D01*
X79284920Y-73677895D01*
X79510269Y-73480269D01*
X79707895Y-73254920D01*
X79874416Y-73005703D01*
X80006983Y-72736883D01*
X80103328Y-72453060D01*
X80161803Y-72159089D01*
X80181406Y-71860000D01*
X80161803Y-71560911D01*
X80153029Y-71516804D01*
X80113606Y-71318611D01*
X80103328Y-71266940D01*
X80053622Y-71120511D01*
X80006983Y-70983116D01*
X79874416Y-70714297D01*
X79707895Y-70465080D01*
X79623832Y-70369225D01*
X79510269Y-70239731D01*
X79284920Y-70042105D01*
X79195451Y-69982324D01*
X79035702Y-69875583D01*
X78766883Y-69743016D01*
X78483058Y-69646671D01*
X78189095Y-69588197D01*
X77890000Y-69568594D01*
X77590904Y-69588197D01*
X77296941Y-69646671D01*
X77013116Y-69743016D01*
X76744297Y-69875583D01*
X76495080Y-70042104D01*
X76269731Y-70239731D01*
X76072104Y-70465080D01*
X75905583Y-70714297D01*
X75773016Y-70983116D01*
X75676671Y-71266941D01*
X75618197Y-71560904D01*
X75598594Y-71860000D01*
X73961970Y-71860000D01*
X73094819Y-70992849D01*
X73067939Y-70952621D01*
X73058500Y-70905168D01*
X73058500Y-65509999D01*
X77892676Y-65509999D01*
X77911929Y-65730065D01*
X77969106Y-65943451D01*
X78040455Y-66096460D01*
X78062466Y-66143662D01*
X78189174Y-66324620D01*
X78345380Y-66480826D01*
X78409642Y-66525823D01*
X78461202Y-66561925D01*
X78501529Y-66609142D01*
X78513909Y-66669990D01*
X78495237Y-66729210D01*
X78450195Y-66771953D01*
X78390079Y-66787500D01*
X78357362Y-66787500D01*
X78330445Y-66790393D01*
X78296794Y-66794011D01*
X78159796Y-66845110D01*
X78042738Y-66932738D01*
X77955110Y-67049796D01*
X77904011Y-67186794D01*
X77897500Y-67247366D01*
X77897500Y-68852634D01*
X77904011Y-68913205D01*
X77955110Y-69050203D01*
X78042738Y-69167261D01*
X78159796Y-69254889D01*
X78296794Y-69305988D01*
X78296797Y-69305988D01*
X78296799Y-69305989D01*
X78357362Y-69312500D01*
X79962634Y-69312500D01*
X79962638Y-69312500D01*
X80023201Y-69305989D01*
X80023203Y-69305988D01*
X80023205Y-69305988D01*
X80138015Y-69263165D01*
X80160204Y-69254889D01*
X80277261Y-69167261D01*
X80364889Y-69050204D01*
X80415989Y-68913201D01*
X80422500Y-68852638D01*
X80422500Y-67247362D01*
X80415989Y-67186799D01*
X80415988Y-67186797D01*
X80415988Y-67186794D01*
X80364889Y-67049796D01*
X80277261Y-66932738D01*
X80160203Y-66845110D01*
X80023205Y-66794011D01*
X79992919Y-66790755D01*
X79962638Y-66787500D01*
X79929921Y-66787500D01*
X79869805Y-66771953D01*
X79824763Y-66729210D01*
X79806091Y-66669990D01*
X79818471Y-66609142D01*
X79858798Y-66561925D01*
X79974620Y-66480826D01*
X80130826Y-66324620D01*
X80257534Y-66143662D01*
X80350894Y-65943450D01*
X80408070Y-65730068D01*
X80427323Y-65510000D01*
X80408070Y-65289932D01*
X80350894Y-65076550D01*
X80257534Y-64876339D01*
X80130826Y-64695380D01*
X79974620Y-64539174D01*
X79861548Y-64460000D01*
X82973178Y-64460000D01*
X82992424Y-64679978D01*
X83049579Y-64893281D01*
X83142898Y-65093406D01*
X83188258Y-65158187D01*
X83886446Y-64460001D01*
X84593553Y-64460001D01*
X85291740Y-65158186D01*
X85337100Y-65093408D01*
X85430420Y-64893281D01*
X85487575Y-64679978D01*
X85506821Y-64460000D01*
X85487575Y-64240021D01*
X85430421Y-64026720D01*
X85337098Y-63826589D01*
X85291740Y-63761811D01*
X84593553Y-64460000D01*
X84593553Y-64460001D01*
X83886446Y-64460001D01*
X83886446Y-64460000D01*
X83188258Y-63761811D01*
X83188258Y-63761812D01*
X83142900Y-63826589D01*
X83049578Y-64026719D01*
X82992424Y-64240021D01*
X82973178Y-64460000D01*
X79861548Y-64460000D01*
X79793662Y-64412466D01*
X79664811Y-64352382D01*
X79612635Y-64306625D01*
X79593216Y-64240000D01*
X79612635Y-64173375D01*
X79664811Y-64127618D01*
X79670027Y-64125185D01*
X79793662Y-64067534D01*
X79974620Y-63940826D01*
X80130826Y-63784620D01*
X80257534Y-63603662D01*
X80350894Y-63403450D01*
X80408070Y-63190068D01*
X80427323Y-62970000D01*
X80408070Y-62749932D01*
X80350894Y-62536550D01*
X80257534Y-62336339D01*
X80130826Y-62155380D01*
X79974620Y-61999174D01*
X79793662Y-61872466D01*
X79654754Y-61807692D01*
X79602578Y-61761935D01*
X79583159Y-61695310D01*
X79602578Y-61628685D01*
X79654754Y-61582928D01*
X79789392Y-61520144D01*
X79852443Y-61475996D01*
X79160001Y-60783553D01*
X79160000Y-60783553D01*
X78467555Y-61475996D01*
X78467556Y-61475997D01*
X78530603Y-61520143D01*
X78665245Y-61582928D01*
X78717421Y-61628685D01*
X78736840Y-61695310D01*
X78717421Y-61761935D01*
X78665245Y-61807692D01*
X78526338Y-61872466D01*
X78345379Y-61999174D01*
X78189174Y-62155379D01*
X78062466Y-62336338D01*
X77969106Y-62536548D01*
X77911929Y-62749934D01*
X77892676Y-62970000D01*
X77911929Y-63190065D01*
X77958240Y-63362900D01*
X77969106Y-63403450D01*
X78062466Y-63603662D01*
X78189174Y-63784620D01*
X78345380Y-63940826D01*
X78526338Y-64067534D01*
X78645748Y-64123215D01*
X78655189Y-64127618D01*
X78707365Y-64173375D01*
X78726784Y-64240000D01*
X78707365Y-64306625D01*
X78655189Y-64352382D01*
X78526338Y-64412466D01*
X78345379Y-64539174D01*
X78189174Y-64695379D01*
X78062466Y-64876338D01*
X77969106Y-65076548D01*
X77911929Y-65289934D01*
X77892676Y-65509999D01*
X73058500Y-65509999D01*
X73058500Y-61093360D01*
X73067939Y-61045907D01*
X73094819Y-61005679D01*
X73616010Y-60484488D01*
X73670499Y-60429999D01*
X77901209Y-60429999D01*
X77920333Y-60648586D01*
X77977124Y-60860532D01*
X78069856Y-61059396D01*
X78114002Y-61122442D01*
X78114002Y-61122443D01*
X78806445Y-60430000D01*
X79513553Y-60430000D01*
X80205996Y-61122443D01*
X80250144Y-61059392D01*
X80342875Y-60860532D01*
X80399666Y-60648586D01*
X80418790Y-60429999D01*
X80399666Y-60211413D01*
X80342875Y-59999467D01*
X80250143Y-59800604D01*
X80205997Y-59737556D01*
X80205995Y-59737555D01*
X79513553Y-60429998D01*
X79513553Y-60430000D01*
X78806445Y-60430000D01*
X78806446Y-60429999D01*
X78806446Y-60429998D01*
X78114002Y-59737555D01*
X78114001Y-59737555D01*
X78069855Y-59800605D01*
X77977124Y-59999467D01*
X77920333Y-60211413D01*
X77901209Y-60429999D01*
X73670499Y-60429999D01*
X75333208Y-58767288D01*
X75338611Y-58762201D01*
X75384215Y-58721801D01*
X75418816Y-58671671D01*
X75423222Y-58665685D01*
X75460775Y-58617754D01*
X75465037Y-58608282D01*
X75476055Y-58588747D01*
X75481954Y-58580203D01*
X75489533Y-58560218D01*
X75503542Y-58523280D01*
X75506400Y-58516378D01*
X75531389Y-58460857D01*
X75533260Y-58450641D01*
X75539287Y-58429026D01*
X75542965Y-58419329D01*
X75550304Y-58358882D01*
X75551420Y-58351542D01*
X75562402Y-58291620D01*
X75558726Y-58230846D01*
X75558500Y-58223359D01*
X75558500Y-50026641D01*
X75558726Y-50019154D01*
X75560953Y-49982334D01*
X75562402Y-49958380D01*
X75551425Y-49898483D01*
X75550301Y-49891093D01*
X75542965Y-49830671D01*
X75539288Y-49820975D01*
X75533260Y-49799352D01*
X75531389Y-49789142D01*
X75506404Y-49733631D01*
X75503549Y-49726741D01*
X75481954Y-49669797D01*
X75476060Y-49661258D01*
X75465034Y-49641712D01*
X75460775Y-49632247D01*
X75423234Y-49584329D01*
X75418801Y-49578304D01*
X75384215Y-49528198D01*
X75338647Y-49487829D01*
X75333193Y-49482695D01*
X73344819Y-47494321D01*
X73317939Y-47454093D01*
X73308500Y-47406640D01*
X73308500Y-36744832D01*
X73317939Y-36697379D01*
X73344819Y-36657151D01*
X74257151Y-35744819D01*
X74297379Y-35717939D01*
X74344832Y-35708500D01*
X74889244Y-35708500D01*
X74927562Y-35714569D01*
X74962130Y-35732182D01*
X75043248Y-35791118D01*
X75217714Y-35868795D01*
X75404511Y-35908500D01*
X75404513Y-35908500D01*
X75595487Y-35908500D01*
X75595489Y-35908500D01*
X75782285Y-35868795D01*
X75782286Y-35868794D01*
X75782288Y-35868794D01*
X75956752Y-35791118D01*
X76111253Y-35678866D01*
X76239040Y-35536944D01*
X76268247Y-35486357D01*
X76334527Y-35371556D01*
X76363168Y-35283408D01*
X76393542Y-35189928D01*
X76413504Y-35000000D01*
X76397261Y-34845459D01*
X76409132Y-34778142D01*
X76454872Y-34727342D01*
X76520582Y-34708500D01*
X77785168Y-34708500D01*
X77832621Y-34717939D01*
X77872849Y-34744819D01*
X77873137Y-34745107D01*
X77901978Y-34790377D01*
X77908984Y-34843595D01*
X77892676Y-35029999D01*
X77911929Y-35250065D01*
X77969106Y-35463451D01*
X78021974Y-35576827D01*
X78062466Y-35663662D01*
X78189174Y-35844620D01*
X78345380Y-36000826D01*
X78526338Y-36127534D01*
X78645748Y-36183215D01*
X78655189Y-36187618D01*
X78707365Y-36233375D01*
X78726784Y-36300000D01*
X78707365Y-36366625D01*
X78655189Y-36412382D01*
X78526338Y-36472466D01*
X78345379Y-36599174D01*
X78189174Y-36755379D01*
X78144519Y-36819151D01*
X78106740Y-36854356D01*
X78057896Y-36871120D01*
X78009200Y-36877034D01*
X77999496Y-36880714D01*
X77977889Y-36886738D01*
X77967671Y-36888610D01*
X77912161Y-36913593D01*
X77905245Y-36916457D01*
X77848325Y-36938045D01*
X77839775Y-36943946D01*
X77820240Y-36954964D01*
X77810773Y-36959225D01*
X77762856Y-36996765D01*
X77756827Y-37001201D01*
X77706728Y-37035783D01*
X77666357Y-37081352D01*
X77661224Y-37086804D01*
X75683047Y-39064982D01*
X75654534Y-39086274D01*
X75621148Y-39098591D01*
X75467713Y-39131205D01*
X75293248Y-39208881D01*
X75138748Y-39321133D01*
X75010957Y-39463058D01*
X74915472Y-39628443D01*
X74856458Y-39810070D01*
X74836496Y-40000000D01*
X74856458Y-40189929D01*
X74915472Y-40371556D01*
X75010957Y-40536941D01*
X75010960Y-40536944D01*
X75138747Y-40678866D01*
X75238865Y-40751606D01*
X75293248Y-40791118D01*
X75467714Y-40868795D01*
X75654511Y-40908500D01*
X75654513Y-40908500D01*
X75845487Y-40908500D01*
X75845489Y-40908500D01*
X76032285Y-40868795D01*
X76032286Y-40868794D01*
X76032288Y-40868794D01*
X76206752Y-40791118D01*
X76361253Y-40678866D01*
X76489040Y-40536944D01*
X76524804Y-40475000D01*
X76584527Y-40371556D01*
X76643542Y-40189929D01*
X76648523Y-40142528D01*
X76659923Y-40102104D01*
X76684160Y-40067808D01*
X78192856Y-38559113D01*
X78241532Y-38529090D01*
X78298507Y-38524105D01*
X78351653Y-38545218D01*
X78526338Y-38667534D01*
X78649611Y-38725017D01*
X78655189Y-38727618D01*
X78707365Y-38773375D01*
X78726784Y-38840000D01*
X78707365Y-38906625D01*
X78655189Y-38952382D01*
X78526338Y-39012466D01*
X78345379Y-39139174D01*
X78189174Y-39295379D01*
X78062466Y-39476338D01*
X77969106Y-39676548D01*
X77911929Y-39889934D01*
X77892676Y-40109999D01*
X77911929Y-40330065D01*
X77969106Y-40543451D01*
X78008739Y-40628444D01*
X78062466Y-40743662D01*
X78189174Y-40924620D01*
X78345380Y-41080826D01*
X78526338Y-41207534D01*
X78645748Y-41263215D01*
X78655189Y-41267618D01*
X78707365Y-41313375D01*
X78726784Y-41380000D01*
X78707365Y-41446625D01*
X78655189Y-41492382D01*
X78526338Y-41552466D01*
X78345379Y-41679174D01*
X78189174Y-41835379D01*
X78062466Y-42016338D01*
X77969106Y-42216548D01*
X77911929Y-42429934D01*
X77892676Y-42650000D01*
X77911929Y-42870065D01*
X77969106Y-43083451D01*
X78052867Y-43263076D01*
X78062466Y-43283662D01*
X78189174Y-43464620D01*
X78345380Y-43620826D01*
X78526338Y-43747534D01*
X78638893Y-43800019D01*
X78655189Y-43807618D01*
X78707365Y-43853375D01*
X78726784Y-43920000D01*
X78707365Y-43986625D01*
X78655189Y-44032382D01*
X78526338Y-44092466D01*
X78345379Y-44219174D01*
X78189174Y-44375379D01*
X78062466Y-44556338D01*
X77969106Y-44756548D01*
X77911929Y-44969934D01*
X77892676Y-45189999D01*
X77911929Y-45410065D01*
X77969106Y-45623451D01*
X78062466Y-45823662D01*
X78189174Y-46004620D01*
X78345380Y-46160826D01*
X78526338Y-46287534D01*
X78625711Y-46333872D01*
X78655189Y-46347618D01*
X78707365Y-46393375D01*
X78726784Y-46460000D01*
X78707365Y-46526625D01*
X78655189Y-46572382D01*
X78526338Y-46632466D01*
X78345379Y-46759174D01*
X78189174Y-46915379D01*
X78062466Y-47096338D01*
X77969106Y-47296548D01*
X77911929Y-47509934D01*
X77892676Y-47730000D01*
X77911929Y-47950065D01*
X77969106Y-48163451D01*
X78047550Y-48331675D01*
X78062466Y-48363662D01*
X78189174Y-48544620D01*
X78345380Y-48700826D01*
X78526338Y-48827534D01*
X78623594Y-48872885D01*
X78655189Y-48887618D01*
X78707365Y-48933375D01*
X78726784Y-49000000D01*
X78707365Y-49066625D01*
X78655189Y-49112382D01*
X78526338Y-49172466D01*
X78345379Y-49299174D01*
X78189174Y-49455379D01*
X78062466Y-49636338D01*
X77969106Y-49836548D01*
X77911929Y-50049934D01*
X77892676Y-50269999D01*
X77911929Y-50490065D01*
X77969106Y-50703451D01*
X78046207Y-50868794D01*
X78062466Y-50903662D01*
X78189174Y-51084620D01*
X78345380Y-51240826D01*
X78526338Y-51367534D01*
X78594296Y-51399223D01*
X78655189Y-51427618D01*
X78707365Y-51473375D01*
X78726784Y-51540000D01*
X78707365Y-51606625D01*
X78655189Y-51652382D01*
X78526338Y-51712466D01*
X78345379Y-51839174D01*
X78189174Y-51995379D01*
X78062466Y-52176338D01*
X77969106Y-52376548D01*
X77911929Y-52589934D01*
X77892676Y-52809999D01*
X77911929Y-53030065D01*
X77950764Y-53175000D01*
X77969106Y-53243450D01*
X78062466Y-53443662D01*
X78189174Y-53624620D01*
X78345380Y-53780826D01*
X78526338Y-53907534D01*
X78645748Y-53963215D01*
X78655189Y-53967618D01*
X78707365Y-54013375D01*
X78726784Y-54080000D01*
X78707365Y-54146625D01*
X78655189Y-54192382D01*
X78526338Y-54252466D01*
X78345379Y-54379174D01*
X78189174Y-54535379D01*
X78062466Y-54716338D01*
X77969106Y-54916548D01*
X77911929Y-55129934D01*
X77892676Y-55350000D01*
X77911929Y-55570065D01*
X77969106Y-55783451D01*
X78042073Y-55939929D01*
X78062466Y-55983662D01*
X78189174Y-56164620D01*
X78345380Y-56320826D01*
X78526338Y-56447534D01*
X78639230Y-56500176D01*
X78655189Y-56507618D01*
X78707365Y-56553375D01*
X78726784Y-56620000D01*
X78707365Y-56686625D01*
X78655189Y-56732382D01*
X78526338Y-56792466D01*
X78345379Y-56919174D01*
X78189174Y-57075379D01*
X78062466Y-57256338D01*
X77969106Y-57456548D01*
X77911929Y-57669934D01*
X77892676Y-57889999D01*
X77911929Y-58110065D01*
X77969106Y-58323451D01*
X78027719Y-58449146D01*
X78062466Y-58523662D01*
X78189174Y-58704620D01*
X78345380Y-58860826D01*
X78526338Y-58987534D01*
X78665245Y-59052307D01*
X78717420Y-59098064D01*
X78736840Y-59164689D01*
X78717421Y-59231314D01*
X78665245Y-59277071D01*
X78530605Y-59339855D01*
X78467555Y-59384001D01*
X79160000Y-60076446D01*
X79160001Y-60076446D01*
X79852443Y-59384003D01*
X79852442Y-59384002D01*
X79789395Y-59339856D01*
X79654754Y-59277071D01*
X79602578Y-59231314D01*
X79583159Y-59164688D01*
X79602579Y-59098063D01*
X79654755Y-59052307D01*
X79793662Y-58987534D01*
X79974620Y-58860826D01*
X80130826Y-58704620D01*
X80257534Y-58523662D01*
X80350894Y-58323450D01*
X80408070Y-58110068D01*
X80427323Y-57890000D01*
X80408070Y-57669932D01*
X80350894Y-57456550D01*
X80257534Y-57256339D01*
X80130826Y-57075380D01*
X79974620Y-56919174D01*
X79793662Y-56792466D01*
X79664811Y-56732382D01*
X79612635Y-56686625D01*
X79593216Y-56620000D01*
X79612635Y-56553375D01*
X79664811Y-56507618D01*
X79680770Y-56500176D01*
X79793662Y-56447534D01*
X79974620Y-56320826D01*
X80130826Y-56164620D01*
X80257534Y-55983662D01*
X80350894Y-55783450D01*
X80408070Y-55570068D01*
X80427323Y-55350000D01*
X80408070Y-55129932D01*
X80350894Y-54916550D01*
X80257534Y-54716339D01*
X80130826Y-54535380D01*
X79974620Y-54379174D01*
X79793662Y-54252466D01*
X79793661Y-54252465D01*
X79664811Y-54192382D01*
X79612635Y-54146625D01*
X79593216Y-54080000D01*
X79612635Y-54013375D01*
X79664811Y-53967618D01*
X79670027Y-53965185D01*
X79793662Y-53907534D01*
X79974620Y-53780826D01*
X80130826Y-53624620D01*
X80257534Y-53443662D01*
X80350894Y-53243450D01*
X80408070Y-53030068D01*
X80427323Y-52810000D01*
X80408070Y-52589932D01*
X80350894Y-52376550D01*
X80257534Y-52176339D01*
X80130826Y-51995380D01*
X79974620Y-51839174D01*
X79793662Y-51712466D01*
X79664811Y-51652382D01*
X79612635Y-51606625D01*
X79593216Y-51540000D01*
X79612635Y-51473375D01*
X79664811Y-51427618D01*
X79670027Y-51425185D01*
X79793662Y-51367534D01*
X79974620Y-51240826D01*
X80130826Y-51084620D01*
X80257534Y-50903662D01*
X80350894Y-50703450D01*
X80408070Y-50490068D01*
X80427323Y-50270000D01*
X80408070Y-50049932D01*
X80350894Y-49836550D01*
X80257534Y-49636339D01*
X80130826Y-49455380D01*
X79974620Y-49299174D01*
X79793662Y-49172466D01*
X79664811Y-49112382D01*
X79612635Y-49066625D01*
X79593216Y-49000000D01*
X79612635Y-48933375D01*
X79664811Y-48887618D01*
X79670027Y-48885185D01*
X79793662Y-48827534D01*
X79974620Y-48700826D01*
X80130826Y-48544620D01*
X80257534Y-48363662D01*
X80350894Y-48163450D01*
X80408070Y-47950068D01*
X80427323Y-47730000D01*
X80408070Y-47509932D01*
X80350894Y-47296550D01*
X80257534Y-47096339D01*
X80130826Y-46915380D01*
X79974620Y-46759174D01*
X79793662Y-46632466D01*
X79664811Y-46572382D01*
X79612635Y-46526625D01*
X79593216Y-46460000D01*
X79612635Y-46393375D01*
X79664811Y-46347618D01*
X79694289Y-46333872D01*
X79793662Y-46287534D01*
X79974620Y-46160826D01*
X80130826Y-46004620D01*
X80257534Y-45823662D01*
X80350894Y-45623450D01*
X80408070Y-45410068D01*
X80427323Y-45190000D01*
X80426749Y-45183444D01*
X80420340Y-45110184D01*
X80408070Y-44969932D01*
X80350894Y-44756550D01*
X80257534Y-44556339D01*
X80130826Y-44375380D01*
X79974620Y-44219174D01*
X79793662Y-44092466D01*
X79664811Y-44032382D01*
X79612635Y-43986625D01*
X79593216Y-43920000D01*
X79612635Y-43853375D01*
X79664811Y-43807618D01*
X79681107Y-43800019D01*
X79793662Y-43747534D01*
X79974620Y-43620826D01*
X80130826Y-43464620D01*
X80257534Y-43283662D01*
X80350894Y-43083450D01*
X80408070Y-42870068D01*
X80427323Y-42650000D01*
X80408070Y-42429932D01*
X80350894Y-42216550D01*
X80257534Y-42016339D01*
X80130826Y-41835380D01*
X79974620Y-41679174D01*
X79793662Y-41552466D01*
X79664811Y-41492382D01*
X79612635Y-41446625D01*
X79593216Y-41380000D01*
X79612635Y-41313375D01*
X79664811Y-41267618D01*
X79670027Y-41265185D01*
X79793662Y-41207534D01*
X79974620Y-41080826D01*
X80130826Y-40924620D01*
X80257534Y-40743662D01*
X80350894Y-40543450D01*
X80408070Y-40330068D01*
X80427323Y-40110000D01*
X80408070Y-39889932D01*
X80350894Y-39676550D01*
X80257534Y-39476339D01*
X80130826Y-39295380D01*
X79974620Y-39139174D01*
X79793662Y-39012466D01*
X79664811Y-38952382D01*
X79612635Y-38906625D01*
X79593216Y-38840000D01*
X79612635Y-38773375D01*
X79664811Y-38727618D01*
X79670027Y-38725185D01*
X79793662Y-38667534D01*
X79974620Y-38540826D01*
X80130826Y-38384620D01*
X80257534Y-38203662D01*
X80350894Y-38003450D01*
X80408070Y-37790068D01*
X80427323Y-37570000D01*
X80427255Y-37569228D01*
X80419965Y-37485891D01*
X80408070Y-37349932D01*
X80350894Y-37136550D01*
X80257534Y-36936339D01*
X80130826Y-36755380D01*
X79974620Y-36599174D01*
X79793662Y-36472466D01*
X79664811Y-36412382D01*
X79612635Y-36366625D01*
X79593216Y-36300000D01*
X79612635Y-36233375D01*
X79664811Y-36187618D01*
X79670027Y-36185185D01*
X79793662Y-36127534D01*
X79974620Y-36000826D01*
X80130826Y-35844620D01*
X80257534Y-35663662D01*
X80350894Y-35463450D01*
X80408070Y-35250068D01*
X80427323Y-35030000D01*
X80408070Y-34809932D01*
X80350894Y-34596550D01*
X80257534Y-34396339D01*
X80130826Y-34215380D01*
X79974620Y-34059174D01*
X79793662Y-33932466D01*
X79785511Y-33928665D01*
X79664811Y-33872381D01*
X79612635Y-33826624D01*
X79593216Y-33759998D01*
X79612636Y-33693373D01*
X79664810Y-33647618D01*
X79793662Y-33587534D01*
X79974620Y-33460826D01*
X80130826Y-33304620D01*
X80257534Y-33123662D01*
X80350894Y-32923450D01*
X80408070Y-32710068D01*
X80427323Y-32490000D01*
X80408070Y-32269932D01*
X80350894Y-32056550D01*
X80257534Y-31856339D01*
X80130826Y-31675380D01*
X79974620Y-31519174D01*
X79793662Y-31392466D01*
X79776592Y-31384506D01*
X79664811Y-31332381D01*
X79612635Y-31286624D01*
X79593216Y-31219998D01*
X79612636Y-31153373D01*
X79664810Y-31107618D01*
X79793662Y-31047534D01*
X79974620Y-30920826D01*
X80130826Y-30764620D01*
X80257534Y-30583662D01*
X80350894Y-30383450D01*
X80408070Y-30170068D01*
X80427323Y-29950000D01*
X80408070Y-29729932D01*
X80350894Y-29516550D01*
X80257534Y-29316339D01*
X80130826Y-29135380D01*
X79974620Y-28979174D01*
X79793662Y-28852466D01*
X79793661Y-28852465D01*
X79593451Y-28759106D01*
X79380065Y-28701929D01*
X79160000Y-28682676D01*
X78939934Y-28701929D01*
X78726548Y-28759106D01*
X78526338Y-28852466D01*
X78345379Y-28979174D01*
X78189174Y-29135379D01*
X78062466Y-29316338D01*
X77969106Y-29516548D01*
X77911929Y-29729934D01*
X77892676Y-29950000D01*
X77911929Y-30170065D01*
X77964817Y-30367446D01*
X77969106Y-30383450D01*
X78062466Y-30583662D01*
X78189174Y-30764620D01*
X78345380Y-30920826D01*
X78526338Y-31047534D01*
X78594296Y-31079223D01*
X78655189Y-31107618D01*
X78707365Y-31153375D01*
X78726784Y-31220000D01*
X78707365Y-31286625D01*
X78655189Y-31332382D01*
X78526338Y-31392466D01*
X78345379Y-31519174D01*
X78189174Y-31675379D01*
X78062466Y-31856338D01*
X77969106Y-32056548D01*
X77911929Y-32269934D01*
X77892676Y-32489999D01*
X77911929Y-32710065D01*
X77969106Y-32923452D01*
X78058471Y-33115095D01*
X78069823Y-33175610D01*
X78050670Y-33234125D01*
X78005732Y-33276214D01*
X77946089Y-33291500D01*
X74025163Y-33291500D01*
X74017676Y-33291274D01*
X73956904Y-33287597D01*
X73897031Y-33298569D01*
X73889632Y-33299696D01*
X73829196Y-33307035D01*
X73819496Y-33310714D01*
X73797889Y-33316738D01*
X73787671Y-33318610D01*
X73732161Y-33343593D01*
X73725245Y-33346457D01*
X73668325Y-33368045D01*
X73659775Y-33373946D01*
X73640240Y-33384964D01*
X73630773Y-33389225D01*
X73582856Y-33426765D01*
X73576827Y-33431201D01*
X73526728Y-33465783D01*
X73486357Y-33511352D01*
X73481224Y-33516804D01*
X71516804Y-35481224D01*
X71511352Y-35486357D01*
X71465783Y-35526728D01*
X71431201Y-35576827D01*
X71426765Y-35582856D01*
X71389225Y-35630773D01*
X71384964Y-35640240D01*
X71373946Y-35659775D01*
X71368045Y-35668325D01*
X71346457Y-35725245D01*
X71343593Y-35732161D01*
X71318610Y-35787671D01*
X71316738Y-35797889D01*
X71310714Y-35819496D01*
X71307035Y-35829196D01*
X71299696Y-35889632D01*
X71298569Y-35897031D01*
X71287597Y-35956904D01*
X71291274Y-36017676D01*
X71291500Y-36025163D01*
X71291500Y-47974837D01*
X71291274Y-47982324D01*
X71287597Y-48043095D01*
X71298569Y-48102970D01*
X71299696Y-48110369D01*
X71307035Y-48170802D01*
X71310713Y-48180500D01*
X71316738Y-48202111D01*
X71318611Y-48212329D01*
X71343597Y-48267848D01*
X71346463Y-48274766D01*
X71355039Y-48297380D01*
X71368047Y-48331677D01*
X71373941Y-48340216D01*
X71384964Y-48359760D01*
X71389224Y-48369225D01*
X71426761Y-48417137D01*
X71431200Y-48423170D01*
X71465782Y-48473270D01*
X71465784Y-48473272D01*
X71465785Y-48473273D01*
X71511370Y-48513658D01*
X71516805Y-48518775D01*
X72618482Y-49620452D01*
X72649223Y-49671362D01*
X72652725Y-49730730D01*
X72628180Y-49784901D01*
X72581236Y-49821413D01*
X72522691Y-49831867D01*
X72466011Y-49813860D01*
X72439249Y-49797460D01*
X72357355Y-49763538D01*
X72217553Y-49705630D01*
X71984223Y-49649613D01*
X71745000Y-49630786D01*
X71505776Y-49649613D01*
X71272446Y-49705630D01*
X71050749Y-49797461D01*
X70846148Y-49922841D01*
X70663681Y-50078681D01*
X70507841Y-50261148D01*
X70382461Y-50465749D01*
X70290630Y-50687446D01*
X70234613Y-50920776D01*
X70215786Y-51160000D01*
X70234613Y-51399223D01*
X70290630Y-51632553D01*
X70342241Y-51757151D01*
X70382460Y-51854249D01*
X70445433Y-51957010D01*
X70507841Y-52058851D01*
X70663681Y-52241318D01*
X70846148Y-52397158D01*
X70846150Y-52397159D01*
X70846151Y-52397160D01*
X71050751Y-52522540D01*
X71213451Y-52589932D01*
X71272446Y-52614369D01*
X71346161Y-52632066D01*
X71505778Y-52670387D01*
X71745000Y-52689214D01*
X71984222Y-52670387D01*
X72217553Y-52614369D01*
X72439249Y-52522540D01*
X72643849Y-52397160D01*
X72826318Y-52241318D01*
X72982160Y-52058849D01*
X73107540Y-51854249D01*
X73199369Y-51632553D01*
X73255387Y-51399222D01*
X73274214Y-51160000D01*
X73255387Y-50920778D01*
X73199369Y-50687447D01*
X73177644Y-50634999D01*
X73146891Y-50560753D01*
X73107540Y-50465751D01*
X73091137Y-50438985D01*
X73073132Y-50382309D01*
X73083586Y-50323763D01*
X73120098Y-50276819D01*
X73174268Y-50252274D01*
X73233637Y-50255775D01*
X73284547Y-50286517D01*
X73505181Y-50507151D01*
X73532061Y-50547379D01*
X73541500Y-50594832D01*
X73541500Y-57655168D01*
X73532061Y-57702621D01*
X73505181Y-57742849D01*
X71715825Y-59532203D01*
X71670356Y-59561116D01*
X71616916Y-59568013D01*
X71565596Y-59551591D01*
X71547318Y-59534641D01*
X71545485Y-59536711D01*
X71488647Y-59486357D01*
X71483193Y-59481223D01*
X68841969Y-56839999D01*
X70264646Y-56839999D01*
X70284021Y-57061460D01*
X70341560Y-57276197D01*
X70366266Y-57329179D01*
X70435512Y-57477677D01*
X70563023Y-57659781D01*
X70720219Y-57816977D01*
X70902323Y-57944488D01*
X71103804Y-58038440D01*
X71318537Y-58095978D01*
X71540000Y-58115353D01*
X71761463Y-58095978D01*
X71976196Y-58038440D01*
X72177677Y-57944488D01*
X72359781Y-57816977D01*
X72516977Y-57659781D01*
X72644488Y-57477677D01*
X72738440Y-57276196D01*
X72795978Y-57061463D01*
X72815353Y-56840000D01*
X72813558Y-56819488D01*
X72798854Y-56651408D01*
X72795978Y-56618537D01*
X72738440Y-56403804D01*
X72644488Y-56202324D01*
X72516977Y-56020219D01*
X72359781Y-55863023D01*
X72177677Y-55735512D01*
X72084781Y-55692194D01*
X71976197Y-55641560D01*
X71761460Y-55584021D01*
X71540000Y-55564646D01*
X71318539Y-55584021D01*
X71103802Y-55641560D01*
X70902323Y-55735512D01*
X70720218Y-55863023D01*
X70563023Y-56020218D01*
X70435512Y-56202323D01*
X70341560Y-56403802D01*
X70284021Y-56618539D01*
X70264646Y-56839999D01*
X68841969Y-56839999D01*
X61934163Y-49932193D01*
X61909923Y-49897894D01*
X61898523Y-49857471D01*
X61895832Y-49831867D01*
X61893542Y-49810072D01*
X61893542Y-49810070D01*
X61834527Y-49628443D01*
X61739042Y-49463058D01*
X61697580Y-49417010D01*
X61611253Y-49321134D01*
X61456752Y-49208882D01*
X61456751Y-49208881D01*
X61310633Y-49143826D01*
X61282288Y-49131206D01*
X61282286Y-49131205D01*
X61282065Y-49131107D01*
X61243302Y-49103965D01*
X61217529Y-49064278D01*
X61208500Y-49017827D01*
X61208500Y-46875169D01*
X61208726Y-46867682D01*
X61209898Y-46848300D01*
X61212402Y-46806908D01*
X61201425Y-46747011D01*
X61200301Y-46739621D01*
X61199383Y-46732061D01*
X61192965Y-46679199D01*
X61189288Y-46669503D01*
X61183260Y-46647880D01*
X61181389Y-46637670D01*
X61156404Y-46582159D01*
X61153545Y-46575257D01*
X61143347Y-46548368D01*
X61137146Y-46483031D01*
X61165164Y-46423679D01*
X61219552Y-46386942D01*
X61285072Y-46383112D01*
X61404512Y-46408500D01*
X61404513Y-46408500D01*
X61595487Y-46408500D01*
X61595489Y-46408500D01*
X61782285Y-46368795D01*
X61782286Y-46368794D01*
X61782288Y-46368794D01*
X61956752Y-46291118D01*
X62111253Y-46178866D01*
X62239040Y-46036944D01*
X62257703Y-46004620D01*
X62334527Y-45871556D01*
X62350089Y-45823662D01*
X62393542Y-45689928D01*
X62413504Y-45500000D01*
X62393542Y-45310072D01*
X62352398Y-45183444D01*
X62334527Y-45128443D01*
X62232524Y-44951769D01*
X62232537Y-44951761D01*
X62216736Y-44925975D01*
X62208500Y-44881538D01*
X62208500Y-42795163D01*
X62208726Y-42787676D01*
X62208740Y-42787433D01*
X62212402Y-42726907D01*
X62201423Y-42667000D01*
X62200303Y-42659638D01*
X62192965Y-42599199D01*
X62189286Y-42589500D01*
X62183260Y-42567881D01*
X62181389Y-42557671D01*
X62156403Y-42502155D01*
X62153536Y-42495233D01*
X62145208Y-42473273D01*
X62131954Y-42438325D01*
X62129522Y-42434801D01*
X62126057Y-42429781D01*
X62115034Y-42410236D01*
X62110775Y-42400774D01*
X62073233Y-42352856D01*
X62068793Y-42346822D01*
X62062196Y-42337265D01*
X62048829Y-42317899D01*
X62034214Y-42296725D01*
X61988647Y-42256357D01*
X61983193Y-42251223D01*
X60126862Y-40394892D01*
X60098021Y-40349621D01*
X60091015Y-40296404D01*
X60107323Y-40110000D01*
X60103793Y-40069655D01*
X60091014Y-39923590D01*
X60098020Y-39870378D01*
X60126859Y-39825109D01*
X62233217Y-37718752D01*
X62238637Y-37713650D01*
X62284215Y-37673273D01*
X62318806Y-37623158D01*
X62323233Y-37617143D01*
X62360774Y-37569226D01*
X62365033Y-37559761D01*
X62376058Y-37540216D01*
X62381954Y-37531675D01*
X62403550Y-37474727D01*
X62406408Y-37467831D01*
X62407029Y-37466453D01*
X62431388Y-37412330D01*
X62433257Y-37402128D01*
X62439287Y-37380497D01*
X62442965Y-37370801D01*
X62450302Y-37310365D01*
X62451428Y-37302965D01*
X62452462Y-37297323D01*
X62462401Y-37243093D01*
X62458726Y-37182334D01*
X62458500Y-37174848D01*
X62458500Y-30840000D01*
X70215786Y-30840000D01*
X70216890Y-30854022D01*
X70234613Y-31079223D01*
X70290630Y-31312553D01*
X70341672Y-31435777D01*
X70382460Y-31534249D01*
X70422153Y-31599022D01*
X70507841Y-31738851D01*
X70663681Y-31921318D01*
X70846148Y-32077158D01*
X70846150Y-32077159D01*
X70846151Y-32077160D01*
X71050751Y-32202540D01*
X71213451Y-32269932D01*
X71272446Y-32294369D01*
X71346161Y-32312066D01*
X71505778Y-32350387D01*
X71745000Y-32369214D01*
X71984222Y-32350387D01*
X72217553Y-32294369D01*
X72439249Y-32202540D01*
X72643849Y-32077160D01*
X72826318Y-31921318D01*
X72982160Y-31738849D01*
X73107540Y-31534249D01*
X73199369Y-31312553D01*
X73255387Y-31079222D01*
X73274214Y-30840000D01*
X73255387Y-30600778D01*
X73199369Y-30367447D01*
X73107540Y-30145751D01*
X72982160Y-29941151D01*
X72982159Y-29941150D01*
X72982158Y-29941148D01*
X72826318Y-29758681D01*
X72643851Y-29602841D01*
X72568524Y-29556680D01*
X72439249Y-29477460D01*
X72357355Y-29443538D01*
X72217553Y-29385630D01*
X71984223Y-29329613D01*
X71745000Y-29310786D01*
X71505776Y-29329613D01*
X71272446Y-29385630D01*
X71050749Y-29477461D01*
X70846148Y-29602841D01*
X70663681Y-29758681D01*
X70507841Y-29941148D01*
X70382461Y-30145749D01*
X70290630Y-30367446D01*
X70234613Y-30600776D01*
X70222775Y-30751196D01*
X70215786Y-30840000D01*
X62458500Y-30840000D01*
X62458500Y-26080647D01*
X77127722Y-26080647D01*
X77137789Y-26317636D01*
X77149067Y-26369965D01*
X77187764Y-26549524D01*
X77276209Y-26769627D01*
X77295333Y-26800686D01*
X77400580Y-26971618D01*
X77557298Y-27149684D01*
X77741850Y-27298700D01*
X77948940Y-27414388D01*
X78172601Y-27493412D01*
X78406394Y-27533500D01*
X78406396Y-27533500D01*
X78584191Y-27533500D01*
X78584195Y-27533500D01*
X78702299Y-27523447D01*
X78761354Y-27518421D01*
X78914390Y-27478573D01*
X78990910Y-27458650D01*
X79098984Y-27409796D01*
X79207060Y-27360943D01*
X79403590Y-27228113D01*
X79574844Y-27063979D01*
X79715896Y-26873264D01*
X79822688Y-26661454D01*
X79892148Y-26434643D01*
X79922278Y-26199356D01*
X79912210Y-25962361D01*
X79862236Y-25730476D01*
X79773791Y-25510373D01*
X79649421Y-25308383D01*
X79492703Y-25130317D01*
X79492701Y-25130315D01*
X79308149Y-24981299D01*
X79101059Y-24865611D01*
X78877398Y-24786587D01*
X78643606Y-24746500D01*
X78643604Y-24746500D01*
X78465809Y-24746500D01*
X78465805Y-24746500D01*
X78288647Y-24761578D01*
X78059089Y-24821349D01*
X77842940Y-24919056D01*
X77646410Y-25051886D01*
X77475155Y-25216020D01*
X77334104Y-25406735D01*
X77227312Y-25618545D01*
X77157852Y-25845356D01*
X77127722Y-26080647D01*
X62458500Y-26080647D01*
X62458500Y-24525169D01*
X62458726Y-24517682D01*
X62461393Y-24473582D01*
X62462402Y-24456908D01*
X62451425Y-24397011D01*
X62450301Y-24389621D01*
X62442965Y-24329199D01*
X62439288Y-24319503D01*
X62433260Y-24297880D01*
X62431389Y-24287670D01*
X62406404Y-24232159D01*
X62403549Y-24225269D01*
X62381954Y-24168325D01*
X62376060Y-24159786D01*
X62365034Y-24140240D01*
X62360775Y-24130775D01*
X62323234Y-24082857D01*
X62318801Y-24076832D01*
X62284215Y-24026726D01*
X62238647Y-23986357D01*
X62233193Y-23981223D01*
X61268775Y-23016805D01*
X61263658Y-23011370D01*
X61223273Y-22965785D01*
X61223272Y-22965784D01*
X61223270Y-22965782D01*
X61173170Y-22931200D01*
X61167137Y-22926761D01*
X61119225Y-22889224D01*
X61109760Y-22884964D01*
X61090216Y-22873941D01*
X61081677Y-22868047D01*
X61081675Y-22868046D01*
X61024767Y-22846463D01*
X61017848Y-22843597D01*
X60962329Y-22818611D01*
X60952111Y-22816738D01*
X60930500Y-22810713D01*
X60920802Y-22807035D01*
X60860369Y-22799696D01*
X60852970Y-22798569D01*
X60793095Y-22787597D01*
X60732324Y-22791274D01*
X60724837Y-22791500D01*
X50275169Y-22791500D01*
X50267682Y-22791274D01*
X50206905Y-22787597D01*
X50147030Y-22798569D01*
X50139631Y-22799695D01*
X50079200Y-22807034D01*
X50069496Y-22810714D01*
X50047889Y-22816738D01*
X50037671Y-22818610D01*
X49982161Y-22843593D01*
X49975245Y-22846457D01*
X49918325Y-22868045D01*
X49909775Y-22873946D01*
X49890240Y-22884964D01*
X49880773Y-22889225D01*
X49832856Y-22926765D01*
X49826827Y-22931201D01*
X49776728Y-22965783D01*
X49736357Y-23011352D01*
X49731224Y-23016804D01*
X48016804Y-24731224D01*
X48011352Y-24736357D01*
X47965783Y-24776728D01*
X47931201Y-24826827D01*
X47926765Y-24832856D01*
X47889225Y-24880773D01*
X47884964Y-24890240D01*
X47873946Y-24909775D01*
X47868045Y-24918325D01*
X47846457Y-24975245D01*
X47843593Y-24982161D01*
X47818610Y-25037671D01*
X47816738Y-25047889D01*
X47810714Y-25069496D01*
X47807035Y-25079196D01*
X47799696Y-25139632D01*
X47798569Y-25147031D01*
X47787597Y-25206904D01*
X47791274Y-25267676D01*
X47791500Y-25275163D01*
X47791500Y-32631538D01*
X47783264Y-32675975D01*
X47767462Y-32701761D01*
X47767476Y-32701769D01*
X47665472Y-32878443D01*
X47606458Y-33060070D01*
X47586496Y-33249999D01*
X47606458Y-33439929D01*
X47665472Y-33621556D01*
X47760957Y-33786941D01*
X47768771Y-33795619D01*
X47888747Y-33928866D01*
X48009487Y-34016589D01*
X48043248Y-34041118D01*
X48217714Y-34118795D01*
X48404511Y-34158500D01*
X48404513Y-34158500D01*
X48595487Y-34158500D01*
X48595489Y-34158500D01*
X48782285Y-34118795D01*
X48782286Y-34118794D01*
X48782288Y-34118794D01*
X48956752Y-34041118D01*
X49111253Y-33928866D01*
X49239040Y-33786944D01*
X49254598Y-33759998D01*
X49334527Y-33621556D01*
X49342310Y-33597603D01*
X49393542Y-33439928D01*
X49413504Y-33250000D01*
X49393542Y-33060072D01*
X49352907Y-32935011D01*
X49334527Y-32878443D01*
X49232524Y-32701769D01*
X49232537Y-32701761D01*
X49216736Y-32675975D01*
X49208500Y-32631538D01*
X49208500Y-26505000D01*
X50281601Y-26505000D01*
X50301154Y-26716020D01*
X50359149Y-26919850D01*
X50453608Y-27109551D01*
X50581323Y-27278672D01*
X50737932Y-27421440D01*
X50737934Y-27421441D01*
X50737935Y-27421442D01*
X50918115Y-27533005D01*
X51115726Y-27609560D01*
X51324039Y-27648500D01*
X51535959Y-27648500D01*
X51535961Y-27648500D01*
X51744274Y-27609560D01*
X51941885Y-27533005D01*
X52122065Y-27421442D01*
X52278677Y-27278671D01*
X52406389Y-27109554D01*
X52406389Y-27109552D01*
X52406391Y-27109551D01*
X52500850Y-26919850D01*
X52558845Y-26716020D01*
X52563901Y-26661454D01*
X52578399Y-26505000D01*
X52561037Y-26317636D01*
X52558845Y-26293979D01*
X52500850Y-26090149D01*
X52406391Y-25900448D01*
X52278676Y-25731327D01*
X52122067Y-25588559D01*
X51941885Y-25476995D01*
X51813251Y-25427162D01*
X51744274Y-25400440D01*
X51535961Y-25361500D01*
X51324039Y-25361500D01*
X51115726Y-25400439D01*
X51115726Y-25400440D01*
X50918114Y-25476995D01*
X50737932Y-25588559D01*
X50581323Y-25731327D01*
X50453608Y-25900448D01*
X50359149Y-26090149D01*
X50301154Y-26293979D01*
X50281601Y-26505000D01*
X49208500Y-26505000D01*
X49208500Y-25594832D01*
X49217939Y-25547379D01*
X49244819Y-25507151D01*
X50507151Y-24244819D01*
X50547379Y-24217939D01*
X50594832Y-24208500D01*
X60405168Y-24208500D01*
X60452621Y-24217939D01*
X60492849Y-24244819D01*
X61005181Y-24757151D01*
X61032061Y-24797379D01*
X61041500Y-24844832D01*
X61041500Y-25659869D01*
X61023090Y-25724883D01*
X60973325Y-25770592D01*
X60906984Y-25783422D01*
X60843766Y-25759565D01*
X60802442Y-25706103D01*
X60767258Y-25618545D01*
X60723791Y-25510373D01*
X60599421Y-25308383D01*
X60442703Y-25130317D01*
X60442701Y-25130315D01*
X60258149Y-24981299D01*
X60051059Y-24865611D01*
X59827398Y-24786587D01*
X59593606Y-24746500D01*
X59593604Y-24746500D01*
X59415809Y-24746500D01*
X59415805Y-24746500D01*
X59238647Y-24761578D01*
X59009089Y-24821349D01*
X58792940Y-24919056D01*
X58596410Y-25051886D01*
X58425155Y-25216020D01*
X58284104Y-25406735D01*
X58177312Y-25618545D01*
X58107852Y-25845356D01*
X58077722Y-26080647D01*
X58087789Y-26317636D01*
X58099067Y-26369965D01*
X58137764Y-26549524D01*
X58226209Y-26769627D01*
X58245333Y-26800686D01*
X58350580Y-26971618D01*
X58507298Y-27149684D01*
X58691850Y-27298700D01*
X58898940Y-27414388D01*
X59122601Y-27493412D01*
X59356394Y-27533500D01*
X59356396Y-27533500D01*
X59534191Y-27533500D01*
X59534195Y-27533500D01*
X59652299Y-27523447D01*
X59711354Y-27518421D01*
X59864390Y-27478573D01*
X59940910Y-27458650D01*
X60048984Y-27409796D01*
X60157060Y-27360943D01*
X60353590Y-27228113D01*
X60524844Y-27063979D01*
X60665896Y-26873264D01*
X60772688Y-26661454D01*
X60798935Y-26575745D01*
X60837169Y-26517596D01*
X60900706Y-26489199D01*
X60969533Y-26499502D01*
X61021970Y-26545259D01*
X61041500Y-26612057D01*
X61041500Y-32853893D01*
X61026414Y-32913170D01*
X60984826Y-32958024D01*
X60926856Y-32977540D01*
X60866610Y-32966969D01*
X60855840Y-32962122D01*
X60845622Y-32960249D01*
X60824011Y-32954224D01*
X60814313Y-32950546D01*
X60753880Y-32943207D01*
X60746481Y-32942080D01*
X60686606Y-32931108D01*
X60625835Y-32934785D01*
X60618348Y-32935011D01*
X60189397Y-32935011D01*
X60134553Y-32922223D01*
X60091021Y-32886497D01*
X60067780Y-32835202D01*
X60069622Y-32778917D01*
X60087269Y-32713056D01*
X60088070Y-32710068D01*
X60107323Y-32490000D01*
X60088070Y-32269932D01*
X60030894Y-32056550D01*
X59937534Y-31856339D01*
X59810826Y-31675380D01*
X59654620Y-31519174D01*
X59473662Y-31392466D01*
X59456592Y-31384506D01*
X59344811Y-31332381D01*
X59292635Y-31286624D01*
X59273216Y-31219998D01*
X59292636Y-31153373D01*
X59344810Y-31107618D01*
X59473662Y-31047534D01*
X59654620Y-30920826D01*
X59810826Y-30764620D01*
X59937534Y-30583662D01*
X60030894Y-30383450D01*
X60088070Y-30170068D01*
X60107323Y-29950000D01*
X60088070Y-29729932D01*
X60030894Y-29516550D01*
X59937534Y-29316339D01*
X59810826Y-29135380D01*
X59654620Y-28979174D01*
X59473662Y-28852466D01*
X59473661Y-28852465D01*
X59273451Y-28759106D01*
X59060065Y-28701929D01*
X58840000Y-28682676D01*
X58619934Y-28701929D01*
X58406548Y-28759106D01*
X58206338Y-28852466D01*
X58025379Y-28979174D01*
X57869174Y-29135379D01*
X57742466Y-29316338D01*
X57649106Y-29516548D01*
X57591929Y-29729934D01*
X57572676Y-29949999D01*
X57591929Y-30170065D01*
X57644817Y-30367446D01*
X57649106Y-30383450D01*
X57742466Y-30583662D01*
X57869174Y-30764620D01*
X58025380Y-30920826D01*
X58206338Y-31047534D01*
X58274296Y-31079223D01*
X58335189Y-31107618D01*
X58387365Y-31153375D01*
X58406784Y-31220000D01*
X58387365Y-31286625D01*
X58335189Y-31332382D01*
X58206338Y-31392466D01*
X58025379Y-31519174D01*
X57869174Y-31675379D01*
X57742466Y-31856338D01*
X57649106Y-32056548D01*
X57591929Y-32269934D01*
X57572676Y-32490000D01*
X57591929Y-32710065D01*
X57610378Y-32778917D01*
X57612220Y-32835202D01*
X57588979Y-32886497D01*
X57545447Y-32922223D01*
X57490603Y-32935011D01*
X55381658Y-32935011D01*
X55374171Y-32934785D01*
X55313394Y-32931108D01*
X55253519Y-32942080D01*
X55246120Y-32943206D01*
X55185689Y-32950545D01*
X55175985Y-32954225D01*
X55154378Y-32960249D01*
X55144157Y-32962122D01*
X55088646Y-32987105D01*
X55081731Y-32989970D01*
X55024813Y-33011557D01*
X55016264Y-33017458D01*
X54996728Y-33028476D01*
X54987265Y-33032735D01*
X54939346Y-33070276D01*
X54933318Y-33074711D01*
X54883216Y-33109295D01*
X54842854Y-33154854D01*
X54837722Y-33160305D01*
X54726338Y-33271691D01*
X54686109Y-33298572D01*
X54638656Y-33308011D01*
X53420535Y-33308011D01*
X53365691Y-33295223D01*
X53322159Y-33259497D01*
X53298918Y-33208202D01*
X53300760Y-33151917D01*
X53303911Y-33140158D01*
X53320978Y-33076463D01*
X53340353Y-32855000D01*
X53320978Y-32633537D01*
X53263440Y-32418804D01*
X53169488Y-32217324D01*
X53041977Y-32035219D01*
X52884781Y-31878023D01*
X52702677Y-31750512D01*
X52588738Y-31697381D01*
X52536563Y-31651625D01*
X52517144Y-31585000D01*
X52536563Y-31518375D01*
X52588739Y-31472618D01*
X52702677Y-31419488D01*
X52884781Y-31291977D01*
X53041977Y-31134781D01*
X53169488Y-30952677D01*
X53263440Y-30751196D01*
X53320978Y-30536463D01*
X53340353Y-30315000D01*
X53320978Y-30093537D01*
X53263440Y-29878804D01*
X53169488Y-29677324D01*
X53041977Y-29495219D01*
X52884781Y-29338023D01*
X52702677Y-29210512D01*
X52541554Y-29135379D01*
X52501197Y-29116560D01*
X52286460Y-29059021D01*
X52065000Y-29039646D01*
X51843539Y-29059021D01*
X51628802Y-29116560D01*
X51427323Y-29210512D01*
X51245218Y-29338023D01*
X51088023Y-29495218D01*
X50960512Y-29677323D01*
X50866560Y-29878802D01*
X50809021Y-30093539D01*
X50789646Y-30314999D01*
X50809021Y-30536460D01*
X50866560Y-30751197D01*
X50905473Y-30834646D01*
X50960512Y-30952677D01*
X51088023Y-31134781D01*
X51245219Y-31291977D01*
X51427323Y-31419488D01*
X51498178Y-31452528D01*
X51541260Y-31472618D01*
X51593436Y-31518375D01*
X51612855Y-31585000D01*
X51593436Y-31651625D01*
X51541260Y-31697382D01*
X51427323Y-31750512D01*
X51245218Y-31878023D01*
X51088023Y-32035218D01*
X50960512Y-32217323D01*
X50866560Y-32418802D01*
X50809021Y-32633539D01*
X50789646Y-32855000D01*
X50809021Y-33076460D01*
X50866560Y-33291197D01*
X50901431Y-33365978D01*
X50960512Y-33492677D01*
X51050005Y-33620486D01*
X51071121Y-33673637D01*
X51066136Y-33730613D01*
X51036111Y-33779290D01*
X46016804Y-38798598D01*
X46011352Y-38803731D01*
X45965783Y-38844102D01*
X45931201Y-38894201D01*
X45926765Y-38900230D01*
X45889225Y-38948147D01*
X45884964Y-38957614D01*
X45873946Y-38977149D01*
X45868045Y-38985699D01*
X45846457Y-39042619D01*
X45843593Y-39049535D01*
X45818610Y-39105045D01*
X45816738Y-39115263D01*
X45810714Y-39136870D01*
X45807035Y-39146570D01*
X45799696Y-39207006D01*
X45798569Y-39214405D01*
X45787597Y-39274278D01*
X45791274Y-39335050D01*
X45791500Y-39342537D01*
X45791500Y-42881538D01*
X45783264Y-42925975D01*
X45767462Y-42951761D01*
X45767476Y-42951769D01*
X45665472Y-43128443D01*
X45606458Y-43310070D01*
X45586496Y-43500000D01*
X45606458Y-43689929D01*
X45665472Y-43871556D01*
X45760957Y-44036941D01*
X45760960Y-44036944D01*
X45888747Y-44178866D01*
X46015528Y-44270978D01*
X46043248Y-44291118D01*
X46217714Y-44368795D01*
X46404511Y-44408500D01*
X46404513Y-44408500D01*
X46595487Y-44408500D01*
X46595489Y-44408500D01*
X46782285Y-44368795D01*
X46782286Y-44368794D01*
X46782288Y-44368794D01*
X46956752Y-44291118D01*
X47111253Y-44178866D01*
X47239040Y-44036944D01*
X47266018Y-43990218D01*
X47334527Y-43871556D01*
X47355302Y-43807618D01*
X47393542Y-43689928D01*
X47411450Y-43519536D01*
X47431970Y-43463160D01*
X47476557Y-43423014D01*
X47534771Y-43408500D01*
X47595489Y-43408500D01*
X47782285Y-43368795D01*
X47782286Y-43368794D01*
X47782288Y-43368794D01*
X47956752Y-43291118D01*
X48111253Y-43178866D01*
X48239040Y-43036944D01*
X48241099Y-43033379D01*
X48334527Y-42871556D01*
X48359877Y-42793537D01*
X48393542Y-42689928D01*
X48413504Y-42500000D01*
X48411099Y-42477123D01*
X48418345Y-42420546D01*
X48450157Y-42373194D01*
X48499802Y-42345095D01*
X48556771Y-42342196D01*
X48593418Y-42348912D01*
X48649475Y-42345521D01*
X48654177Y-42345237D01*
X48661663Y-42345011D01*
X50780938Y-42345011D01*
X50840581Y-42360297D01*
X50885518Y-42402386D01*
X50904672Y-42460901D01*
X50893320Y-42521415D01*
X50866561Y-42578799D01*
X50809021Y-42793539D01*
X50789646Y-43015000D01*
X50809021Y-43236460D01*
X50866560Y-43451197D01*
X50907970Y-43540000D01*
X50960512Y-43652677D01*
X51088023Y-43834781D01*
X51245219Y-43991977D01*
X51427323Y-44119488D01*
X51508293Y-44157245D01*
X51541260Y-44172618D01*
X51593436Y-44218375D01*
X51612855Y-44285000D01*
X51593436Y-44351625D01*
X51541260Y-44397382D01*
X51427323Y-44450512D01*
X51245218Y-44578023D01*
X51088023Y-44735218D01*
X50960512Y-44917323D01*
X50866560Y-45118802D01*
X50809021Y-45333539D01*
X50789646Y-45555000D01*
X50809021Y-45776460D01*
X50866560Y-45991197D01*
X50901431Y-46065978D01*
X50960512Y-46192677D01*
X51088023Y-46374781D01*
X51245219Y-46531977D01*
X51427323Y-46659488D01*
X51508293Y-46697245D01*
X51541260Y-46712618D01*
X51593436Y-46758375D01*
X51612855Y-46825000D01*
X51593436Y-46891625D01*
X51541260Y-46937382D01*
X51427323Y-46990512D01*
X51245218Y-47118023D01*
X51088023Y-47275218D01*
X50960512Y-47457323D01*
X50866560Y-47658802D01*
X50809021Y-47873539D01*
X50789646Y-48094999D01*
X50809021Y-48316460D01*
X50866560Y-48531197D01*
X50901431Y-48605978D01*
X50960512Y-48732677D01*
X51088023Y-48914781D01*
X51245219Y-49071977D01*
X51427323Y-49199488D01*
X51507414Y-49236835D01*
X51541260Y-49252618D01*
X51593436Y-49298375D01*
X51612855Y-49365000D01*
X51593436Y-49431625D01*
X51541260Y-49477382D01*
X51427323Y-49530512D01*
X51245218Y-49658023D01*
X51088023Y-49815218D01*
X50960512Y-49997323D01*
X50866560Y-50198802D01*
X50809021Y-50413539D01*
X50789646Y-50635000D01*
X50809021Y-50856460D01*
X50866560Y-51071197D01*
X50898754Y-51140236D01*
X50960512Y-51272677D01*
X51088023Y-51454781D01*
X51245219Y-51611977D01*
X51427323Y-51739488D01*
X51508293Y-51777245D01*
X51541260Y-51792618D01*
X51593436Y-51838375D01*
X51612855Y-51905000D01*
X51593436Y-51971625D01*
X51541260Y-52017382D01*
X51427323Y-52070512D01*
X51245218Y-52198023D01*
X51088023Y-52355218D01*
X50960512Y-52537323D01*
X50866560Y-52738802D01*
X50809021Y-52953539D01*
X50789646Y-53175000D01*
X50809021Y-53396460D01*
X50866560Y-53611197D01*
X50912039Y-53708726D01*
X50960512Y-53812677D01*
X51088023Y-53994781D01*
X51245219Y-54151977D01*
X51427323Y-54279488D01*
X51508293Y-54317245D01*
X51541260Y-54332618D01*
X51593436Y-54378375D01*
X51612855Y-54445000D01*
X51593436Y-54511625D01*
X51541260Y-54557382D01*
X51427323Y-54610512D01*
X51245218Y-54738023D01*
X51088023Y-54895218D01*
X50960512Y-55077323D01*
X50866560Y-55278802D01*
X50809021Y-55493539D01*
X50789646Y-55714999D01*
X50809021Y-55936460D01*
X50866560Y-56151197D01*
X50911240Y-56247013D01*
X50960512Y-56352677D01*
X51088023Y-56534781D01*
X51245219Y-56691977D01*
X51427323Y-56819488D01*
X51508293Y-56857245D01*
X51541260Y-56872618D01*
X51593436Y-56918375D01*
X51612855Y-56985000D01*
X51593436Y-57051625D01*
X51541260Y-57097382D01*
X51427323Y-57150512D01*
X51245218Y-57278023D01*
X51088023Y-57435218D01*
X50960512Y-57617323D01*
X50866560Y-57818802D01*
X50809021Y-58033539D01*
X50789646Y-58254999D01*
X50809021Y-58476460D01*
X50866560Y-58691197D01*
X50900814Y-58764655D01*
X50960512Y-58892677D01*
X51088023Y-59074781D01*
X51245219Y-59231977D01*
X51427323Y-59359488D01*
X51529732Y-59407242D01*
X51551316Y-59417307D01*
X51603492Y-59463064D01*
X51622911Y-59529689D01*
X51603492Y-59596314D01*
X51551316Y-59642071D01*
X51431589Y-59697900D01*
X51366812Y-59743258D01*
X51366811Y-59743258D01*
X52065000Y-60441446D01*
X52065001Y-60441446D01*
X52763187Y-59743258D01*
X52698406Y-59697898D01*
X52578683Y-59642071D01*
X52526506Y-59596314D01*
X52507087Y-59529689D01*
X52526507Y-59463064D01*
X52578682Y-59417307D01*
X52702677Y-59359488D01*
X52884781Y-59231977D01*
X53041977Y-59074781D01*
X53169488Y-58892677D01*
X53263440Y-58691196D01*
X53320978Y-58476463D01*
X53340353Y-58255000D01*
X53339825Y-58248970D01*
X53321839Y-58043375D01*
X53320978Y-58033537D01*
X53263440Y-57818804D01*
X53169488Y-57617324D01*
X53041977Y-57435219D01*
X52884781Y-57278023D01*
X52702677Y-57150512D01*
X52588738Y-57097381D01*
X52536563Y-57051625D01*
X52517144Y-56985000D01*
X52536563Y-56918375D01*
X52588739Y-56872618D01*
X52702677Y-56819488D01*
X52884781Y-56691977D01*
X53041977Y-56534781D01*
X53169488Y-56352677D01*
X53263440Y-56151196D01*
X53320978Y-55936463D01*
X53340353Y-55715000D01*
X53320978Y-55493537D01*
X53263440Y-55278804D01*
X53169488Y-55077324D01*
X53041977Y-54895219D01*
X52884781Y-54738023D01*
X52702677Y-54610512D01*
X52588738Y-54557381D01*
X52536563Y-54511625D01*
X52517144Y-54445000D01*
X52536563Y-54378375D01*
X52588739Y-54332618D01*
X52702677Y-54279488D01*
X52884781Y-54151977D01*
X53041977Y-53994781D01*
X53169488Y-53812677D01*
X53263440Y-53611196D01*
X53320978Y-53396463D01*
X53340353Y-53175000D01*
X53320978Y-52953537D01*
X53263440Y-52738804D01*
X53169488Y-52537324D01*
X53041977Y-52355219D01*
X52884781Y-52198023D01*
X52702677Y-52070512D01*
X52588738Y-52017381D01*
X52536563Y-51971625D01*
X52517144Y-51905000D01*
X52536563Y-51838375D01*
X52588739Y-51792618D01*
X52702677Y-51739488D01*
X52884781Y-51611977D01*
X53041977Y-51454781D01*
X53169488Y-51272677D01*
X53263440Y-51071196D01*
X53320978Y-50856463D01*
X53340353Y-50635000D01*
X53320978Y-50413537D01*
X53263440Y-50198804D01*
X53169488Y-49997324D01*
X53041977Y-49815219D01*
X52884781Y-49658023D01*
X52702677Y-49530512D01*
X52588738Y-49477381D01*
X52536563Y-49431625D01*
X52517144Y-49365000D01*
X52536563Y-49298375D01*
X52588739Y-49252618D01*
X52702677Y-49199488D01*
X52884781Y-49071977D01*
X53041977Y-48914781D01*
X53082873Y-48856374D01*
X53127190Y-48817511D01*
X53184447Y-48803500D01*
X54750168Y-48803500D01*
X54797621Y-48812939D01*
X54837849Y-48839819D01*
X55255181Y-49257151D01*
X55282061Y-49297379D01*
X55291500Y-49344832D01*
X55291500Y-51833807D01*
X55273227Y-51898597D01*
X55223794Y-51944292D01*
X55157770Y-51957425D01*
X55094614Y-51934125D01*
X55066751Y-51913881D01*
X54892285Y-51836204D01*
X54705489Y-51796500D01*
X54705487Y-51796500D01*
X54514513Y-51796500D01*
X54514511Y-51796500D01*
X54327714Y-51836204D01*
X54153248Y-51913881D01*
X53998748Y-52026133D01*
X53870957Y-52168058D01*
X53775472Y-52333443D01*
X53716458Y-52515070D01*
X53700727Y-52664743D01*
X53696496Y-52705000D01*
X53716458Y-52894928D01*
X53716459Y-52894931D01*
X53720431Y-52907156D01*
X53726500Y-52945473D01*
X53726500Y-74850705D01*
X53724973Y-74870104D01*
X53722850Y-74883506D01*
X53726330Y-74949907D01*
X53726500Y-74956397D01*
X53726500Y-74976312D01*
X53728580Y-74996112D01*
X53729089Y-75002575D01*
X53732569Y-75068967D01*
X53732569Y-75068970D01*
X53732570Y-75068971D01*
X53736081Y-75082075D01*
X53739626Y-75101200D01*
X53741045Y-75114701D01*
X53761585Y-75177917D01*
X53763428Y-75184139D01*
X53780637Y-75248361D01*
X53786798Y-75260454D01*
X53794242Y-75278426D01*
X53798434Y-75291328D01*
X53798436Y-75291331D01*
X53831681Y-75348914D01*
X53834770Y-75354603D01*
X53864951Y-75413836D01*
X53864953Y-75413839D01*
X53873490Y-75424381D01*
X53884506Y-75440409D01*
X53891296Y-75452169D01*
X53935787Y-75501581D01*
X53939979Y-75506490D01*
X53951838Y-75521134D01*
X53952530Y-75521988D01*
X53966608Y-75536066D01*
X53971077Y-75540775D01*
X54015566Y-75590185D01*
X54026545Y-75598162D01*
X54041340Y-75610798D01*
X54760361Y-76329819D01*
X54790611Y-76379182D01*
X54795153Y-76436898D01*
X54772998Y-76490385D01*
X54728975Y-76527985D01*
X54672680Y-76541500D01*
X46615163Y-76541500D01*
X46607676Y-76541274D01*
X46546904Y-76537597D01*
X46487031Y-76548569D01*
X46479632Y-76549696D01*
X46419196Y-76557035D01*
X46409496Y-76560714D01*
X46387889Y-76566738D01*
X46377671Y-76568610D01*
X46322161Y-76593593D01*
X46315245Y-76596457D01*
X46258325Y-76618045D01*
X46249775Y-76623946D01*
X46230240Y-76634964D01*
X46220773Y-76639225D01*
X46172856Y-76676765D01*
X46166827Y-76681201D01*
X46116728Y-76715783D01*
X46076357Y-76761352D01*
X46071224Y-76766804D01*
X45920180Y-76917848D01*
X45870818Y-76948098D01*
X45813102Y-76952640D01*
X45759615Y-76930485D01*
X45722015Y-76886462D01*
X45708500Y-76830167D01*
X45708500Y-72225000D01*
X49519646Y-72225000D01*
X49539021Y-72446460D01*
X49596560Y-72661197D01*
X49629661Y-72732182D01*
X49690512Y-72862677D01*
X49818023Y-73044781D01*
X49975219Y-73201977D01*
X50157323Y-73329488D01*
X50358804Y-73423440D01*
X50573537Y-73480978D01*
X50795000Y-73500353D01*
X51016463Y-73480978D01*
X51231196Y-73423440D01*
X51432677Y-73329488D01*
X51614781Y-73201977D01*
X51771977Y-73044781D01*
X51899488Y-72862677D01*
X51993440Y-72661196D01*
X52050978Y-72446463D01*
X52070353Y-72225000D01*
X52050978Y-72003537D01*
X51993440Y-71788804D01*
X51899488Y-71587324D01*
X51771977Y-71405219D01*
X51614781Y-71248023D01*
X51432677Y-71120512D01*
X51324823Y-71070219D01*
X51231197Y-71026560D01*
X51016460Y-70969021D01*
X50795000Y-70949646D01*
X50573539Y-70969021D01*
X50358802Y-71026560D01*
X50157323Y-71120512D01*
X49975218Y-71248023D01*
X49818023Y-71405218D01*
X49690512Y-71587323D01*
X49596560Y-71788802D01*
X49539021Y-72003539D01*
X49519646Y-72225000D01*
X45708500Y-72225000D01*
X45708500Y-68415000D01*
X50789646Y-68415000D01*
X50809021Y-68636460D01*
X50866560Y-68851197D01*
X50876054Y-68871556D01*
X50960512Y-69052677D01*
X51088023Y-69234781D01*
X51245219Y-69391977D01*
X51427323Y-69519488D01*
X51628804Y-69613440D01*
X51843537Y-69670978D01*
X51991178Y-69683894D01*
X52064999Y-69690353D01*
X52064999Y-69690352D01*
X52065000Y-69690353D01*
X52286463Y-69670978D01*
X52501196Y-69613440D01*
X52702677Y-69519488D01*
X52884781Y-69391977D01*
X53041977Y-69234781D01*
X53169488Y-69052677D01*
X53263440Y-68851196D01*
X53320978Y-68636463D01*
X53340353Y-68415000D01*
X53320978Y-68193537D01*
X53263440Y-67978804D01*
X53169488Y-67777324D01*
X53041977Y-67595219D01*
X52884781Y-67438023D01*
X52702677Y-67310512D01*
X52702676Y-67310511D01*
X52702674Y-67310510D01*
X52588739Y-67257381D01*
X52536563Y-67211623D01*
X52517144Y-67144998D01*
X52536564Y-67078373D01*
X52588738Y-67032618D01*
X52702677Y-66979488D01*
X52884781Y-66851977D01*
X53041977Y-66694781D01*
X53169488Y-66512677D01*
X53263440Y-66311196D01*
X53320978Y-66096463D01*
X53340353Y-65875000D01*
X53320978Y-65653537D01*
X53263440Y-65438804D01*
X53169488Y-65237324D01*
X53041977Y-65055219D01*
X52884781Y-64898023D01*
X52702677Y-64770512D01*
X52588738Y-64717381D01*
X52536563Y-64671625D01*
X52517144Y-64605000D01*
X52536563Y-64538375D01*
X52588739Y-64492618D01*
X52702677Y-64439488D01*
X52884781Y-64311977D01*
X53041977Y-64154781D01*
X53169488Y-63972677D01*
X53263440Y-63771196D01*
X53320978Y-63556463D01*
X53340353Y-63335000D01*
X53320978Y-63113537D01*
X53263440Y-62898804D01*
X53169488Y-62697324D01*
X53041977Y-62515219D01*
X52884781Y-62358023D01*
X52702677Y-62230512D01*
X52658869Y-62210084D01*
X52578683Y-62172692D01*
X52526507Y-62126934D01*
X52507088Y-62060309D01*
X52526508Y-61993684D01*
X52578684Y-61947927D01*
X52698412Y-61892097D01*
X52763187Y-61846740D01*
X52065001Y-61148553D01*
X52065000Y-61148553D01*
X51366812Y-61846740D01*
X51431592Y-61892100D01*
X51551316Y-61947928D01*
X51603492Y-61993684D01*
X51622912Y-62060309D01*
X51603493Y-62126934D01*
X51551318Y-62172692D01*
X51427321Y-62230513D01*
X51245218Y-62358023D01*
X51088023Y-62515218D01*
X50960512Y-62697323D01*
X50866560Y-62898802D01*
X50809021Y-63113539D01*
X50789646Y-63334999D01*
X50809021Y-63556460D01*
X50866560Y-63771197D01*
X50892390Y-63826589D01*
X50960512Y-63972677D01*
X51088023Y-64154781D01*
X51245219Y-64311977D01*
X51427323Y-64439488D01*
X51508293Y-64477245D01*
X51541260Y-64492618D01*
X51593436Y-64538375D01*
X51612855Y-64605000D01*
X51593436Y-64671625D01*
X51541260Y-64717382D01*
X51427323Y-64770512D01*
X51245218Y-64898023D01*
X51088023Y-65055218D01*
X50960512Y-65237323D01*
X50866560Y-65438802D01*
X50809021Y-65653539D01*
X50789646Y-65875000D01*
X50809021Y-66096460D01*
X50866560Y-66311197D01*
X50890401Y-66362323D01*
X50960512Y-66512677D01*
X51088023Y-66694781D01*
X51245219Y-66851977D01*
X51427323Y-66979488D01*
X51508293Y-67017245D01*
X51541260Y-67032618D01*
X51593436Y-67078375D01*
X51612855Y-67145000D01*
X51593436Y-67211625D01*
X51541260Y-67257382D01*
X51427323Y-67310512D01*
X51245218Y-67438023D01*
X51088023Y-67595218D01*
X50960512Y-67777323D01*
X50866560Y-67978802D01*
X50809021Y-68193539D01*
X50789646Y-68415000D01*
X45708500Y-68415000D01*
X45708500Y-60794999D01*
X50798178Y-60794999D01*
X50817424Y-61014978D01*
X50874579Y-61228281D01*
X50967898Y-61428406D01*
X51013258Y-61493187D01*
X51711446Y-60795001D01*
X52418553Y-60795001D01*
X53116740Y-61493186D01*
X53162100Y-61428408D01*
X53255420Y-61228281D01*
X53312575Y-61014978D01*
X53331821Y-60794999D01*
X53312575Y-60575021D01*
X53255421Y-60361720D01*
X53162098Y-60161589D01*
X53116740Y-60096811D01*
X52418553Y-60795000D01*
X52418553Y-60795001D01*
X51711446Y-60795001D01*
X51711446Y-60795000D01*
X51013258Y-60096811D01*
X51013258Y-60096812D01*
X50967900Y-60161589D01*
X50874578Y-60361719D01*
X50817424Y-60575021D01*
X50798178Y-60794999D01*
X45708500Y-60794999D01*
X45708500Y-51525163D01*
X45708726Y-51517676D01*
X45709806Y-51499824D01*
X45712402Y-51456907D01*
X45701423Y-51397000D01*
X45700303Y-51389638D01*
X45692965Y-51329199D01*
X45689286Y-51319500D01*
X45683260Y-51297881D01*
X45681389Y-51287671D01*
X45656403Y-51232155D01*
X45653536Y-51225233D01*
X45650639Y-51217594D01*
X45631954Y-51168325D01*
X45626057Y-51159781D01*
X45615034Y-51140236D01*
X45610775Y-51130774D01*
X45573233Y-51082856D01*
X45568793Y-51076822D01*
X45564910Y-51071197D01*
X45534215Y-51026727D01*
X45534214Y-51026725D01*
X45488647Y-50986357D01*
X45483193Y-50981223D01*
X43934163Y-49432193D01*
X43909923Y-49397894D01*
X43898523Y-49357471D01*
X43893542Y-49310070D01*
X43834527Y-49128443D01*
X43739042Y-48963058D01*
X43671115Y-48887618D01*
X43611253Y-48821134D01*
X43501795Y-48741608D01*
X43456751Y-48708881D01*
X43282285Y-48631204D01*
X43095489Y-48591500D01*
X43095487Y-48591500D01*
X42904513Y-48591500D01*
X42904511Y-48591500D01*
X42717714Y-48631204D01*
X42543248Y-48708881D01*
X42388747Y-48821134D01*
X42342148Y-48872887D01*
X42284177Y-48909110D01*
X42215819Y-48909109D01*
X42157850Y-48872886D01*
X42111253Y-48821134D01*
X41956752Y-48708882D01*
X41956751Y-48708881D01*
X41782285Y-48631204D01*
X41595489Y-48591500D01*
X41595487Y-48591500D01*
X41404513Y-48591500D01*
X41404511Y-48591500D01*
X41217714Y-48631204D01*
X41043248Y-48708881D01*
X40888748Y-48821133D01*
X40760957Y-48963058D01*
X40665472Y-49128443D01*
X40617931Y-49274761D01*
X40584884Y-49326835D01*
X40530837Y-49356547D01*
X40469163Y-49356547D01*
X40415116Y-49326835D01*
X40382069Y-49274761D01*
X40334527Y-49128443D01*
X40239042Y-48963058D01*
X40171115Y-48887618D01*
X40111253Y-48821134D01*
X40001795Y-48741608D01*
X39956751Y-48708881D01*
X39782285Y-48631204D01*
X39595489Y-48591500D01*
X39595487Y-48591500D01*
X39404513Y-48591500D01*
X39404511Y-48591500D01*
X39217714Y-48631204D01*
X39043248Y-48708881D01*
X38888748Y-48821133D01*
X38760957Y-48963058D01*
X38665472Y-49128443D01*
X38606458Y-49310070D01*
X38586496Y-49500000D01*
X38606458Y-49689929D01*
X38665472Y-49871556D01*
X38760957Y-50036941D01*
X38772654Y-50049932D01*
X38888747Y-50178866D01*
X38989784Y-50252274D01*
X39043248Y-50291118D01*
X39217714Y-50368795D01*
X39371147Y-50401408D01*
X39404534Y-50413725D01*
X39433047Y-50435017D01*
X43056141Y-54058111D01*
X43083021Y-54098339D01*
X43092460Y-54145792D01*
X43092460Y-72967500D01*
X43075847Y-73029500D01*
X43030460Y-73074887D01*
X42968460Y-73091500D01*
X42904511Y-73091500D01*
X42717714Y-73131204D01*
X42543248Y-73208881D01*
X42462130Y-73267818D01*
X42427562Y-73285431D01*
X42389244Y-73291500D01*
X41344832Y-73291500D01*
X41297379Y-73282061D01*
X41257151Y-73255181D01*
X36744819Y-68742849D01*
X36717939Y-68702621D01*
X36708500Y-68655168D01*
X36708500Y-51844832D01*
X36717939Y-51797379D01*
X36744819Y-51757151D01*
X37361734Y-51140236D01*
X37983217Y-50518752D01*
X37988637Y-50513650D01*
X38034215Y-50473273D01*
X38068809Y-50423153D01*
X38073219Y-50417160D01*
X38110775Y-50369226D01*
X38115037Y-50359754D01*
X38126055Y-50340219D01*
X38131954Y-50331675D01*
X38153544Y-50274743D01*
X38156394Y-50267861D01*
X38181388Y-50212330D01*
X38183257Y-50202128D01*
X38189287Y-50180497D01*
X38189906Y-50178866D01*
X38192965Y-50170801D01*
X38200302Y-50110365D01*
X38201428Y-50102965D01*
X38203092Y-50093885D01*
X38212401Y-50043093D01*
X38208726Y-49982334D01*
X38208500Y-49974848D01*
X38208500Y-46173462D01*
X38216736Y-46129025D01*
X38232537Y-46103238D01*
X38232524Y-46103231D01*
X38334527Y-45926556D01*
X38352398Y-45871556D01*
X38393542Y-45744928D01*
X38413504Y-45555000D01*
X38393542Y-45365072D01*
X38334527Y-45183444D01*
X38334527Y-45183443D01*
X38239042Y-45018058D01*
X38197723Y-44972169D01*
X38111253Y-44876134D01*
X37956752Y-44763882D01*
X37956751Y-44763881D01*
X37782285Y-44686204D01*
X37595489Y-44646500D01*
X37595487Y-44646500D01*
X37509929Y-44646500D01*
X37459494Y-44635780D01*
X37417779Y-44605472D01*
X37391998Y-44560819D01*
X37334526Y-44383942D01*
X37239042Y-44218558D01*
X37197677Y-44172618D01*
X37111253Y-44076634D01*
X36994728Y-43991973D01*
X36956751Y-43964381D01*
X36782285Y-43886704D01*
X36595489Y-43847000D01*
X36595487Y-43847000D01*
X36530092Y-43847000D01*
X36471878Y-43832486D01*
X36427292Y-43792341D01*
X36406772Y-43735964D01*
X36403939Y-43709015D01*
X36410923Y-43653134D01*
X36441902Y-43606105D01*
X36490488Y-43577629D01*
X36546658Y-43573578D01*
X36623127Y-43585690D01*
X36905719Y-43600500D01*
X36905720Y-43600500D01*
X37094280Y-43600500D01*
X37094281Y-43600500D01*
X37109910Y-43599680D01*
X37376871Y-43585690D01*
X37627279Y-43546029D01*
X37749609Y-43526654D01*
X37752132Y-43525978D01*
X38114143Y-43428978D01*
X38466465Y-43293734D01*
X38802720Y-43122403D01*
X38802719Y-43122403D01*
X38802724Y-43122401D01*
X39001751Y-42993151D01*
X39119225Y-42916863D01*
X39412511Y-42679365D01*
X39679365Y-42412511D01*
X39916863Y-42119225D01*
X40052403Y-41910512D01*
X40063505Y-41893417D01*
X40110051Y-41851063D01*
X40171395Y-41837013D01*
X40231735Y-41854887D01*
X40275531Y-41900080D01*
X40291500Y-41960952D01*
X40291500Y-41974837D01*
X40291274Y-41982324D01*
X40287597Y-42043095D01*
X40298569Y-42102970D01*
X40299696Y-42110369D01*
X40307035Y-42170802D01*
X40310713Y-42180500D01*
X40316738Y-42202111D01*
X40318611Y-42212329D01*
X40343597Y-42267848D01*
X40346463Y-42274766D01*
X40362821Y-42317899D01*
X40368047Y-42331677D01*
X40373941Y-42340216D01*
X40384964Y-42359760D01*
X40389224Y-42369225D01*
X40426761Y-42417137D01*
X40431200Y-42423170D01*
X40465782Y-42473270D01*
X40465784Y-42473272D01*
X40465785Y-42473273D01*
X40511370Y-42513658D01*
X40516805Y-42518775D01*
X46255181Y-48257152D01*
X46282061Y-48297380D01*
X46291500Y-48344833D01*
X46291500Y-58974834D01*
X46291274Y-58982321D01*
X46287597Y-59043095D01*
X46298569Y-59102970D01*
X46299696Y-59110369D01*
X46307035Y-59170802D01*
X46310713Y-59180500D01*
X46316738Y-59202111D01*
X46318611Y-59212329D01*
X46343597Y-59267848D01*
X46346463Y-59274766D01*
X46368047Y-59331677D01*
X46373941Y-59340216D01*
X46384964Y-59359760D01*
X46389224Y-59369225D01*
X46426761Y-59417137D01*
X46431200Y-59423170D01*
X46465782Y-59473270D01*
X46465784Y-59473272D01*
X46465785Y-59473273D01*
X46511370Y-59513658D01*
X46516805Y-59518775D01*
X46565836Y-59567806D01*
X46590075Y-59602103D01*
X46601476Y-59642524D01*
X46606458Y-59689929D01*
X46665472Y-59871556D01*
X46760957Y-60036941D01*
X46776518Y-60054223D01*
X46888747Y-60178866D01*
X46996881Y-60257430D01*
X47043248Y-60291118D01*
X47217714Y-60368795D01*
X47404511Y-60408500D01*
X47404513Y-60408500D01*
X47595487Y-60408500D01*
X47595489Y-60408500D01*
X47782285Y-60368795D01*
X47782286Y-60368794D01*
X47782288Y-60368794D01*
X47956752Y-60291118D01*
X48111253Y-60178866D01*
X48239040Y-60036944D01*
X48246866Y-60023390D01*
X48334527Y-59871556D01*
X48352514Y-59816197D01*
X48393542Y-59689928D01*
X48413504Y-59500000D01*
X48393542Y-59310072D01*
X48346304Y-59164689D01*
X48334527Y-59128443D01*
X48239042Y-58963058D01*
X48219442Y-58941291D01*
X48111253Y-58821134D01*
X48005823Y-58744534D01*
X47956751Y-58708881D01*
X47841420Y-58657533D01*
X47782288Y-58631206D01*
X47782286Y-58631205D01*
X47782065Y-58631107D01*
X47743302Y-58603965D01*
X47717529Y-58564278D01*
X47708500Y-58517827D01*
X47708500Y-48025152D01*
X47708726Y-48017666D01*
X47710389Y-47990168D01*
X47712401Y-47956907D01*
X47701426Y-47897025D01*
X47700301Y-47889625D01*
X47698348Y-47873537D01*
X47692965Y-47829199D01*
X47689285Y-47819497D01*
X47683257Y-47797871D01*
X47681388Y-47787670D01*
X47661473Y-47743420D01*
X47656404Y-47732157D01*
X47653537Y-47725236D01*
X47631954Y-47668325D01*
X47626055Y-47659779D01*
X47615032Y-47640233D01*
X47610775Y-47630774D01*
X47573222Y-47582842D01*
X47568790Y-47576818D01*
X47557723Y-47560785D01*
X47534215Y-47526727D01*
X47534214Y-47526725D01*
X47488656Y-47486365D01*
X47483202Y-47481231D01*
X44623181Y-44621210D01*
X41744818Y-41742848D01*
X41717939Y-41702621D01*
X41708500Y-41655168D01*
X41708500Y-37025163D01*
X41708726Y-37017676D01*
X41708740Y-37017433D01*
X41712402Y-36956907D01*
X41701423Y-36897000D01*
X41700303Y-36889638D01*
X41692965Y-36829199D01*
X41689286Y-36819500D01*
X41683260Y-36797881D01*
X41681389Y-36787671D01*
X41656403Y-36732155D01*
X41653536Y-36725233D01*
X41646343Y-36706266D01*
X41631954Y-36668325D01*
X41626057Y-36659781D01*
X41615034Y-36640236D01*
X41610775Y-36630774D01*
X41573233Y-36582856D01*
X41568793Y-36576822D01*
X41534214Y-36526725D01*
X41488647Y-36486357D01*
X41483193Y-36481223D01*
X39934163Y-34932193D01*
X39909923Y-34897894D01*
X39898523Y-34857471D01*
X39893542Y-34810070D01*
X39834527Y-34628443D01*
X39739042Y-34463058D01*
X39698492Y-34418023D01*
X39611253Y-34321134D01*
X39472970Y-34220665D01*
X39456751Y-34208881D01*
X39282285Y-34131204D01*
X39095489Y-34091500D01*
X39095487Y-34091500D01*
X38904513Y-34091500D01*
X38904511Y-34091500D01*
X38717714Y-34131204D01*
X38543248Y-34208881D01*
X38388748Y-34321133D01*
X38260957Y-34463058D01*
X38165472Y-34628443D01*
X38106458Y-34810070D01*
X38086496Y-35000000D01*
X38106458Y-35189929D01*
X38165472Y-35371556D01*
X38260957Y-35536941D01*
X38260960Y-35536944D01*
X38388747Y-35678866D01*
X38482659Y-35747097D01*
X38543248Y-35791118D01*
X38717714Y-35868795D01*
X38871147Y-35901408D01*
X38904534Y-35913725D01*
X38933047Y-35935017D01*
X40255181Y-37257151D01*
X40282061Y-37297379D01*
X40291500Y-37344832D01*
X40291500Y-38039049D01*
X40275530Y-38099921D01*
X40231735Y-38145114D01*
X40171395Y-38162988D01*
X40110051Y-38148938D01*
X40063505Y-38106584D01*
X39916865Y-37880778D01*
X39916863Y-37880775D01*
X39679365Y-37587489D01*
X39412511Y-37320635D01*
X39119225Y-37083137D01*
X39119223Y-37083136D01*
X39119221Y-37083134D01*
X38802724Y-36877598D01*
X38466464Y-36706265D01*
X38114142Y-36571021D01*
X37749609Y-36473345D01*
X37376873Y-36414310D01*
X37094281Y-36399500D01*
X37094280Y-36399500D01*
X36905720Y-36399500D01*
X36905719Y-36399500D01*
X36623126Y-36414310D01*
X36250390Y-36473345D01*
X35885857Y-36571021D01*
X35533535Y-36706265D01*
X35197275Y-36877598D01*
X34880778Y-37083134D01*
X34587485Y-37320638D01*
X34320638Y-37587485D01*
X34083134Y-37880778D01*
X33877598Y-38197274D01*
X33706265Y-38533535D01*
X33571021Y-38885857D01*
X33473345Y-39250390D01*
X33414310Y-39623126D01*
X33394559Y-39999999D01*
X33414310Y-40376873D01*
X33473345Y-40749609D01*
X33571021Y-41114142D01*
X33706265Y-41466464D01*
X33877598Y-41802724D01*
X34083134Y-42119221D01*
X34083137Y-42119225D01*
X34320635Y-42412511D01*
X34587489Y-42679365D01*
X34730488Y-42795163D01*
X34869427Y-42907674D01*
X34880775Y-42916863D01*
X34882138Y-42917748D01*
X34882985Y-42918652D01*
X34885826Y-42920953D01*
X34885507Y-42921345D01*
X34922793Y-42961149D01*
X34938565Y-43018490D01*
X34925825Y-43076580D01*
X34896874Y-43110935D01*
X34897468Y-43111470D01*
X34888750Y-43121151D01*
X34888747Y-43121154D01*
X34836783Y-43178866D01*
X34760957Y-43263078D01*
X34665472Y-43428463D01*
X34606458Y-43610090D01*
X34592012Y-43747534D01*
X34586496Y-43800020D01*
X34590150Y-43834784D01*
X34606458Y-43989949D01*
X34665472Y-44171576D01*
X34767476Y-44348251D01*
X34767462Y-44348258D01*
X34783264Y-44374045D01*
X34791500Y-44418482D01*
X34791500Y-49056145D01*
X34782061Y-49103598D01*
X34755181Y-49143826D01*
X33516803Y-50382203D01*
X33511351Y-50387336D01*
X33465783Y-50427706D01*
X33431201Y-50477805D01*
X33426765Y-50483834D01*
X33389225Y-50531751D01*
X33384964Y-50541218D01*
X33373946Y-50560753D01*
X33368045Y-50569303D01*
X33346457Y-50626223D01*
X33343593Y-50633139D01*
X33318610Y-50688649D01*
X33316738Y-50698867D01*
X33310714Y-50720474D01*
X33307035Y-50730174D01*
X33299696Y-50790610D01*
X33298569Y-50798009D01*
X33287597Y-50857882D01*
X33291274Y-50918654D01*
X33291500Y-50926141D01*
X33291500Y-69974837D01*
X33291274Y-69982324D01*
X33287597Y-70043095D01*
X29000500Y-70043095D01*
X29000500Y-58254999D01*
X30469646Y-58254999D01*
X30489021Y-58476460D01*
X30546560Y-58691197D01*
X30580814Y-58764655D01*
X30640512Y-58892677D01*
X30768023Y-59074781D01*
X30925219Y-59231977D01*
X31107323Y-59359488D01*
X31308804Y-59453440D01*
X31523537Y-59510978D01*
X31745000Y-59530353D01*
X31966463Y-59510978D01*
X32181196Y-59453440D01*
X32382677Y-59359488D01*
X32564781Y-59231977D01*
X32721977Y-59074781D01*
X32849488Y-58892677D01*
X32943440Y-58691196D01*
X33000978Y-58476463D01*
X33020353Y-58255000D01*
X33000978Y-58033537D01*
X32943440Y-57818804D01*
X32849488Y-57617324D01*
X32721977Y-57435219D01*
X32564781Y-57278023D01*
X32382677Y-57150512D01*
X32268738Y-57097381D01*
X32216563Y-57051625D01*
X32197144Y-56985000D01*
X32216563Y-56918375D01*
X32268739Y-56872618D01*
X32382677Y-56819488D01*
X32564781Y-56691977D01*
X32721977Y-56534781D01*
X32849488Y-56352677D01*
X32943440Y-56151196D01*
X33000978Y-55936463D01*
X33020353Y-55715000D01*
X33000978Y-55493537D01*
X32943440Y-55278804D01*
X32849488Y-55077324D01*
X32721977Y-54895219D01*
X32564781Y-54738023D01*
X32382677Y-54610512D01*
X32268738Y-54557381D01*
X32216563Y-54511625D01*
X32197144Y-54445000D01*
X32216563Y-54378375D01*
X32268739Y-54332618D01*
X32382677Y-54279488D01*
X32564781Y-54151977D01*
X32721977Y-53994781D01*
X32849488Y-53812677D01*
X32943440Y-53611196D01*
X33000978Y-53396463D01*
X33020353Y-53175000D01*
X33000978Y-52953537D01*
X32943440Y-52738804D01*
X32849488Y-52537324D01*
X32721977Y-52355219D01*
X32564781Y-52198023D01*
X32382677Y-52070512D01*
X32268738Y-52017381D01*
X32216563Y-51971625D01*
X32197144Y-51905000D01*
X32216563Y-51838375D01*
X32268739Y-51792618D01*
X32382677Y-51739488D01*
X32564781Y-51611977D01*
X32721977Y-51454781D01*
X32849488Y-51272677D01*
X32943440Y-51071196D01*
X33000978Y-50856463D01*
X33020353Y-50635000D01*
X33000978Y-50413537D01*
X32943440Y-50198804D01*
X32849488Y-49997324D01*
X32721977Y-49815219D01*
X32564781Y-49658023D01*
X32382677Y-49530512D01*
X32268738Y-49477381D01*
X32216563Y-49431625D01*
X32197144Y-49365000D01*
X32216563Y-49298375D01*
X32268739Y-49252618D01*
X32382677Y-49199488D01*
X32564781Y-49071977D01*
X32721977Y-48914781D01*
X32849488Y-48732677D01*
X32943440Y-48531196D01*
X33000978Y-48316463D01*
X33020353Y-48095000D01*
X33000978Y-47873537D01*
X32943440Y-47658804D01*
X32849488Y-47457324D01*
X32721977Y-47275219D01*
X32564781Y-47118023D01*
X32382677Y-46990512D01*
X32268738Y-46937381D01*
X32216563Y-46891625D01*
X32197144Y-46825000D01*
X32216563Y-46758375D01*
X32268739Y-46712618D01*
X32382677Y-46659488D01*
X32564781Y-46531977D01*
X32721977Y-46374781D01*
X32849488Y-46192677D01*
X32943440Y-45991196D01*
X33000978Y-45776463D01*
X33020353Y-45555000D01*
X33000978Y-45333537D01*
X32943440Y-45118804D01*
X32849488Y-44917324D01*
X32721977Y-44735219D01*
X32564781Y-44578023D01*
X32382677Y-44450512D01*
X32268738Y-44397381D01*
X32216563Y-44351625D01*
X32197144Y-44285000D01*
X32216563Y-44218375D01*
X32268739Y-44172618D01*
X32382677Y-44119488D01*
X32564781Y-43991977D01*
X32721977Y-43834781D01*
X32849488Y-43652677D01*
X32943440Y-43451196D01*
X33000978Y-43236463D01*
X33020353Y-43015000D01*
X33000978Y-42793537D01*
X32943440Y-42578804D01*
X32849488Y-42377324D01*
X32721977Y-42195219D01*
X32564781Y-42038023D01*
X32382677Y-41910512D01*
X32268738Y-41857381D01*
X32216563Y-41811625D01*
X32197144Y-41745000D01*
X32216563Y-41678375D01*
X32268739Y-41632618D01*
X32382677Y-41579488D01*
X32564781Y-41451977D01*
X32721977Y-41294781D01*
X32849488Y-41112677D01*
X32943440Y-40911196D01*
X33000978Y-40696463D01*
X33020353Y-40475000D01*
X33000978Y-40253537D01*
X32943440Y-40038804D01*
X32849488Y-39837324D01*
X32721977Y-39655219D01*
X32564781Y-39498023D01*
X32382677Y-39370512D01*
X32268738Y-39317381D01*
X32216563Y-39271625D01*
X32197144Y-39205000D01*
X32216563Y-39138375D01*
X32268739Y-39092618D01*
X32271137Y-39091500D01*
X32382677Y-39039488D01*
X32564781Y-38911977D01*
X32721977Y-38754781D01*
X32849488Y-38572677D01*
X32943440Y-38371196D01*
X33000978Y-38156463D01*
X33020353Y-37935000D01*
X33000978Y-37713537D01*
X32943440Y-37498804D01*
X32849488Y-37297324D01*
X32721977Y-37115219D01*
X32564781Y-36958023D01*
X32382677Y-36830512D01*
X32268738Y-36777381D01*
X32216563Y-36731625D01*
X32197144Y-36665000D01*
X32216563Y-36598375D01*
X32268739Y-36552618D01*
X32382677Y-36499488D01*
X32564781Y-36371977D01*
X32721977Y-36214781D01*
X32849488Y-36032677D01*
X32943440Y-35831196D01*
X33000978Y-35616463D01*
X33020353Y-35395000D01*
X33000978Y-35173537D01*
X32943440Y-34958804D01*
X32849488Y-34757324D01*
X32721977Y-34575219D01*
X32564781Y-34418023D01*
X32382677Y-34290512D01*
X32268738Y-34237381D01*
X32216563Y-34191625D01*
X32197144Y-34125000D01*
X32216563Y-34058375D01*
X32268739Y-34012618D01*
X32382677Y-33959488D01*
X32564781Y-33831977D01*
X32721977Y-33674781D01*
X32849488Y-33492677D01*
X32943440Y-33291196D01*
X33000978Y-33076463D01*
X33020353Y-32855000D01*
X33000978Y-32633537D01*
X32943440Y-32418804D01*
X32849488Y-32217324D01*
X32721977Y-32035219D01*
X32564781Y-31878023D01*
X32382677Y-31750512D01*
X32268738Y-31697381D01*
X32216563Y-31651625D01*
X32197144Y-31585000D01*
X32216563Y-31518375D01*
X32268739Y-31472618D01*
X32382677Y-31419488D01*
X32564781Y-31291977D01*
X32721977Y-31134781D01*
X32849488Y-30952677D01*
X32943440Y-30751196D01*
X33000978Y-30536463D01*
X33020353Y-30315000D01*
X33000978Y-30093537D01*
X32943440Y-29878804D01*
X32849488Y-29677324D01*
X32721977Y-29495219D01*
X32564781Y-29338023D01*
X32382677Y-29210512D01*
X32221554Y-29135379D01*
X32181197Y-29116560D01*
X31966460Y-29059021D01*
X31745000Y-29039646D01*
X31523539Y-29059021D01*
X31308802Y-29116560D01*
X31107323Y-29210512D01*
X30925218Y-29338023D01*
X30768023Y-29495218D01*
X30640512Y-29677323D01*
X30546560Y-29878802D01*
X30489021Y-30093539D01*
X30469646Y-30315000D01*
X30489021Y-30536460D01*
X30546560Y-30751197D01*
X30585473Y-30834646D01*
X30640512Y-30952677D01*
X30768023Y-31134781D01*
X30925219Y-31291977D01*
X31107323Y-31419488D01*
X31178178Y-31452528D01*
X31221260Y-31472618D01*
X31273436Y-31518375D01*
X31292855Y-31585000D01*
X31273436Y-31651625D01*
X31221260Y-31697382D01*
X31107323Y-31750512D01*
X30925218Y-31878023D01*
X30768023Y-32035218D01*
X30640512Y-32217323D01*
X30546560Y-32418802D01*
X30489021Y-32633539D01*
X30469646Y-32855000D01*
X30489021Y-33076460D01*
X30546560Y-33291197D01*
X30581431Y-33365978D01*
X30640512Y-33492677D01*
X30768023Y-33674781D01*
X30925219Y-33831977D01*
X31107323Y-33959488D01*
X31188293Y-33997245D01*
X31221260Y-34012618D01*
X31273436Y-34058375D01*
X31292855Y-34125000D01*
X31273436Y-34191625D01*
X31221260Y-34237382D01*
X31107323Y-34290512D01*
X30925218Y-34418023D01*
X30768023Y-34575218D01*
X30640512Y-34757323D01*
X30546560Y-34958802D01*
X30489021Y-35173539D01*
X30469646Y-35394999D01*
X30489021Y-35616460D01*
X30546560Y-35831197D01*
X30573321Y-35888585D01*
X30640512Y-36032677D01*
X30768023Y-36214781D01*
X30925219Y-36371977D01*
X31107323Y-36499488D01*
X31188293Y-36537245D01*
X31221260Y-36552618D01*
X31273436Y-36598375D01*
X31292855Y-36665000D01*
X31273436Y-36731625D01*
X31221260Y-36777382D01*
X31107323Y-36830512D01*
X30925218Y-36958023D01*
X30768023Y-37115218D01*
X30640512Y-37297323D01*
X30546560Y-37498802D01*
X30489021Y-37713539D01*
X30469646Y-37935000D01*
X30489021Y-38156460D01*
X30546560Y-38371197D01*
X30554601Y-38388440D01*
X30640512Y-38572677D01*
X30768023Y-38754781D01*
X30925219Y-38911977D01*
X31107323Y-39039488D01*
X31188293Y-39077245D01*
X31221260Y-39092618D01*
X31273436Y-39138375D01*
X31292855Y-39205000D01*
X31273436Y-39271625D01*
X31221260Y-39317382D01*
X31107323Y-39370512D01*
X30925218Y-39498023D01*
X30768023Y-39655218D01*
X30640512Y-39837323D01*
X30546560Y-40038802D01*
X30489021Y-40253539D01*
X30469646Y-40474999D01*
X30489021Y-40696460D01*
X30546560Y-40911197D01*
X30581431Y-40985978D01*
X30640512Y-41112677D01*
X30768023Y-41294781D01*
X30925219Y-41451977D01*
X31107323Y-41579488D01*
X31188293Y-41617245D01*
X31221260Y-41632618D01*
X31273436Y-41678375D01*
X31292855Y-41745000D01*
X31273436Y-41811625D01*
X31221260Y-41857382D01*
X31107323Y-41910512D01*
X30925218Y-42038023D01*
X30768023Y-42195218D01*
X30640512Y-42377323D01*
X30546560Y-42578802D01*
X30489021Y-42793539D01*
X30469646Y-43014999D01*
X30489021Y-43236460D01*
X30546560Y-43451197D01*
X30587970Y-43540000D01*
X30640512Y-43652677D01*
X30768023Y-43834781D01*
X30925219Y-43991977D01*
X31107323Y-44119488D01*
X31188293Y-44157245D01*
X31221260Y-44172618D01*
X31273436Y-44218375D01*
X31292855Y-44285000D01*
X31273436Y-44351625D01*
X31221260Y-44397382D01*
X31107323Y-44450512D01*
X30925218Y-44578023D01*
X30768023Y-44735218D01*
X30640512Y-44917323D01*
X30546560Y-45118802D01*
X30489021Y-45333539D01*
X30469646Y-45555000D01*
X30489021Y-45776460D01*
X30546560Y-45991197D01*
X30581431Y-46065978D01*
X30640512Y-46192677D01*
X30768023Y-46374781D01*
X30925219Y-46531977D01*
X31107323Y-46659488D01*
X31188293Y-46697245D01*
X31221260Y-46712618D01*
X31273436Y-46758375D01*
X31292855Y-46825000D01*
X31273436Y-46891625D01*
X31221260Y-46937382D01*
X31107323Y-46990512D01*
X30925218Y-47118023D01*
X30768023Y-47275218D01*
X30640512Y-47457323D01*
X30546560Y-47658802D01*
X30489021Y-47873539D01*
X30469646Y-48094999D01*
X30489021Y-48316460D01*
X30546560Y-48531197D01*
X30581431Y-48605978D01*
X30640512Y-48732677D01*
X30768023Y-48914781D01*
X30925219Y-49071977D01*
X31107323Y-49199488D01*
X31187414Y-49236835D01*
X31221260Y-49252618D01*
X31273436Y-49298375D01*
X31292855Y-49365000D01*
X31273436Y-49431625D01*
X31221260Y-49477382D01*
X31107323Y-49530512D01*
X30925218Y-49658023D01*
X30768023Y-49815218D01*
X30640512Y-49997323D01*
X30546560Y-50198802D01*
X30489021Y-50413539D01*
X30469646Y-50634999D01*
X30489021Y-50856460D01*
X30546560Y-51071197D01*
X30578754Y-51140236D01*
X30640512Y-51272677D01*
X30768023Y-51454781D01*
X30925219Y-51611977D01*
X31107323Y-51739488D01*
X31188293Y-51777245D01*
X31221260Y-51792618D01*
X31273436Y-51838375D01*
X31292855Y-51905000D01*
X31273436Y-51971625D01*
X31221260Y-52017382D01*
X31107323Y-52070512D01*
X30925218Y-52198023D01*
X30768023Y-52355218D01*
X30640512Y-52537323D01*
X30546560Y-52738802D01*
X30489021Y-52953539D01*
X30469646Y-53175000D01*
X30489021Y-53396460D01*
X30546560Y-53611197D01*
X30592039Y-53708726D01*
X30640512Y-53812677D01*
X30768023Y-53994781D01*
X30925219Y-54151977D01*
X31107323Y-54279488D01*
X31188293Y-54317245D01*
X31221260Y-54332618D01*
X31273436Y-54378375D01*
X31292855Y-54445000D01*
X31273436Y-54511625D01*
X31221260Y-54557382D01*
X31107323Y-54610512D01*
X30925218Y-54738023D01*
X30768023Y-54895218D01*
X30640512Y-55077323D01*
X30546560Y-55278802D01*
X30489021Y-55493539D01*
X30469646Y-55715000D01*
X30489021Y-55936460D01*
X30546560Y-56151197D01*
X30591240Y-56247013D01*
X30640512Y-56352677D01*
X30768023Y-56534781D01*
X30925219Y-56691977D01*
X31107323Y-56819488D01*
X31188293Y-56857245D01*
X31221260Y-56872618D01*
X31273436Y-56918375D01*
X31292855Y-56985000D01*
X31273436Y-57051625D01*
X31221260Y-57097382D01*
X31107323Y-57150512D01*
X30925218Y-57278023D01*
X30768023Y-57435218D01*
X30640512Y-57617323D01*
X30546560Y-57818802D01*
X30489021Y-58033539D01*
X30469646Y-58254999D01*
X29000500Y-58254999D01*
X29000500Y-28002424D01*
X29000596Y-27997556D01*
X29009975Y-27758833D01*
X29009985Y-27758577D01*
X29019529Y-27527822D01*
X29020278Y-27518432D01*
X29048869Y-27276868D01*
X29077442Y-27047650D01*
X29078868Y-27038825D01*
X29126313Y-26800302D01*
X29126430Y-26799730D01*
X29173826Y-26573687D01*
X29175820Y-26565569D01*
X29192902Y-26505000D01*
X31231601Y-26505000D01*
X31251154Y-26716020D01*
X31309149Y-26919850D01*
X31403608Y-27109551D01*
X31531323Y-27278672D01*
X31687932Y-27421440D01*
X31687934Y-27421441D01*
X31687935Y-27421442D01*
X31868115Y-27533005D01*
X32065726Y-27609560D01*
X32274039Y-27648500D01*
X32485959Y-27648500D01*
X32485961Y-27648500D01*
X32694274Y-27609560D01*
X32891885Y-27533005D01*
X33072065Y-27421442D01*
X33228677Y-27278671D01*
X33356389Y-27109554D01*
X33356389Y-27109552D01*
X33356391Y-27109551D01*
X33450850Y-26919850D01*
X33508845Y-26716020D01*
X33513901Y-26661454D01*
X33528399Y-26505000D01*
X33511037Y-26317636D01*
X33508845Y-26293979D01*
X33450850Y-26090149D01*
X33356391Y-25900448D01*
X33228676Y-25731327D01*
X33072067Y-25588559D01*
X32891885Y-25476995D01*
X32763251Y-25427162D01*
X32694274Y-25400440D01*
X32485961Y-25361500D01*
X32274039Y-25361500D01*
X32065726Y-25400439D01*
X32065726Y-25400440D01*
X31868114Y-25476995D01*
X31687932Y-25588559D01*
X31531323Y-25731327D01*
X31403608Y-25900448D01*
X31309149Y-26090149D01*
X31251154Y-26293979D01*
X31231601Y-26505000D01*
X29192902Y-26505000D01*
X29241770Y-26331727D01*
X29242178Y-26330318D01*
X29308043Y-26109085D01*
X29310529Y-26101617D01*
X29394623Y-25873669D01*
X29395334Y-25871799D01*
X29479215Y-25656830D01*
X29482093Y-25650059D01*
X29583790Y-25429461D01*
X29584881Y-25427162D01*
X29686260Y-25219789D01*
X29689405Y-25213788D01*
X29808082Y-25001874D01*
X29809621Y-24999209D01*
X29927774Y-24800923D01*
X29931127Y-24795613D01*
X30066073Y-24593654D01*
X30068123Y-24590686D01*
X30202228Y-24402860D01*
X30205673Y-24398271D01*
X30356004Y-24207576D01*
X30358676Y-24204305D01*
X30507835Y-24028194D01*
X30511302Y-24024277D01*
X30676126Y-23845971D01*
X30679401Y-23842566D01*
X30842567Y-23679400D01*
X30845971Y-23676126D01*
X31024277Y-23511302D01*
X31028194Y-23507835D01*
X31204305Y-23358676D01*
X31207576Y-23356004D01*
X31398271Y-23205673D01*
X31402860Y-23202228D01*
X31590686Y-23068123D01*
X31593654Y-23066073D01*
X31795613Y-22931127D01*
X31800923Y-22927774D01*
X31999209Y-22809621D01*
X32001874Y-22808082D01*
X32213788Y-22689405D01*
X32219789Y-22686260D01*
X32427162Y-22584881D01*
X32429461Y-22583790D01*
X32650059Y-22482093D01*
X32656830Y-22479215D01*
X32871799Y-22395334D01*
X32873669Y-22394623D01*
X33101617Y-22310529D01*
X33109085Y-22308043D01*
X33330318Y-22242178D01*
X33331727Y-22241770D01*
X33565569Y-22175820D01*
X33573687Y-22173826D01*
X33799730Y-22126430D01*
X33800302Y-22126313D01*
X34038825Y-22078868D01*
X34047650Y-22077442D01*
X34276868Y-22048869D01*
X34518432Y-22020278D01*
X34527822Y-22019529D01*
X34758428Y-22009991D01*
X34758577Y-22009985D01*
X34758579Y-22010044D01*
X34758823Y-22009975D01*
X34997556Y-22000596D01*
X35002424Y-22000500D01*
X94997575Y-22000500D01*
X95002442Y-22000596D01*
G37*
%TD.AperFunction*%
%TD*%
M02*
